<svg width="120" height="125" viewBox="0 0 120 125" fill="none" xmlns="http://www.w3.org/2000/svg">
    <g>
        <path d="M81.4218 73.3088C89.7038 87.0183 93.4612 98.0423 90.0988 100.581C87.2327 102.736 79.8759 98.2341 71.0296 89.6022C69.1566 101.822 65.9972 109.845 62.4091 109.845C58.6178 109.845 55.3004 100.897 53.4725 87.5147C43.2835 96.3723 34.8773 100.897 32.0339 98.4033C28.9648 95.7066 33.1509 85.5965 41.828 73.1396C26.7419 71.4245 16.3837 67.904 16.3837 63.8194C16.3837 59.7348 27.4528 55.9774 43.3851 54.3413C35.103 40.6318 31.3456 29.6078 34.7081 27.069C37.5741 24.9026 44.9309 29.4047 53.7772 38.0366C55.6502 25.8279 58.8209 17.8053 62.4091 17.8053C66.189 17.8053 69.5177 26.7531 71.3343 40.1241C81.5346 31.2778 89.9295 26.7531 92.7729 29.2468C95.8421 31.9322 91.6559 42.0423 82.9789 54.5105C98.0649 56.2256 108.423 59.7461 108.423 63.8194C108.423 67.8927 97.354 71.6727 81.4218 73.3088Z" fill="#1D1D1B" stroke="#1D1D1B" stroke-miterlimit="10"/>
        <path d="M81.3088 73.1734C89.5909 86.8829 93.3483 97.9069 89.9858 100.446C87.1198 102.601 79.763 98.0987 70.9167 89.4668C69.0437 101.687 65.8843 109.709 62.2961 109.709C58.5049 109.709 55.1875 100.762 53.3596 87.3794C43.1706 96.2369 34.7644 100.762 31.921 98.2679C28.8519 95.5712 33.038 85.4612 41.715 73.0042C26.629 71.2891 16.2708 67.7687 16.2708 63.684C16.2708 59.5994 27.3399 55.842 43.2722 54.2059C34.9901 40.4964 31.2327 29.4725 34.5952 26.9337C37.4612 24.7672 44.818 29.2694 53.6643 37.9012C55.5373 25.6925 58.708 17.6699 62.2961 17.6699C66.0761 17.6699 69.4047 26.6177 71.2214 39.9887C81.4217 31.1424 89.8166 26.6177 92.66 29.1114C95.7291 31.7969 91.543 41.9069 82.866 54.3751C97.952 56.0902 108.31 59.6107 108.31 63.684C108.31 67.7574 97.2411 71.5373 81.3088 73.1734Z" fill="#1C2621" stroke="#1C1C1A" stroke-miterlimit="10"/>
        <path d="M81.1848 73.0381C89.4669 86.7475 93.2243 97.7715 89.8618 100.31C86.9958 102.465 79.639 97.9633 70.7927 89.3314C68.9196 101.551 65.7603 109.574 62.1721 109.574C58.3809 109.574 55.0635 100.626 53.2356 87.244C43.0466 96.1015 34.6404 100.626 31.7969 98.1326C28.7278 95.4358 32.914 85.3258 41.591 72.8688C26.505 71.1537 16.1467 67.6333 16.1467 63.5486C16.1467 59.464 27.2158 55.7066 43.1481 54.0705C34.8661 40.3611 31.1086 29.3371 34.4711 26.7983C37.3371 24.6319 44.694 29.134 53.5402 37.7659C55.4133 25.5571 58.584 17.5345 62.1721 17.5345C65.9521 17.5345 69.2807 26.4824 71.0974 39.8533C81.2976 31.007 89.6926 26.4824 92.536 28.976C95.6051 31.6615 91.4189 41.7715 82.7419 54.2398C97.828 55.9549 108.186 59.4753 108.186 63.5486C108.186 67.622 97.1171 71.402 81.1848 73.0381Z" fill="#1A3026" stroke="#1A1A18" stroke-miterlimit="10"/>
        <path d="M81.0607 72.9139C89.3428 86.6234 93.1002 97.6474 89.7377 100.186C86.8717 102.341 79.5148 97.8392 70.6686 89.2073C68.7955 101.427 65.6361 109.45 62.048 109.45C58.2567 109.45 54.9394 100.502 53.1114 87.1199C42.9224 95.9774 34.5162 100.502 31.6728 98.0084C28.6037 95.3117 32.7899 85.2017 41.4669 72.7447C26.3808 71.0296 16.0226 67.5091 16.0226 63.4245C16.0226 59.3399 27.0917 55.5825 43.024 53.9464C34.7419 40.2369 30.9845 29.2129 34.347 26.6742C37.213 24.5077 44.5698 29.0098 53.4161 37.6417C55.2892 25.433 58.4598 17.4104 62.048 17.4104C65.8279 17.4104 69.1566 26.3582 70.9732 39.7292C81.1735 30.8829 89.5684 26.3582 92.4119 28.8519C95.481 31.5373 91.2948 41.6474 82.6178 54.1156C97.7038 55.8307 108.062 59.3512 108.062 63.4245C108.062 67.4978 96.993 71.2778 81.0607 72.9139Z" fill="#19392C" stroke="#191917" stroke-miterlimit="10"/>
        <path d="M80.9365 72.7785C89.2186 86.488 92.976 97.512 89.6135 100.051C86.7475 102.206 79.3907 97.7038 70.5444 89.0719C68.6714 101.292 65.512 109.315 61.9238 109.315C58.1326 109.315 54.8152 100.367 52.9873 86.9845C42.7983 95.842 34.3921 100.367 31.5486 97.873C28.4795 95.1763 32.6657 85.0663 41.3427 72.6093C26.2567 70.8942 15.8984 67.3738 15.8984 63.2891C15.8984 59.2045 26.9675 55.4471 42.8998 53.811C34.6178 40.1015 30.8604 29.0776 34.2228 26.5388C37.0888 24.3723 44.4457 28.8745 53.292 37.5063C55.165 25.2976 58.3357 17.275 61.9238 17.275C65.7038 17.275 69.0324 26.2228 70.8491 39.5938C81.0494 30.7475 89.4443 26.2228 92.2877 28.7165C95.3568 31.402 91.1707 41.512 82.4936 53.9802C97.5797 55.6953 107.938 59.2158 107.938 63.2891C107.938 67.3625 96.8688 71.1424 80.9365 72.7785Z" fill="#184232" stroke="#171716" stroke-miterlimit="10"/>
        <path d="M80.8124 72.6432C89.0945 86.3526 92.8519 97.3766 89.4894 99.9154C86.6234 102.071 79.2665 97.5684 70.4203 88.9365C68.5472 101.157 65.3878 109.179 61.7997 109.179C58.0084 109.179 54.6911 100.231 52.8631 86.8491C42.6742 95.7066 34.2679 100.231 31.4245 97.7377C28.3554 95.0409 32.5416 84.9309 41.2186 72.4739C26.1325 70.7588 15.7743 67.2384 15.7743 63.1538C15.7743 59.0691 26.8434 55.3117 42.7757 53.6756C34.4936 39.9662 30.7362 28.9422 34.0987 26.4034C36.9647 24.237 44.3215 28.7391 53.1678 37.371C55.0409 25.1622 58.2115 17.1396 61.7997 17.1396C65.5797 17.1396 68.9083 26.0875 70.7249 39.4584C80.9252 30.6121 89.3201 26.0875 92.1636 28.5811C95.2327 31.2666 91.0465 41.3766 82.3695 53.8449C97.4555 55.56 107.814 59.0804 107.814 63.1538C107.814 67.2271 96.7447 71.0071 80.8124 72.6432Z" fill="#164B38" stroke="#161614" stroke-miterlimit="10"/>
        <path d="M80.6996 72.5078C88.9817 86.2172 92.7391 97.2412 89.3766 99.78C86.5106 101.935 79.1537 97.433 70.3075 88.8012C68.4344 101.021 65.275 109.044 61.6869 109.044C57.8956 109.044 54.5783 100.096 52.7504 86.7137C42.5614 95.5713 34.1552 100.096 31.3117 97.6023C28.2426 94.9055 32.4288 84.7955 41.1058 72.3385C26.0197 70.6235 15.6615 67.103 15.6615 63.0184C15.6615 58.9338 26.7306 55.1763 42.6629 53.5402C34.3808 39.8308 30.6234 28.8068 33.9859 26.268C36.8519 24.1016 44.2087 28.6037 53.055 37.2356C54.9281 25.0268 58.0987 17.0043 61.6869 17.0043C65.4669 17.0043 68.7955 25.9521 70.6121 39.323C80.8124 30.4768 89.2073 25.9521 92.0508 28.4457C95.1199 31.1312 90.9337 41.2412 82.2567 53.7095C97.3427 55.4246 107.701 58.945 107.701 63.0184C107.701 67.0917 96.6319 70.8717 80.6996 72.5078Z" fill="#15553D" stroke="#141413" stroke-miterlimit="10"/>
        <path d="M80.5754 72.3723C88.8575 86.0817 92.6149 97.1057 89.2524 99.6445C86.3864 101.8 79.0296 97.2975 70.1833 88.6657C68.3103 100.886 65.1509 108.908 61.5627 108.908C57.7715 108.908 54.4541 99.9605 52.6262 86.5782C42.4372 95.4358 34.031 99.9604 31.1876 97.4668C28.1185 94.77 32.3046 84.66 40.9816 72.203C25.8956 70.488 15.5374 66.9675 15.5374 62.8829C15.5374 58.7983 26.6065 55.0408 42.5388 53.4047C34.2567 39.6953 30.4993 28.6713 33.8618 26.1325C36.7278 23.9661 44.0846 28.4682 52.9309 37.1001C54.8039 24.8913 57.9746 16.8688 61.5627 16.8688C65.3427 16.8688 68.6713 25.8166 70.488 39.1875C80.6883 30.3413 89.0832 25.8166 91.9266 28.3102C94.9957 30.9957 90.8096 41.1057 82.1326 53.574C97.2186 55.2891 107.577 58.8095 107.577 62.8829C107.577 66.9562 96.5077 70.7362 80.5754 72.3723Z" fill="#145E43" stroke="#131312" stroke-miterlimit="10"/>
        <path d="M80.4513 72.2369C88.7334 85.9464 92.4908 96.9704 89.1283 99.5091C86.2623 101.664 78.9054 97.1622 70.0592 88.5303C68.1861 100.75 65.0267 108.773 61.4386 108.773C57.6473 108.773 54.33 99.8251 52.5021 86.4428C42.3131 95.3004 33.9069 99.8251 31.0634 97.3314C27.9943 94.6347 32.1805 84.5247 40.8575 72.0677C25.7715 70.3526 15.4132 66.8321 15.4132 62.7475C15.4132 58.6629 26.4823 54.9055 42.4146 53.2694C34.1325 39.5599 30.3751 28.5359 33.7376 25.9972C36.6036 23.8307 43.9605 28.3328 52.8067 36.9647C54.6798 24.756 57.8504 16.7334 61.4386 16.7334C65.2186 16.7334 68.5472 25.6812 70.3638 39.0522C80.5641 30.2059 88.959 25.6812 91.8025 28.1749C94.8716 30.8603 90.6854 40.9704 82.0084 53.4386C97.0945 55.1537 107.453 58.6742 107.453 62.7475C107.453 66.8208 96.3836 70.6008 80.4513 72.2369Z" fill="#136749" stroke="#111110" stroke-miterlimit="10"/>
        <path d="M80.3273 72.1016C88.6094 85.811 92.3668 96.835 89.0043 99.3738C86.1383 101.529 78.7814 97.0268 69.9352 88.3949C68.0621 100.615 64.9027 108.638 61.3146 108.638C57.5233 108.638 54.206 99.6897 52.378 86.3075C42.189 95.165 33.7828 99.6897 30.9394 97.196C27.8703 94.4993 32.0565 84.3893 40.7335 71.9323C25.6474 70.2172 15.2892 66.6968 15.2892 62.6121C15.2892 58.5275 26.3583 54.7701 42.2906 53.134C34.0085 39.4245 30.2511 28.4006 33.6136 25.8618C36.4796 23.6953 43.8364 28.1975 52.6827 36.8293C54.5558 24.6206 57.7264 16.598 61.3146 16.598C65.0945 16.598 68.4232 25.5458 70.2398 38.9168C80.4401 30.0705 88.835 25.5458 91.6785 28.0395C94.7476 30.725 90.5614 40.835 81.8844 53.3032C96.9704 55.0183 107.329 58.5388 107.329 62.6121C107.329 66.6855 96.2596 70.4654 80.3273 72.1016Z" fill="#11704E" stroke="#10100F" stroke-miterlimit="10"/>
        <path d="M80.2031 71.9662C88.4852 85.6756 92.2426 96.6996 88.8801 99.2384C86.0141 101.394 78.6573 96.8914 69.811 88.2595C67.938 100.48 64.7786 108.502 61.1904 108.502C57.3992 108.502 54.0818 99.5543 52.2539 86.1721C42.0649 95.0296 33.6587 99.5543 30.8153 97.0607C27.7461 94.3639 31.9323 84.2539 40.6093 71.7969C25.5233 70.0818 15.165 66.5614 15.165 62.4767C15.165 58.3921 26.2342 54.6347 42.1665 52.9986C33.8844 39.2892 30.127 28.2652 33.4894 25.7264C36.3554 23.56 43.7123 28.0621 52.5586 36.694C54.4316 24.4852 57.6023 16.4626 61.1904 16.4626C64.9704 16.4626 68.299 25.4105 70.1157 38.7814C80.316 29.9351 88.7109 25.4105 91.5543 27.9041C94.6234 30.5896 90.4373 40.6996 81.7602 53.1679C96.8463 54.883 107.205 58.4034 107.205 62.4767C107.205 66.5501 96.1354 70.3301 80.2031 71.9662Z" fill="#107954" stroke="#0F0F0E" stroke-miterlimit="10"/>
        <path d="M80.0903 71.8307C88.3724 85.5401 92.1298 96.5641 88.7673 99.1029C85.9013 101.258 78.5445 96.7559 69.6982 88.124C67.8252 100.344 64.6658 108.367 61.0776 108.367C57.2864 108.367 53.969 99.4188 52.1411 86.0366C41.9521 94.8941 33.5459 99.4188 30.7025 96.9252C27.6333 94.2284 31.8195 84.1184 40.4965 71.6614C25.4105 69.9463 15.0522 66.4259 15.0522 62.3413C15.0522 58.2566 26.1214 54.4992 42.0537 52.8631C33.7716 39.1537 30.0142 28.1297 33.3766 25.5909C36.2427 23.4245 43.5995 27.9266 52.4458 36.5585C54.3188 24.3497 57.4895 16.3271 61.0776 16.3271C64.8576 16.3271 68.1862 25.275 70.0029 38.6459C80.2032 29.7996 88.5981 25.275 91.4415 27.7686C94.5106 30.4541 90.3245 40.5641 81.6475 53.0324C96.7335 54.7475 107.092 58.2679 107.092 62.3413C107.092 66.4146 96.0226 70.1946 80.0903 71.8307Z" fill="#0F835A" stroke="#0D0D0C" stroke-miterlimit="10"/>
        <path d="M79.9662 71.6953C88.2483 85.4047 92.0057 96.4287 88.6432 98.9675C85.7772 101.123 78.4203 96.6206 69.5741 87.9887C67.701 100.209 64.5416 108.231 60.9535 108.231C57.1622 108.231 53.8449 99.2834 52.017 85.9012C41.828 94.7588 33.4218 99.2834 30.5783 96.7898C27.5092 94.093 31.6954 83.983 40.3724 71.526C25.2864 69.811 14.9281 66.2905 14.9281 62.2059C14.9281 58.1213 25.9972 54.3638 41.9295 52.7277C33.6474 39.0183 29.89 27.9943 33.2525 25.4555C36.1185 23.2891 43.4753 27.7912 52.3216 36.4231C54.1947 24.2143 57.3653 16.1918 60.9535 16.1918C64.7335 16.1918 68.0621 25.1396 69.8787 38.5105C80.079 29.6643 88.4739 25.1396 91.3174 27.6332C94.3865 30.3187 90.2003 40.4287 81.5233 52.897C96.6093 54.6121 106.968 58.1325 106.968 62.2059C106.968 66.2792 95.8985 70.0592 79.9662 71.6953Z" fill="#0D8C5F" stroke="#0C0C0B" stroke-miterlimit="10"/>
        <path d="M79.842 71.5599C88.1241 85.2694 91.8815 96.2934 88.519 98.8321C85.653 100.987 78.2962 96.4852 69.4499 87.8533C67.5769 100.073 64.4175 108.096 60.8293 108.096C57.0381 108.096 53.7207 99.1481 51.8928 85.7658C41.7038 94.6234 33.2976 99.1481 30.4542 96.6544C27.3851 93.9577 31.5712 83.8476 40.2482 71.3907C25.1622 69.6756 14.804 66.1551 14.804 62.0705C14.804 57.9859 25.8731 54.2285 41.8054 52.5924C33.5233 38.8829 29.7659 27.8589 33.1284 25.3201C35.9944 23.1537 43.3512 27.6558 52.1975 36.2877C54.0705 24.079 57.2412 16.0564 60.8293 16.0564C64.6093 16.0564 67.9379 25.0042 69.7546 38.3752C79.9549 29.5289 88.3498 25.0042 91.1932 27.4979C94.2623 30.1833 90.0762 40.2933 81.3992 52.7616C96.4852 54.4767 106.843 57.9972 106.843 62.0705C106.843 66.1438 95.7743 69.9238 79.842 71.5599Z" fill="#0C9565" stroke="#0A0A09" stroke-miterlimit="10"/>
        <path d="M79.7179 71.4245C88 85.134 91.7574 96.158 88.3949 98.6968C85.5289 100.852 78.1721 96.3498 69.3258 87.7179C67.4527 99.9379 64.2934 107.961 60.7052 107.961C56.9139 107.961 53.5966 99.0127 51.7687 85.6305C41.5797 94.488 33.1735 99.0127 30.33 96.519C27.2609 93.8223 31.4471 83.7123 40.1241 71.2553C25.0381 69.5402 14.6798 66.0197 14.6798 61.9351C14.6798 57.8505 25.7489 54.0931 41.6812 52.457C33.3991 38.7475 29.6417 27.7236 33.0042 25.1848C35.8702 23.0183 43.2271 27.5205 52.0733 36.1523C53.9464 23.9436 57.117 15.921 60.7052 15.921C64.4852 15.921 67.8138 24.8688 69.6304 38.2398C79.8307 29.3935 88.2256 24.8688 91.0691 27.3625C94.1382 30.048 89.952 40.158 81.275 52.6262C96.361 54.3413 106.719 57.8618 106.719 61.9351C106.719 66.0085 95.6502 69.7884 79.7179 71.4245Z" fill="#0B9E6B" stroke="#090908" stroke-miterlimit="10"/>
        <path d="M79.5937 71.3004C87.8758 85.0098 91.6332 96.0338 88.2708 98.5726C85.4047 100.728 78.0479 96.2256 69.2016 87.5938C67.3286 99.8138 64.1692 107.836 60.5811 107.836C56.7898 107.836 53.4725 98.8885 51.6445 85.5063C41.4555 94.3639 33.0493 98.8885 30.2059 96.3949C27.1368 93.6981 31.3229 83.5881 40 71.1311C24.9139 69.4161 14.5557 65.8956 14.5557 61.811C14.5557 57.7264 25.6248 53.9689 41.5571 52.3328C33.275 38.6234 29.5176 27.5994 32.8801 25.0606C35.7461 22.8942 43.1029 27.3963 51.9492 36.0282C53.8222 23.8194 56.9929 15.7969 60.5811 15.7969C64.361 15.7969 67.6897 24.7447 69.5063 38.1156C79.7066 29.2694 88.1015 24.7447 90.9449 27.2383C94.0141 29.9238 89.8279 40.0338 81.1509 52.5021C96.2369 54.2172 106.595 57.7376 106.595 61.811C106.595 65.8843 95.526 69.6643 79.5937 71.3004Z" fill="#0AA870" stroke="#070707" stroke-miterlimit="10"/>
        <path d="M79.481 71.165C87.763 84.8745 91.5204 95.8985 88.158 98.4372C85.2919 100.592 77.9351 96.0903 69.0889 87.4584C67.2158 99.6784 64.0564 107.701 60.4683 107.701C56.677 107.701 53.3597 98.7532 51.5317 85.3709C41.3427 94.2285 32.9365 98.7532 30.0931 96.2595C27.024 93.5628 31.2101 83.4528 39.8872 70.9958C24.8011 69.2807 14.4429 65.7602 14.4429 61.6756C14.4429 57.591 25.512 53.8336 41.4443 52.1975C33.1622 38.488 29.4048 27.464 32.7673 24.9253C35.6333 22.7588 42.9901 27.2609 51.8364 35.8928C53.7094 23.6841 56.8801 15.6615 60.4683 15.6615C64.2482 15.6615 67.5769 24.6093 69.3935 37.9803C79.5938 29.134 87.9887 24.6093 90.8321 27.103C93.9013 29.7884 89.7151 39.8985 81.0381 52.3667C96.1241 54.0818 106.482 57.6023 106.482 61.6756C106.482 65.7489 95.4133 69.5289 79.481 71.165Z" fill="#08B176" stroke="#060605" stroke-miterlimit="10"/>
        <path d="M79.3568 71.0297C87.6389 84.7391 91.3963 95.7631 88.0338 98.3019C85.1678 100.457 77.811 95.9549 68.9647 87.323C67.0916 99.543 63.9323 107.566 60.3441 107.566C56.5529 107.566 53.2355 98.6178 51.4076 85.2356C41.2186 94.0931 32.8124 98.6178 29.9689 96.1241C26.8998 93.4274 31.086 83.3174 39.763 70.8604C24.677 69.1453 14.3187 65.6249 14.3187 61.5402C14.3187 57.4556 25.3878 53.6982 41.3201 52.0621C33.038 38.3526 29.2806 27.3287 32.6431 24.7899C35.5091 22.6234 42.866 27.1256 51.7122 35.7574C53.5853 23.5487 56.756 15.5261 60.3441 15.5261C64.1241 15.5261 67.4527 24.4739 69.2694 37.8449C79.4696 28.9986 87.8646 24.4739 90.708 26.9676C93.7771 29.6531 89.5909 39.7631 80.9139 52.2313C96 53.9464 106.358 57.4669 106.358 61.5402C106.358 65.6136 95.2891 69.3935 79.3568 71.0297Z" fill="#07BA7C" stroke="#040404" stroke-miterlimit="10"/>
        <path d="M79.2328 70.8942C87.5149 84.6036 91.2723 95.6276 87.9098 98.1664C85.0438 100.322 77.6869 95.8194 68.8407 87.1875C66.9676 99.4075 63.8082 107.43 60.2201 107.43C56.4288 107.43 53.1115 98.4823 51.2836 85.1001C41.0946 93.9576 32.6884 98.4823 29.8449 95.9886C26.7758 93.2919 30.962 83.1819 39.639 70.7249C24.553 69.0098 14.1947 65.4894 14.1947 61.4047C14.1947 57.3201 25.2638 53.5627 41.1961 51.9266C32.914 38.2171 29.1566 27.1932 32.5191 24.6544C35.3851 22.4879 42.742 26.9901 51.5882 35.6219C53.4613 23.4132 56.6319 15.3906 60.2201 15.3906C64.0001 15.3906 67.3287 24.3384 69.1453 37.7094C79.3456 28.8631 87.7405 24.3384 90.584 26.8321C93.6531 29.5176 89.4669 39.6276 80.7899 52.0958C95.8759 53.8109 106.234 57.3314 106.234 61.4047C106.234 65.4781 95.1651 69.258 79.2328 70.8942Z" fill="#06C382" stroke="#030303" stroke-miterlimit="10"/>
        <path d="M79.1086 70.7588C87.3907 84.4682 91.1481 95.4922 87.7857 98.031C84.9196 100.186 77.5628 95.684 68.7165 87.0521C66.8435 99.2722 63.6841 107.295 60.0959 107.295C56.3047 107.295 52.9873 98.3469 51.1594 84.9647C40.9704 93.8222 32.5642 98.3469 29.7208 95.8533C26.6517 93.1565 30.8378 83.0465 39.5148 70.5895C24.4288 68.8744 14.0706 65.354 14.0706 61.2693C14.0706 57.1847 25.1397 53.4273 41.072 51.7912C32.7899 38.0818 29.0325 27.0578 32.395 24.519C35.261 22.3526 42.6178 26.8547 51.4641 35.4866C53.3371 23.2778 56.5078 15.2552 60.0959 15.2552C63.8759 15.2552 67.2045 24.2031 69.0212 37.574C79.2215 28.7277 87.6164 24.2031 90.4598 26.6967C93.5289 29.3822 89.3428 39.4922 80.6658 51.9605C95.7518 53.6756 106.11 57.196 106.11 61.2693C106.11 65.3427 95.0409 69.1227 79.1086 70.7588Z" fill="#04CD87" stroke="#010101" stroke-miterlimit="10"/>
        <path d="M78.9845 70.6234C87.2666 84.3328 91.024 95.3568 87.6615 97.8956C84.7955 100.051 77.4387 95.5486 68.5924 86.9168C66.7193 99.1368 63.56 107.159 59.9718 107.159C56.1805 107.159 52.8632 98.2115 51.0353 84.8293C40.8463 93.6869 32.4401 98.2115 29.5966 95.7179C26.5275 93.0211 30.7137 82.9111 39.3907 70.4541C24.3047 68.7391 13.9464 65.2186 13.9464 61.134C13.9464 57.0494 25.0155 53.2919 40.9478 51.6558C32.6657 37.9464 28.9083 26.9224 32.2708 24.3836C35.1368 22.2172 42.4937 26.7193 51.3399 35.3512C53.213 23.1424 56.3836 15.1199 59.9718 15.1199C63.7518 15.1199 67.0804 24.0677 68.897 37.4386C79.0973 28.5924 87.4922 24.0677 90.3357 26.5613C93.4048 29.2468 89.2186 39.3568 80.5416 51.8251C95.6276 53.5402 105.986 57.0606 105.986 61.134C105.986 65.2073 94.9168 68.9873 78.9845 70.6234Z" fill="#03D68D" stroke="black" stroke-miterlimit="10"/>
    </g>
    <g>
        <path d="M113.061 77.1452L108.875 75.8025L109.303 74.4597L120 77.8786L118.906 81.2862C118.59 82.2792 118.037 82.9675 117.258 83.3398C116.48 83.7122 115.599 83.746 114.607 83.4301C113.58 83.1029 112.869 82.5838 112.485 81.8617C112.102 81.1396 112.056 80.2933 112.35 79.3003L113.038 77.1452H113.061ZM114.223 77.5175L113.568 79.5824C113.377 80.1805 113.41 80.6995 113.67 81.1283C113.93 81.557 114.392 81.8843 115.058 82.0986C115.701 82.3018 116.265 82.3018 116.762 82.0986C117.258 81.8955 117.597 81.5006 117.777 80.9365L118.443 78.8603L114.245 77.5175H114.223Z" fill="black"/>
        <path d="M107.374 90.9449C106.02 90.2341 105.117 89.3991 104.688 88.44C104.26 87.4809 104.316 86.4654 104.88 85.3935C105.41 84.3667 106.2 83.7461 107.216 83.5204C108.231 83.2947 109.405 83.5204 110.725 84.1749L112.598 85.1565C113.929 85.8561 114.821 86.6911 115.261 87.6727C115.712 88.6544 115.656 89.6699 115.103 90.7306C114.561 91.7799 113.771 92.4118 112.745 92.6149C111.718 92.818 110.533 92.5811 109.179 91.904L107.362 90.9562L107.374 90.9449ZM109.766 90.6064C110.815 91.1593 111.695 91.3963 112.384 91.3173C113.072 91.2383 113.602 90.8434 113.975 90.1325C114.336 89.4442 114.347 88.7898 114.008 88.1579C113.67 87.5373 113.004 86.9506 111.989 86.4203L110.206 85.4837C109.19 84.9534 108.322 84.7277 107.599 84.7954C106.877 84.8631 106.336 85.2581 105.975 85.9576C105.614 86.6572 105.58 87.3117 105.896 87.8984C106.212 88.4964 106.877 89.0606 107.882 89.6022L109.743 90.5726L109.766 90.6064Z" fill="black"/>
        <path d="M101.303 91.5204L102.104 90.3582L111.334 96.7672L110.533 97.9294L101.303 91.5204Z" fill="black"/>
        <path d="M95.2102 98.7419L96.158 97.6925L105.591 100.152L99.1707 94.3526L100.119 93.3032L108.457 100.829L107.509 101.879L98.0311 99.3963L104.485 105.219L103.549 106.257L95.2102 98.7306V98.7419Z" fill="black"/>
        <path d="M94.9619 111.865L97.2751 110.025L91.0353 102.183L92.1411 101.303L98.3808 109.145L100.683 107.306L101.439 108.254L95.7179 112.812L94.9619 111.865Z" fill="black"/>
        <path d="M84.9196 109.518C85.2017 110.003 85.5402 110.296 85.9577 110.409C86.3639 110.51 86.9845 110.499 87.8195 110.341C88.6432 110.195 89.3202 110.149 89.8392 110.206C90.3582 110.262 90.8096 110.42 91.1819 110.657C91.5656 110.894 91.8815 111.244 92.141 111.684C92.5811 112.451 92.6939 113.241 92.4683 114.031C92.2426 114.821 91.7123 115.464 90.8773 115.949C90.3018 116.276 89.7264 116.446 89.1283 116.446C88.5416 116.446 87.9887 116.288 87.4922 115.972C86.9958 115.656 86.5783 115.227 86.2736 114.685L87.5035 113.975C87.8533 114.573 88.2595 114.956 88.7447 115.125C89.2186 115.283 89.7377 115.216 90.2793 114.9C90.7757 114.618 91.0804 114.257 91.1932 113.828C91.3061 113.399 91.2158 112.925 90.9337 112.429C90.6967 112.022 90.347 111.763 89.8956 111.65C89.4443 111.537 88.8463 111.56 88.1015 111.695C86.9619 111.932 86.048 111.932 85.3709 111.707C84.6939 111.481 84.141 110.996 83.701 110.24C83.2496 109.45 83.1368 108.671 83.3738 107.904C83.6107 107.137 84.1749 106.494 85.055 105.986C85.6192 105.659 86.2172 105.478 86.8378 105.455C87.4584 105.433 88.0338 105.557 88.5642 105.85C89.0945 106.144 89.5233 106.573 89.8618 107.159L88.6319 107.87C88.2821 107.272 87.8533 106.9 87.323 106.753C86.7927 106.606 86.2398 106.708 85.6643 107.046C85.1227 107.351 84.7955 107.723 84.6826 108.164C84.5698 108.592 84.6488 109.055 84.9196 109.529V109.518Z" fill="black"/>
        <path d="M77.7772 109.687L81.0155 120.44L78.4542 121.207C77.2017 121.58 76.1072 121.489 75.1707 120.914C74.2454 120.338 73.5571 119.334 73.1284 117.912L72.5868 116.107C72.158 114.685 72.1805 113.478 72.6545 112.496C73.1284 111.503 74.031 110.815 75.3738 110.409L77.7772 109.687ZM79.3117 119.684L76.7729 111.244L75.6897 111.571C74.7419 111.853 74.1326 112.338 73.8505 113.015C73.5797 113.692 73.591 114.561 73.9069 115.633L74.4824 117.54C74.8209 118.668 75.2948 119.436 75.8815 119.842C76.4683 120.248 77.213 120.305 78.0931 120.045L79.3004 119.684H79.3117Z" fill="black"/>
        <path d="M64.8802 117.822L68.8181 117.292L68.2878 113.343L63.7067 113.963L63.5487 112.767L69.529 111.955L71.0297 123.08L65.1171 123.881L64.9591 122.685L69.4725 122.076L68.9874 118.488L65.0494 119.018L64.8914 117.822H64.8802Z" fill="black"/>
        <path d="M57.1509 113.929L52.7616 113.602L52.8519 112.395L58.6629 112.835L57.8279 124.028L56.4175 123.927L57.1622 113.941L57.1509 113.929Z" fill="black"/>
        <path d="M45.6756 113.828L49.3653 114.708L50.8886 112.045L52.299 112.384L46.1834 122.471L45.0099 122.189L44.0734 110.42L45.4838 110.759L45.6643 113.828H45.6756ZM48.7222 115.803L45.7433 115.092L46.0593 120.417L48.7222 115.803Z" fill="black"/>
        <path d="M34.2228 109.089C33.9746 109.585 33.9182 110.037 34.0536 110.443C34.189 110.849 34.5501 111.346 35.1368 111.955C35.7235 112.564 36.1298 113.094 36.3667 113.568C36.6037 114.031 36.7278 114.494 36.7278 114.945C36.7278 115.396 36.6262 115.848 36.4006 116.31C36.0056 117.111 35.4076 117.63 34.6178 117.879C33.8279 118.127 33.0042 118.037 32.1467 117.608C31.5599 117.315 31.0973 116.92 30.7701 116.423C30.4429 115.927 30.2736 115.385 30.251 114.798C30.2285 114.212 30.3752 113.625 30.646 113.072L31.9097 113.704C31.6051 114.324 31.5035 114.877 31.6389 115.374C31.763 115.859 32.1128 116.254 32.677 116.525C33.1848 116.784 33.6587 116.829 34.0762 116.694C34.5049 116.547 34.8434 116.22 35.103 115.701C35.3173 115.272 35.3399 114.843 35.1819 114.403C35.024 113.963 34.6855 113.478 34.1551 112.937C33.3314 112.113 32.8237 111.357 32.6432 110.669C32.4626 109.98 32.5529 109.247 32.9478 108.468C33.354 107.656 33.9408 107.137 34.7193 106.911C35.4979 106.685 36.3329 106.798 37.2468 107.261C37.8336 107.554 38.3075 107.949 38.6685 108.457C39.0296 108.965 39.244 109.518 39.3004 110.116C39.3568 110.714 39.2327 111.323 38.9281 111.921L37.6643 111.289C37.969 110.669 38.0367 110.093 37.8674 109.574C37.6982 109.055 37.3032 108.649 36.7052 108.344C36.1523 108.062 35.6558 107.994 35.2384 108.141C34.8096 108.288 34.4824 108.604 34.2341 109.1L34.2228 109.089Z" fill="black"/>
        <path d="M27.0127 104.463L30.0931 106.685L32.519 104.812L33.6925 105.659L24.1805 112.643L23.1989 111.932L26.8321 100.705L28.0056 101.551L27.0014 104.451L27.0127 104.463ZM29.0776 107.453L26.5952 105.659L24.8462 110.691L29.0776 107.441V107.453Z" fill="black"/>
        <path d="M24.9704 98.7983L26.0085 99.7574L18.3809 107.994L17.3428 107.035L24.9704 98.787V98.7983Z" fill="black"/>
        <path d="M18.0085 95.4358C17.5797 95.7969 17.3541 96.1918 17.3315 96.6206C17.3089 97.0493 17.4443 97.6474 17.7377 98.4372C18.0311 99.2271 18.2116 99.8702 18.2455 100.401C18.2793 100.92 18.2229 101.393 18.0536 101.811C17.8844 102.228 17.6136 102.601 17.2187 102.939C16.5416 103.515 15.7969 103.774 14.9732 103.695C14.1495 103.616 13.4274 103.221 12.7955 102.488C12.3668 101.992 12.0959 101.45 11.9831 100.863C11.8703 100.288 11.9267 99.7122 12.1411 99.1593C12.3555 98.6065 12.7053 98.1213 13.1792 97.7151L14.1044 98.787C13.5741 99.2383 13.2807 99.7122 13.213 100.22C13.1453 100.716 13.3146 101.213 13.7208 101.687C14.0931 102.116 14.4993 102.353 14.9507 102.375C15.402 102.409 15.8421 102.228 16.2708 101.856C16.6319 101.551 16.8237 101.157 16.835 100.694C16.8576 100.231 16.7335 99.6445 16.4627 98.945C16.0226 97.873 15.8421 96.9704 15.9436 96.2708C16.0452 95.5712 16.4175 94.928 17.072 94.3639C17.7603 93.7658 18.505 93.5176 19.3061 93.6079C20.1072 93.6981 20.8407 94.1269 21.5064 94.9055C21.9352 95.4019 22.2172 95.9548 22.3639 96.5529C22.5106 97.1622 22.488 97.7489 22.3075 98.3244C22.127 98.8998 21.7772 99.4076 21.2694 99.8476L20.3442 98.7757C20.8745 98.3244 21.1566 97.8279 21.1904 97.275C21.2243 96.7221 21.0325 96.2031 20.5924 95.6953C20.1862 95.2214 19.7574 94.9732 19.3174 94.9393C18.8773 94.9055 18.4373 95.0747 18.0198 95.4358H18.0085Z" fill="black"/>
        <path d="M10.6516 87.5486C11.9605 86.7474 13.1339 86.4202 14.1833 86.5443C15.2327 86.6685 16.0677 87.2439 16.6883 88.282C17.2863 89.2749 17.4217 90.2566 17.0832 91.2496C16.7447 92.2425 15.9548 93.1339 14.7136 93.9125L12.9083 95.007C11.622 95.7855 10.4485 96.1127 9.37655 95.9886C8.30461 95.8645 7.45835 95.2891 6.83776 94.2848C6.22845 93.2693 6.09305 92.2764 6.44284 91.2834C6.79262 90.2905 7.61632 89.3991 8.90264 88.5979L10.6516 87.5373V87.5486ZM9.70377 89.7827C8.68825 90.4033 8.03381 91.0239 7.74044 91.6558C7.44707 92.2876 7.51477 92.9421 7.93226 93.6304C8.33846 94.2961 8.89136 94.6459 9.60222 94.6797C10.3131 94.7136 11.1481 94.4428 12.1297 93.8448L13.8448 92.7954C14.8265 92.1974 15.4696 91.5768 15.7743 90.9223C16.0789 90.2679 16.0338 89.6022 15.6163 88.9252C15.1988 88.2481 14.6572 87.8871 13.9915 87.8532C13.3258 87.8194 12.4908 88.0902 11.4978 88.6769L9.70377 89.7714V89.7827Z" fill="black"/>
        <path d="M11.2271 76.7391L11.7348 78.0592L5.25808 85.3484L13.3371 82.2567L13.8448 83.5769L3.35117 87.5938L2.84341 86.2736L9.35399 78.9506L1.22987 82.0536L0.733398 80.7447L11.2271 76.7278V76.7391Z" fill="black"/>
        <path d="M3.29472 64.835C2.84338 64.835 2.48231 64.7108 2.17766 64.4288C1.88429 64.1467 1.72632 63.7743 1.72632 63.3004C1.72632 62.8265 1.85044 62.4541 2.12124 62.1495C2.39204 61.8561 2.77568 61.6981 3.24959 61.6869H3.53168C3.98302 61.6756 4.34409 61.7997 4.63746 62.0818C4.93083 62.3639 5.07752 62.7362 5.0888 63.2214C5.0888 63.6953 4.96468 64.079 4.6826 64.3723C4.40051 64.6657 4.03944 64.8124 3.5881 64.8237H3.29472V64.835Z" fill="black"/>
        <path d="M6.93935 46.6685L11.1255 48.0225L10.6855 49.3653L0 45.9012L1.10578 42.4936C1.433 41.5007 1.97461 40.8124 2.75317 40.44C3.53174 40.0677 4.41185 40.0338 5.4048 40.361C6.43159 40.6882 7.13117 41.2186 7.51481 41.9407C7.89845 42.6629 7.9323 43.5204 7.63893 44.5021L6.93935 46.6572V46.6685ZM5.78843 46.2961L6.45416 44.2313C6.64598 43.6332 6.61213 43.1142 6.36389 42.6854C6.10437 42.2567 5.65303 41.9294 4.98731 41.715C4.34415 41.5119 3.77997 41.5007 3.2835 41.715C2.78702 41.9182 2.44852 42.3018 2.26798 42.8772L1.60226 44.9421L5.79972 46.3074L5.78843 46.2961Z" fill="black"/>
        <path d="M12.6827 32.8914C14.0367 33.6022 14.9281 34.4485 15.3569 35.4076C15.7856 36.3667 15.7179 37.3822 15.1538 38.4541C14.6121 39.4809 13.8336 40.1015 12.8068 40.3159C11.78 40.5303 10.6178 40.3159 9.29762 39.6502L7.42456 38.6685C6.09311 37.9689 5.21299 37.1227 4.76165 36.141C4.3216 35.1593 4.37801 34.1438 4.93091 33.0945C5.4838 32.0451 6.27364 31.4245 7.30044 31.2214C8.32724 31.0183 9.51201 31.2552 10.866 31.9548L12.6714 32.9026L12.6827 32.8914ZM10.2906 33.2186C9.2412 32.6657 8.37237 32.4287 7.6728 32.4964C6.97322 32.5641 6.4429 32.9591 6.07054 33.6699C5.70947 34.3582 5.69818 35.0127 6.02541 35.6445C6.35263 36.2651 7.02964 36.8519 8.03387 37.3822L9.81666 38.3187C10.8322 38.849 11.701 39.086 12.4119 39.007C13.134 38.9393 13.6756 38.5444 14.0367 37.8448C14.409 37.1452 14.4316 36.4908 14.1157 35.904C13.7997 35.3173 13.1453 34.7418 12.1298 34.189L10.268 33.2073L10.2906 33.2186Z" fill="black"/>
        <path d="M18.7306 32.3836L17.9181 33.5458L8.71082 27.1142L9.52323 25.952L18.7306 32.3836Z" fill="black"/>
        <path d="M24.8462 25.1622L23.8871 26.2115L14.4541 23.7179L20.8632 29.5402L19.9041 30.5895L11.5881 23.0409L12.5472 21.9915L22.0141 24.4965L15.5825 18.6516L16.5303 17.6135L24.8462 25.1622Z" fill="black"/>
        <path d="M25.1284 12.0507L22.8153 13.8786L29.0325 21.732L27.9267 22.6121L21.7095 14.7588L19.3964 16.5867L18.6404 15.6389L24.3724 11.1029L25.1284 12.0507Z" fill="black"/>
        <path d="M35.1819 14.4202C34.8998 13.935 34.5613 13.6304 34.1438 13.5288C33.7376 13.416 33.117 13.4386 32.2821 13.5853C31.4584 13.7319 30.7813 13.7771 30.2623 13.7094C29.7433 13.6417 29.2919 13.495 28.9196 13.2468C28.5359 13.0098 28.22 12.66 27.9718 12.2087C27.5317 11.4414 27.4301 10.6516 27.6558 9.86171C27.8815 9.07186 28.4231 8.4287 29.2581 7.9548C29.8335 7.62757 30.409 7.4696 31.007 7.4696C31.605 7.4696 32.1466 7.62757 32.6431 7.94351C33.1396 8.25945 33.5458 8.68822 33.8617 9.24111L32.6318 9.94069C32.2821 9.34267 31.8758 8.95903 31.4019 8.78977C30.928 8.62052 30.409 8.69951 29.8674 9.00416C29.3709 9.28625 29.0663 9.64732 28.9534 10.0761C28.8406 10.5049 28.9309 10.9788 29.2129 11.4752C29.4499 11.8927 29.7884 12.1523 30.251 12.2538C30.7024 12.3666 31.3004 12.3554 32.0451 12.22C33.1847 11.983 34.0987 11.983 34.7757 12.22C35.4527 12.4456 36.0056 12.9421 36.4344 13.6868C36.8857 14.4767 36.9873 15.2552 36.7503 16.0225C36.5134 16.7898 35.9492 17.4329 35.0578 17.9294C34.4936 18.2566 33.8956 18.4259 33.275 18.4484C32.6544 18.471 32.0789 18.3469 31.5486 18.0535C31.0183 17.7602 30.5895 17.3314 30.251 16.7446L31.4809 16.0451C31.8307 16.6431 32.2595 17.0154 32.7898 17.1621C33.3201 17.3088 33.873 17.2073 34.4485 16.88C34.9901 16.5754 35.3173 16.203 35.4301 15.7743C35.543 15.3455 35.464 14.8829 35.1932 14.409L35.1819 14.4202Z" fill="black"/>
        <path d="M42.3132 14.2848L39.1086 3.52039L41.67 2.75312C42.9225 2.38076 44.017 2.48231 44.9535 3.05777C45.8787 3.63323 46.5558 4.63746 46.9845 6.05918L47.5261 7.86454C47.9549 9.28626 47.9211 10.4936 47.4471 11.4753C46.9732 12.4569 46.0706 13.1565 44.7278 13.5514L42.3132 14.2736V14.2848ZM40.8124 4.27639L43.3287 12.7164L44.4119 12.3892C45.3597 12.1071 45.9803 11.6219 46.2511 10.9562C46.5219 10.2905 46.5106 9.41038 46.206 8.32716L45.6418 6.42025C45.3033 5.2919 44.8407 4.51334 44.2426 4.11842C43.6446 3.71221 42.9112 3.64451 42.0311 3.91532L40.8237 4.27639H40.8124Z" fill="black"/>
        <path d="M55.2552 6.18326L51.3173 6.7023L51.8363 10.6515L56.4287 10.0535L56.5867 11.2496L50.5951 12.0394L49.1283 0.902585L55.0408 0.124023L55.1988 1.32007L50.6854 1.9181L51.1593 5.50625L55.0973 4.98721L55.2552 6.18326Z" fill="black"/>
        <path d="M62.9732 10.0987L67.3625 10.4485L67.2722 11.6558L61.4612 11.2045L62.3413 0.0112305L63.7517 0.124065L62.9732 10.11V10.0987Z" fill="black"/>
        <path d="M74.426 10.234L70.7362 9.34264L69.2017 11.9943L67.7913 11.6558L73.9408 1.57959L75.1142 1.86168L76.0056 13.6304L74.5952 13.2919L74.426 10.2227V10.234ZM71.3794 8.25942L74.3583 8.97028L74.0649 3.64447L71.3794 8.24814V8.25942Z" fill="black"/>
        <path d="M85.9013 15.0296C86.1495 14.5331 86.206 14.0818 86.0706 13.6756C85.9352 13.2694 85.5741 12.7616 84.9986 12.1523C84.4232 11.543 84.017 11.0014 83.78 10.5388C83.5431 10.0761 83.4302 9.6135 83.4189 9.16216C83.4189 8.71082 83.5205 8.25948 83.7575 7.79686C84.1524 7.00702 84.7504 6.47669 85.5402 6.23974C86.3301 5.9915 87.1538 6.08177 88.0113 6.52183C88.5981 6.8152 89.0607 7.21012 89.3879 7.70659C89.7151 8.20307 89.8844 8.74467 89.8957 9.3427C89.907 9.94073 89.7716 10.5162 89.4895 11.0691L88.2257 10.4259C88.5417 9.80532 88.6319 9.25243 88.5078 8.75596C88.3837 8.27077 88.0339 7.87585 87.481 7.59376C86.9732 7.33424 86.4993 7.27782 86.0818 7.42451C85.6531 7.57119 85.3146 7.89841 85.055 8.41745C84.8407 8.84623 84.8181 9.275 84.9761 9.71506C85.134 10.1551 85.4725 10.6403 85.9916 11.1932C86.8153 12.0169 87.3118 12.7729 87.5036 13.4725C87.6841 14.1608 87.5826 14.8942 87.1989 15.6615C86.7927 16.4739 86.1947 16.9929 85.4161 17.2186C84.6376 17.4443 83.8026 17.3201 82.8886 16.8688C82.3019 16.5754 81.828 16.1805 81.4669 15.6727C81.1058 15.165 80.8914 14.6121 80.8463 14.0141C80.8012 13.416 80.9253 12.8067 81.2187 12.2087L82.4824 12.8519C82.1665 13.4725 82.0988 14.0366 82.268 14.5557C82.4373 15.0747 82.8209 15.4809 83.4189 15.7856C83.9718 16.0677 84.4683 16.1354 84.8858 15.9887C85.3146 15.842 85.6418 15.5261 85.89 15.0409L85.9013 15.0296Z" fill="black"/>
        <path d="M93.0551 19.6558L89.986 17.4217L87.5487 19.2835L86.3752 18.4259L95.9098 11.464L96.8915 12.1748L93.2243 23.3906L92.0508 22.5444L93.0664 19.6445L93.0551 19.6558ZM91.0015 16.6657L93.4726 18.471L95.2328 13.4386L90.9902 16.6657H91.0015Z" fill="black"/>
        <path d="M95.1086 25.354L94.0706 24.3949L101.732 16.1805L102.77 17.1396L95.1086 25.354Z" fill="black"/>
        <path d="M102.037 28.7051C102.465 28.3441 102.691 27.9491 102.714 27.5204C102.748 27.0916 102.612 26.4936 102.307 25.7037C102.003 24.9139 101.834 24.2707 101.8 23.7404C101.766 23.2214 101.834 22.7475 101.992 22.33C102.161 21.9125 102.443 21.5401 102.827 21.2016C103.504 20.6262 104.248 20.3666 105.072 20.4456C105.896 20.5246 106.618 20.9308 107.25 21.653C107.678 22.1494 107.949 22.691 108.062 23.2778C108.175 23.8645 108.118 24.4287 107.904 24.9816C107.69 25.5345 107.34 26.0084 106.866 26.4259L105.941 25.3427C106.471 24.8913 106.764 24.4174 106.843 23.9097C106.911 23.4132 106.753 22.9167 106.336 22.4428C105.963 22.014 105.557 21.7771 105.106 21.7432C104.654 21.7094 104.214 21.8786 103.774 22.2623C103.413 22.5669 103.221 22.9618 103.199 23.4245C103.176 23.8871 103.3 24.4738 103.571 25.1734C104.011 26.2566 104.181 27.148 104.09 27.8589C103.989 28.5697 103.616 29.2016 102.962 29.7658C102.274 30.3525 101.529 30.6121 100.728 30.5105C99.9266 30.4202 99.1932 29.9802 98.5388 29.2129C98.11 28.7164 97.8279 28.1635 97.6925 27.5655C97.5458 26.9562 97.5684 26.3695 97.7602 25.794C97.952 25.2185 98.2905 24.7108 98.7983 24.282L99.7235 25.3652C99.1932 25.8166 98.9111 26.313 98.8773 26.8659C98.8321 27.4075 99.0353 27.9379 99.464 28.4456C99.8702 28.9195 100.299 29.1678 100.739 29.2016C101.179 29.2355 101.619 29.0662 102.037 28.7164V28.7051Z" fill="black"/>
        <path d="M109.382 36.6487C108.073 37.4386 106.889 37.7771 105.839 37.6417C104.79 37.5063 103.955 36.9308 103.334 35.904C102.736 34.9111 102.612 33.9181 102.951 32.9365C103.289 31.9435 104.09 31.0634 105.331 30.2736L107.137 29.1791C108.423 28.4005 109.597 28.0846 110.669 28.2087C111.74 28.3328 112.587 28.9083 113.196 29.9238C113.805 30.9393 113.929 31.9322 113.58 32.9252C113.219 33.9181 112.406 34.7982 111.12 35.5994L109.371 36.66L109.382 36.6487ZM110.341 34.4259C111.357 33.8166 112.011 33.1847 112.305 32.5528C112.598 31.921 112.542 31.2665 112.124 30.5782C111.718 29.9125 111.165 29.5627 110.465 29.5289C109.755 29.495 108.908 29.7658 107.938 30.3526L106.212 31.3906C105.23 31.9887 104.587 32.6093 104.271 33.2524C103.955 33.8956 104.011 34.5726 104.417 35.2496C104.824 35.9266 105.365 36.2877 106.042 36.3215C106.719 36.3667 107.543 36.0846 108.536 35.5091L110.341 34.4259Z" fill="black"/>
        <path d="M108.75 47.4245L108.243 46.0931L114.742 38.8152L106.652 41.8844L106.144 40.5529L116.649 36.5698L117.157 37.9013L110.623 45.2017L118.748 42.1213L119.244 43.4302L108.739 47.4133L108.75 47.4245Z" fill="black"/>
        <path d="M116.66 59.4076C117.111 59.4076 117.472 59.5317 117.766 59.8138C118.059 60.0959 118.206 60.4682 118.217 60.9421C118.217 61.4161 118.093 61.7884 117.822 62.0931C117.551 62.3864 117.168 62.5444 116.694 62.5557H116.412C115.96 62.567 115.599 62.4316 115.306 62.1608C115.024 61.8787 114.866 61.5063 114.866 61.0211C114.866 60.5472 114.99 60.1636 115.272 59.8702C115.554 59.5768 115.915 59.4302 116.367 59.4189H116.66V59.4076Z" fill="black"/>
    </g>
</svg>
