<svg width="120" height="120" viewBox="0 0 120 120" fill="none" xmlns="http://www.w3.org/2000/svg">
<path d="M45.1175 100.145L39.9999 80.7502L21.7133 72.5083L33.6841 56.4053L28.7233 36.9652L48.7793 36.2933L60.8846 20.3022L73.9081 35.5542L93.9641 35.0391L90.1679 54.7367L103.068 70.1007L85.2967 79.4064L81.3325 99.0704L62.9675 90.9853L45.1175 100.145Z" fill="#1D1D1B" stroke="#1D1D1B" stroke-miterlimit="10"/>
<path d="M45.1176 100.123L40 80.7278L21.7021 72.4747L33.673 56.3829L28.7234 36.9428L48.7682 36.2709L60.8735 20.2687L73.9082 35.5206L93.9642 35.0167L90.1568 54.7144L103.057 70.0783L85.2856 79.384L81.3214 99.0481L62.9675 90.963L45.1176 100.123Z" fill="#1E1E1B" stroke="#1D1D1B" stroke-miterlimit="10"/>
<path d="M45.1064 100.09L39.9888 80.6943L21.7021 72.4524L33.673 56.3606L28.7122 36.9205L48.7682 36.2374L60.8735 20.2463L73.897 35.4983L93.953 34.9944L90.1568 54.692L103.057 70.056L85.2856 79.3617L81.3102 99.0257L62.9564 90.9406L45.1064 100.09Z" fill="#1F1F1B" stroke="#1D1D1B" stroke-miterlimit="10"/>
<path d="M45.1064 100.067L39.9888 80.6718L21.6909 72.4299L33.6618 56.3381L28.7122 36.898L48.757 36.2149L60.8623 20.2239L73.897 35.4758L93.953 34.9719L90.1456 54.6696L103.046 70.0223L85.2743 79.3392L81.3102 99.0033L62.9563 90.907L45.1064 100.067Z" fill="#201F1B" stroke="#1D1D1B" stroke-miterlimit="10"/>
<path d="M45.0952 100.045L39.9776 80.6495L21.6909 72.4076L33.6618 56.3046L28.701 36.8645L48.757 36.1926L60.8623 20.2015L73.8858 35.4535L93.9418 34.9384L90.1456 54.636L103.046 70L85.2743 79.3057L81.299 98.9697L62.9451 90.8846L45.0952 100.045Z" fill="#21201B" stroke="#1C1C1B" stroke-miterlimit="10"/>
<path d="M45.0951 100.022L39.9664 80.6271L21.6797 72.374L33.6506 56.2822L28.701 36.8421L48.7458 36.1702L60.851 20.168L73.8857 35.4199L93.9305 34.916L90.1343 54.6137L103.035 69.9776L85.2631 79.2833L81.299 98.9473L62.9451 90.8622L45.0951 100.022Z" fill="#22211B" stroke="#1C1C1A" stroke-miterlimit="10"/>
<path d="M45.0839 99.9887L39.9664 80.5934L21.6797 72.3516L33.6506 56.2597L28.6898 36.8196L48.7346 36.1477L60.851 20.1455L73.8745 35.3975L93.9305 34.8935L90.1231 54.5912L103.023 69.9551L85.2631 79.2608L81.2877 98.9249L62.9339 90.8398L45.0839 99.9887Z" fill="#23221B" stroke="#1C1C1A" stroke-miterlimit="10"/>
<path d="M45.084 99.9664L39.9553 80.5711L21.6686 72.3292L33.6395 56.2374L28.6899 36.7973L48.7347 36.1142L60.8399 20.1232L73.8746 35.3751L93.9194 34.8712L90.1232 54.5689L103.024 69.9216L85.252 79.2385L81.2878 98.9026L62.9228 90.8062L45.084 99.9664Z" fill="#24231B" stroke="#1C1C1A" stroke-miterlimit="10"/>
<path d="M45.0728 99.9439L39.9553 80.5486L21.6686 72.3067L33.6395 56.2037L28.6787 36.7636L48.7234 36.0917L60.8287 20.1007L73.8634 35.3527L93.9194 34.8375L90.112 54.5352L103.012 69.8991L85.252 79.216L81.2766 98.8689L62.9228 90.7838L45.0728 99.9439Z" fill="#25241B" stroke="#1C1C1A" stroke-miterlimit="10"/>
<path d="M45.0728 99.9216L39.944 80.5263L21.6573 72.2844L33.6282 56.1814L28.6674 36.7413L48.7234 36.0694L60.8287 20.0671L73.8522 35.3303L93.9082 34.8152L90.112 54.5128L103.012 69.8768L85.2408 79.1825L81.2766 98.8465L62.9116 90.7614L45.0728 99.9216Z" fill="#26241B" stroke="#1C1C1A" stroke-miterlimit="10"/>
<path d="M45.0616 99.8879L39.944 80.4926L21.6573 72.2507L33.6282 56.1589L28.6674 36.7188L48.7122 36.0469L60.8175 20.0447L73.8522 35.2966L93.9082 34.7927L90.1008 54.4904L103.001 69.8543L85.2296 79.16L81.2654 98.8241L62.9115 90.739L45.0616 99.8879Z" fill="#27251B" stroke="#1C1C1A" stroke-miterlimit="10"/>
<path d="M45.0504 99.8656L39.9328 80.4703L21.6461 72.2284L33.617 56.1366L28.6562 36.6965L48.7122 36.0134L60.8175 20.0223L73.841 35.2743L93.897 34.7704L90.1008 54.468L103.001 69.832L85.2295 79.1377L81.2654 98.8017L62.9003 90.7054L45.0504 99.8656Z" fill="#28261B" stroke="#1C1C1A" stroke-miterlimit="10"/>
<path d="M45.0503 99.8432L39.9328 80.4479L21.6349 72.206L33.6058 56.103L28.6562 36.6741L48.701 35.991L60.8062 20L73.8409 35.252L93.8969 34.7368L90.0895 54.4345L102.99 69.7984L85.2183 79.1153L81.2542 98.7794L62.9003 90.6831L45.0503 99.8432Z" fill="#29271B" stroke="#1B1B1A" stroke-miterlimit="10"/>
<path d="M45.0391 99.8207L39.9216 80.4254L21.6349 72.1835L33.6058 56.0805L28.645 36.6404L48.701 35.9685L60.8062 19.9663L73.8297 35.2295L93.8857 34.7143L90.0895 54.412L102.99 69.7759L85.2183 79.0816L81.243 98.7457L62.8891 90.6606L45.0391 99.8207Z" fill="#2A281B" stroke="#1B1B19" stroke-miterlimit="10"/>
<path d="M45.0392 99.7984L39.9105 80.4031L21.6238 72.15L33.5947 56.0582L28.6451 36.6181L48.6899 35.9462L60.7951 19.944L73.8298 35.1959L93.8858 34.692L90.0784 54.3897L102.979 69.7536L85.2072 79.0593L81.2431 98.7234L62.8892 90.6383L45.0392 99.7984Z" fill="#2B281B" stroke="#1B1B19" stroke-miterlimit="10"/>
<path d="M45.028 99.7647L39.9105 80.3694L21.6238 72.1276L33.5947 56.0357L28.6339 36.5956L48.6898 35.9125L60.7951 19.9215L73.8186 35.1735L93.8746 34.6695L90.0784 54.3672L102.968 69.7311L85.2072 79.0368L81.2318 98.7009L62.878 90.6046L45.028 99.7647Z" fill="#2C291B" stroke="#1B1B19" stroke-miterlimit="10"/>
<path d="M45.028 99.7424L39.8992 80.3471L21.6125 72.1052L33.5834 56.0022L28.6338 36.5733L48.6786 35.8902L60.7839 19.8992L73.8186 35.1511L93.8634 34.6472L90.0672 54.3337L102.968 69.6976L85.196 79.0145L81.2318 98.6786L62.878 90.5823L45.028 99.7424Z" fill="#2D2A1B" stroke="#1B1B19" stroke-miterlimit="10"/>
<path d="M45.0168 99.7199L39.8992 80.3246L21.6125 72.0828L33.5834 55.9797L28.6226 36.5396L48.6674 35.8677L60.7839 19.8767L73.8074 35.1287L93.8634 34.6135L90.056 54.3112L102.956 69.6751L85.196 78.9808L81.2206 98.6449L62.8667 90.5598L45.0168 99.7199Z" fill="#2E2B1B" stroke="#1B1B19" stroke-miterlimit="10"/>
<path d="M45.0168 99.6975L39.888 80.3022L21.6013 72.0492L33.5722 55.9574L28.6226 36.5173L48.6674 35.8454L60.7727 19.8431L73.8074 35.0951L93.8522 34.5912L90.056 54.2888L102.956 69.6528L85.1847 78.9585L81.2206 98.6225L62.8555 90.5374L45.0168 99.6975Z" fill="#2F2C1B" stroke="#1B1B19" stroke-miterlimit="10"/>
<path d="M45.0056 99.664L39.888 80.2687L21.6013 72.0268L33.5722 55.935L28.6114 36.4949L48.6562 35.8118L60.7615 19.8208L73.7962 35.0728L93.8522 34.5688L90.0448 54.2665L102.945 69.6304L85.1735 78.9361L81.2094 98.6002L62.8555 90.5151L45.0056 99.664Z" fill="#302D1B" stroke="#1B1B19" stroke-miterlimit="10"/>
<path d="M45.0055 99.6416L39.8768 80.2463L21.5901 72.0044L33.561 55.9014L28.6002 36.4725L48.6562 35.7894L60.7614 19.7983L73.7849 35.0503L93.8409 34.5464L90.0447 54.2328L102.945 69.5968L85.1735 78.9137L81.2094 98.5777L62.8443 90.4814L45.0055 99.6416Z" fill="#312D1B" stroke="#1A1A19" stroke-miterlimit="10"/>
<path d="M44.9943 99.6192L39.8768 80.2239L21.5901 71.982L33.561 55.879L28.6002 36.4389L48.645 35.767L60.7502 19.776L73.7849 35.028L93.8409 34.5128L90.0335 54.2105L102.934 69.5744L85.1623 78.8801L81.1982 98.5442L62.8443 90.4591L44.9943 99.6192Z" fill="#322E1B" stroke="#1A1A18" stroke-miterlimit="10"/>
<path d="M44.9832 99.5968L39.8657 80.2016L21.579 71.9485L33.5499 55.8566L28.5891 36.4166L48.6451 35.7447L60.7503 19.7424L73.7738 34.9944L93.8298 34.4905L90.0336 54.1881L102.934 69.5521L85.1624 78.8578L81.1982 98.5218L62.8332 90.4367L44.9832 99.5968Z" fill="#332F1B" stroke="#1A1A18" stroke-miterlimit="10"/>
<path d="M44.9832 99.5632L39.8656 80.1679L21.5677 71.926L33.5386 55.8342L28.589 36.3941L48.6338 35.711L60.7391 19.72L73.7738 34.9719L93.8298 34.468L90.0224 54.1657L102.923 69.5296L85.1512 78.8353L81.187 98.4994L62.8331 90.4142L44.9832 99.5632Z" fill="#34301B" stroke="#1A1A18" stroke-miterlimit="10"/>
<path d="M44.972 99.5409L39.8544 80.1456L21.5677 71.9037L33.5386 55.8007L28.5778 36.3718L48.6338 35.6887L60.7391 19.6976L73.7626 34.9496L93.8186 34.4457L90.0224 54.1433L102.923 69.4961L85.1512 78.813L81.1758 98.477L62.8219 90.3807L44.972 99.5409Z" fill="#35311B" stroke="#1A1A18" stroke-miterlimit="10"/>
<path d="M44.972 99.5184L39.8432 80.1231L21.5565 71.8812L33.5274 55.7782L28.5778 36.3381L48.6226 35.6662L60.7279 19.6752L73.7626 34.9271L93.8186 34.412L90.0112 54.1097L102.912 69.4736L85.1399 78.7793L81.1758 98.4434L62.8219 90.3583L44.972 99.5184Z" fill="#36311B" stroke="#1A1A18" stroke-miterlimit="10"/>
<path d="M44.9608 99.496L39.8432 80.1007L21.5565 71.8476L33.5274 55.7558L28.5666 36.3157L48.6114 35.6438L60.7279 19.6416L73.7514 34.8936L93.8074 34.3896L90.0112 54.0873L102.9 69.4512L85.1399 78.7569L81.1646 98.421L62.8107 90.3359L44.9608 99.496Z" fill="#37321B" stroke="#1A1A18" stroke-miterlimit="10"/>
<path d="M44.9607 99.4624L39.832 80.0671L21.5453 71.8252L33.5162 55.7334L28.5666 36.2933L48.6114 35.6102L60.7166 19.6191L73.7513 34.8711L93.7961 34.3672L89.9999 54.0648L102.9 69.4288L85.1287 78.7345L81.1646 98.3985L62.7995 90.3134L44.9607 99.4624Z" fill="#38331B" stroke="#1A1A18" stroke-miterlimit="10"/>
<path d="M44.9495 99.44L39.832 80.0447L21.5453 71.8028L33.5162 55.711L28.5554 36.2709L48.6002 35.5878L60.7166 19.5968L73.7401 34.8488L93.7961 34.3448L89.9887 54.0425L102.889 69.3952L85.1287 78.7121L81.1534 98.3762L62.7995 90.2799L44.9495 99.44Z" fill="#39341B" stroke="#191918" stroke-miterlimit="10"/>
<path d="M44.9496 99.4177L39.8209 80.0224L21.5342 71.7805L33.5051 55.6775L28.5443 36.2374L48.6003 35.5655L60.7055 19.5745L73.7402 34.8264L93.785 34.3113L89.9888 54.0089L102.889 69.3729L85.1176 78.6786L81.1535 98.3427L62.7884 90.2575L44.9496 99.4177Z" fill="#3A351B" stroke="#191918" stroke-miterlimit="10"/>
<path d="M44.9384 99.3952L39.8209 79.9999L21.5342 71.7468L33.5051 55.655L28.5443 36.2149L48.5891 35.543L60.6943 19.5408L73.729 34.7927L93.785 34.2888L89.9776 53.9865L102.878 69.3504L85.1064 78.6561L81.1422 98.3202L62.7884 90.235L44.9384 99.3952Z" fill="#3B361B" stroke="#191917" stroke-miterlimit="10"/>
<path d="M44.9272 99.3617L39.8096 79.9664L21.5229 71.7245L33.4938 55.6327L28.533 36.1926L48.589 35.5207L60.6943 19.5184L73.7178 34.7704L93.7738 34.2665L89.9776 53.9641L102.878 69.3281L85.1064 78.6338L81.1422 98.2978L62.7772 90.2127L44.9272 99.3617Z" fill="#3C361B" stroke="#191917" stroke-miterlimit="10"/>
<path d="M44.9272 99.3392L39.8096 79.9439L21.5229 71.702L33.4938 55.6102L28.533 36.1701L48.5778 35.487L60.6831 19.496L73.7178 34.7479L93.7738 34.244L89.9664 53.9417L102.867 69.2944L85.0952 78.6113L81.131 98.2754L62.7772 90.1791L44.9272 99.3392Z" fill="#3D371B" stroke="#191917" stroke-miterlimit="10"/>
<path d="M44.916 99.3169L39.7984 79.9216L21.5117 71.6797L33.4826 55.5767L28.5218 36.1478L48.5778 35.4647L60.6831 19.4736L73.7066 34.7256L93.7626 34.2105L89.9664 53.9081L102.867 69.2721L85.0951 78.589L81.1198 98.2418L62.7659 90.1567L44.916 99.3169Z" fill="#3E381B" stroke="#191917" stroke-miterlimit="10"/>
<path d="M44.9161 99.2945L39.7985 79.8992L21.5006 71.6573L33.4715 55.5543L28.5219 36.1142L48.5667 35.4423L60.6719 19.4401L73.7067 34.7032L93.7627 34.1881L89.9553 53.8857L102.856 69.2497L85.084 78.5554L81.1199 98.2194L62.766 90.1343L44.9161 99.2945Z" fill="#3F391B" stroke="#191917" stroke-miterlimit="10"/>
<path d="M44.9049 99.2608L39.7873 79.8655L21.5006 71.6236L33.4715 55.5318L28.5107 36.0917L48.5667 35.4198L60.6719 19.4176L73.6955 34.6696L93.7515 34.1656L89.9553 53.8633L102.856 69.2272L85.084 78.5329L81.1087 98.197L62.7548 90.1119L44.9049 99.2608Z" fill="#403A1B" stroke="#181817" stroke-miterlimit="10"/>
<path d="M44.9048 99.2385L39.7761 79.8432L21.4894 71.6013L33.4603 55.5095L28.5107 36.0694L48.5555 35.3863L60.6607 19.3953L73.6954 34.6472L93.7402 34.1433L89.944 53.841L102.844 69.2049L85.0728 78.5106L81.1086 98.1747L62.7548 90.0784L44.9048 99.2385Z" fill="#413A1B" stroke="#181817" stroke-miterlimit="10"/>
<path d="M44.8936 99.216L39.7761 79.8207L21.4894 71.5788L33.4603 55.4758L28.4995 36.0469L48.5442 35.3638L60.6607 19.3728L73.6842 34.6248L93.7402 34.1208L89.9328 53.8073L102.833 69.1712L85.0728 78.4881L81.0974 98.1522L62.7436 90.0559L44.8936 99.216Z" fill="#423B1B" stroke="#181817" stroke-miterlimit="10"/>
<path d="M44.8936 99.1937L39.7648 79.7984L21.4781 71.5565L33.449 55.4535L28.4994 36.0134L48.5442 35.3415L60.6495 19.3505L73.6842 34.6024L93.729 34.0873L89.9328 53.785L102.833 69.1489L85.0616 78.4546L81.0974 98.1187L62.7324 90.0336L44.8936 99.1937Z" fill="#433C1B" stroke="#181816" stroke-miterlimit="10"/>
<path d="M44.8824 99.1713L39.7648 79.776L21.4781 71.5229L33.449 55.4311L28.4882 35.991L48.533 35.3191L60.6495 19.3169L73.673 34.5689L93.729 34.0649L89.9216 53.7626L102.822 69.1265L85.0616 78.4322L81.0862 98.0963L62.7323 90.0112L44.8824 99.1713Z" fill="#443D1B" stroke="#181816" stroke-miterlimit="10"/>
<path d="M44.8824 99.1377L39.7536 79.7424L21.4669 71.5005L33.4378 55.4087L28.477 35.9686L48.533 35.2855L60.6383 19.2944L73.6618 34.5464L93.7178 34.0425L89.9216 53.7401L102.822 69.1041L85.0504 78.4098L81.0862 98.0738L62.7211 89.9775L44.8824 99.1377Z" fill="#453E1B" stroke="#181816" stroke-miterlimit="10"/>
<path d="M44.8712 99.1153L39.7536 79.72L21.4669 71.4781L33.4378 55.3751L28.477 35.9462L48.5218 35.2631L60.6271 19.2721L73.6618 34.5241L93.7178 34.0201L89.9104 53.7066L102.811 69.0705L85.0392 78.3874L81.075 98.0515L62.7211 89.9552L44.8712 99.1153Z" fill="#463E1B" stroke="#181816" stroke-miterlimit="10"/>
<path d="M44.8601 99.0928L39.7425 79.6976L21.4558 71.4557L33.4267 55.3526L28.4659 35.9126L48.5219 35.2407L60.6271 19.2496L73.6507 34.5016L93.7067 33.9865L89.9105 53.6841L102.811 69.0481L85.0392 78.3538L81.0751 98.0178L62.71 89.9327L44.8601 99.0928Z" fill="#473F1B" stroke="#181816" stroke-miterlimit="10"/>
<path d="M44.86 99.0705L39.7425 79.6752L21.4446 71.4221L33.4155 55.3303L28.4659 35.8902L48.5107 35.2183L60.6159 19.2161L73.6506 34.468L93.7066 33.9641L89.8992 53.6617L102.8 69.0257L85.028 78.3314L81.0638 97.9955L62.71 89.9103L44.86 99.0705Z" fill="#48401B" stroke="#171716" stroke-miterlimit="10"/>
<path d="M44.8488 99.0369L39.7313 79.6417L21.4446 71.3998L33.4155 55.3079L28.4547 35.8679L48.5107 35.1848L60.6159 19.1937L73.6394 34.4457L93.6954 33.9418L89.8992 53.6394L102.8 69.0033L85.028 78.3091L81.0526 97.9731L62.6988 89.888L44.8488 99.0369Z" fill="#49411B" stroke="#171716" stroke-miterlimit="10"/>
<path d="M44.8488 99.0145L39.72 79.6192L21.4333 71.3773L33.4042 55.2743L28.4546 35.8454L48.4994 35.1623L60.6047 19.1713L73.6394 34.4232L93.6954 33.9193L89.888 53.617L102.788 68.9697L85.0168 78.2866L81.0526 97.9507L62.6988 89.8543L44.8488 99.0145Z" fill="#4A421B" stroke="#171716" stroke-miterlimit="10"/>
<path d="M44.8376 98.9921L39.72 79.5969L21.4333 71.355L33.4042 55.2519L28.4434 35.8119L48.4994 35.14L60.6047 19.1489L73.6282 34.4009L93.6842 33.8858L89.888 53.5834L102.788 68.9474L85.0168 78.2531L81.0414 97.9171L62.6876 89.832L44.8376 98.9921Z" fill="#4B431B" stroke="#171715" stroke-miterlimit="10"/>
<path d="M44.8376 98.9696L39.7088 79.5743L21.4221 71.3213L33.393 55.2295L28.4434 35.7894L48.4882 35.1175L60.5935 19.1152L73.6282 34.3672L93.673 33.8633L89.8768 53.5609L102.777 68.9249L85.0056 78.2306L81.0414 97.8946L62.6875 89.8095L44.8376 98.9696Z" fill="#4C431B" stroke="#171715" stroke-miterlimit="10"/>
<path d="M44.8264 98.9361L39.7088 79.5408L21.4221 71.2989L33.393 55.2071L28.4322 35.767L48.477 35.0839L60.5935 19.0929L73.617 34.3449L93.673 33.8409L89.8656 53.5386L102.766 68.9025L85.0056 78.2082L81.0302 97.8723L62.6763 89.7872L44.8264 98.9361Z" fill="#4D441B" stroke="#171715" stroke-miterlimit="10"/>
<path d="M44.8265 98.9137L39.6977 79.5184L21.411 71.2765L33.3819 55.1735L28.4323 35.7446L48.4771 35.0615L60.5823 19.0704L73.6171 34.3224L93.6619 33.8185L89.8657 53.5161L102.766 68.8689L84.9944 78.1858L81.0303 97.8498L62.6652 89.7535L44.8265 98.9137Z" fill="#4E451B" stroke="#171715" stroke-miterlimit="10"/>
<path d="M44.8153 98.8913L39.6977 79.496L21.411 71.2541L33.3819 55.1511L28.4211 35.711L48.4659 35.0391L60.5711 19.0481L73.6059 34.3001L93.6618 33.7849L89.8545 53.4826L102.755 68.8465L84.9832 78.1522L81.0191 97.8163L62.6652 89.7312L44.8153 98.8913Z" fill="#4F461B" stroke="#171715" stroke-miterlimit="10"/>
<path d="M44.8152 98.8689L39.6865 79.4736L21.3998 71.2206L33.3707 55.1287L28.4099 35.6887L48.4659 35.0168L60.5711 19.0145L73.5946 34.2665L93.6506 33.7626L89.8544 53.4602L102.755 68.8241L84.9832 78.1299L81.019 97.7939L62.654 89.7088L44.8152 98.8689Z" fill="#50471B" stroke="#161615" stroke-miterlimit="10"/>
<path d="M44.804 98.8353L39.6865 79.44L21.3998 71.1981L33.3707 55.1063L28.4099 35.6662L48.4547 34.9831L60.5599 18.9921L73.5946 34.244L93.6506 33.7401L89.8432 53.4378L102.744 68.8017L84.972 78.1074L81.0078 97.7715L62.654 89.6863L44.804 98.8353Z" fill="#51471B" stroke="#161615" stroke-miterlimit="10"/>
<path d="M44.7928 98.8129L39.6752 79.4176L21.3885 71.1758L33.3594 55.0839L28.3986 35.6439L48.4546 34.9608L60.5599 18.9697L73.5834 34.2217L93.6394 33.7178L89.8432 53.4154L102.744 68.7682L84.972 78.0851L81.0078 97.7491L62.6427 89.6528L44.7928 98.8129Z" fill="#52481B" stroke="#161615" stroke-miterlimit="10"/>
<path d="M44.7928 98.7905L39.6752 79.3952L21.3773 71.1533L33.3482 55.0503L28.3986 35.6102L48.4434 34.9383L60.5487 18.9473L73.5834 34.1992L93.6394 33.6841L89.832 53.3818L102.732 68.7457L84.9608 78.0514L80.9966 97.7155L62.6427 89.6304L44.7928 98.7905Z" fill="#53491B" stroke="#161614" stroke-miterlimit="10"/>
<path d="M44.7816 98.7681L39.664 79.3728L21.3773 71.1197L33.3482 55.0279L28.3874 35.5878L48.4434 34.9159L60.5487 18.9137L73.5722 34.1657L93.6282 33.6617L89.832 53.3594L102.732 68.7233L84.9608 78.029L80.9854 97.6931L62.6315 89.608L44.7816 98.7681Z" fill="#544A1B" stroke="#161614" stroke-miterlimit="10"/>
<path d="M44.7817 98.7346L39.6529 79.3393L21.3662 71.0974L33.3371 55.0056L28.3875 35.5655L48.4323 34.8936L60.5376 18.8914L73.5723 34.1433L93.6283 33.6394L89.8209 53.337L102.721 68.701L84.9496 78.0067L80.9855 97.6707L62.6316 89.5856L44.7817 98.7346Z" fill="#554B1C" stroke="#161614" stroke-miterlimit="10"/>
<path d="M44.7705 98.7121L39.6529 79.3168L21.3662 71.0749L33.3371 54.9831L28.3763 35.543L48.4323 34.8599L60.5375 18.8689L73.5611 34.1209L93.6171 33.6169L89.8209 53.3146L102.71 68.6673L84.9496 77.9842L80.9743 97.6483L62.6204 89.552L44.7705 98.7121Z" fill="#564C1C" stroke="#161614" stroke-miterlimit="10"/>
<path d="M44.7704 98.6898L39.6417 79.2945L21.355 71.0526L33.3259 54.9496L28.3763 35.5207L48.4211 34.8376L60.5263 18.8466L73.561 34.0985L93.6058 33.5834L89.8096 53.281L102.71 68.645L84.9384 77.9619L80.9742 97.6147L62.6204 89.5296L44.7704 98.6898Z" fill="#574C1C" stroke="#151514" stroke-miterlimit="10"/>
<path d="M44.7592 98.6673L39.6417 79.272L21.355 71.0301L33.3259 54.9271L28.3651 35.487L48.4099 34.8151L60.5263 18.8129L73.5498 34.076L93.6058 33.5609L89.7984 53.2585L102.699 68.6225L84.9384 77.9282L80.963 97.5923L62.6092 89.5071L44.7592 98.6673Z" fill="#584D1C" stroke="#151514" stroke-miterlimit="10"/>
<path d="M44.7592 98.6338L39.6304 79.2385L21.3438 70.9966L33.3146 54.9047L28.365 35.4647L48.4098 34.7928L60.5151 18.7905L73.5498 34.0425L93.5946 33.5386L89.7984 53.2362L102.699 68.6001L84.9272 77.9059L80.963 97.5699L62.598 89.4848L44.7592 98.6338Z" fill="#594E1C" stroke="#151514" stroke-miterlimit="10"/>
<path d="M44.748 98.6114L39.6304 79.2161L21.3438 70.9742L33.3146 54.8824L28.3538 35.4423L48.3986 34.7592L60.5039 18.7682L73.5386 34.0201L93.5946 33.5162L89.7872 53.2139L102.688 68.5778L84.916 77.8835L80.9518 97.5476L62.598 89.4513L44.748 98.6114Z" fill="#5A4F1C" stroke="#151514" stroke-miterlimit="10"/>
<path d="M44.748 98.589L39.6192 79.1937L21.3325 70.9518L33.3034 54.8487L28.3426 35.4199L48.3986 34.7368L60.5039 18.7457L73.5274 33.9977L93.5834 33.4938L89.7872 53.1802L102.688 68.5442L84.916 77.8611L80.9518 97.5251L62.5867 89.4288L44.748 98.589Z" fill="#5B501C" stroke="#151514" stroke-miterlimit="10"/>
<path d="M44.7368 98.5666L39.6192 79.1713L21.3325 70.9294L33.3034 54.8264L28.3426 35.3863L48.3874 34.7144L60.4927 18.7234L73.5274 33.9753L93.5834 33.4602L89.776 53.1579L102.676 68.5218L84.9047 77.8275L80.9406 97.4916L62.5867 89.4065L44.7368 98.5666Z" fill="#5C501C" stroke="#151513" stroke-miterlimit="10"/>
<path d="M44.7257 98.5441L39.6081 79.1488L21.3214 70.8957L33.2923 54.8039L28.3315 35.3638L48.3875 34.6919L60.4927 18.6897L73.5163 33.9417L93.5723 33.4377L89.7761 53.1354L102.676 68.4993L84.9048 77.805L80.9295 97.4691L62.5756 89.384L44.7257 98.5441Z" fill="#5D511C" stroke="#151513" stroke-miterlimit="10"/>
<path d="M44.7256 98.5106L39.6081 79.1153L21.3102 70.8734L33.2811 54.7816L28.3315 35.3415L48.3763 34.6584L60.4815 18.6674L73.5162 33.9193L93.5722 33.4154L89.7648 53.113L102.665 68.477L84.8936 77.7827L80.9294 97.4467L62.5756 89.3504L44.7256 98.5106Z" fill="#5E521C" stroke="#151513" stroke-miterlimit="10"/>
<path d="M44.7144 98.4881L39.5969 79.0928L21.3102 70.8509L33.2811 54.7479L28.3203 35.319L48.3763 34.6359L60.4815 18.6449L73.505 33.8969L93.561 33.3929L89.7648 53.0794L102.665 68.4433L84.8936 77.7602L80.9183 97.4243L62.5644 89.328L44.7144 98.4881Z" fill="#5F531C" stroke="#141413" stroke-miterlimit="10"/>
<path d="M44.7144 98.4658L39.5856 79.0705L21.299 70.8286L33.2698 54.7256L28.3202 35.2855L48.365 34.6136L60.4703 18.6226L73.505 33.8745L93.5498 33.3594L89.7536 53.057L102.654 68.421L84.8824 77.7267L80.9182 97.3908L62.5644 89.3056L44.7144 98.4658Z" fill="#60541C" stroke="#141413" stroke-miterlimit="10"/>
<path d="M44.7032 98.4434L39.5856 79.0481L21.299 70.795L33.2698 54.7032L28.309 35.2631L48.3538 34.5912L60.4703 18.589L73.4938 33.8409L93.5498 33.337L89.7424 53.0347L102.643 68.3986L84.8824 77.7043L80.907 97.3684L62.5532 89.2833L44.7032 98.4434Z" fill="#61551C" stroke="#141413" stroke-miterlimit="10"/>
<path d="M44.7033 98.4097L39.5745 79.0144L21.2878 70.7726L33.2587 54.6807L28.3091 35.2407L48.3539 34.5576L60.4592 18.5665L73.4939 33.8185L93.5387 33.3146L89.7425 53.0122L102.643 68.3762L84.8713 77.6819L80.9071 97.3459L62.542 89.2608L44.7033 98.4097Z" fill="#62551C" stroke="#141413" stroke-miterlimit="10"/>
<path d="M44.6921 98.3874L39.5745 78.9921L21.2878 70.7502L33.2587 54.6472L28.2979 35.2183L48.3427 34.5352L60.4592 18.5442L73.4827 33.7961L93.5387 33.2922L89.7313 52.9899L102.632 68.3426L84.8713 77.6595L80.8959 97.3236L62.542 89.2273L44.6921 98.3874Z" fill="#63561C" stroke="#141413" stroke-miterlimit="10"/>
<path d="M44.6921 98.3649L39.5633 78.9696L21.2766 70.7278L33.2475 54.6247L28.2867 35.1847L48.3427 34.5128L60.4479 18.5217L73.4827 33.7737L93.5275 33.2586L89.7313 52.9562L102.632 68.3202L84.86 77.6259L80.8959 97.2899L62.5308 89.2048L44.6921 98.3649Z" fill="#64571C" stroke="#141412" stroke-miterlimit="10"/>
<path d="M44.6809 98.3426L39.5633 78.9473L21.2766 70.6942L33.2475 54.6024L28.2867 35.1623L48.3315 34.4904L60.4367 18.4882L73.4715 33.7401L93.5275 33.2362L89.7201 52.9338L102.62 68.2978L84.8488 77.6035L80.8847 97.2675L62.5308 89.1824L44.6809 98.3426Z" fill="#65581C" stroke="#141412" stroke-miterlimit="10"/>
<path d="M44.6696 98.309L39.5521 78.9137L21.2654 70.6719L33.2363 54.58L28.2755 35.1399L48.3315 34.4569L60.4367 18.4658L73.4602 33.7178L93.5162 33.2139L89.72 52.9115L102.62 68.2754L84.8488 77.5812L80.8847 97.2452L62.5196 89.1601L44.6696 98.309Z" fill="#66591C" stroke="#141412" stroke-miterlimit="10"/>
<path d="M44.6696 98.2866L39.5521 78.8913L21.2654 70.6494L33.2251 54.5464L28.2755 35.1175L48.3203 34.4344L60.4255 18.4434L73.4602 33.6953L93.5162 33.1914L89.7088 52.889L102.609 68.2418L84.8376 77.5587L80.8734 97.2227L62.5196 89.1264L44.6696 98.2866Z" fill="#67591C" stroke="#131312" stroke-miterlimit="10"/>
<path d="M44.6584 98.2642L39.5408 78.8689L21.2542 70.6271L33.225 54.524L28.2642 35.084L48.3202 34.4121L60.4255 18.421L73.449 33.673L93.505 33.1579L89.7088 52.8555L102.609 68.2194L84.8376 77.5252L80.8622 97.1892L62.5084 89.1041L44.6584 98.2642Z" fill="#685A1C" stroke="#131312" stroke-miterlimit="10"/>
<path d="M44.6585 98.2419L39.5409 78.8466L21.243 70.5935L33.2139 54.5017L28.2643 35.0616L48.3091 34.3897L60.4144 18.3875L73.4491 33.6394L93.5051 33.1355L89.6977 52.8331L102.598 68.1971L84.8265 77.5028L80.8623 97.1668L62.5084 89.0817L44.6585 98.2419Z" fill="#695B1C" stroke="#131312" stroke-miterlimit="10"/>
<path d="M44.6473 98.2082L39.5297 78.8129L21.243 70.571L33.2139 54.4792L28.2531 35.0391L48.3091 34.3672L60.4144 18.365L73.4379 33.6169L93.4939 33.113L89.6977 52.8107L102.598 68.1746L84.8265 77.4803L80.8511 97.1444L62.4972 89.0593L44.6473 98.2082Z" fill="#6A5C1C" stroke="#131312" stroke-miterlimit="10"/>
<path d="M44.6473 98.1859L39.5185 78.7906L21.2318 70.5487L33.2027 54.4569L28.2531 35.0168L48.2979 34.3337L60.4031 18.3427L73.4379 33.5946L93.4827 33.0907L89.6865 52.7883L102.587 68.1411L84.8152 77.458L80.8511 97.122L62.4972 89.0257L44.6473 98.1859Z" fill="#6B5D1C" stroke="#131312" stroke-miterlimit="10"/>
<path d="M44.6361 98.1634L39.5185 78.7681L21.2318 70.5262L33.2027 54.4232L28.2419 34.9831L48.2867 34.3112L60.4031 18.3202L73.4267 33.5721L93.4827 33.057L89.6753 52.7547L102.576 68.1186L84.8152 77.4243L80.8399 97.0884L62.486 89.0033L44.6361 98.1634Z" fill="#6C5E1C" stroke="#131311" stroke-miterlimit="10"/>
<path d="M44.636 98.141L39.5073 78.7457L21.2206 70.5039L33.1915 54.4008L28.2419 34.9607L48.2867 34.2889L60.3919 18.2866L73.4266 33.5386L93.4714 33.0347L89.6752 52.7323L102.576 68.0962L84.804 77.402L80.8399 97.066L62.4748 88.9809L44.636 98.141Z" fill="#6D5E1C" stroke="#131311" stroke-miterlimit="10"/>
<path d="M44.6248 98.1074L39.5073 78.7121L21.2206 70.4702L33.1915 54.3784L28.2307 34.9383L48.2755 34.2664L60.3807 18.2642L73.4154 33.5161L93.4714 33.0122L89.664 52.7098L102.564 68.0738L84.804 77.3795L80.8286 97.0436L62.4748 88.9585L44.6248 98.1074Z" fill="#6E5F1C" stroke="#131311" stroke-miterlimit="10"/>
<path d="M44.6248 98.085L39.496 78.6897L21.2094 70.4479L33.1802 54.356L28.2194 34.916L48.2754 34.2329L60.3807 18.2418L73.4042 33.4938L93.4602 32.9899L89.664 52.6875L102.564 68.0402L84.7928 77.3572L80.8286 97.0212L62.4636 88.9249L44.6248 98.085Z" fill="#6F601C" stroke="#121211" stroke-miterlimit="10"/>
<path d="M44.6136 98.0627L39.496 78.6674L21.2094 70.4255L33.1802 54.3225L28.2194 34.8936L48.2642 34.2105L60.3695 18.2195L73.4042 33.4714L93.4602 32.9563L89.6528 52.654L102.553 68.0179L84.7816 77.3348L80.8174 96.9989L62.4635 88.9026L44.6136 98.0627Z" fill="#70611C" stroke="#121211" stroke-miterlimit="10"/>
<path d="M44.6025 98.0402L39.4849 78.6449L21.1982 70.403L33.1691 54.3L28.2083 34.8599L48.2643 34.188L60.3696 18.1858L73.3931 33.4489L93.4491 32.9338L89.6529 52.6315L102.553 67.9954L84.7817 77.3011L80.8175 96.9652L62.4524 88.8801L44.6025 98.0402Z" fill="#71621C" stroke="#121211" stroke-miterlimit="10"/>
<path d="M44.6025 98.0179L39.4849 78.6114L21.187 70.3695L33.1579 54.2777L28.2083 34.8376L48.2531 34.1657L60.3584 18.1635L73.3931 33.4154L93.4491 32.9115L89.6417 52.6091L102.542 67.9731L84.7704 77.2788L80.8063 96.9428L62.4524 88.8577L44.6025 98.0179Z" fill="#72621C" stroke="#121211" stroke-miterlimit="10"/>
<path d="M44.5913 97.9842L39.4737 78.5889L21.187 70.347L33.1579 54.2552L28.1971 34.8151L48.2531 34.132L60.3584 18.141L73.3819 33.3929L93.4379 32.889L89.6417 52.5867L102.542 67.9506L84.7704 77.2563L80.7951 96.9204L62.4412 88.8241L44.5913 97.9842Z" fill="#73631C" stroke="#121211" stroke-miterlimit="10"/>
<path d="M44.5912 97.9619L39.4625 78.5666L21.1758 70.3247L33.1467 54.2217L28.1971 34.7928L48.2419 34.1097L60.3471 18.1187L73.3818 33.3706L93.4378 32.8667L89.6304 52.5531L102.531 67.9171L84.7592 77.234L80.7951 96.898L62.4412 88.8017L44.5912 97.9619Z" fill="#74641C" stroke="#121211" stroke-miterlimit="10"/>
<path d="M44.58 97.9394L39.4625 78.5441L21.1758 70.3022L33.1467 54.1992L28.1859 34.7591L48.2419 34.0872L60.3471 18.0962L73.3706 33.3482L93.4266 32.833L89.6304 52.5307L102.52 67.8946L84.7592 77.2003L80.7838 96.8644L62.43 88.7793L44.58 97.9394Z" fill="#75651C" stroke="#121210" stroke-miterlimit="10"/>
<path d="M44.58 97.917L39.4512 78.5217L21.1646 70.2687L33.1354 54.1768L28.1858 34.7368L48.2306 34.0649L60.3359 18.0626L73.3706 33.3146L93.4154 32.8107L89.6192 52.5083L102.52 67.8722L84.748 77.178L80.7838 96.842L62.43 88.7569L44.58 97.917Z" fill="#76661C" stroke="#111110" stroke-miterlimit="10"/>
<path d="M44.5688 97.8835L39.4512 78.4882L21.1646 70.2463L33.1354 54.1545L28.1746 34.7144L48.2194 34.0313L60.3359 18.0403L73.3594 33.2922L93.4154 32.7883L89.608 52.486L102.508 67.8499L84.748 77.1556L80.7726 96.8197L62.4188 88.7234L44.5688 97.8835Z" fill="#77671C" stroke="#111110" stroke-miterlimit="10"/>
<path d="M44.5689 97.861L39.4401 78.4657L21.1534 70.2239L33.1243 54.1208L28.1747 34.692L48.2195 34.0089L60.3248 18.0178L73.3595 33.2698L93.4043 32.7659L89.6081 52.4523L102.508 67.8162L84.7369 77.1332L80.7727 96.7972L62.4076 88.7009L44.5689 97.861Z" fill="#78671C" stroke="#111110" stroke-miterlimit="10"/>
<path d="M44.5577 97.8387L39.4401 78.4434L21.1534 70.2015L33.1243 54.0985L28.1635 34.6584L48.2083 33.9865L60.3136 17.9955L73.3483 33.2474L93.4043 32.7323L89.5969 52.43L102.497 67.7939L84.7257 77.0996L80.7615 96.7637L62.4076 88.6786L44.5577 97.8387Z" fill="#79681C" stroke="#111110" stroke-miterlimit="10"/>
<path d="M44.5577 97.8163L39.4289 78.421L21.1422 70.1679L33.1131 54.0761L28.1523 34.636L48.2083 33.9641L60.3136 17.9619L73.3371 33.2139L93.3931 32.7099L89.5969 52.4076L102.497 67.7715L84.7257 77.0772L80.7615 96.7413L62.3964 88.6562L44.5577 97.8163Z" fill="#7A691C" stroke="#111110" stroke-miterlimit="10"/>
<path d="M44.5465 97.7827L39.4289 78.3874L21.1422 70.1455L33.1131 54.0537L28.1523 34.6136L48.1971 33.9305L60.3023 17.9395L73.3371 33.1914L93.3931 32.6875L89.5857 52.3851L102.486 67.7491L84.7144 77.0548L80.7503 96.7188L62.3964 88.6337L44.5465 97.7827Z" fill="#7B6A1C" stroke="#111110" stroke-miterlimit="10"/>
<path d="M44.5352 97.7603L39.4177 78.365L21.131 70.1232L33.1019 54.0201L28.1411 34.5912L48.1971 33.9082L60.3023 17.9171L73.3258 33.1691L93.3818 32.6652L89.5856 52.3628L102.486 67.7155L84.7144 77.0325L80.7502 96.6965L62.3852 88.6002L44.5352 97.7603Z" fill="#7C6B1C" stroke="#111110" stroke-miterlimit="10"/>
<path d="M44.5352 97.7379L39.4176 78.3426L21.1198 70.1007L33.0906 53.9977L28.141 34.5576L48.1858 33.8857L60.2911 17.8947L73.3258 33.1466L93.3818 32.6315L89.5744 52.3291L102.475 67.6931L84.7032 76.9988L80.739 96.6628L62.3852 88.5777L44.5352 97.7379Z" fill="#7D6B1C" stroke="#11110F" stroke-miterlimit="10"/>
<path d="M44.524 97.7155L39.4064 78.3202L21.1198 70.0671L33.0906 53.9753L28.1298 34.5352L48.1858 33.8633L60.2911 17.8611L73.3146 33.113L93.3706 32.6091L89.5744 52.3068L102.475 67.6707L84.7032 76.9764L80.7278 96.6405L62.374 88.5554L44.524 97.7155Z" fill="#7E6C1C" stroke="#10100F" stroke-miterlimit="10"/>
<path d="M44.5241 97.6818L39.3953 78.2865L21.1086 70.0447L33.0795 53.9528L28.1299 34.5128L48.1747 33.8297L60.28 17.8386L73.3147 33.0906L93.3707 32.5867L89.5633 52.2843L102.464 67.6482L84.6921 76.954L80.7279 96.618L62.374 88.5329L44.5241 97.6818Z" fill="#7F6D1C" stroke="#10100F" stroke-miterlimit="10"/>
<path d="M44.5129 97.6595L39.3953 78.2642L21.1086 70.0223L33.0795 53.9305L28.1187 34.4904L48.1747 33.8073L60.28 17.8163L73.3035 33.0682L93.3595 32.5643L89.5633 52.262L102.452 67.6147L84.6921 76.9316L80.7167 96.5957L62.3628 88.4994L44.5129 97.6595Z" fill="#806E1C" stroke="#10100F" stroke-miterlimit="10"/>
<path d="M44.5129 97.6372L39.3841 78.2419L21.0974 70L33.0683 53.897L28.1187 34.4569L48.1635 33.785L60.2687 17.7939L73.3035 33.0459L93.3483 32.5308L89.5521 52.2284L102.452 67.5924L84.6808 76.8981L80.7167 96.5621L62.3516 88.477L44.5129 97.6372Z" fill="#816F1C" stroke="#10100F" stroke-miterlimit="10"/>
<path d="M44.5017 97.6147L39.3841 78.2194L21.0974 69.9663L33.0683 53.8745L28.1075 34.4344L48.1523 33.7625L60.2687 17.7603L73.2923 33.0122L93.3483 32.5083L89.5409 52.2059L102.441 67.5699L84.6808 76.8756L80.7055 96.5396L62.3516 88.4545L44.5017 97.6147Z" fill="#82701C" stroke="#10100F" stroke-miterlimit="10"/>
<path d="M44.5016 97.5811L39.3729 78.1858L21.0862 69.944L33.0571 53.8521L28.1075 34.412L48.1523 33.7402L60.2575 17.7379L73.2922 32.9899L93.337 32.486L89.5408 52.1836L102.441 67.5475L84.6696 76.8532L80.7054 96.5173L62.3404 88.4322L44.5016 97.5811Z" fill="#83701C" stroke="#10100F" stroke-miterlimit="10"/>
<path d="M44.4904 97.5587L39.3729 78.1634L21.0862 69.9215L33.0571 53.8297L28.0963 34.3896L48.1411 33.7065L60.2463 17.7155L73.281 32.9674L93.337 32.4635L89.5296 52.1611L102.43 67.5139L84.6584 76.8308L80.6942 96.4948L62.3404 88.3985L44.4904 97.5587Z" fill="#84711C" stroke="#10100F" stroke-miterlimit="10"/>
<path d="M44.4905 97.5363L39.3618 78.141L21.0751 69.8992L33.046 53.7961L28.0852 34.356L48.1411 33.6842L60.2464 17.6931L73.2699 32.9451L93.3259 32.43L89.5297 52.1276L102.43 67.4915L84.6585 76.7973L80.6943 96.4613L62.3293 88.3762L44.4905 97.5363Z" fill="#85721C" stroke="#10100E" stroke-miterlimit="10"/>
<path d="M44.4793 97.5139L39.3617 78.1187L21.0751 69.8768L33.046 53.7738L28.0852 34.3337L48.1299 33.6618L60.2352 17.6595L73.2699 32.9227L93.3259 32.4076L89.5185 52.1052L102.419 67.4692L84.6473 76.7749L80.6831 96.4389L62.3293 88.3538L44.4793 97.5139Z" fill="#86731C" stroke="#0F0F0E" stroke-miterlimit="10"/>
<path d="M44.4681 97.4803L39.3505 78.085L21.0638 69.8431L33.0347 53.7513L28.0739 34.3112L48.1299 33.6393L60.2352 17.6371L73.2587 32.889L93.3147 32.3851L89.5185 52.0828L102.419 67.4467L84.6473 76.7524L80.6719 96.4165L62.3181 88.3314L44.4681 97.4803Z" fill="#87741C" stroke="#0F0F0E" stroke-miterlimit="10"/>
<path d="M44.4681 97.458L39.3505 78.0627L21.0526 69.8208L33.0235 53.729L28.0739 34.2889L48.1187 33.6058L60.2239 17.6147L73.2587 32.8667L93.3147 32.3628L89.5073 52.0604L102.408 67.4244L84.636 76.7301L80.6719 96.3941L62.318 88.2978L44.4681 97.458Z" fill="#88741C" stroke="#0F0F0E" stroke-miterlimit="10"/>
<path d="M44.4569 97.4355L39.3393 78.0402L21.0526 69.7983L33.0235 53.6953L28.0627 34.2664L48.1187 33.5833L60.2239 17.5923L73.2475 32.8442L93.3035 32.3291L89.5073 52.0268L102.408 67.3907L84.636 76.7076L80.6607 96.3717L62.3068 88.2754L44.4569 97.4355Z" fill="#89751C" stroke="#0F0F0E" stroke-miterlimit="10"/>
<path d="M44.4568 97.4131L39.3281 78.0178L21.0414 69.776L33.0123 53.6729L28.0627 34.2328L48.1075 33.561L60.2127 17.5587L73.2474 32.8219L93.2922 32.3068L89.496 52.0044L102.396 67.3683L84.6248 76.674L80.6606 96.3381L62.3068 88.253L44.4568 97.4131Z" fill="#8A761C" stroke="#0F0F0E" stroke-miterlimit="10"/>
<path d="M44.4456 97.3908L39.3281 77.9955L21.0414 69.7424L33.0123 53.6506L28.0515 34.2105L48.0963 33.5386L60.2127 17.5364L73.2362 32.7883L93.2922 32.2844L89.4848 51.9821L102.385 67.346L84.6248 76.6517L80.6494 96.3158L62.2956 88.2307L44.4456 97.3908Z" fill="#8B771C" stroke="#0F0F0E" stroke-miterlimit="10"/>
<path d="M44.4457 97.3571L39.3169 77.9618L21.0303 69.72L33.0012 53.6281L28.0515 34.188L48.0963 33.505L60.2016 17.5139L73.2363 32.7659L93.2811 32.262L89.4849 51.9596L102.385 67.3235L84.6137 76.6293L80.6495 96.2933L62.2845 88.197L44.4457 97.3571Z" fill="#8C781C" stroke="#0F0F0E" stroke-miterlimit="10"/>
<path d="M44.4345 97.3348L39.3169 77.9395L21.0303 69.6976L33.0012 53.5946L28.0404 34.1657L48.0851 33.4826L60.2016 17.4916L73.2251 32.7435L93.2811 32.2396L89.4737 51.9261L102.374 67.29L84.6137 76.6069L80.6383 96.271L62.2845 88.1747L44.4345 97.3348Z" fill="#8D781C" stroke="#0F0F0E" stroke-miterlimit="10"/>
<path d="M44.4345 97.3123L39.3057 77.917L21.019 69.6752L32.9899 53.5721L28.0291 34.132L48.0851 33.4602L60.1904 17.4691L73.2139 32.7211L93.2699 32.206L89.4737 51.9036L102.374 67.2675L84.6025 76.5733L80.6383 96.2373L62.2732 88.1522L44.4345 97.3123Z" fill="#8E791C" stroke="#0E0E0D" stroke-miterlimit="10"/>
<path d="M44.4233 97.2899L39.3057 77.8947L21.019 69.6416L32.9899 53.5498L28.0291 34.1097L48.0739 33.4378L60.1792 17.4355L73.2139 32.6875L93.2699 32.1836L89.4625 51.8812L102.363 67.2452L84.5913 76.5509L80.6271 96.2149L62.2732 88.1298L44.4233 97.2899Z" fill="#8F7A1C" stroke="#0E0E0D" stroke-miterlimit="10"/>
<path d="M44.4121 97.2564L39.2945 77.8611L21.0078 69.6192L32.9787 53.5274L28.0179 34.0873L48.0739 33.4042L60.1792 17.4132L73.2027 32.6652L93.2587 32.1612L89.4625 51.8589L102.363 67.2228L84.5912 76.5285L80.6271 96.1926L62.262 88.1075L44.4121 97.2564Z" fill="#907B1C" stroke="#0E0E0D" stroke-miterlimit="10"/>
<path d="M44.412 97.234L39.2945 77.8387L20.9966 69.5968L32.9675 53.4938L28.0179 34.0649L48.0627 33.3818L60.1679 17.3907L73.2026 32.6427L93.2586 32.1388L89.4512 51.8252L102.352 67.1892L84.58 76.5061L80.6158 96.1701L62.262 88.0738L44.412 97.234Z" fill="#917C1C" stroke="#0E0E0D" stroke-miterlimit="10"/>
<path d="M44.4008 97.2116L39.2833 77.8163L20.9966 69.5745L32.9675 53.4714L28.0067 34.0313L48.0627 33.3594L60.1679 17.3684L73.1914 32.6204L93.2474 32.1052L89.4512 51.8029L102.352 67.1668L84.58 76.4725L80.6047 96.1366L62.2508 88.0515L44.4008 97.2116Z" fill="#927D1C" stroke="#0E0E0D" stroke-miterlimit="10"/>
<path d="M44.4009 97.1891L39.2833 77.7938L20.9855 69.5408L32.9564 53.4489L28.0068 34.0088L48.0515 33.337L60.1568 17.3347L73.1915 32.5867L93.2475 32.0828L89.4401 51.7804L102.34 67.1443L84.5689 76.45L80.6047 96.1141L62.2509 88.029L44.4009 97.1891Z" fill="#937D1C" stroke="#0E0E0D" stroke-miterlimit="10"/>
<path d="M44.3897 97.1556L39.2722 77.7603L20.9855 69.5184L32.9564 53.4266L27.9956 33.9865L48.0515 33.3034L60.1568 17.3124L73.1803 32.5643L93.2363 32.0604L89.4401 51.7581L102.34 67.122L84.5689 76.4277L80.5935 96.0918L62.2397 88.0067L44.3897 97.1556Z" fill="#947E1C" stroke="#0E0E0D" stroke-miterlimit="10"/>
<path d="M44.3897 97.1331L39.2609 77.7378L20.9742 69.496L32.9451 53.3929L27.9955 33.964L48.0403 33.281L60.1456 17.2899L73.1803 32.5419L93.2251 32.038L89.4289 51.7356L102.329 67.0883L84.5577 76.4053L80.5935 96.0693L62.2396 87.973L44.3897 97.1331Z" fill="#957F1C" stroke="#0D0D0D" stroke-miterlimit="10"/>
<path d="M44.3785 97.1108L39.2609 77.7155L20.9742 69.4736L32.9451 53.3706L27.9843 33.9305L48.0291 33.2586L60.1456 17.2676L73.1691 32.5195L93.2251 32.0044L89.4177 51.7021L102.318 67.066L84.5577 76.3717L80.5823 96.0358L62.2284 87.9507L44.3785 97.1108Z" fill="#96801C" stroke="#0D0D0C" stroke-miterlimit="10"/>
<path d="M44.3785 97.0884L39.2497 77.6931L20.963 69.44L32.9339 53.3482L27.9843 33.9081L48.0291 33.2362L60.1344 17.234L73.1691 32.486L93.2139 31.982L89.4177 51.6797L102.318 67.0436L84.5464 76.3493L80.5823 96.0134L62.2172 87.9283L44.3785 97.0884Z" fill="#97811C" stroke="#0D0D0C" stroke-miterlimit="10"/>
<path d="M44.3673 97.0548L39.2497 77.6595L20.963 69.4176L32.9339 53.3258L27.9731 33.8857L48.0179 33.2026L60.1231 17.2115L73.1579 32.4635L93.2139 31.9596L89.4065 51.6572L102.307 67.0212L84.5464 76.3269L80.5711 95.9909L62.2172 87.9058L44.3673 97.0548Z" fill="#98811C" stroke="#0D0D0C" stroke-miterlimit="10"/>
<path d="M44.3672 97.0324L39.2385 77.6371L20.9518 69.3953L32.9227 53.3034L27.9619 33.8633L48.0179 33.1802L60.1231 17.1892L73.1466 32.4412L93.2026 31.9372L89.4064 51.6349L102.307 66.9876L84.5352 76.3045L80.571 95.9686L62.206 87.8723L44.3672 97.0324Z" fill="#99821C" stroke="#0D0D0C" stroke-miterlimit="10"/>
<path d="M44.356 97.01L39.2385 77.6147L20.9518 69.3728L32.9227 53.2698L27.9619 33.8297L48.0067 33.1578L60.1119 17.1667L73.1466 32.4187L93.2026 31.9036L89.3952 51.6012L102.296 66.9652L84.524 76.2709L80.5598 95.9349L62.206 87.8498L44.356 97.01Z" fill="#9A831C" stroke="#0D0D0C" stroke-miterlimit="10"/>
<path d="M44.3449 96.9876L39.2273 77.5923L20.9407 69.3392L32.9116 53.2474L27.9508 33.8073L48.0067 33.1354L60.112 17.1332L73.1355 32.3851L93.1915 31.8812L89.3953 51.5789L102.296 66.9428L84.5241 76.2485L80.5599 95.9126L62.1949 87.8275L44.3449 96.9876Z" fill="#9B841C" stroke="#0D0D0C" stroke-miterlimit="10"/>
<path d="M44.3449 96.9541L39.2273 77.5588L20.9294 69.3169L32.9003 53.2251L27.9507 33.785L47.9955 33.1131L60.1008 17.1108L73.1355 32.3628L93.1915 31.8589L89.3841 51.5565L102.284 66.9205L84.5129 76.2262L80.5487 95.8902L62.1948 87.8051L44.3449 96.9541Z" fill="#9C851C" stroke="#0D0D0C" stroke-miterlimit="10"/>
<path d="M44.3337 96.9316L39.2161 77.5363L20.9294 69.2944L32.9003 53.2026L27.9395 33.7625L47.9955 33.0794L60.1008 17.0884L73.1243 32.3403L93.1803 31.8364L89.3841 51.5341L102.284 66.8868L84.5129 76.2037L80.5375 95.8678L62.1836 87.7715L44.3337 96.9316Z" fill="#9D861C" stroke="#0C0C0C" stroke-miterlimit="10"/>
<path d="M44.3337 96.9093L39.2049 77.514L20.9182 69.2721L32.8891 53.1691L27.9395 33.729L47.9843 33.0571L60.0896 17.066L73.1243 32.318L93.1803 31.8029L89.3729 51.5005L102.273 66.8645L84.5016 76.1814L80.5375 95.8342L62.1836 87.7491L44.3337 96.9093Z" fill="#9E861C" stroke="#0C0C0B" stroke-miterlimit="10"/>
<path d="M44.3225 96.8869L39.2049 77.4916L20.9182 69.2497L32.8891 53.1467L27.9283 33.7066L47.9843 33.0347L60.0895 17.0325L73.1131 32.2956L93.1691 31.7805L89.3729 51.4782L102.262 66.8421L84.5016 76.1478L80.5263 95.8119L62.1724 87.7267L44.3225 96.8869Z" fill="#9F871C" stroke="#0C0C0B" stroke-miterlimit="10"/>
<path d="M44.3226 96.8532L39.1938 77.4579L20.9071 69.2161L32.878 53.1242L27.9284 33.6841L47.9732 33.0122L60.0784 17.01L73.1132 32.262L93.158 31.758L89.3618 51.4557L102.262 66.8196L84.4905 76.1254L80.5264 95.7894L62.1725 87.7043L44.3226 96.8532Z" fill="#A0881C" stroke="#0C0C0B" stroke-miterlimit="10"/>
<path d="M44.3114 96.8309L39.1938 77.4356L20.9071 69.1937L32.878 53.1019L27.9172 33.6618L47.962 32.9787L60.0784 16.9877L73.102 32.2396L93.158 31.7357L89.3506 51.4334L102.251 66.7973L84.4905 76.103L80.5152 95.7671L62.1613 87.6708L44.3114 96.8309Z" fill="#A1891C" stroke="#0C0C0B" stroke-miterlimit="10"/>
<path d="M44.3113 96.8084L39.1826 77.4131L20.8959 69.1713L32.8668 53.0682L27.9172 33.6393L47.9619 32.9563L60.0672 16.9652L73.1019 32.2172L93.1467 31.7021L89.3505 51.3997L102.251 66.7636L84.4793 76.0805L80.5151 95.7446L62.1501 87.6483L44.3113 96.8084Z" fill="#A28A1C" stroke="#0C0C0B" stroke-miterlimit="10"/>
<path d="M44.3001 96.786L39.1826 77.3908L20.8959 69.1489L32.8668 53.0459L27.906 33.6058L47.9507 32.9339L60.056 16.9316L73.0907 32.1948L93.1467 31.6797L89.3393 51.3773L102.24 66.7413L84.4681 76.047L80.5039 95.711L62.1501 87.6259L44.3001 96.786Z" fill="#A38A1C" stroke="#0C0C0B" stroke-miterlimit="10"/>
<path d="M44.3001 96.7636L39.1713 77.3683L20.8846 69.1152L32.8555 53.0234L27.8947 33.5833L47.9507 32.9114L60.056 16.9092L73.0795 32.1611L93.1355 31.6572L89.3393 51.3549L102.24 66.7188L84.4681 76.0245L80.5039 95.6886L62.1389 87.6035L44.3001 96.7636Z" fill="#A48B1C" stroke="#0C0C0B" stroke-miterlimit="10"/>
<path d="M44.2889 96.73L39.1713 77.3348L20.8846 69.0929L32.8555 53.0011L27.8947 33.561L47.9395 32.8779L60.0448 16.8868L73.0795 32.1388L93.1355 31.6349L89.3281 51.3325L102.228 66.6965L84.4569 76.0022L80.4927 95.6662L62.1388 87.5699L44.2889 96.73Z" fill="#A58C1C" stroke="#0B0B0B" stroke-miterlimit="10"/>
<path d="M44.2777 96.7076L39.1601 77.3123L20.8734 69.0704L32.8443 52.9674L27.8835 33.5385L47.9395 32.8554L60.0448 16.8644L73.0683 32.1163L93.1243 31.6124L89.3281 51.2989L102.228 66.6628L84.4568 75.9797L80.4927 95.6438L62.1276 87.5475L44.2777 96.7076Z" fill="#A68D1C" stroke="#0B0B0A" stroke-miterlimit="10"/>
<path d="M44.2778 96.6852L39.1602 77.29L20.8623 69.0481L32.8332 52.9451L27.8836 33.505L47.9284 32.8331L60.0336 16.842L73.0684 32.094L93.1244 31.5789L89.317 51.2765L102.217 66.6405L84.4457 75.9462L80.4816 95.6102L62.1277 87.5251L44.2778 96.6852Z" fill="#A78E1C" stroke="#0B0B0A" stroke-miterlimit="10"/>
<path d="M44.2666 96.6629L39.149 77.2676L20.8623 69.0145L32.8332 52.9227L27.8724 33.4826L47.9284 32.8107L60.0336 16.8085L73.0572 32.0604L93.1132 31.5565L89.317 51.2542L102.217 66.6181L84.4457 75.9238L80.4704 95.5879L62.1165 87.5027L44.2666 96.6629Z" fill="#A88F1C" stroke="#0B0B0A" stroke-miterlimit="10"/>
<path d="M44.2665 96.6292L39.1378 77.2339L20.8511 68.9921L32.822 52.9002L27.8723 33.4601L47.9171 32.7771L60.0224 16.786L73.0571 32.038L93.1131 31.534L89.3057 51.2317L102.206 66.5956L84.4345 75.9013L80.4703 95.5654L62.1165 87.4803L44.2665 96.6292Z" fill="#A98F1C" stroke="#0B0B0A" stroke-miterlimit="10"/>
<path d="M44.2553 96.6069L39.1377 77.2116L20.8511 68.9697L32.822 52.8667L27.8612 33.4378L47.9059 32.7547L60.0224 16.7637L73.0459 32.0156L93.1019 31.5117L89.3057 51.1982L102.195 66.5621L84.4345 75.879L80.4591 95.5431L62.1053 87.4467L44.2553 96.6069Z" fill="#AA901C" stroke="#0B0B0A" stroke-miterlimit="10"/>
<path d="M44.2553 96.5844L39.1265 77.1891L20.8398 68.9473L32.8107 52.8442L27.8611 33.4041L47.9059 32.7323L60.0112 16.7412L73.0459 31.9932L93.0907 31.4781L89.2945 51.1757L102.195 66.5396L84.4233 75.8454L80.4591 95.5094L62.094 87.4243L44.2553 96.5844Z" fill="#AB911C" stroke="#0B0B0A" stroke-miterlimit="10"/>
<path d="M44.2441 96.5621L39.1265 77.1668L20.8398 68.9137L32.8107 52.8219L27.8499 33.3818L47.8947 32.7099L60.0112 16.7076L73.0347 31.9596L93.0907 31.4557L89.2833 51.1533L102.184 66.5173L84.4233 75.823L80.4479 95.487L62.094 87.4019L44.2441 96.5621Z" fill="#AC921C" stroke="#0A0A0A" stroke-miterlimit="10"/>
<path d="M44.2441 96.5285L39.1153 77.1332L20.8286 68.8913L32.7995 52.7995L27.8499 33.3594L47.8947 32.6763L60 16.6853L73.0347 31.9373L93.0795 31.4333L89.2833 51.131L102.184 66.4949L84.412 75.8006L80.4479 95.4647L62.0828 87.3796L44.2441 96.5285Z" fill="#AD931C" stroke="#0A0A0A" stroke-miterlimit="10"/>
<path d="M44.2329 96.5061L39.1153 77.1108L20.8286 68.8689L32.7995 52.7659L27.8387 33.337L47.8835 32.6539L59.9888 16.6628L73.0235 31.9148L93.0795 31.4109L89.2721 51.1085L102.172 66.4613L84.4008 75.7782L80.4367 95.4422L62.0828 87.3459L44.2329 96.5061Z" fill="#AE931C" stroke="#0A0A0A" stroke-miterlimit="10"/>
<path d="M44.2218 96.4837L39.1042 77.0884L20.8175 68.8465L32.7884 52.7435L27.8276 33.3034L47.8836 32.6315L59.9888 16.6405L73.0124 31.8925L93.0684 31.3773L89.2722 51.075L102.172 66.4389L84.4009 75.7446L80.4368 95.4087L62.0717 87.3236L44.2218 96.4837Z" fill="#AF941C" stroke="#0A0A09" stroke-miterlimit="10"/>
<path d="M44.2218 96.4613L39.1042 77.066L20.8175 68.813L32.7884 52.7211L27.8276 33.2811L47.8724 32.6092L59.9776 16.6069L73.0124 31.8589L93.0684 31.355L89.261 51.0526L102.161 66.4166L84.3897 75.7223L80.4256 95.3863L62.0717 87.3012L44.2218 96.4613Z" fill="#B0951C" stroke="#0A0A09" stroke-miterlimit="10"/>
<path d="M44.2105 96.4277L39.093 77.0324L20.8063 68.7905L32.7772 52.6987L27.8164 33.2586L47.8723 32.5755L59.9776 16.5845L73.0011 31.8364L93.0571 31.3325L89.2609 51.0302L102.161 66.3941L84.3897 75.6998L80.4143 95.3639L62.0605 87.2788L44.2105 96.4277Z" fill="#B1961C" stroke="#0A0A09" stroke-miterlimit="10"/>
<path d="M44.2105 96.4053L39.0929 77.0101L20.795 68.7682L32.7659 52.6764L27.8163 33.2363L47.8611 32.5532L59.9664 16.5621L73.0011 31.8141L93.0571 31.3102L89.2497 51.0078L102.15 66.3606L84.3785 75.6775L80.4143 95.3415L62.0604 87.2452L44.2105 96.4053Z" fill="#B2971C" stroke="#0A0A09" stroke-miterlimit="10"/>
<path d="M44.1993 96.3829L39.0817 76.9876L20.795 68.7457L32.7659 52.6427L27.8051 33.2026L47.8611 32.5307L59.9664 16.5397L72.9899 31.7916L93.0459 31.2765L89.2497 50.9742L102.15 66.3381L84.3785 75.6438L80.4031 95.3079L62.0492 87.2228L44.1993 96.3829Z" fill="#B3981C" stroke="#0A0A09" stroke-miterlimit="10"/>
<path d="M44.1993 96.3605L39.0705 76.9652L20.7838 68.7121L32.7547 52.6203L27.8051 33.1802L47.8499 32.5083L59.9552 16.5061L72.9899 31.7581L93.0347 31.2541L89.2385 50.9518L102.139 66.3157L84.3672 75.6214L80.4031 95.2855L62.0492 87.2004L44.1993 96.3605Z" fill="#B4981C" stroke="#090909" stroke-miterlimit="10"/>
<path d="M44.1881 96.3269L39.0705 76.9316L20.7838 68.6897L32.7547 52.5979L27.7939 33.1578L47.8387 32.4859L59.9552 16.4836L72.9787 31.7356L93.0347 31.2317L89.2273 50.9293L102.128 66.2933L84.3672 75.599L80.3919 95.263L62.038 87.1779L44.1881 96.3269Z" fill="#B5991C" stroke="#090909" stroke-miterlimit="10"/>
<path d="M44.1882 96.3045L39.0594 76.9092L20.7727 68.6673L32.7436 52.5755L27.794 33.1354L47.8388 32.4523L59.944 16.4613L72.9788 31.7133L93.0236 31.2093L89.2274 50.907L102.128 66.2597L84.3561 75.5766L80.392 95.2407L62.0269 87.1444L44.1882 96.3045Z" fill="#B69A1C" stroke="#090909" stroke-miterlimit="10"/>
<path d="M44.177 96.2822L39.0594 76.8869L20.7727 68.645L32.7436 52.542L27.7828 33.1131L47.8276 32.43L59.944 16.439L72.9676 31.6909L93.0236 31.1758L89.2162 50.8735L102.116 66.2374L84.3561 75.5543L80.3808 95.2072L62.0269 87.1221L44.177 96.2822Z" fill="#B79B1C" stroke="#090908" stroke-miterlimit="10"/>
<path d="M44.1769 96.2597L39.0481 76.8644L20.7615 68.6225L32.7324 52.5195L27.7716 33.0794L47.8275 32.4075L59.9328 16.4053L72.9563 31.6684L93.0123 31.1533L89.2161 50.851L102.116 66.2149L84.3449 75.5206L80.3807 95.1847L62.0157 87.0995L44.1769 96.2597Z" fill="#B89C1C" stroke="#090908" stroke-miterlimit="10"/>
<path d="M44.1657 96.2262L39.0481 76.8309L20.7615 68.589L32.7324 52.4972L27.7716 33.0571L47.8163 32.3852L59.9216 16.3829L72.9563 31.6349L93.0123 31.131L89.2049 50.8286L102.105 66.1926L84.3337 75.4983L80.3695 95.1623L62.0157 87.0772L44.1657 96.2262Z" fill="#B99C1C" stroke="#090908" stroke-miterlimit="10"/>
<path d="M44.1545 96.2037L39.0369 76.8084L20.7502 68.5665L32.7211 52.4747L27.7603 33.0346L47.8163 32.3515L59.9216 16.3605L72.9451 31.6124L93.0011 31.1085L89.2049 50.8062L102.105 66.1701L84.3337 75.4758L80.3695 95.1399L62.0044 87.0436L44.1545 96.2037Z" fill="#BA9D1C" stroke="#090908" stroke-miterlimit="10"/>
<path d="M44.1545 96.1814L39.0369 76.7861L20.739 68.5442L32.7099 52.4412L27.7603 33.0123L47.8051 32.3292L59.9104 16.3381L72.9451 31.5901L93.0011 31.0862L89.1937 50.7726L102.094 66.1366L84.3224 75.4535L80.3583 95.1175L62.0044 87.0212L44.1545 96.1814Z" fill="#BB9E1C" stroke="#090908" stroke-miterlimit="10"/>
<path d="M44.1433 96.1589L39.0257 76.7636L20.739 68.5217L32.7099 52.4187L27.7491 32.9786L47.8051 32.3067L59.9104 16.3157L72.9339 31.5676L92.9899 31.0525L89.1937 50.7502L102.094 66.1141L84.3224 75.4198L80.3471 95.0839L61.9932 86.9988L44.1433 96.1589Z" fill="#BC9F1C" stroke="#080808" stroke-miterlimit="10"/>
<path d="M44.1434 96.1365L39.0146 76.7412L20.7279 68.4881L32.6988 52.3963L27.7492 32.9562L47.794 32.2843L59.8992 16.2821L72.934 31.5341L92.99 31.0301L89.1826 50.7278L102.083 66.0917L84.3113 75.3974L80.3472 95.0615L61.9933 86.9764L44.1434 96.1365Z" fill="#BDA01C" stroke="#080808" stroke-miterlimit="10"/>
<path d="M44.1322 96.103L39.0146 76.7077L20.7279 68.4658L32.6988 52.374L27.738 32.9339L47.794 32.2508L59.8992 16.2598L72.9228 31.5117L92.9788 31.0078L89.1826 50.7054L102.083 66.0694L84.3113 75.3751L80.336 95.0392L61.9821 86.9428L44.1322 96.103Z" fill="#BEA11C" stroke="#080808" stroke-miterlimit="10"/>
<path d="M44.1321 96.0805L39.0034 76.6852L20.7167 68.4433L32.6876 52.3403L27.738 32.9114L47.7827 32.2283L59.888 16.2373L72.9227 31.4893L92.9675 30.9853L89.1713 50.6718L102.072 66.0357L84.3001 75.3526L80.3359 95.0167L61.9821 86.9204L44.1321 96.0805Z" fill="#BFA11C" stroke="#080807" stroke-miterlimit="10"/>
<path d="M44.1209 96.0582L39.0034 76.6629L20.7167 68.421L32.6876 52.318L27.7268 32.8779L47.7715 32.206L59.888 16.215L72.9115 31.4669L92.9675 30.9518L89.1601 50.6495L102.06 66.0134L84.3001 75.3191L80.3247 94.9832L61.9709 86.898L44.1209 96.0582Z" fill="#C0A21C" stroke="#080807" stroke-miterlimit="10"/>
<path d="M44.1209 96.0358L38.9921 76.6405L20.7054 68.3874L32.6763 52.2956L27.7267 32.8555L47.7715 32.1836L59.8768 16.1814L72.9115 31.4334L92.9563 30.9294L89.1601 50.6271L102.06 65.991L84.2889 75.2967L80.3247 94.9608L61.9597 86.8757L44.1209 96.0358Z" fill="#C1A31C" stroke="#080807" stroke-miterlimit="10"/>
<path d="M44.1097 96.0022L38.9921 76.6069L20.7054 68.365L32.6763 52.2732L27.7155 32.8331L47.7603 32.15L59.8656 16.1589L72.9003 31.4109L92.9563 30.907L89.1489 50.6046L102.049 65.9686L84.2777 75.2743L80.3135 94.9383L61.9596 86.8532L44.1097 96.0022Z" fill="#C2A41C" stroke="#080807" stroke-miterlimit="10"/>
<path d="M44.1098 95.9798L38.981 76.5845L20.6943 68.3426L32.6652 52.2396L27.7044 32.8107L47.7604 32.1276L59.8657 16.1366L72.8892 31.3886L92.9452 30.8846L89.149 50.5711L102.049 65.935L84.2778 75.2519L80.3136 94.916L61.9485 86.8197L44.1098 95.9798Z" fill="#C3A51C" stroke="#080807" stroke-miterlimit="10"/>
<path d="M44.0986 95.9574L38.981 76.5621L20.6943 68.3202L32.6652 52.2172L27.7044 32.7771L47.7492 32.1052L59.8545 16.1141L72.8892 31.3661L92.9452 30.851L89.1378 50.5486L102.038 65.9126L84.2666 75.2183L80.3024 94.8823L61.9485 86.7972L44.0986 95.9574Z" fill="#C4A51C" stroke="#070707" stroke-miterlimit="10"/>
<path d="M44.0874 95.935L38.9698 76.5397L20.6831 68.2866L32.654 52.1948L27.6932 32.7547L47.7492 32.0828L59.8544 16.0806L72.878 31.3325L92.934 30.8286L89.1378 50.5262L102.038 65.8902L84.2665 75.1959L80.3024 94.8599L61.9373 86.7748L44.0874 95.935Z" fill="#C5A61C" stroke="#070707" stroke-miterlimit="10"/>
<path d="M44.0873 95.9015L38.9697 76.5061L20.6719 68.2643L32.6428 52.1724L27.6932 32.7324L47.7379 32.0493L59.8432 16.0582L72.8779 31.3102L92.9339 30.8063L89.1265 50.5039L102.027 65.8679L84.2553 75.1736L80.2911 94.8376L61.9373 86.7525L44.0873 95.9015Z" fill="#C6A71D" stroke="#070707" stroke-miterlimit="10"/>
<path d="M44.0761 95.879L38.9586 76.4837L20.6719 68.2418L32.6428 52.1388L27.682 32.7099L47.7379 32.0268L59.8432 16.0358L72.8667 31.2877L92.9227 30.7838L89.1265 50.4815L102.027 65.8342L84.2553 75.1511L80.2799 94.8152L61.9261 86.7189L44.0761 95.879Z" fill="#C7A81D" stroke="#070707" stroke-miterlimit="10"/>
<path d="M44.0761 95.8566L38.9473 76.4613L20.6606 68.2195L32.6315 52.1165L27.6819 32.6764L47.7267 32.0045L59.832 16.0134L72.8667 31.2654L92.9227 30.7503L89.1153 50.4479L102.016 65.8119L84.2441 75.1176L80.2799 94.7816L61.926 86.6965L44.0761 95.8566Z" fill="#C8A91D" stroke="#070706" stroke-miterlimit="10"/>
<path d="M44.0649 95.8341L38.9473 76.4389L20.6606 68.1858L32.6315 52.094L27.6707 32.6539L47.7267 31.982L59.832 15.9797L72.8555 31.2317L92.9115 30.7278L89.1153 50.4254L102.004 65.7894L84.2441 75.0951L80.2687 94.7591L61.9148 86.674L44.0649 95.8341Z" fill="#C9AA1D" stroke="#070706" stroke-miterlimit="10"/>
<path d="M44.065 95.8006L38.9362 76.4053L20.6495 68.1634L32.6204 52.0716L27.6708 32.6315L47.7156 31.9484L59.8209 15.9574L72.8556 31.2094L92.9004 30.7054L89.1042 50.4031L102.005 65.767L84.233 75.0727L80.2688 94.7368L61.9149 86.6517L44.065 95.8006Z" fill="#CAAA1D" stroke="#070706" stroke-miterlimit="10"/>
<path d="M44.0538 95.7782L38.9362 76.3829L20.6495 68.141L32.6204 52.0492L27.6596 32.6091L47.7044 31.926L59.8209 15.9349L72.8444 31.1869L92.9004 30.683L89.093 50.3806L101.993 65.7334L84.233 75.0503L80.2576 94.7143L61.9037 86.618L44.0538 95.7782Z" fill="#CBAB1D" stroke="#060606" stroke-miterlimit="10"/>
<path d="M44.0538 95.7558L38.925 76.3605L20.6383 68.1186L32.6092 52.0156L27.6596 32.5755L47.7044 31.9036L59.8096 15.9126L72.8444 31.1646L92.8892 30.6494L89.093 50.3471L101.993 65.711L84.2217 75.0167L80.2576 94.6808L61.8925 86.5957L44.0538 95.7558Z" fill="#CCAC1D" stroke="#060606" stroke-miterlimit="10"/>
<path d="M44.0426 95.7334L38.925 76.3381L20.6383 68.0851L32.6092 51.9932L27.6484 32.5532L47.6932 31.8813L59.7984 15.879L72.8332 31.131L92.8891 30.6271L89.0818 50.3247L101.982 65.6886L84.2105 74.9944L80.2464 94.6584L61.8925 86.5733L44.0426 95.7334Z" fill="#CDAD1D" stroke="#060606" stroke-miterlimit="10"/>
<path d="M44.0425 95.6998L38.9138 76.3045L20.6271 68.0626L32.598 51.9708L27.6372 32.5307L47.6931 31.8588L59.7984 15.8566L72.8219 31.1085L92.8779 30.6046L89.0817 50.3022L101.982 65.6662L84.2105 74.9719L80.2463 94.636L61.8813 86.5508L44.0425 95.6998Z" fill="#CEAE1D" stroke="#060606" stroke-miterlimit="10"/>
<path d="M44.0313 95.6775L38.9137 76.2822L20.6271 68.0403L32.598 51.9484L27.6372 32.5084L47.6819 31.8253L59.7872 15.8342L72.8219 31.0862L92.8779 30.5823L89.0705 50.2799L101.971 65.6327L84.1993 74.9496L80.2351 94.6136L61.8813 86.5173L44.0313 95.6775Z" fill="#CFAE1D" stroke="#060606" stroke-miterlimit="10"/>
<path d="M44.0201 95.655L38.9025 76.2597L20.6158 68.0178L32.5867 51.9148L27.6259 32.4859L47.6819 31.8028L59.7872 15.8118L72.8107 31.0637L92.8667 30.5486L89.0705 50.2463L101.971 65.6102L84.1993 74.9271L80.2351 94.58L61.87 86.4949L44.0201 95.655Z" fill="#D0AF1D" stroke="#060605" stroke-miterlimit="10"/>
<path d="M44.0202 95.6326L38.9026 76.2373L20.6047 67.9954L32.5756 51.8924L27.626 32.4523L47.6708 31.7804L59.7761 15.7782L72.8108 31.0414L92.8668 30.5262L89.0594 50.2239L101.96 65.5878L84.1882 74.8935L80.224 94.5576L61.8701 86.4725L44.0202 95.6326Z" fill="#D1B01D" stroke="#060605" stroke-miterlimit="10"/>
<path d="M44.009 95.5991L38.8914 76.2038L20.6047 67.9619L32.5756 51.8701L27.6148 32.43L47.6708 31.7581L59.7761 15.7559L72.7996 31.0078L92.8556 30.5039L89.0594 50.2015L101.96 65.5655L84.1882 74.8712L80.2128 94.5352L61.8589 86.4501L44.009 95.5991Z" fill="#D2B11D" stroke="#060605" stroke-miterlimit="10"/>
<path d="M44.009 95.5766L38.8802 76.1813L20.5935 67.9394L32.5644 51.8476L27.6148 32.4075L47.6596 31.7244L59.7648 15.7334L72.7996 30.9854L92.8444 30.4814L89.0482 50.1791L101.949 65.543L84.1769 74.8487L80.2128 94.5128L61.8589 86.4165L44.009 95.5766Z" fill="#D3B21D" stroke="#050505" stroke-miterlimit="10"/>
<path d="M43.9978 95.5543L38.8802 76.159L20.5935 67.9171L32.5644 51.8141L27.6036 32.3852L47.6484 31.7021L59.7648 15.7111L72.7884 30.963L92.8444 30.4591L89.037 50.1455L101.937 65.5095L84.1769 74.8264L80.2016 94.4904L61.8477 86.3941L43.9978 95.5543Z" fill="#D4B31D" stroke="#050505" stroke-miterlimit="10"/>
<path d="M43.9977 95.5318L38.869 76.1365L20.5823 67.8946L32.5532 51.7916L27.6036 32.3515L47.6483 31.6796L59.7536 15.6886L72.7883 30.9406L92.8331 30.4254L89.0369 50.1231L101.937 65.487L84.1657 74.7927L80.2015 94.4568L61.8365 86.3717L43.9977 95.5318Z" fill="#D5B31D" stroke="#050505" stroke-miterlimit="10"/>
<path d="M43.9865 95.5094L38.8689 76.1141L20.5823 67.8611L32.5532 51.7692L27.5924 32.3292L47.6371 31.6573L59.7536 15.655L72.7771 30.907L92.8331 30.4031L89.0257 50.1007L101.926 65.4646L84.1657 74.7704L80.1903 94.4344L61.8365 86.3493L43.9865 95.5094Z" fill="#D6B41D" stroke="#050505" stroke-miterlimit="10"/>
<path d="M43.9865 95.4759L38.8577 76.0806L20.571 67.8387L32.5419 51.7469L27.5811 32.3068L47.6371 31.6237L59.7424 15.6327L72.7771 30.8846L92.8219 30.3807L89.0257 50.0784L101.926 65.4423L84.1545 74.748L80.1903 94.4121L61.8252 86.3158L43.9865 95.4759Z" fill="#D7B51D" stroke="#050505" stroke-miterlimit="10"/>
<path d="M43.9753 95.4534L38.8577 76.0582L20.571 67.8163L32.5419 51.7133L27.5811 32.2844L47.6259 31.6013L59.7312 15.6102L72.7659 30.8622L92.8219 30.3583L89.0145 50.0447L101.915 65.4087L84.1433 74.7256L80.1791 94.3896L61.8252 86.2933L43.9753 95.4534Z" fill="#D8B61D" stroke="#050504" stroke-miterlimit="10"/>
<path d="M43.9642 95.4311L38.8466 76.0358L20.5599 67.7939L32.5308 51.6909L27.57 32.2508L47.626 31.5789L59.7313 15.5879L72.7548 30.8398L92.8108 30.3247L89.0146 50.0224L101.915 65.3863L84.1434 74.692L80.1792 94.3561L61.8141 86.271L43.9642 95.4311Z" fill="#D9B71D" stroke="#050504" stroke-miterlimit="10"/>
<path d="M43.9642 95.4086L38.8466 76.0133L20.5599 67.7602L32.5308 51.6684L27.57 32.2283L47.6148 31.5564L59.7201 15.5542L72.7548 30.8062L92.8108 30.3022L89.0034 49.9999L101.904 65.3638L84.1322 74.6695L80.168 94.3336L61.8141 86.2485L43.9642 95.4086Z" fill="#DAB71D" stroke="#050504" stroke-miterlimit="10"/>
<path d="M43.953 95.3751L38.8354 75.9798L20.5487 67.7379L32.5196 51.6461L27.5588 32.206L47.6148 31.5229L59.72 15.5319L72.7436 30.7838L92.7996 30.2799L89.0034 49.9775L101.904 65.3415L84.1321 74.6472L80.1568 94.3112L61.8029 86.2261L43.953 95.3751Z" fill="#DBB81D" stroke="#040404" stroke-miterlimit="10"/>
<path d="M43.9529 95.3526L38.8354 75.9573L20.5375 67.7154L32.5084 51.6124L27.5588 32.1835L47.6035 31.5004L59.7088 15.5094L72.7435 30.7614L92.7995 30.2574L88.9921 49.9551L101.892 65.3078L84.1209 74.6247L80.1567 94.2888L61.8029 86.1925L43.9529 95.3526Z" fill="#DCB91D" stroke="#040404" stroke-miterlimit="10"/>
<path d="M43.9417 95.3303L38.8242 75.935L20.5375 67.6931L32.5084 51.5901L27.5476 32.15L47.6035 31.4781L59.7088 15.4871L72.7323 30.739L92.7883 30.2239L88.9921 49.9216L101.892 65.2855L84.1209 74.5912L80.1455 94.2552L61.7917 86.1701L43.9417 95.3303Z" fill="#DDBA1D" stroke="#040404" stroke-miterlimit="10"/>
<path d="M43.9417 95.3079L38.8129 75.9126L20.5262 67.6595L32.4971 51.5677L27.5475 32.1276L47.5923 31.4557L59.6976 15.4535L72.7323 30.7054L92.7771 30.2015L88.9809 49.8992L101.881 65.2631L84.1097 74.5688L80.1455 94.2329L61.7916 86.1478L43.9417 95.3079Z" fill="#DEBB1D" stroke="#040404" stroke-miterlimit="10"/>
<path d="M43.9305 95.2743L38.8129 75.879L20.5262 67.6371L32.4971 51.5452L27.5363 32.1052L47.5811 31.4221L59.6976 15.431L72.7211 30.683L92.7771 30.1791L88.9697 49.8767L101.87 65.2407L84.1097 74.5464L80.1343 94.2104L61.7804 86.1253L43.9305 95.2743Z" fill="#DFBB1D" stroke="#040404" stroke-miterlimit="10"/>
<path d="M43.9306 95.2519L38.8018 75.8566L20.5151 67.6147L32.486 51.5117L27.5364 32.0828L47.5812 31.3997L59.6865 15.4087L72.7212 30.6606L92.766 30.1567L88.9698 49.8544L101.87 65.2071L84.0986 74.524L80.1344 94.1881L61.7693 86.0918L43.9306 95.2519Z" fill="#E0BC1D" stroke="#040403" stroke-miterlimit="10"/>
<path d="M43.9194 95.2295L38.8018 75.8342L20.5151 67.5923L32.486 51.4892L27.5252 32.0492L47.57 31.3773L59.6753 15.3862L72.71 30.6382L92.766 30.1231L88.9586 49.8207L101.859 65.1847L84.0986 74.4904L80.1232 94.1544L61.7693 86.0693L43.9194 95.2295Z" fill="#E1BD1D" stroke="#040403" stroke-miterlimit="10"/>
<path d="M43.9194 95.2071L38.7906 75.8118L20.5039 67.5587L32.4748 51.4669L27.514 32.0268L47.57 31.3549L59.6752 15.3527L72.6988 30.6046L92.7548 30.1007L88.9586 49.7983L101.859 65.1623L84.0873 74.468L80.1232 94.132L61.7581 86.0469L43.9194 95.2071Z" fill="#E2BE1D" stroke="#030303" stroke-miterlimit="10"/>
<path d="M43.9082 95.1735L38.7906 75.7782L20.5039 67.5364L32.4748 51.4445L27.514 32.0045L47.5588 31.3214L59.664 15.3303L72.6988 30.5823L92.7548 30.0784L88.9474 49.776L101.848 65.1399L84.0761 74.4457L80.112 94.1097L61.7581 86.0246L43.9082 95.1735Z" fill="#E3BF1D" stroke="#030303" stroke-miterlimit="10"/>
<path d="M43.8969 95.1511L38.7794 75.7558L20.4927 67.5139L32.4636 51.4221L27.5028 31.982L47.5588 31.2989L59.664 15.3079L72.6875 30.5598L92.7435 30.0559L88.9473 49.7535L101.848 65.1063L84.0761 74.4232L80.1119 94.0872L61.7469 85.991L43.8969 95.1511Z" fill="#E4C01D" stroke="#030303" stroke-miterlimit="10"/>
<path d="M43.897 95.1287L38.7794 75.7334L20.4816 67.4916L32.4525 51.3885L27.5028 31.9485L47.5476 31.2766L59.6529 15.2855L72.6876 30.5375L92.7436 30.0224L88.9362 49.72L101.837 65.084L84.065 74.3897L80.1008 94.0537L61.747 85.9686L43.897 95.1287Z" fill="#E5C01D" stroke="#030303" stroke-miterlimit="10"/>
<path d="M43.8858 95.1064L38.7682 75.7111L20.4816 67.4692L32.4525 51.3662L27.4916 31.9261L47.5476 31.2542L59.6529 15.252L72.6764 30.5039L92.7324 30L88.9362 49.6976L101.837 65.0616L84.065 74.3673L80.0896 94.0313L61.7358 85.9462L43.8858 95.1064Z" fill="#E6C11D" stroke="#030303" stroke-miterlimit="10"/>
<path d="M43.8858 95.0727L38.757 75.6774L20.4703 67.4355L32.4412 51.3437L27.4916 31.9036L47.5364 31.2317L59.6417 15.2295L72.6764 30.4814L92.7324 29.9775L88.925 49.6752L101.825 65.0391L84.0538 74.3448L80.0896 94.0089L61.7357 85.9238L43.8858 95.0727Z" fill="#E7C21D" stroke="#030303" stroke-miterlimit="10"/>
<path d="M43.8746 95.0504L38.757 75.6551L20.4703 67.4132L32.4412 51.3214L27.4804 31.8813L47.5364 31.1982L59.6417 15.2072L72.6652 30.4591L92.7212 29.9552L88.925 49.6528L101.825 65.0056L84.0538 74.3225L80.0784 93.9865L61.7245 85.8902L43.8746 95.0504Z" fill="#E8C31D" stroke="#030303" stroke-miterlimit="10"/>
<path d="M43.8746 95.0279L38.7458 75.6326L20.4591 67.3907L32.43 51.2877L27.4804 31.8588L47.5252 31.1757L59.6304 15.1847L72.6652 30.4367L92.71 29.9215L88.9138 49.6192L101.814 64.9831L84.0425 74.3L80.0784 93.9641L61.7245 85.8678L43.8746 95.0279Z" fill="#E9C41D" stroke="#030302" stroke-miterlimit="10"/>
<path d="M43.8634 95.0055L38.7458 75.6102L20.4591 67.3684L32.43 51.2653L27.4692 31.8253L47.514 31.1534L59.6304 15.1511L72.654 30.4143L92.71 29.8992L88.9026 49.5968L101.803 64.9607L84.0425 74.2665L80.0672 93.9305L61.7133 85.8454L43.8634 95.0055Z" fill="#EAC41D" stroke="#020202" stroke-miterlimit="10"/>
<path d="M43.8633 94.9719L38.7346 75.5766L20.4479 67.3347L32.4188 51.2429L27.4692 31.8028L47.5139 31.1309L59.6192 15.1287L72.6539 30.3806L92.6987 29.8767L88.9025 49.5743L101.803 64.9383L84.0313 74.244L80.0671 93.9081L61.7021 85.8229L43.8633 94.9719Z" fill="#EBC51D" stroke="#020202" stroke-miterlimit="10"/>
<path d="M43.8521 94.9495L38.7346 75.5542L20.4479 67.3124L32.4188 51.2205L27.458 31.7805L47.5027 31.0974L59.608 15.1063L72.6427 30.3583L92.6987 29.8544L88.8913 49.552L101.792 64.916L84.0201 74.2217L80.0559 93.8857L61.7021 85.7894L43.8521 94.9495Z" fill="#ECC61D" stroke="#020202" stroke-miterlimit="10"/>
<path d="M43.8522 94.9272L38.7234 75.5319L20.4368 67.29L32.4077 51.187L27.4468 31.7581L47.5028 31.075L59.6081 15.084L72.6316 30.3359L92.6876 29.832L88.8914 49.5185L101.792 64.8824L84.0202 74.1993L80.056 93.8634L61.691 85.7671L43.8522 94.9272Z" fill="#EDC71D" stroke="#020202" stroke-miterlimit="10"/>
<path d="M43.841 94.9047L38.7234 75.5094L20.4368 67.2676L32.4077 51.1645L27.4468 31.7245L47.4916 31.0526L59.5969 15.0615L72.6316 30.3135L92.6876 29.7984L88.8802 49.496L101.781 64.8599L84.009 74.1657L80.0448 93.8297L61.691 85.7446L43.841 94.9047Z" fill="#EEC81D" stroke="#020202" stroke-miterlimit="10"/>
<path d="M43.8298 94.8824L38.7122 75.4871L20.4255 67.234L32.3964 51.1422L27.4356 31.7021L47.4916 31.0302L59.5969 15.028L72.6204 30.2799L92.6764 29.776L88.8802 49.4736L101.781 64.8376L84.009 74.1433L80.0448 93.8073L61.6797 85.7222L43.8298 94.8824Z" fill="#EFC91D" stroke="#020202" stroke-miterlimit="10"/>
<path d="M43.8298 94.8487L38.7122 75.4534L20.4143 67.2115L32.3852 51.1197L27.4356 31.6796L47.4804 30.9965L59.5856 15.0055L72.6204 30.2575L92.6764 29.7535L88.869 49.4512L101.769 64.8151L83.9977 74.1208L80.0336 93.7849L61.6797 85.6886L43.8298 94.8487Z" fill="#F0C91D" stroke="#020202" stroke-miterlimit="10"/>
<path d="M43.8186 94.8264L38.701 75.4311L20.4143 67.1892L32.3852 51.0862L27.4244 31.6573L47.4804 30.9742L59.5856 14.9832L72.6092 30.2351L92.6652 29.7312L88.869 49.4176L101.769 64.7816L83.9977 74.0985L80.0224 93.7626L61.6685 85.6662L43.8186 94.8264Z" fill="#F1CA1D" stroke="#020201" stroke-miterlimit="10"/>
<path d="M43.8185 94.8039L38.6898 75.4086L20.4031 67.1667L32.374 51.0637L27.4244 31.6236L47.4691 30.9517L59.5744 14.9607L72.6091 30.2127L92.6651 29.6975L88.8577 49.3952L101.758 64.7591L83.9865 74.0648L80.0223 93.7289L61.6685 85.6438L43.8185 94.8039Z" fill="#F2CB1D" stroke="#010101" stroke-miterlimit="10"/>
<path d="M43.8073 94.7815L38.6898 75.3862L20.4031 67.1332L32.374 51.0413L27.4132 31.6013L47.4691 30.9294L59.5744 14.9271L72.5979 30.1791L92.6539 29.6752L88.8577 49.3728L101.747 64.7367L83.9865 74.0425L80.0111 93.7065L61.6573 85.6214L43.8073 94.7815Z" fill="#F3CC1D" stroke="#010101" stroke-miterlimit="10"/>
<path d="M43.8074 94.748L38.6786 75.3527L20.392 67.1108L32.3629 51.019L27.4132 31.5789L47.458 30.8958L59.5633 14.9048L72.598 30.1567L92.6428 29.6528L88.8466 49.3505L101.747 64.7144L83.9754 74.0201L80.0112 93.6842L61.6462 85.5991L43.8074 94.748Z" fill="#F4CD1D" stroke="#010101" stroke-miterlimit="10"/>
<path d="M43.7962 94.7255L38.6786 75.3302L20.392 67.0884L32.3629 50.9853L27.402 31.5565L47.4468 30.8734L59.5633 14.8823L72.5868 30.1343L92.6428 29.6304L88.8354 49.328L101.736 64.6807L83.9754 73.9977L80 93.6617L61.6462 85.5654L43.7962 94.7255Z" fill="#F5CD1D" stroke="#010101" stroke-miterlimit="10"/>
<path d="M43.7962 94.7035L38.6674 75.3082L20.3807 67.0663L32.3516 50.9632L27.402 31.5232L47.4468 30.8513L59.5521 14.8602L72.5868 30.1122L92.6316 29.5971L88.8354 49.2947L101.736 64.6587L83.9642 73.9644L80 93.6284L61.6349 85.5433L43.7962 94.7035Z" fill="#F6CE1D" stroke="#010101" stroke-miterlimit="10"/>
<path d="M43.785 94.681L38.6674 75.2857L20.3807 67.0326L32.3516 50.9408L27.3908 31.5007L47.4356 30.8288L59.5409 14.8265L72.5756 30.0785L92.6316 29.5746L88.8242 49.2722L101.725 64.6362L83.953 73.9419L79.9888 93.6059L61.6349 85.5208L43.785 94.681Z" fill="#F7CF1D" stroke="#010101" stroke-miterlimit="10"/>
<path d="M43.7851 94.6474L38.6563 75.2521L20.3696 67.0102L32.3405 50.9184L27.3797 31.4783L47.4357 30.7952L59.541 14.8042L72.5645 30.0562L92.6205 29.5522L88.8243 49.2499L101.725 64.6138L83.9531 73.9195L79.9889 93.5836L61.6238 85.4985L43.7851 94.6474Z" fill="#F8D01D" stroke="#010101" stroke-miterlimit="10"/>
<path d="M43.7739 94.625L38.6563 75.2297L20.3696 66.9878L32.3405 50.896L27.3797 31.4559L47.4245 30.7728L59.5298 14.7817L72.5645 30.0337L92.6205 29.5298L88.8131 49.2274L101.713 64.5802L83.9419 73.8971L79.9777 93.5611L61.6238 85.4648L43.7739 94.625Z" fill="#F9D11D" stroke="#010100" stroke-miterlimit="10"/>
<path d="M43.7627 94.6025L38.6451 75.2072L20.3584 66.9653L32.3293 50.8623L27.3685 31.4222L47.4245 30.7503L59.5297 14.7593L72.5533 30.0112L92.6092 29.4961L88.813 49.1938L101.713 64.5577L83.9418 73.8634L79.9665 93.5275L61.6126 85.4424L43.7627 94.6025Z" fill="#FAD21D" stroke="black" stroke-miterlimit="10"/>
<path d="M43.7626 94.5801L38.645 75.1848L20.3472 66.9317L32.3181 50.8399L27.3684 31.3998L47.4132 30.7279L59.5185 14.7257L72.5532 29.9777L92.6092 29.4737L88.8018 49.1714L101.702 64.5353L83.9306 73.841L79.9664 93.5051L61.6126 85.42L43.7626 94.5801Z" fill="#FBD21D" stroke="black" stroke-miterlimit="10"/>
<path d="M43.7519 94.5474L38.6343 75.1521L20.3477 66.9103L32.3185 50.8184L27.3577 31.3784L47.4137 30.7065L59.519 14.7042L72.5425 29.9562L92.5985 29.4523L88.8023 49.1499L101.703 64.5138L83.9311 73.8196L79.9557 93.4836L61.6019 85.3985L43.7519 94.5474Z" fill="#FCD31D" stroke="black" stroke-miterlimit="10"/>
<path d="M43.7514 94.524L38.6226 75.1287L20.3359 66.8868L32.3068 50.795L27.3572 31.3549L47.402 30.6718L59.5073 14.6808L72.542 29.9327L92.5868 29.4288L88.7906 49.1265L101.691 64.4792L83.9194 73.7961L79.9552 93.4602L61.6013 85.3639L43.7514 94.524Z" fill="#FDD41D" stroke="black" stroke-miterlimit="10"/>
<path d="M111.915 44.3897L108.309 45.364L107.995 44.1993L117.212 41.7021L118.007 44.6361C118.242 45.4871 118.163 46.2374 117.783 46.8645C117.402 47.4916 116.786 47.9172 115.935 48.1523C115.05 48.3875 114.3 48.3427 113.695 48.0067C113.091 47.6708 112.665 47.0773 112.419 46.2374L111.915 44.3785V44.3897ZM112.911 44.121L113.393 45.9015C113.527 46.4166 113.796 46.7749 114.177 46.9653C114.558 47.1557 115.039 47.1781 115.61 47.0213C116.17 46.8757 116.573 46.607 116.831 46.2374C117.088 45.8679 117.156 45.4312 117.021 44.9384L116.54 43.1467L112.911 44.1322V44.121Z" fill="black"/>
<path d="M114.39 56.943C113.091 57.0885 112.06 56.9318 111.299 56.4614C110.538 55.9911 110.101 55.2408 109.978 54.233C109.866 53.2587 110.112 52.4413 110.728 51.803C111.344 51.1535 112.273 50.7503 113.505 50.5936L115.297 50.392C116.562 50.2464 117.592 50.4144 118.376 50.8959C119.16 51.3774 119.608 52.1165 119.72 53.1244C119.832 54.121 119.586 54.9385 118.959 55.5768C118.331 56.2151 117.38 56.607 116.103 56.775L114.379 56.9765L114.39 56.943ZM115.913 55.5544C116.921 55.4424 117.648 55.1848 118.096 54.8041C118.544 54.4234 118.735 53.8858 118.656 53.2139C118.578 52.5533 118.275 52.0941 117.738 51.8142C117.2 51.5342 116.45 51.4446 115.487 51.5566L113.785 51.747C112.811 51.859 112.094 52.1165 111.624 52.5085C111.153 52.9004 110.963 53.4379 111.03 54.1098C111.109 54.7817 111.4 55.252 111.904 55.5096C112.408 55.7671 113.147 55.8679 114.121 55.7671L115.901 55.5656L115.913 55.5544Z" fill="black"/>
<path d="M110.448 60.3247L110.426 59.1265L119.978 58.9697L120 60.1679L110.448 60.3247Z" fill="black"/>
<path d="M109.821 68.5218L109.955 67.3236L117.682 64.3001L110.358 63.5162L110.481 62.318L119.978 63.337L119.843 64.5352L112.083 67.5699L119.44 68.3538L119.317 69.5408L109.821 68.5218Z" fill="black"/>
<path d="M116.338 77.7156L116.965 75.2855L108.712 73.1691L109.015 72.0045L117.268 74.1209L117.895 71.6909L118.891 71.9485L117.346 77.9731L116.349 77.7156H116.338Z" fill="black"/>
<path d="M108.365 81.4109C108.802 81.5901 109.194 81.6125 109.53 81.4669C109.866 81.3213 110.269 80.9854 110.739 80.4479C111.209 79.9104 111.646 79.5296 112.027 79.2945C112.408 79.0593 112.788 78.9249 113.169 78.8913C113.55 78.8577 113.942 78.9137 114.345 79.0817C115.05 79.3617 115.532 79.832 115.789 80.4815C116.058 81.131 116.036 81.8365 115.722 82.5979C115.509 83.1131 115.207 83.5274 114.815 83.8409C114.423 84.1545 113.975 84.3337 113.471 84.3897C112.968 84.4456 112.475 84.3673 111.982 84.1657L112.43 83.0459C112.979 83.2698 113.46 83.3034 113.863 83.169C114.266 83.0235 114.569 82.7099 114.77 82.2172C114.95 81.7693 114.972 81.3661 114.815 81.019C114.658 80.6718 114.356 80.4031 113.908 80.2239C113.539 80.0783 113.169 80.0783 112.811 80.2463C112.452 80.4143 112.06 80.739 111.635 81.2094C110.997 81.9596 110.381 82.4412 109.81 82.6427C109.239 82.8443 108.611 82.8107 107.928 82.5307C107.212 82.2396 106.73 81.7693 106.484 81.131C106.237 80.4927 106.282 79.7648 106.607 78.9697C106.82 78.4546 107.122 78.0291 107.525 77.6819C107.928 77.3348 108.376 77.122 108.891 77.0324C109.406 76.9428 109.922 77.01 110.448 77.2228L110 78.3426C109.451 78.1187 108.97 78.1075 108.533 78.2866C108.107 78.4658 107.783 78.8241 107.57 79.3505C107.368 79.8432 107.346 80.2575 107.503 80.6047C107.66 80.9518 107.951 81.2206 108.376 81.3885L108.365 81.4109Z" fill="black"/>
<path d="M103.583 85.5543L111.534 90.851L110.269 92.7435C109.653 93.673 108.88 94.1993 107.962 94.3225C107.044 94.4457 106.047 94.1657 104.994 93.4602L103.662 92.5756C102.609 91.8701 101.971 91.075 101.747 90.1679C101.523 89.2609 101.747 88.3202 102.396 87.3236L103.583 85.5431V85.5543ZM110.011 91.2766L103.774 87.122L103.236 87.9283C102.766 88.6338 102.632 89.2833 102.811 89.8656C103.001 90.4591 103.483 91.019 104.267 91.5565L105.678 92.4972C106.517 93.0571 107.234 93.3034 107.85 93.2475C108.455 93.1803 108.981 92.8331 109.407 92.1724L110 91.2766H110.011Z" fill="black"/>
<path d="M102.632 102.307L97.5812 97.7603C96.9093 97.1444 96.5622 96.4837 96.5286 95.7558C96.495 95.0279 96.7862 94.3224 97.4021 93.6393C98.0292 92.9338 98.7011 92.5643 99.4065 92.5307C100.112 92.4971 100.818 92.7882 101.512 93.4041L106.562 97.9506L105.767 98.8353L100.762 94.3224C100.28 93.8969 99.8321 93.6729 99.4177 93.6617C99.0034 93.6617 98.5891 93.8745 98.1747 94.3224C97.7604 94.7815 97.5812 95.2071 97.6372 95.6326C97.6932 96.0469 97.9508 96.4725 98.4323 96.898L103.438 101.411L102.632 102.307Z" fill="black"/>
<path d="M96.327 107.794L89.8208 102.822L92.2284 110.638L90.963 111.523L85.4983 103.684L86.4837 103.001L88.6114 106.058L90.6495 109.183L88.4434 101.646L89.1937 101.12L95.4759 105.79L93.2698 102.822L91.1422 99.7649L92.1276 99.0818L97.5924 106.921L96.327 107.805V107.794Z" fill="black"/>
<path d="M79.9104 110.683C79.3616 109.496 79.1937 108.477 79.4064 107.604C79.6192 106.73 80.1791 106.081 81.1086 105.655C82.0044 105.241 82.8555 105.23 83.6617 105.61C84.468 105.991 85.1399 106.741 85.6886 107.872L86.4389 109.507C86.9764 110.672 87.1332 111.691 86.9316 112.587C86.7189 113.483 86.159 114.143 85.2407 114.558C84.3224 114.983 83.4714 114.994 82.6651 114.603C81.87 114.211 81.1869 113.427 80.6382 112.273L79.9104 110.694V110.683ZM81.7021 111.702C82.1276 112.62 82.5867 113.236 83.1018 113.539C83.6058 113.852 84.1769 113.863 84.7928 113.572C85.3975 113.292 85.7446 112.856 85.8454 112.262C85.9462 111.669 85.7894 110.93 85.3863 110.045L84.6696 108.488C84.2553 107.604 83.7961 106.999 83.2698 106.674C82.7435 106.349 82.1836 106.327 81.5677 106.618C80.9518 106.898 80.6046 107.324 80.5039 107.884C80.4143 108.443 80.5598 109.171 80.9518 110.067L81.7021 111.691V111.702Z" fill="black"/>
<path d="M75.4199 108.007L76.5621 107.626L79.5857 116.685L78.4434 117.066L75.4199 108.007Z" fill="black"/>
<path d="M69.9777 111.904C70.0784 112.374 70.2912 112.699 70.5936 112.889C70.8959 113.08 71.411 113.214 72.1165 113.304C72.822 113.393 73.3819 113.527 73.785 113.707C74.1882 113.886 74.5129 114.121 74.7593 114.412C75.0056 114.703 75.1736 115.062 75.2744 115.487C75.4424 116.226 75.3304 116.887 74.9385 117.48C74.5465 118.074 73.9642 118.455 73.1579 118.634C72.6092 118.757 72.0941 118.746 71.6126 118.589C71.1311 118.443 70.7279 118.175 70.4032 117.794C70.0784 117.413 69.8545 116.954 69.7313 116.439L70.9071 116.17C71.0415 116.741 71.2766 117.167 71.6238 117.413C71.9709 117.66 72.4077 117.738 72.9228 117.615C73.3931 117.514 73.729 117.29 73.9306 116.965C74.1322 116.641 74.177 116.237 74.0762 115.767C73.9866 115.375 73.7738 115.073 73.4267 114.871C73.0796 114.67 72.598 114.524 71.9597 114.457C70.9743 114.356 70.2352 114.132 69.7425 113.774C69.2498 113.415 68.925 112.878 68.757 112.161C68.5891 111.411 68.7011 110.75 69.0818 110.179C69.4737 109.619 70.0896 109.239 70.9295 109.048C71.467 108.925 72.0045 108.936 72.5084 109.071C73.0124 109.205 73.4603 109.451 73.8186 109.821C74.177 110.19 74.4233 110.65 74.5465 111.209L73.3707 111.478C73.2363 110.907 72.9788 110.493 72.5868 110.246C72.1949 110 71.7134 109.933 71.1647 110.056C70.6495 110.168 70.2912 110.392 70.0896 110.717C69.8881 111.041 69.8433 111.433 69.9441 111.881L69.9777 111.904Z" fill="black"/>
<path d="M60.8062 115.476C60.8062 115.857 60.6718 116.17 60.4255 116.405C60.1791 116.652 59.8544 116.764 59.4512 116.752C59.0481 116.752 58.7346 116.618 58.4882 116.383C58.2418 116.137 58.1187 115.812 58.1299 115.409V115.162C58.1299 114.782 58.2642 114.468 58.5106 114.233C58.757 113.998 59.0817 113.886 59.496 113.886C59.8992 113.886 60.2239 114.02 60.4703 114.266C60.7054 114.513 60.8286 114.826 60.8174 115.218V115.465L60.8062 115.476Z" fill="black"/>
<path d="M48.2195 112.856L49.1378 109.227L50.3024 109.518L47.962 118.779L45.0056 118.029C44.1434 117.816 43.5387 117.38 43.1691 116.741C42.8108 116.103 42.7324 115.353 42.9452 114.502C43.1691 113.606 43.5723 112.979 44.1658 112.62C44.7593 112.262 45.476 112.172 46.3382 112.374L48.2083 112.844L48.2195 112.856ZM47.9732 113.852L46.1815 113.404C45.6663 113.27 45.2296 113.326 44.8713 113.572C44.5129 113.807 44.2666 114.222 44.121 114.804C43.9754 115.364 44.009 115.845 44.2106 116.249C44.4121 116.652 44.7593 116.92 45.252 117.044L47.0437 117.492L47.962 113.852H47.9732Z" fill="black"/>
<path d="M36.103 108.88C36.607 107.682 37.2565 106.864 38.0403 106.428C38.8242 105.991 39.6865 105.969 40.6383 106.372C41.5454 106.752 42.1277 107.368 42.3964 108.219C42.654 109.071 42.5532 110.078 42.0941 111.243L41.3998 112.9C40.9071 114.076 40.2576 114.894 39.4625 115.342C38.6674 115.789 37.794 115.823 36.8645 115.431C35.9351 115.039 35.3528 114.423 35.0952 113.561C34.8488 112.71 34.9608 111.68 35.4424 110.493L36.1142 108.891L36.103 108.88ZM36.5622 110.885C36.1702 111.814 36.0359 112.576 36.1478 113.158C36.2598 113.74 36.6294 114.166 37.2677 114.423C37.8724 114.681 38.4323 114.647 38.9362 114.311C39.4401 113.987 39.888 113.371 40.2688 112.475L40.9295 110.896C41.3102 110 41.4334 109.25 41.3214 108.645C41.2094 108.04 40.8399 107.615 40.2128 107.346C39.5857 107.077 39.037 107.111 38.5555 107.424C38.0739 107.738 37.6372 108.343 37.2453 109.227L36.551 110.885H36.5622Z" fill="black"/>
<path d="M35.0392 103.763L36.0919 104.345L31.4446 112.688L30.392 112.105L35.0392 103.763Z" fill="black"/>
<path d="M28.2307 99.1937L29.2162 99.8992L28.0404 108.107L32.3293 102.116L33.3147 102.822L27.7604 110.593L26.775 109.888L27.962 101.646L23.6619 107.66L22.6876 106.965L28.2419 99.1937H28.2307Z" fill="black"/>
<path d="M17.0325 100.37L18.8466 102.105L24.748 95.9575L25.6103 96.7862L19.7089 102.934L21.523 104.67L20.8063 105.409L16.3158 101.109L17.0325 100.37Z" fill="black"/>
<path d="M17.7156 91.6013C17.346 91.9037 17.1333 92.2284 17.0997 92.5867C17.0661 92.9451 17.1557 93.4602 17.3908 94.1433C17.626 94.8152 17.7492 95.3751 17.7604 95.823C17.7716 96.271 17.7044 96.6629 17.5476 97.01C17.3908 97.3572 17.1445 97.6707 16.8085 97.9395C16.215 98.4098 15.5767 98.6002 14.8712 98.5106C14.1769 98.421 13.5722 98.0627 13.0571 97.4132C12.71 96.9764 12.4972 96.5061 12.4188 96.0134C12.3404 95.5207 12.4076 95.0392 12.598 94.5688C12.7884 94.0985 13.1131 93.7066 13.5274 93.3706L14.2777 94.3113C13.8186 94.6808 13.5498 95.0727 13.4715 95.4983C13.3931 95.9238 13.5274 96.3382 13.8634 96.7637C14.1657 97.1444 14.5129 97.3572 14.8824 97.3908C15.2632 97.4244 15.6439 97.3012 16.0246 96.9876C16.3382 96.7413 16.5174 96.4165 16.5398 96.0134C16.5734 95.6215 16.4838 95.1175 16.271 94.5128C15.9239 93.5834 15.8007 92.8219 15.9127 92.2172C16.0135 91.6125 16.3494 91.0862 16.9317 90.6271C17.5364 90.1455 18.1747 89.9552 18.8578 90.056C19.5409 90.1567 20.1456 90.5487 20.6831 91.2206C21.0302 91.6573 21.2542 92.1276 21.355 92.6539C21.4558 93.1691 21.4222 93.673 21.243 94.1545C21.0638 94.636 20.7615 95.0615 20.3136 95.4087L19.5633 94.468C20.0224 94.0985 20.28 93.6842 20.336 93.225C20.3808 92.7659 20.2352 92.3068 19.8768 91.8701C19.5521 91.4557 19.1937 91.2318 18.813 91.187C18.4323 91.1422 18.0627 91.2766 17.6932 91.5677L17.7156 91.6013Z" fill="black"/>
<path d="M16.4389 85.4087L7.9283 89.7537L6.88687 87.7268C6.38295 86.7301 6.29336 85.8007 6.64051 84.9384C6.97645 84.0762 7.71554 83.3483 8.83536 82.7772L10.2575 82.0493C11.3885 81.4782 12.3964 81.3102 13.2922 81.5566C14.1881 81.8029 14.9048 82.4524 15.4535 83.5163L16.4277 85.42L16.4389 85.4087ZM8.29784 88.2195L14.972 84.8041L14.5352 83.9418C14.1545 83.1915 13.6506 82.7548 13.0459 82.6204C12.4412 82.4972 11.7133 82.6428 10.8622 83.0683L9.35048 83.841C8.45462 84.3001 7.88351 84.8041 7.63715 85.364C7.39079 85.9239 7.44678 86.551 7.80512 87.2453L8.29784 88.2083V88.2195Z" fill="black"/>
<path d="M2.30688 76.383L8.74585 74.2105C9.60811 73.9306 10.3584 73.953 11.0079 74.2777C11.6574 74.6025 12.1277 75.2072 12.4301 76.0806C12.7324 76.9765 12.7212 77.738 12.4077 78.3763C12.0941 79.0034 11.5006 79.4737 10.616 79.7872L4.17699 81.9597L3.79625 80.8287L10.1792 78.6786C10.7839 78.477 11.1983 78.1859 11.411 77.8275C11.6238 77.4692 11.635 76.9989 11.4334 76.4278C11.2431 75.8455 10.9407 75.4759 10.56 75.3192C10.1792 75.1624 9.6753 75.1848 9.0706 75.3863L2.68762 77.5364L2.30688 76.3942V76.383Z" fill="black"/>
<path d="M0.615901 68.1635L8.1411 64.9496L0.145577 63.1915L0 61.6461L9.50728 60.7502L9.61926 61.9485L5.91265 62.2956L2.19485 62.5308L9.84322 64.3225L9.93281 65.2407L2.77716 68.4098L6.45017 67.9507L10.1568 67.6035L10.2688 68.8018L0.761478 69.6976L0.615901 68.1523V68.1635Z" fill="black"/>
<path d="M6.15904 52.4524C7.45803 52.5531 8.43228 52.9115 9.09297 53.5162C9.75367 54.1209 10.0448 54.9384 9.95523 55.9574C9.87685 56.9428 9.47371 57.6819 8.74583 58.197C8.01794 58.7122 7.0325 58.9361 5.7783 58.8577L3.98659 58.7122C2.70999 58.6114 1.73575 58.253 1.06386 57.6259C0.391964 57.01 0.0896125 56.1926 0.168 55.1847C0.246387 54.1769 0.660721 53.4266 1.3886 52.9227C2.12769 52.4188 3.13553 52.206 4.41212 52.2956L6.14784 52.43L6.15904 52.4524ZM4.38972 53.5162C3.38189 53.4378 2.62041 53.5386 2.10529 53.8297C1.59017 54.1209 1.29902 54.6024 1.25423 55.2855C1.19824 55.9462 1.411 56.4613 1.88133 56.842C2.35165 57.2228 3.06834 57.4468 4.04258 57.5251L5.74471 57.6595C6.71895 57.7379 7.46923 57.6259 8.00675 57.3348C8.54426 57.0436 8.83541 56.5509 8.8914 55.879C8.9474 55.2071 8.74583 54.692 8.2979 54.3337C7.84997 53.9753 7.14448 53.7513 6.17024 53.6618L4.38972 53.5162Z" fill="black"/>
<path d="M10.6942 49.832L10.4703 51.0078L1.08618 49.2049L1.31015 48.0291L10.6942 49.832Z" fill="black"/>
<path d="M9.95522 43.2027C9.4961 43.0683 9.11536 43.0795 8.79061 43.2587C8.47706 43.4379 8.10752 43.8074 7.68199 44.3897C7.25645 44.972 6.86452 45.3864 6.51737 45.6551C6.15903 45.9239 5.80069 46.0919 5.41995 46.159C5.03921 46.2262 4.64727 46.2038 4.23294 46.0807C3.50505 45.8679 2.97874 45.4424 2.65399 44.8153C2.32924 44.1882 2.28445 43.4827 2.51961 42.6988C2.67639 42.1613 2.94514 41.7246 3.30349 41.3774C3.67303 41.0303 4.09856 40.8063 4.59128 40.7055C5.084 40.6047 5.58792 40.6383 6.10304 40.7839L5.75589 41.9373C5.18479 41.7693 4.71446 41.7693 4.32252 41.9485C3.93059 42.1277 3.66183 42.4748 3.50505 42.9899C3.37068 43.4603 3.39307 43.8522 3.57224 44.1882C3.75142 44.5241 4.08736 44.7593 4.55769 44.8936C4.94962 45.0056 5.30797 44.972 5.65511 44.7705C6.00226 44.5689 6.3606 44.2106 6.74134 43.6954C7.31245 42.8892 7.87236 42.3517 8.42107 42.0941C8.96978 41.8365 9.59688 41.8141 10.3024 42.0269C11.0414 42.2509 11.5678 42.6652 11.8701 43.2811C12.1725 43.897 12.1949 44.6249 11.9485 45.4536C11.7917 45.9911 11.523 46.439 11.1534 46.8197C10.7839 47.2005 10.3584 47.458 9.85444 47.5924C9.36172 47.7268 8.8354 47.7044 8.28669 47.5476L8.63383 46.3942C9.19375 46.5622 9.68647 46.5398 10.1008 46.3158C10.5039 46.0919 10.7951 45.7111 10.9631 45.1624C11.1198 44.6585 11.0974 44.233 10.9183 43.897C10.7391 43.5611 10.4143 43.3259 9.96642 43.1915L9.95522 43.2027Z" fill="black"/>
<path d="M11.3326 33.4714C11.0079 33.2811 10.7951 33.0235 10.7055 32.6876C10.6159 32.3516 10.6719 32.0157 10.8735 31.6685C11.0751 31.3214 11.3326 31.1086 11.6686 31.0078C12.0045 30.907 12.3405 30.963 12.6988 31.1646L12.9116 31.2878C13.2363 31.4782 13.4491 31.7357 13.5387 32.0717C13.6283 32.3964 13.5723 32.7436 13.3595 33.1019C13.1579 33.449 12.8892 33.673 12.5532 33.7626C12.2173 33.8522 11.8925 33.7962 11.5566 33.6058L11.3438 33.4826L11.3326 33.4714Z" fill="black"/>
<path d="M19.7872 23.7962L22.4972 26.3718L21.6685 27.2452L14.748 20.6607L16.8421 18.4546C17.458 17.8051 18.1299 17.4916 18.8578 17.4916C19.5969 17.4916 20.28 17.7939 20.9183 18.3986C21.5902 19.0369 21.9261 19.6976 21.9597 20.3919C21.9821 21.0862 21.7021 21.7581 21.1086 22.4076L19.776 23.8074L19.7872 23.7962ZM19.037 23.0907L20.3024 21.7581C20.6719 21.3662 20.8399 20.963 20.7951 20.5375C20.7615 20.112 20.5263 19.6976 20.0896 19.2833C19.6753 18.8914 19.2385 18.6786 18.7906 18.6562C18.3427 18.6338 17.9395 18.8018 17.5812 19.1713L16.3046 20.5151L19.0258 23.1019L19.037 23.0907Z" fill="black"/>
<path d="M29.2161 15.1624C30.0112 16.1926 30.4143 17.1557 30.4143 18.0516C30.4143 18.9474 30 19.7089 29.1937 20.336C28.4211 20.9407 27.5924 21.1535 26.7189 20.9631C25.8455 20.7727 25.0168 20.1904 24.2329 19.2162L23.1243 17.794C22.3404 16.7862 21.9485 15.8231 21.9485 14.9049C21.9485 13.9866 22.3516 13.2139 23.1467 12.598C23.9418 11.9821 24.7704 11.7694 25.6439 11.9709C26.5174 12.1725 27.346 12.7772 28.1523 13.785L29.2273 15.1512L29.2161 15.1624ZM27.2452 14.5801C26.6293 13.785 26.0358 13.2923 25.4647 13.1019C24.9048 12.9116 24.3449 13.0348 23.8074 13.4491C23.2923 13.8522 23.0459 14.3561 23.0795 14.9608C23.1243 15.5655 23.4378 16.2486 24.0314 17.0213L25.084 18.3763C25.6887 19.149 26.271 19.6305 26.8533 19.8209C27.4356 20.0112 27.9955 19.9105 28.5218 19.4961C29.0482 19.0818 29.3057 18.5891 29.2721 18.018C29.2385 17.4468 28.925 16.775 28.3315 15.9911L27.234 14.5801H27.2452Z" fill="black"/>
<path d="M34.2105 16.7301L33.1915 17.3572L28.1859 9.21609L29.2049 8.58899L34.2105 16.7301Z" fill="black"/>
<path d="M41.5117 13.0347L40.4143 13.5498L33.8297 8.51059L36.954 15.1735L35.8566 15.6886L31.8029 7.04362L32.9003 6.52851L39.5184 11.5901L36.3829 4.89357L37.4691 4.38965L41.5229 13.0347H41.5117Z" fill="black"/>
<path d="M45.9799 2.69882L43.5723 3.4267L46.0359 11.5902L44.8825 11.9373L42.4189 3.77385L40.0224 4.50173L39.7201 3.51629L45.6775 1.71338L45.9799 2.69882Z" fill="black"/>
<path d="M53.2699 7.60362C53.1915 7.1333 53.0123 6.79735 52.71 6.58459C52.4188 6.37182 51.9149 6.20385 51.2094 6.08067C50.5039 5.95749 49.9552 5.77831 49.5633 5.57675C49.1714 5.37518 48.8578 5.11762 48.6338 4.81527C48.3987 4.51292 48.2531 4.14338 48.1859 3.70665C48.0627 2.95637 48.2195 2.30687 48.6338 1.73576C49.0482 1.16465 49.6641 0.828707 50.4815 0.694329C51.0303 0.604743 51.5454 0.649536 52.0157 0.828707C52.486 1.00788 52.878 1.29903 53.1803 1.70217C53.4827 2.1053 53.6842 2.56443 53.7626 3.09075L52.5756 3.28111C52.486 2.69881 52.2621 2.27328 51.9373 1.99332C51.6014 1.71337 51.1758 1.62378 50.6495 1.71337C50.168 1.79175 49.8209 1.98212 49.5969 2.29567C49.3729 2.60922 49.3057 3.00116 49.3841 3.49388C49.4513 3.89702 49.6417 4.19937 49.9776 4.42333C50.3024 4.6473 50.7839 4.81527 51.411 4.92725C52.3852 5.08403 53.1131 5.35278 53.5834 5.74472C54.0538 6.12546 54.3561 6.68537 54.4681 7.41325C54.5913 8.17473 54.4457 8.82423 54.0202 9.37294C53.5946 9.91045 52.9563 10.2576 52.1053 10.392C51.5566 10.4816 51.0303 10.4368 50.5263 10.28C50.0224 10.112 49.6081 9.83207 49.2721 9.44013C48.9362 9.04819 48.7234 8.57787 48.6338 8.00676L49.8209 7.81639C49.9104 8.39869 50.1456 8.82423 50.5263 9.09298C50.9071 9.36174 51.3774 9.45133 51.9373 9.36174C52.4636 9.27215 52.8332 9.08179 53.0571 8.76824C53.2811 8.45469 53.3483 8.07395 53.2699 7.61482V7.60362Z" fill="black"/>
<path d="M59.2833 9.54087L59.664 0L61.9373 0.0895857C63.0571 0.134378 63.9082 0.515118 64.4905 1.243C65.084 1.95969 65.3527 2.95633 65.2967 4.22172L65.2295 5.82307C65.1847 7.08846 64.8264 8.05151 64.1769 8.7122C63.5274 9.3729 62.6092 9.68645 61.411 9.64166L59.2721 9.55207L59.2833 9.54087ZM60.8174 1.07503L60.5263 8.56663L61.4893 8.60022C62.3292 8.63382 62.9563 8.42105 63.3706 7.95073C63.7738 7.4804 64.0089 6.77492 64.0537 5.82307L64.1209 4.13214C64.1657 3.1243 63.9977 2.37402 63.6282 1.8925C63.2587 1.41097 62.6875 1.15342 61.9037 1.11982L60.8286 1.07503H60.8174Z" fill="black"/>
<path d="M74.1098 1.64616L72.8556 8.32029C72.6764 9.20495 72.2957 9.85445 71.6909 10.2688C71.0862 10.6719 70.336 10.7951 69.4289 10.6271C68.4995 10.448 67.8388 10.0672 67.4356 9.48491C67.0437 8.9026 66.9205 8.15232 67.0885 7.23407L68.3427 0.559937L69.5185 0.783901L68.2755 7.41324C68.1523 8.04034 68.1971 8.54426 68.4099 8.9026C68.6226 9.26094 69.0258 9.5073 69.6193 9.61929C70.224 9.73127 70.6831 9.66408 71.0079 9.39532C71.3326 9.13776 71.5566 8.68983 71.6798 8.05154L72.9228 1.4222L74.1098 1.64616Z" fill="black"/>
<path d="M82.0941 4.1881L81.2095 12.3292L86.6518 6.21498L88.0628 6.84208L84.1882 15.5767L83.0907 15.084L84.6025 11.6797L86.215 8.32024L80.9071 14.1097L80.0672 13.7402L80.8063 5.94622L79.4065 9.37287L77.8948 12.7771L76.7974 12.2844L80.6719 3.5498L82.0829 4.1769L82.0941 4.1881Z" fill="black"/>
<path d="M93.0571 16.7302C92.3293 17.8164 91.5342 18.4883 90.6831 18.757C89.8321 19.0258 88.981 18.8802 88.1299 18.3091C87.3125 17.7604 86.8645 17.0437 86.7749 16.1591C86.6854 15.2744 86.9765 14.3002 87.6596 13.2587L88.6674 11.7694C89.3841 10.7055 90.1792 10.0448 91.0527 9.75369C91.9261 9.47373 92.7772 9.60811 93.6171 10.1792C94.4569 10.7391 94.9048 11.467 94.9832 12.3517C95.0616 13.2363 94.7481 14.2218 94.0426 15.2968L93.0683 16.7414L93.0571 16.7302ZM93.0012 14.6697C93.5611 13.8298 93.8522 13.1132 93.8522 12.5196C93.8522 11.9261 93.5723 11.4446 93.0012 11.0639C92.4524 10.6943 91.9037 10.616 91.3438 10.8399C90.7839 11.0639 90.2352 11.579 89.6865 12.3853L88.7234 13.8074C88.1747 14.6137 87.906 15.3304 87.8948 15.9463C87.8948 16.5622 88.1635 17.0549 88.7234 17.4357C89.2834 17.8164 89.8321 17.8948 90.3584 17.682C90.8847 17.4693 91.4334 16.9653 91.9933 16.1591L92.99 14.6697H93.0012Z" fill="black"/>
<path d="M93.1131 21.9708L92.1948 21.1981L98.3762 13.9193L99.2945 14.692L93.1131 21.9708Z" fill="black"/>
<path d="M99.2497 24.58C99.5968 24.2441 99.7648 23.8969 99.7648 23.5386C99.7648 23.1803 99.6192 22.6651 99.3281 22.0156C99.0369 21.3661 98.8577 20.8174 98.8017 20.3807C98.7458 19.944 98.7793 19.5408 98.9025 19.1713C99.0257 18.813 99.2385 18.477 99.552 18.1747C100.101 17.6483 100.717 17.402 101.422 17.4244C102.128 17.4468 102.766 17.7491 103.326 18.3426C103.718 18.7458 103.975 19.1937 104.098 19.6752C104.222 20.1679 104.21 20.6495 104.054 21.131C103.897 21.6125 103.628 22.038 103.247 22.4076L102.408 21.5341C102.833 21.1198 103.057 20.7054 103.102 20.2799C103.135 19.8544 102.967 19.44 102.598 19.0593C102.262 18.7122 101.904 18.533 101.523 18.533C101.142 18.533 100.773 18.701 100.425 19.0369C100.134 19.3169 99.9888 19.6528 100 20.056C100 20.4479 100.134 20.9406 100.403 21.5229C100.829 22.4188 101.019 23.1691 100.974 23.7738C100.929 24.3785 100.638 24.9384 100.112 25.4535C99.552 25.991 98.9361 26.2374 98.253 26.2038C97.5699 26.1702 96.9204 25.8342 96.3269 25.2071C95.9462 24.804 95.6774 24.3561 95.5207 23.8521C95.3639 23.3482 95.3527 22.8443 95.4871 22.3404C95.6214 21.8365 95.8902 21.3997 96.2933 20.9966L97.1332 21.8701C96.7077 22.2844 96.4949 22.7211 96.4837 23.1803C96.4837 23.6506 96.6741 24.0873 97.066 24.4904C97.4356 24.8712 97.8051 25.0615 98.1858 25.0727C98.5666 25.0727 98.9249 24.916 99.2609 24.5912L99.2497 24.58Z" fill="black"/>
<path d="M107.066 30.5487C107.391 30.3583 107.727 30.3023 108.063 30.3807C108.399 30.4703 108.667 30.6831 108.869 31.0302C109.071 31.3662 109.138 31.7133 109.059 32.0493C108.981 32.3852 108.768 32.654 108.421 32.8667L108.208 32.9899C107.884 33.1803 107.548 33.2363 107.223 33.1579C106.898 33.0795 106.618 32.8555 106.417 32.4972C106.204 32.15 106.148 31.8029 106.226 31.4782C106.305 31.1534 106.517 30.8846 106.853 30.6831L107.066 30.5599V30.5487Z" fill="black"/>
</svg>
