<?xml version="1.0" encoding="UTF-8"?>
<svg id="Calque_2" data-name="Calque 2" xmlns="http://www.w3.org/2000/svg" viewBox="0 0 108 136.7">
  <defs>
    <style>
      .cls-1 {
        fill: #00a558;
      }

      .cls-1, .cls-2, .cls-3 {
        stroke-width: 0px;
      }

      .cls-2 {
        fill: #ffdc00;
      }

      .cls-3 {
        fill: #fff;
      }
    </style>
  </defs>
  <g id="Calque_1-2" data-name="Calque 1">
    <g>
      <path class="cls-3" d="M54,136.7c-.72,0-1.43-.19-2.07-.58,0,0-36.73-22.21-36.76-22.23C4.82,107.16-.14,98.52,0,87.48V4C0,1.79,1.79,0,4,0h99.99c2.21,0,4,1.79,4,4v83.53c.14,10.99-4.82,19.63-15.16,26.37-.04.02-36.76,22.23-36.76,22.23-.64.38-1.35.58-2.07.58Z"/>
      <g>
        <path id="path975" class="cls-2" d="M4,4v83.53c-.15,11.48,5.91,18.17,13.35,23.01l36.65,22.16,36.65-22.16c7.44-4.84,13.49-11.53,13.35-23.01V4H4Z"/>
        <g id="g340">
          <g id="g346">
            <path id="path348" class="cls-1" d="M86.76,25.36l.92-1.68c.89.75,1.79,1.02,2.6,1.02.99,0,1.57-.36,1.57-1.03s-.68-1.05-1.71-1.39l-.49-.16c-1.76-.56-3.03-1.33-3.03-3.12,0-2.07,1.54-3.46,3.86-3.46,1.2,0,2.42.4,3.49,1.26l-1.08,1.74c-.74-.64-1.48-.93-2.32-.93s-1.37.38-1.37.98c0,.66.68.98,1.58,1.27l.49.16c1.57.52,3.18,1.43,3.18,3.4s-1.6,3.35-3.96,3.35c-1.42,0-2.73-.5-3.71-1.4"/>
          </g>
          <g id="g350">
            <path id="path352" class="cls-1" d="M66.3,106.75c0-1.34.69-2.58,1.83-3.29,2.69-1.66,5.57-3.47,7.47-4.76,4.05-2.76,6.54-4.79,6.54-11.43v-52.97h6.15v52.97c0,9.45-4.36,13.21-9.23,16.52-3.82,2.6-11.72,7.38-12.77,8.01v-5.04Z"/>
          </g>
          <g id="g354">
            <path id="path356" class="cls-1" d="M70.48,90.49l-34.45-39.62c-.17-.2-.49-.07-.49.18v35.83c0,1.47.75,2.85,1.99,3.64l4.16,2.65v-25.52c0-.31.39-.46.59-.22l21.86,25.14c.64.74,1.74.89,2.56.36l3.77-2.45Z"/>
          </g>
          <g id="g358">
            <path id="path360" class="cls-1" d="M72.45,34.3h-4.26c-1.04,0-1.89.84-1.89,1.89v24.43c0,.31-.39.46-.59.22l-21.72-24.98c-.86-.99-2.11-1.56-3.43-1.56h-6.08l37.48,43.1c.17.2.49.07.49-.18v-42.92Z"/>
          </g>
          <g id="g362">
            <path id="path364" class="cls-1" d="M54.49,104.92c-.09-.26-.25-.36-.38-.39-.05-.01-.09-.02-.13-.02s-.08,0-.13.02c-.13.03-.29.13-.38.39l-3.96,11.6,4.47,2.8,4.47-2.8-3.96-11.6Z"/>
          </g>
          <g id="g366">
            <path id="path368" class="cls-1" d="M59.12,104.71c1.64-.42,3.38-1.44,3.47-1.5.05-.03.08-.09.08-.15s-.03-.12-.08-.15c-.08-.05-1.32-.78-2.7-1.26-.67-.23-1.38-.41-1.99-.41-1.91,0-2.87,1.66-2.91,1.73-.03.06-.03.13,0,.18.02.04.4.68,1.12,1.17.22.15.47.28.75.38.31.11.65.18,1.04.18s.8-.07,1.23-.18"/>
          </g>
          <g id="g370">
            <path id="path372" class="cls-1" d="M48.23,101.6c-1.43.48-2.77,1.27-2.85,1.31-.05.03-.08.09-.08.15s.03.12.08.15c.09.05,1.82,1.08,3.47,1.5.42.11.84.18,1.22.18s.73-.07,1.04-.18c.35-.12.64-.29.89-.48.63-.47.96-1.04.98-1.08.03-.06.03-.13,0-.18-.04-.07-1-1.73-2.92-1.73-.57,0-1.22.15-1.84.36"/>
          </g>
          <g id="g374">
            <path id="path376" class="cls-1" d="M53.89,101.81s.06.03.09.03c.03,0,.06,0,.09-.03.07-.04,1.73-1.11,1.73-3.25s-1.6-5.1-1.67-5.23c-.06-.11-.24-.11-.3,0-.07.13-1.67,3.15-1.67,5.22s1.66,3.2,1.73,3.25"/>
          </g>
          <g id="g378">
            <path id="path380" class="cls-1" d="M41.69,106.77c0-1.34-.69-2.58-1.83-3.29-2.69-1.66-5.57-3.48-7.48-4.78-4.05-2.76-6.54-4.79-6.54-11.43v-52.97h-6.15v52.97c0,9.45,4.36,13.21,9.23,16.52,3.82,2.6,11.72,7.39,12.77,8.02v-5.04Z"/>
          </g>
        </g>
        <g id="g302">
          <path id="path304" class="cls-1" d="M16.07,17.75v2.37h3.49v2.07h-3.49v4.43h-2.5v-10.93h6.68v2.07h-4.18Z"/>
        </g>
        <g id="g308">
          <g id="g314">
            <path id="path316" class="cls-1" d="M21,21.11c0-3.35,2.16-5.57,5.38-5.57,1.61,0,2.98.55,4,1.74l-1.57,1.61c-.47-.77-1.36-1.29-2.42-1.29-1.68,0-2.82,1.42-2.82,3.53s1.17,3.56,2.9,3.56c1.23,0,1.99-.62,2.57-1.67l1.68,1.51c-1.02,1.48-2.47,2.23-4.31,2.23-3.24,0-5.41-2.28-5.41-5.66"/>
          </g>
        </g>
        <g id="g318">
          <path id="path320" class="cls-1" d="M35.16,15.68h1.54l5.75,6.37-.06-6.37h2.48v10.93h-1.52l-5.75-6.37.06,6.37h-2.5v-10.93Z"/>
        </g>
        <g id="g322">
          <path id="path324" class="cls-1" d="M53.15,24.74h-3.97l-.62,1.88h-2.66l4.12-10.93h2.3l4.11,10.93h-2.66l-.62-1.88ZM52.46,22.67l-1.29-3.89-1.3,3.89h2.58Z"/>
        </g>
        <g id="g326">
          <path id="path328" class="cls-1" d="M57.48,15.68h1.54l5.75,6.37-.06-6.37h2.48v10.93h-1.52l-5.75-6.37.06,6.37h-2.5v-10.93Z"/>
        </g>
        <g id="g330">
          <path id="path332" class="cls-1" d="M76.77,17.75h-2.88v8.87h-2.5v-8.87h-2.88v-2.07h8.26v2.07Z"/>
        </g>
        <g id="g334">
          <path id="path336" class="cls-1" d="M85.22,24.55v2.07h-7.11v-10.93h7.12v2.07h-4.62v2.37h4.14v2.07h-4.14v2.36h4.62Z"/>
        </g>
      </g>
    </g>
  </g>
</svg>