<?xml version="1.0" encoding="UTF-8"?>
<svg id="Calque_2" data-name="Calque 2" xmlns="http://www.w3.org/2000/svg" viewBox="0 0 99.23 165.08">
  <defs>
    <style>
      .cls-1 {
        fill: #ff002e;
      }

      .cls-1, .cls-2, .cls-3 {
        stroke-width: 0px;
      }

      .cls-2 {
        fill: #fff;
      }

      .cls-3 {
        fill: #c1933f;
      }
    </style>
  </defs>
  <g id="Calque_1-2" data-name="Calque 1">
    <g>
      <g>
        <path class="cls-2" d="M49.52,24.13c-4.48,0-8.19-3.65-8.28-8.12,0-.05,0-.1,0-.14.01-1.06.23-2.08.61-3.02-.75-.85-1.21-1.96-1.21-3.18v-1.86c0-2.17,1.44-4,3.42-4.59.65-1.88,2.43-3.22,4.52-3.22h1.96c2.1,0,3.88,1.35,4.52,3.22,1.98.59,3.42,2.42,3.42,4.59v1.85c0,1.22-.46,2.33-1.21,3.18.39.94.6,1.96.61,3.02,0,.05,0,.09,0,.14-.08,4.48-3.8,8.12-8.28,8.12h-.1Z"/>
        <path class="cls-2" d="M40.04,46.99c-1.38,0-2.7-.6-3.62-1.65,0,0-.4-.43-.43-.47-3.17-3.65-5.83-7.71-7.92-12.07-.58-1.2-.62-2.59-.13-3.83s1.48-2.22,2.73-2.7c3.86-1.49,7.9-2.51,12.01-3.04l.98-.11c.19-.02.37-.03.56-.03,1.12,0,2.2.39,3.07,1.11,1.01.84,1.63,2.07,1.71,3.38l.06.96c.28,4.03,1.12,8.04,2.48,11.89.52,1.46.3,3.07-.59,4.34-.89,1.27-2.33,2.03-3.88,2.04-2.09.02-4.19.08-6.83.18-.07,0-.13,0-.19,0Z"/>
        <path class="cls-2" d="M58.89,46.98c-2.26-.1-4.56-.16-6.82-.18-1.54-.02-2.99-.78-3.87-2.04-.88-1.27-1.1-2.88-.59-4.34,1.36-3.85,2.2-7.86,2.48-11.93l.05-.92c.08-1.31.69-2.52,1.69-3.37.87-.73,1.96-1.13,3.09-1.13.17,0,.34,0,.51.03,4.46.48,8.84,1.54,13.04,3.16,1.25.48,2.23,1.46,2.73,2.7.49,1.24.44,2.63-.13,3.84-2.09,4.36-4.76,8.42-7.92,12.07-.03.04-.46.51-.46.51-.91.99-2.25,1.61-3.6,1.61-.06,0-.12,0-.19,0Z"/>
        <path class="cls-2" d="M49.57,47.55c-1.87,0-3.58-1.03-4.58-2.77-.3-.52-.8-1.49-1.42-3.69l-.24-.87-.24-.95-.23-.98-.22-1.02-.12-.58-.18-.95-.18-1.04c-.24-1.48-.53-3.57-.56-5.32-.16-11.67,5.1-13.4,7.37-13.6.09,0,.19-.01.28-.02,0,0,.29,0,.34,0,1.86,0,7.94.94,7.94,13.08v.5c-.02,1.09-.13,2.36-.33,3.83l-.14.97-.17,1.03-.19,1.04-.1.53-.2,1-.22,1-.23.96-.13.5-.24.88c-.65,2.28-1.15,3.25-1.47,3.8-.95,1.66-2.66,2.7-4.54,2.7Z"/>
        <path class="cls-2" d="M70.81,47.75c-.15,0-.3,0-.45-.02l-1.5-.14-2.05-.17-1.7-.12c-2-.14-3.7-1.52-4.25-3.45-.55-1.93.16-4,1.78-5.18,2.42-1.77,4.67-3.79,6.68-6l.17-.19.84-.97c.91-1.07,2.24-1.67,3.63-1.67.15,0,.29,0,.44.02,1.55.14,2.93,1.03,3.7,2.37.83,1.44,1.9,4.48-.3,8.65l-.21.39c-.84,1.57-1.86,3.15-2.99,4.62-.91,1.19-2.32,1.87-3.79,1.87Z"/>
        <path class="cls-2" d="M28.42,47.75c-1.48,0-2.89-.69-3.8-1.87-.94-1.23-1.8-2.53-2.57-3.87l-.42-.76c-2.48-4.32-1.39-7.52-.52-9.04.77-1.34,2.15-2.22,3.69-2.37.15-.02.31-.02.46-.02,1.38,0,2.7.6,3.61,1.65l.93,1.07.12.13c2,2.2,4.25,4.22,6.67,6,1.62,1.19,2.33,3.25,1.77,5.18-.55,1.93-2.25,3.31-4.25,3.45l-2.05.15-2.14.18-1.04.1c-.15.01-.31.02-.46.02Z"/>
        <path class="cls-2" d="M37.29,47.88c-1.02-.03-2.02-.33-2.89-.87-.06-.04-.12-.07-.18-.11-3.65-2.49-7.01-5.41-10-8.68-.03-.03-1.1-1.26-1.1-1.26l-.68-.8-.73-.89s-.5-.64-.52-.67l-.42-.56c-.1-.14-.19-.26-.28-.39l-.42-.61c-3.62-5.37-4.21-10.33-1.79-14.78,2.38-4.32,6.88-7.02,11.78-7.1.21-.01.42-.01.64-.01s.43,0,.66.02c.05,0,.69.05.73.05,2.74.27,6.93,1.46,11.36,5.66l.4.38c.06.06.12.12.17.18,1.38,1.46,1.93,3.33,1.5,5.12-.06.25-.14.49-.24.73l-.04.1c-.13.31-.29.61-.48.88-1.09,1.57-2.8,2.46-4.7,2.46-.72,0-1.33-.13-1.74-.23l-1.04-.27-.45-.11-.3-.06-.34-.06-.35-.05-.42-.05c-.15-.01-.39-.03-.63-.03-.27,0-.47.02-.62.04-.07.97.39,3.01,2.41,6.31l.43.69.43.65.66.96.46.64.45.61.45.59.69.87.43.54,1.09,1.3c.08.09.15.19.22.29.83,1.16,1.16,2.58.93,3.98-.23,1.37-.96,2.58-2.08,3.41,0,0-.01.01-.02.02-.93.69-2.04,1.08-3.2,1.1-.04,0-.08,0-.11,0-.05,0-.09,0-.14,0Z"/>
        <path class="cls-2" d="M61.67,47.88c-1.16-.03-2.26-.41-3.19-1.11-2.33-1.72-2.86-5.01-1.18-7.38.08-.11.16-.22.25-.32l.69-.81.43-.51.44-.55.69-.88.45-.59.62-.84.52-.74.44-.65.42-.65.42-.66c1.99-3.26,2.44-5.29,2.38-6.26-.14-.02-.34-.04-.62-.04-.24,0-.48.02-.71.04l-.34.04-.35.06-.34.06-.3.06-.45.11s-1.02.27-1.05.27c-.4.1-1.01.22-1.73.22-1.63,0-3.13-.66-4.21-1.85-.08-.09-.15-.18-.23-.27l-.1-.12c-.11-.15-.22-.3-.32-.46-1.17-1.91-.98-4.25.48-6.13.05-.06.25-.3.25-.3.01-.02.06-.07.07-.08.07-.08.14-.15.21-.22,4.58-4.53,8.95-5.81,11.8-6.09.04,0,.69-.05.74-.05.22,0,.44-.02.64-.02.23,0,.44,0,.66.02,4.9.08,9.39,2.78,11.75,7.08,2.54,4.66,1.79,9.84-2.21,15.43l-.45.61-.26.34-.47.6-.48.59-.47.57-1.1,1.27-.43.49c-3.04,3.34-6.4,6.26-10.06,8.75-.06.04-.13.09-.2.13-.86.53-1.85.83-2.86.86-.05,0-.1,0-.15,0-.04,0-.08,0-.13,0Z"/>
        <path class="cls-2" d="M73.07,49.07c-1.59-.11-3.04-.9-3.98-2.19-1.32-1.78-1.41-4.22-.21-6.1.11-.17.23-.33.35-.48l.1-.12c.08-.1.17-.2.26-.29l2-2.04,1.03-1.08,1.12-1.2.44-.49c.78-.86,1.29-1.55,1.62-2.05-.77-.51-1.39-1.24-1.77-2.11-.59-1.37-.51-2.93.22-4.23.32-.57.58-1.18.76-1.81.57-1.91,2.26-3.27,4.25-3.42.45-.03.91-.05,1.36-.05.62,0,1.25.03,1.87.09h.06c1.85.18,3.67.75,5.28,1.67,2.36,1.34,4.12,3.62,4.82,6.25,0,.03.02.07.03.1,1.23,5.01-1.42,9.76-7.89,14.11l-.72.47s-.46.29-.47.3l-.69.42-.77.45-.74.42-.75.41-.72.39-1.36.7-1.26.62s-1.41.69-1.45.7c-.78.36-1.6.54-2.46.54,0,0-.29,0-.35-.01Z"/>
        <path class="cls-2" d="M25.8,49.08c-.85,0-1.7-.19-2.47-.54-.03-.02-2.3-1.12-2.3-1.12l-1-.51-.71-.37-.71-.38-.74-.41-.74-.42-.75-.44-.76-.46-.43-.27s-.79-.52-.82-.54l-.66-.46c-7.41-5.26-7.98-10.31-7.17-13.62.73-2.73,2.49-5.01,4.86-6.36,1.62-.93,3.4-1.49,5.27-1.66.6-.06,1.27-.1,1.94-.1.45,0,.9.02,1.35.05,2,.14,3.7,1.51,4.26,3.43.18.62.44,1.23.76,1.8.73,1.3.81,2.86.22,4.23-.37.87-.99,1.6-1.77,2.11.29.45.73,1.05,1.39,1.8l.49.54.9.98,1.48,1.56,1.96,2c1.84,1.85,2.06,4.84.49,6.96-.94,1.29-2.39,2.09-3.99,2.19-.07,0-.31.01-.35.01Z"/>
        <path class="cls-2" d="M69.67,53.95c-.14,0-.28,0-.42-.02l-1.73-.15-2.27-.17-1.98-.12-2.32-.12-2.62-.11-1.88-.06-1.48-.04-2.08-.04-1.6-.02h-2.22s-1.63,0-1.63,0l-2.64.04-2,.05-1.89.06-2.63.11-1.58.08-1.79.11-2.35.16-2.61.22c-.13.01-.27.02-.4.02-1.2,0-2.35-.45-3.24-1.26-.99-.91-1.55-2.18-1.55-3.52v-3.68c0-2.48,1.9-4.56,4.38-4.77l2.11-.18,2.43-.17,1.9-.12,1.7-.09,1.86-.09,2.51-.1,2.16-.06,1.69-.04,2.34-.03h2.35s2.25,0,2.25,0l2.17.04,2.07.05,2.89.1,3.03.14,2.26.13,1.9.13,3.28.27c2.48.2,4.39,2.28,4.39,4.77v3.68c0,1.34-.56,2.62-1.55,3.53-.89.81-2.04,1.26-3.23,1.26Z"/>
        <path class="cls-2" d="M49.62,165.08c-.84,0-1.69-.22-2.44-.67,0,0-.36-.21-.41-.24,0,0-.39-.25-.43-.28,0,0-.41-.28-.44-.3l-.4-.29-.5-.37-.54-.41-.84-.66-.92-.75-.99-.82-1.4-1.19-.76-.66-1.16-1.02-1.21-1.08-1.26-1.14-.86-.79-1.31-1.22-1.34-1.27-.91-.87-.91-.89-1.38-1.36-1.39-1.39-.94-.96-1.38-1.43-1.38-1.46-1.37-1.48-.91-1-.89-.99-.88-1-1.29-1.5-.84-1-.83-1.02c-.29-.36-.56-.69-.82-1.03l-.76-.98-.76-1c-.63-.84-1.23-1.68-1.81-2.52C1.68,113.67,0,93.48,0,82.91v-1.17s.02-1.19.02-1.19l.03-1.18.06-1.75.11-2.32.14-2.26.12-1.65.13-1.6.25-2.56.21-1.93.22-1.82.28-2.08.17-1.15.27-1.69.25-1.43.14-.75s.19-.9.2-.95l.1-.39c.02-.08.04-.17.07-.25l.08-.25c.15-.51.4-1.02.73-1.49.54-.76,1.29-1.35,2.17-1.69,0,0,.39-.15.44-.17,0,0,.52-.18.57-.2l.77-.24.76-.22,1.11-.3,1.3-.33.89-.21.95-.21,1.37-.29,1.52-.29,1.64-.29,1.79-.29,1.44-.22,1-.14,1.56-.21,2.19-.27,1.76-.19,1.81-.18,1.91-.17,1.33-.1,1.35-.1,1.39-.09,1.42-.08,2.2-.11,1.52-.06,1.56-.06,1.59-.05,1.63-.04,1.66-.03,1.71-.02h1.74s1.75,0,1.75,0l2.53.03,1.66.03,1.61.04,1.57.05,1.54.06,1.49.07,1.46.08,2.12.13,2.04.14,1.32.1,1.9.17,1.82.18,1.74.19,1.66.2,1.59.21,1.5.21,1.43.22,1.77.29,1.26.22,1.54.29,1.09.22,1.6.35,1.17.28,1.02.26s1.17.32,1.2.33c0,0,1.03.31,1.07.32l.76.25c.08.03.16.06.24.09l.43.17c.79.31,1.48.81,2.01,1.47.3.38.58.86.76,1.31.01.04.09.23.09.23.04.11.08.23.11.35,0,0,.12.43.13.5,0,0,.12.51.13.56,0,0,.17.83.18.87l.23,1.24.26,1.61.22,1.47.22,1.62.22,1.75.22,1.88.16,1.49.2,2.05.09,1.08.13,1.62.11,1.67.07,1.14.11,2.31.04,1.18.03,1.17.03,1.8v1.18c0,10.6-1.68,30.8-12.96,47.18l-.34.49-.69.97-.38.52-.74.99-.77,1-.8,1.01-1.24,1.52-.84,1-.86,1.01-1.32,1.5-.9,1-.9.99-.92.99-.92.98-1.38,1.45-.93.96-1.38,1.41-.94.94-1.37,1.35-1.37,1.32-1.35,1.28-1.32,1.24-.87.8-1.26,1.15-1.23,1.1-1.18,1.04-1.12.97-1.07.91-1.01.84-.93.76-.6.48-.8.63-.52.39s-.75.54-.78.56c0,0-.44.3-.49.33,0,0-.39.25-.44.28l-.26.16c-.76.45-1.61.68-2.46.68Z"/>
      </g>
      <g id="layer1">
        <g id="g1169">
          <path id="path1156" class="cls-3" d="M50.55,4.78v3.03h3.16v1.85h-3.16v2.96c1.5.4,2.55,1.75,2.56,3.3-.04,1.92-1.62,3.46-3.54,3.43-1.92.03-3.51-1.51-3.54-3.43.02-1.46.95-2.75,2.33-3.22l.23-.07v-2.96h-3.16v-1.86h3.16v-3.03h1.96Z"/>
          <path id="path1154" class="cls-3" d="M44.21,27.86l.06.96c.32,4.5,1.24,8.94,2.74,13.19-2.47.02-4.74.1-6.98.19l-.06-.07-.37-.4c-2.89-3.33-5.31-7.03-7.22-11.01,3.51-1.35,7.17-2.28,10.9-2.76l.93-.11Z"/>
          <path id="path1152" class="cls-3" d="M54.92,27.86c4.05.44,8.03,1.4,11.83,2.87-1.91,3.97-4.34,7.68-7.22,11.01l-.37.4-.06.07c-2.32-.1-4.65-.16-6.98-.19,1.51-4.25,2.43-8.69,2.74-13.19l.06-.96Z"/>
          <path id="path1150" class="cls-3" d="M49.59,20.52c1.73,0,3.15,2.73,3.15,8.3v.47c-.02.88-.12,1.99-.29,3.21l-.14.92-.16.95-.17.96-.09.48-.19.95-.21.92-.21.89-.11.43-.22.81c-.33,1.17-.67,2.1-.97,2.6-.15.26-.3.36-.43.36s-.28-.11-.44-.38c-.3-.51-.63-1.45-.97-2.61l-.22-.81-.22-.86-.21-.91-.2-.93c-.03-.16-.06-.32-.1-.48l-.18-.95-.16-.95c-.28-1.73-.47-3.38-.49-4.59-.08-5.72,1.3-8.61,3.01-8.76h.2Z"/>
          <path id="path1148" class="cls-3" d="M73.96,34.61c.59,1.02.46,2.41-.39,4.03l-.17.31c-.75,1.41-1.62,2.76-2.6,4.03l-1.49-.14-2.11-.17-1.74-.13c2.68-1.96,5.16-4.19,7.4-6.65h0l.18-.2.61-.7.32-.37h0Z"/>
          <path id="path1146" class="cls-3" d="M25.27,34.61l.93,1.07.18.2c2.24,2.46,4.71,4.69,7.4,6.65l-2.05.15-2.19.18-1.1.11c-.81-1.06-1.55-2.17-2.21-3.33l-.39-.7c-1-1.75-1.18-3.25-.56-4.33Z"/>
          <path id="path1144" class="cls-3" d="M30.71,15.94c.14,0,.29,0,.45.01l.48.03c2.21.21,5.23,1.25,8.53,4.37l.37.36c.06.06.41.43.34.74l-.04.1c-.34.49-.8.46-1.38.31l-1.01-.26-.56-.13-.42-.09-.46-.08-.49-.08-.51-.06c-2.18-.22-4.82.04-6.08,2.33-1.41,3.13.23,7.37,2.58,11.23l.47.74.48.73c.08.12.16.24.24.36l.49.71.5.69.5.67.5.65.73.93.47.58,1.14,1.36c.18.25.12.6-.13.78,0,0,0,0,0,0-.13.1-.29.16-.46.16-.18,0-.36-.06-.51-.15-3.35-2.29-6.42-4.96-9.16-7.95l-1.02-1.17-.64-.76-.43-.52c-.07-.09-.14-.18-.21-.27l-.43-.54-.42-.56c-.07-.09-.14-.19-.2-.28l-.4-.57c-2.02-2.99-3.33-6.42-1.51-9.76,1.56-2.83,4.53-4.59,7.76-4.6.15-.01.3-.01.46-.01h0Z"/>
          <path id="path1142" class="cls-3" d="M68.52,15.94c.16,0,.31,0,.46.01,3.23.01,6.2,1.78,7.76,4.6,1.94,3.56.32,7.21-1.91,10.33l-.41.56-.21.28-.43.54-.43.53-.43.51-1.05,1.22-.4.46c-2.73,3-5.81,5.67-9.16,7.95-.16.1-.33.15-.51.15-.17,0-.33-.06-.46-.16-.25-.18-.31-.53-.13-.78,0,0,0,0,0,0l.69-.81.46-.55.47-.58.73-.93.5-.65.5-.67c.08-.11.17-.23.25-.34l.5-.7.49-.72.48-.73.47-.74c2.36-3.86,4-8.1,2.59-11.24-1.26-2.29-3.9-2.55-6.08-2.33l-.51.06-.49.08-.46.08-.42.09-.56.13-1.01.26c-.53.13-.96.17-1.29-.19l-.1-.12c-.14-.23.03-.51.17-.69l.1-.12.03-.03c3.44-3.4,6.61-4.5,8.9-4.73l.48-.03c.15,0,.3-.01.45-.01h0Z"/>
          <path id="path1140" class="cls-3" d="M82.12,26.29c1.18.11,2.32.47,3.34,1.05,1.27.72,2.2,1.93,2.58,3.34.84,3.41-2.23,6.52-5.91,9l-.68.44c-.11.07-.23.14-.34.22l-.69.42-.69.41-.69.39-.68.38-.67.36-1.29.67-1.2.6-1.31.64c-.15.07-.32.11-.49.1-.18-.01-.35-.1-.45-.25-.15-.2-.16-.47-.03-.69l.1-.12,1.99-2.04,1.07-1.12,1.16-1.25.47-.52c2.57-2.84,3.81-5.3,3.31-6.82-.38-1.21-1.36-2.14-2.59-2.45.5-.89.89-1.82,1.18-2.8.84-.06,1.68-.05,2.52.04h0Z"/>
          <path id="path1138" class="cls-3" d="M17.1,26.29c.84-.09,1.68-.1,2.52-.04.29.98.68,1.91,1.18,2.8-1.23.31-2.21,1.24-2.59,2.45-.48,1.46.64,3.8,3.01,6.5l.53.59.94,1.02,1.53,1.61,2.01,2.06c.21.21.23.55.05.78-.1.15-.27.24-.45.25-.17,0-.34-.03-.49-.1l-2.2-1.08-.95-.48-.66-.34-.67-.36-.68-.38-.69-.39-.69-.41-.69-.42c-.11-.07-.23-.14-.34-.22l-.68-.44-.66-.46c-3.38-2.4-6.03-5.34-5.25-8.55.38-1.41,1.31-2.62,2.58-3.34,1.02-.59,2.16-.95,3.34-1.05h0Z"/>
          <path id="path1136" class="cls-3" d="M69.67,45.48v3.68l-1.73-.15-2.34-.17-2.03-.13-2.37-.13-2.67-.11-1.93-.06-1.52-.04-2.11-.04-1.64-.02h-2.26s-1.67,0-1.67,0l-2.68.04-2.04.05-1.93.06-2.68.11-1.62.08-1.82.11-2.4.16-2.68.22v-3.68l2.11-.18,2.36-.17,1.85-.11,1.67-.09,1.82-.09,2.47-.1,2.12-.06,1.66-.03,2.3-.03h2.31s2.21,0,2.21,0l2.12.04,2.03.05,2.84.1,2.97.14,2.21.13,1.86.13,3.21.26Z"/>
        </g>
        <g id="g1200">
          <path id="path911" class="cls-3" d="M47.9,50.97h1.71s1.71,0,1.71,0l2.5.03,1.62.03,1.58.04,1.54.05,1.5.06,1.47.07,1.43.07,2.07.13,1.99.14,1.28.1,1.85.16,1.77.17,1.69.18,1.61.19,1.53.2,1.45.2,1.38.21,1.72.28,1.2.21,1.48.28,1.02.21,1.54.34,1.08.26.95.24,1.01.28.95.28.76.25.43.17s.03.04.04.06l.05.13.08.3.1.43.16.76.23,1.24.25,1.53.21,1.41.22,1.56.22,1.7.21,1.82.15,1.44.19,2.01.09,1.04.12,1.59.11,1.63.07,1.1.06,1.11.05,1.12.04,1.13.03,1.14.02,1.14v.57s.01,1.15.01,1.15c0,13.39-2.68,30.73-12.12,44.44l-.32.46-.67.94-.34.47-.71.95-.73.95-.76.96-.78.97-.4.48-.81.97-.83.97-.42.48-.85.97-.87.97-.88.96-.89.96-.89.95-1.35,1.42-.91.93-1.36,1.38-.91.9-1.35,1.33-1.34,1.3-1.32,1.26-1.29,1.21-.85.78-1.24,1.13-1.2,1.07-1.15,1.01-1.09.95-1.04.88-.97.81-.9.73-.55.44-.76.59-.46.35-.61.44-.35.24-.31.2-.26.16-.26-.15-.31-.2-.35-.24-.4-.29-.44-.33-.48-.37-.79-.62-.87-.71-.94-.78-1.37-1.16-.72-.63-1.13-.99-1.18-1.05-1.22-1.11-.84-.77-1.28-1.2-1.31-1.24-.89-.85-.9-.87-1.35-1.33-1.36-1.36-.91-.92-1.36-1.4-1.35-1.42-1.33-1.44-.88-.96-.87-.97-.85-.97-1.25-1.46-.81-.97-.79-.97c-.26-.32-.52-.64-.77-.96l-.75-.96-.72-.95c-.58-.77-1.14-1.55-1.68-2.34-9.44-13.72-12.12-31.05-12.12-44.44v-1.15s.02-1.14.02-1.14l.03-1.14.06-1.7.05-1.12.06-1.11.07-1.1.07-1.09.12-1.6.13-1.56.09-1.01.15-1.48.21-1.88.21-1.77.27-2.02.16-1.1.26-1.63.24-1.35.13-.67.15-.71.1-.39.08-.25s.03-.08.06-.12l.29-.11.43-.15.77-.24.67-.2,1.01-.28,1.21-.3.82-.19.9-.2,1.31-.27,1.45-.28,1.58-.28,1.72-.28,1.38-.21.96-.14,1.51-.2,2.13-.26,1.69-.18,1.77-.18,1.85-.16,1.28-.1,1.32-.1,1.35-.09,1.39-.08,2.16-.11,1.49-.06,1.52-.05,1.56-.05,1.6-.03,1.64-.03,1.67-.02Z"/>
          <path id="path1096" class="cls-2" d="M51.99,55.87h-2.38s-2.38,0-2.38,0l-1.54.02-1.51.03-2.19.05-1.41.04-2.06.08-1.98.09-1.27.07-1.84.11-1.19.08-1.71.13-1.63.14-1.56.14-1.95.2-1.82.21-1.68.21-1.55.21-1.41.21-1.28.21-1.15.2-1.26.24-1.25.26-.82.19-.73.18-.57.17-.04.02-.02.02-.04.1-.07.27-.08.41-.13.75-.22,1.52-.16,1.26-.21,1.81-.17,1.61-.13,1.3-.16,1.83-.15,1.92-.11,1.5-.13,2.05-.08,1.57-.05,1.06-.06,1.59-.05,1.6-.02,1.07v1.06s-.02,1.06-.02,1.06c0,11.77,2.38,27.69,10.77,39.76l.31.45.65.9.34.45.69.91.72.92.74.93.77.93.39.47.8.94.82.94c.14.16.27.31.41.47l.84.94.85.94,1.29,1.4.87.92,1.32,1.37.88.9,1.32,1.33,1.31,1.3,1.3,1.26,1.27,1.22,1.25,1.17,1.61,1.48,1.15,1.04,1.1.98,1.37,1.19,1.25,1.06.85.69.52.41.7.54.41.31.37.26.32.22c.1.06.19.12.27.17l.25-.16.3-.2.34-.24.59-.44.44-.34.73-.58,1.09-.9,1.21-1.03,1.32-1.15.69-.62,1.08-.98,1.5-1.38,1.17-1.09,1.2-1.14,1.22-1.18,1.23-1.21,1.66-1.66,1.25-1.28.42-.43.88-.92c3.67-3.87,7.21-7.95,9.92-11.71l.57-.8c8.38-12.08,10.77-28,10.77-39.76v-1.59s-.04-1.6-.04-1.6l-.05-1.6-.06-1.59-.08-1.58-.12-2.07-.14-2.02-.15-1.95-.12-1.4-.21-2.2-.21-1.99-.21-1.76-.23-1.74-.14-.91-.06-.37-.08-.45-.07-.32-.04-.13s-.02-.05-.03-.06l-.22-.07-.49-.14-.77-.19-.86-.2-1.29-.27-1.3-.25-1.5-.26-1-.16-1.07-.16-1.55-.21-1.68-.21-1.82-.21-1.45-.15-2.06-.19-1.63-.13-1.71-.13-2.4-.15-1.9-.1-1.31-.06-2.03-.08-2.11-.07-2.19-.05-1.51-.02-1.54-.02h0Z"/>
          <path id="path1098" class="cls-1" d="M48.01,58.77h1.56s1.56,0,1.56,0l2.26.02,2.18.04,1.41.03,2.04.06,1.96.08,1.88.09,1.21.06,1.74.11,1.67.11,1.58.12,1.51.13,1.89.18,1.75.19,1.61.19,1.12.15,1.04.14,1.57.24.84.14,1.24.22,1.56.31,1.05.24.54.15.08.03.02.02.04.1.04.16.08.36.09.5.1.62.18,1.3.15,1.25.12,1.05.16,1.53.2,2.1.15,1.8.11,1.41.1,1.45.06.99.11,2.01.07,1.53.05,1.54.03,1.54.02,1.54v.51c0,10.83-2.23,25.5-10.03,36.59-.2.28-.41.57-.62.86l-.65.87-.33.44-.69.89-.36.45-.73.91c-.12.15-.25.3-.37.46l-.76.92-.78.92-.8.92-.82.93-.83.92-1.26,1.38-.85.91-.85.91-.86.9-1.29,1.33-1.28,1.3-.85.84-1.66,1.64-1.21,1.17-1.18,1.12-1.5,1.39-1.06.97-1.32,1.17-.91.78-.83.69-.74.6-.44.34-.2.15-.37.27-.33.22c-.13.09-.26.17-.39.24l-.13-.07-.3-.19c-.06-.04-.11-.08-.17-.12l-.38-.28-.43-.33-.49-.38-.53-.43-.58-.48-1.03-.88h0s-.96-.85-.96-.85l-1.02-.92-1.08-.99-1.13-1.06-.58-.55-1.19-1.14-1.22-1.19-.62-.61-1.26-1.26-1.27-1.29-.64-.66-1.27-1.33-1.27-1.35c-3.59-3.85-7.02-7.88-9.56-11.48-7.65-10.87-9.94-25.16-10.03-35.92v-1.18s.01-1.53.01-1.53l.02-1.03.04-1.54.08-2.05.11-2.01.09-1.48.1-1.44.19-2.3.16-1.72.2-1.98.12-1.08.16-1.3.15-1.12.14-.91.09-.54.08-.41.05-.2.04-.13s.02-.05.03-.06l.22-.07.61-.16.67-.15,1.28-.26,1.41-.26,1.4-.23,1.61-.24,1.44-.19,1.57-.19,1.71-.19,1.37-.14,1.96-.18,1.56-.13,1.64-.12,1.72-.11,1.8-.1,1.88-.09,1.96-.08,2.04-.06,1.41-.03,2.18-.04,2.26-.02Z"/>
          <path id="path1100" class="cls-2" d="M84.22,80.38H14.93c-.04,1.06-.07,2.12-.08,3.18v1.89s0,1,0,1l.02.73.04,1.19.04.85.05.89.07.93.08.97.1,1.01.05.52.12,1.06.07.54.15,1.1.08.56.18,1.14c1.18,7.08,3.61,15.43,8.54,22.44.48.68.99,1.37,1.52,2.07l.82,1.06c.28.35.56.71.85,1.07l.88,1.08.91,1.08.94,1.08.95,1.08.97,1.08.49.54.99,1.07.99,1.06.99,1.04,1.49,1.54.99,1,.98.98.96.95.95.92,1.38,1.32,1.32,1.24.84.78,1.19,1.08.75.66.7.61.96.82.57.48.51.42.23.18.48-.39.83-.69.96-.82.7-.61,1.13-1.01,1.22-1.12.86-.8.89-.83,1.38-1.32.95-.92.96-.95.98-.98.99-1,.99-1.02.99-1.04,1-1.05,1.48-1.6.98-1.08.48-.54.95-1.08.93-1.08.91-1.08.89-1.08c.98-1.2,1.92-2.43,2.83-3.69l.36-.51c4.27-6.07,6.66-13.13,7.99-19.51l.24-1.19c.11-.59.21-1.17.31-1.75l.18-1.14c.06-.38.11-.75.16-1.11l.14-1.09.12-1.05.11-1.03.09-.99.07-.95.06-.91.05-.87.04-.83.04-1.15.02-1.36v-.31c0-1.05-.01-2.12-.04-3.17l-.05-1.59h0Z"/>
          <g id="g1190">
            <path id="path1106" class="cls-1" d="M19.65,82.54h13.25v44.85c-2.38-2.63-4.6-5.39-6.67-8.27-2.8-4.11-4.94-8.65-6.33-13.43l-.25-.9v-22.26Z"/>
            <path id="path1104" class="cls-1" d="M79.49,82.54v22.26c-1.37,5.11-3.6,9.95-6.58,14.33-1.77,2.47-3.66,4.85-5.67,7.13l-1.01,1.14v-44.85h13.25Z"/>
            <path id="path1102" class="cls-1" d="M57.24,82.54v54.24l-.51.49-.99.96-.96.91-.93.87-.89.82-1.25,1.14-1.13,1.01-1,.87-.65-.56-.71-.63-1.18-1.05-.84-.77-.89-.82-1.41-1.32-1.48-1.42-.5-.49v-54.24h15.33Z"/>
          </g>
        </g>
        <g id="g1185">
          <path id="path1126" class="cls-2" d="M51.81,64.47h-2.3s0,5.07,0,5.07c0,.41.02.82.09,1.23l.08.4-.03.03-2.39-6.72-2.02.03v9.96c.02.28-.04.56-.16.81l-.1.18h2.25v-5.37s-.11-1.08-.11-1.08l.03-.03,2.47,6.48h1.89v-9.86c0-.39.11-.78.3-1.12h0Z"/>
          <path id="path1124" class="cls-2" d="M78.03,67.06h-4v8.4h1.67v-3.49h1.4v-1.56h-1.4v-1.79h1.82l.51-1.56Z"/>
          <path id="path1122" class="cls-2" d="M54.78,64.52l-2.34,10.94h2.11l.36-2.08h2.03l.38,2.08h2.26c-.18-.24-.32-.5-.41-.78l-.08-.28-2.17-9.83-1.07-.03-1.07-.02ZM55.87,67.47h.03s.23,1.36.23,1.36l.51,2.87h-1.41l.43-2.87.22-1.36Z"/>
          <path id="path1120" class="cls-2" d="M35.62,64.85l-1.36.08-1.35.09-.79,6.31h-.03l-.96-6.18c-.9.07-1.79.14-2.67.22l-.78,9.11c-.03.28-.11.55-.23.79l-.1.18h2.4l.29-7.25h.03v.19l1.44,7.07h1.29l1.31-7.25h.03l.48,7.25h2.31c-.16-.25-.27-.52-.33-.81l-.05-.36-.93-9.44Z"/>
          <path id="path1118" class="cls-2" d="M18.25,67.21l-1.92,8.26h1.62l.29-1.64h1.67l.31,1.64h1.9c-.12-.14-.21-.31-.27-.49l-1.88-7.77h-1.73ZM19.04,69.33h.02l.61,3.2h-1.15l.35-2.2.18-1Z"/>
          <path id="path1116" class="cls-2" d="M81.59,67.11h-.23c-2.12.22-3.67,2.12-3.45,4.24v.15c-.07,2.16,1.63,3.95,3.79,4.01,0,0,0,0,0,0,.33.03.66-.05.95-.2l.17-.11-.44-1.26c-.21.09-.43.13-.66.13-1.42.04-2.21-1.38-2.26-2.78-.04-1.51.76-2.75,2.06-2.75.14,0,.28,0,.42.01l.21.03.35-1.26c-.28-.13-.59-.2-.9-.21h0Z"/>
          <path id="path1114" class="cls-2" d="M40.73,64.51h0c-1.79,0-3.56,1.51-3.56,5.53s1.78,5.52,3.56,5.52,3.56-1.51,3.56-5.52-1.66-5.43-3.39-5.52h-.17ZM40.73,66.47c.92,0,1.25,1.26,1.36,2.35l.03.4.02.53v.85s-.03.36-.03.36l-.04.39c-.13,1.05-.47,2.26-1.35,2.26s-1.25-1.31-1.37-2.4l-.03-.39-.02-.36v-.3s0-.4,0-.4v-.34s.04-.38.04-.38c.09-1.13.4-2.55,1.39-2.55h0Z"/>
          <path id="path1112" class="cls-2" d="M63.87,64.87c-2.76.03-4.44,2.67-4.44,5.25s1.53,5.27,4.31,5.43h.28c.41.04.82-.03,1.2-.19l.22-.11-.47-1.84c-.25.09-.52.14-.78.15-1.78,0-2.57-1.91-2.57-3.47s.78-3.26,2.58-3.26c.17,0,.35.02.52.05l.25.06.51-1.72c-.27-.13-.55-.22-.85-.29l-.29-.05-.47-.03Z"/>
          <path id="path1110" class="cls-2" d="M24.52,66.93c-1.23.01-2.22,1.03-2.21,2.26,0,.07,0,.14.01.21,0,1.06.6,2.03,1.55,2.5l.38.26c.33.23.6.49.6.96v.07c-.04.5-.47.87-.96.84-.21,0-.41-.03-.61-.1l-.19-.07-.47,1.31c.43.28.92.42,1.43.42,1.31.03,2.4-1,2.44-2.31,0-.03,0-.07,0-.1v-.2c-.01-1.03-.54-1.61-1.11-2.07l-.35-.26-.33-.25c-.37-.29-.68-.57-.75-.98l-.02-.18c-.03-.43.29-.79.72-.82.04,0,.08,0,.12,0,.24,0,.47.07.69.17l.15.09.37-1.34c-.37-.22-.79-.36-1.22-.4h-.26s0-.02,0-.02Z"/>
          <path id="path1108" class="cls-2" d="M69.14,65.27c-1.8,0-3.59,1.41-3.59,5.17s1.79,5.18,3.59,5.18,3.59-1.42,3.59-5.18-1.67-5.08-3.41-5.17h-.17s0,0,0,0ZM69.14,67.1c.93,0,1.26,1.18,1.38,2.2l.03.37.02.34v.42s0,.4,0,.4l-.02.33-.03.37c-.11,1.02-.44,2.25-1.38,2.25s-1.26-1.23-1.38-2.25l-.03-.37-.02-.33v-.28s0-.38,0-.38v-.32s.04-.36.04-.36l.04-.38c.13-.97.48-2.01,1.35-2.01h0Z"/>
        </g>
      </g>
    </g>
  </g>
</svg>