<svg width="20" height="20" viewBox="0 0 20 20" fill="none" xmlns="http://www.w3.org/2000/svg">
<path d="M19.166 9.16644C18.7056 9.16644 18.3324 9.53947 18.3324 9.99961C18.3484 14.6174 14.6161 18.3739 9.99589 18.3903C5.37567 18.4063 1.61719 14.676 1.60078 10.0582C1.58476 5.44041 5.31705 1.68392 9.93727 1.66751C12.1821 1.6597 14.3359 2.55381 15.9144 4.14906C15.8871 4.15648 15.8593 4.16234 15.8312 4.16663H13.3299C12.8696 4.16663 12.4963 4.53967 12.4963 4.9998C12.4963 5.45994 12.8696 5.83297 13.3299 5.83297H15.8312C17.2127 5.83297 18.3324 4.71388 18.3324 3.33307V0.833171C18.3324 0.373032 17.9592 0 17.4988 0C17.0384 0 16.6652 0.373032 16.6652 0.833171V2.55381C12.5475 -1.12496 6.22609 -0.771454 2.54499 3.34362C-1.1361 7.45869 -0.782024 13.7772 3.33522 17.456C7.45246 21.1351 13.7743 20.7816 17.455 16.6661C19.0953 14.8326 20.0012 12.4589 20 9.99922C20 9.53908 19.6268 9.16605 19.1664 9.16605L19.166 9.16644Z" fill="black"/>
<path d="M10.9951 4.99976C10.5347 4.99976 10.1615 5.37279 10.1615 5.83293V9.99956C10.1615 10.2206 10.2494 10.4324 10.4058 10.5886L12.907 13.0885C13.238 13.4084 13.766 13.399 14.0861 13.0682C14.3983 12.7452 14.3983 12.2335 14.0861 11.9104L11.8291 9.65465V5.83332C11.8291 5.37318 11.4559 5.00015 10.9955 5.00015L10.9951 4.99976Z" fill="black"/>
</svg>
