<svg width="68" height="26" viewBox="0 0 68 26" fill="none" xmlns="http://www.w3.org/2000/svg">
<path d="M7.41784 23.8604L8.95921 21.0126L9.73632 21.4388L7.70043 25.2035L0.481689 21.2516L0.976212 20.3346L7.41784 23.8604Z" fill="black"/>
<path d="M9.92891 15.0783L8.0857 17.3384L10.3399 19.1981L12.485 16.5635L13.1722 17.1317L10.3721 20.5671L4.01392 15.3301L6.78196 11.9399L7.46915 12.5017L5.35619 15.0912L7.40492 16.7766L9.24814 14.5165L9.93534 15.0847L9.92891 15.0783Z" fill="black"/>
<path d="M15.4458 12.4307C15.1824 12.1143 14.8999 11.9399 14.5916 11.9141C14.2833 11.8883 13.8337 11.9787 13.2557 12.1853C12.6777 12.3984 12.196 12.5082 11.8171 12.5276C11.4382 12.5469 11.0914 12.4953 10.7895 12.3661C10.4877 12.237 10.218 12.0239 9.9739 11.7333C9.56287 11.2296 9.38947 10.6743 9.45369 10.0673C9.51792 9.46026 9.82619 8.93721 10.3721 8.48518C10.7446 8.17523 11.1428 7.98796 11.5731 7.91047C12.0034 7.83298 12.4144 7.88464 12.8126 8.05254C13.2108 8.22043 13.5576 8.48518 13.853 8.84034L13.0502 9.50546C12.7291 9.11156 12.3823 8.88555 12.0162 8.82743C11.6501 8.76931 11.2905 8.88555 10.9373 9.17613C10.6161 9.44089 10.4363 9.74439 10.4106 10.0673C10.3849 10.3966 10.5005 10.7259 10.7703 11.0488C10.9886 11.32 11.2712 11.4621 11.6116 11.4879C11.952 11.5073 12.3823 11.4298 12.8961 11.2361C13.6925 10.9261 14.3475 10.8099 14.8677 10.8938C15.388 10.9778 15.8439 11.2619 16.2486 11.7527C16.6724 12.2693 16.8458 12.8246 16.7623 13.4122C16.6853 13.9999 16.3577 14.5294 15.7797 15.0072C15.4136 15.3107 15.0026 15.5174 14.5595 15.6078C14.1163 15.7046 13.6796 15.6788 13.2622 15.5367C12.8447 15.3947 12.4786 15.1299 12.1639 14.7489L12.9667 14.0838C13.2878 14.4777 13.6475 14.6973 14.0521 14.7295C14.4567 14.7618 14.8356 14.6262 15.2146 14.3163C15.5678 14.0257 15.754 13.7157 15.7861 13.3864C15.8118 13.0571 15.7027 12.7406 15.4458 12.4242V12.4307Z" fill="black"/>
<path d="M22.2213 2.86073L20.2368 3.71312L23.1204 10.4934L22.1699 10.9003L19.2863 4.11994L17.3018 4.97232L16.955 4.15222L21.8745 2.03418L22.2213 2.85428V2.86073Z" fill="black"/>
<path d="M27.8795 5.61147L26.4602 5.90206L27.1153 9.17599L26.0941 9.38263L24.4692 1.28498L26.7235 0.826498C27.5134 0.665062 28.1493 0.749009 28.6438 1.0848C29.1383 1.42058 29.4594 1.98238 29.62 2.77665C29.7227 3.28033 29.697 3.73881 29.5558 4.15209C29.408 4.57182 29.1576 4.91407 28.7915 5.18528L31.0457 8.31069L31.0586 8.37526L29.9668 8.59482L27.8795 5.61147ZM26.2868 5.02384L27.5134 4.772C27.9373 4.68806 28.2456 4.48142 28.4447 4.15209C28.6438 3.82276 28.6952 3.43531 28.6052 2.97037C28.3997 1.93072 27.8217 1.50453 26.884 1.6918L25.6638 1.93718L26.2803 5.01093L26.2868 5.02384Z" fill="black"/>
<path d="M37.3203 5.01748C37.301 6.14754 37.0441 7.00638 36.556 7.60692C36.0679 8.20746 35.3808 8.49805 34.5009 8.48513C33.6531 8.47222 32.9916 8.16226 32.51 7.56172C32.0283 6.96117 31.7906 6.12171 31.7906 5.03685L31.8163 3.48061C31.8356 2.37638 32.0925 1.51754 32.587 0.897624C33.088 0.284165 33.7752 -0.0128776 34.6422 3.73217e-05C35.5092 0.0129522 36.1771 0.329368 36.6524 0.936368C37.1276 1.54337 37.3588 2.40221 37.3524 3.51935L37.3267 5.02394L37.3203 5.01748ZM36.312 3.55164C36.3248 2.67988 36.1964 2.02768 35.9202 1.59503C35.6441 1.16238 35.2138 0.942826 34.6229 0.936368C34.0577 0.923454 33.621 1.13655 33.3192 1.56274C33.0173 1.98893 32.8632 2.62176 32.8439 3.46123L32.8182 4.93999C32.8054 5.78592 32.9403 6.43166 33.2228 6.87723C33.5054 7.32279 33.9357 7.55526 34.5202 7.56172C35.1046 7.56818 35.5349 7.37445 35.8175 6.97409C36.1001 6.56727 36.2606 5.94735 36.2863 5.10143L36.312 3.55164Z" fill="black"/>
<path d="M40.4031 5.75356L39.6389 8.89834L38.637 8.65296L40.5894 0.626343L43.1326 1.25272C43.8776 1.43352 44.4042 1.8016 44.7189 2.35048C45.0336 2.89937 45.1043 3.54511 44.918 4.28772C44.7318 5.06261 44.385 5.60504 43.8776 5.92146C43.3702 6.23787 42.7473 6.31536 42.0087 6.14747L40.3967 5.75356H40.4031ZM40.6151 4.88826L42.1564 5.26925C42.5996 5.37903 42.9785 5.32737 43.2803 5.12073C43.5822 4.90764 43.7941 4.55248 43.9161 4.05525C44.0317 3.57094 44.0061 3.15767 43.8327 2.80251C43.6593 2.4538 43.3574 2.22133 42.9271 2.11802L41.3793 1.73703L40.6086 4.88826H40.6151Z" fill="black"/>
<path d="M49.3815 12.6825L48.4567 12.2111L50.1714 8.80159L47.2172 7.30346L45.5088 10.713L44.584 10.2481L48.2833 2.86719L49.2081 3.33212L47.6153 6.50273L50.5696 8.00086L52.1624 4.83025L53.0872 5.30165L49.3879 12.6761L49.3815 12.6825Z" fill="black"/>
<path d="M56.1186 13.141L53.8644 11.3007L52.0276 13.5737L54.6543 15.724L54.0956 16.415L50.666 13.6124L55.8489 7.20017L59.2335 9.97042L58.6747 10.6614L56.0929 8.54978L54.4231 10.6162L56.6773 12.463L56.1186 13.1539V13.141ZM59.3555 7.12268L60.3381 7.92341L58.116 8.25919L57.4673 7.72322L59.3555 7.12268Z" fill="black"/>
<path d="M60.3316 17.8485L58.4627 15.6078L56.2277 17.4869L58.3985 20.0957L57.7177 20.6705L54.879 17.2609L61.1794 11.9594L63.9795 15.3237L63.2987 15.8984L61.1601 13.3283L59.1306 15.0396L60.9931 17.2803L60.3124 17.8485H60.3316Z" fill="black"/>
<path d="M61.8795 23.7829C62.2391 23.5828 62.4639 23.3374 62.5474 23.0339C62.6309 22.7304 62.6245 22.2783 62.5281 21.6649C62.4318 21.0514 62.4061 20.5607 62.4575 20.1797C62.5089 19.7987 62.6245 19.4694 62.8107 19.1981C62.9905 18.9205 63.2474 18.6945 63.5814 18.5136C64.153 18.1972 64.7246 18.1327 65.3026 18.3135C65.8806 18.4943 66.343 18.8946 66.677 19.5146C66.9082 19.9407 67.0174 20.3669 67.0109 20.806C67.0045 21.2452 66.8825 21.6391 66.6449 22.0071C66.4072 22.3688 66.0861 22.6658 65.6815 22.8853L65.1806 21.9684C65.6237 21.723 65.9127 21.426 66.0412 21.0773C66.1696 20.7286 66.1182 20.3476 65.8999 19.9472C65.7008 19.5791 65.4439 19.3531 65.1228 19.2627C64.8081 19.1723 64.4613 19.2304 64.0952 19.4371C63.7933 19.605 63.5942 19.8568 63.5108 20.1861C63.4273 20.5155 63.4273 20.9546 63.5108 21.5034C63.6649 22.3429 63.652 23.0145 63.4786 23.5117C63.3052 24.0089 62.9392 24.4093 62.3804 24.7128C61.796 25.0357 61.2244 25.1003 60.6656 24.913C60.1069 24.7257 59.6445 24.2995 59.2913 23.6473C59.0601 23.2276 58.9445 22.7885 58.9316 22.33C58.9188 21.8715 59.0215 21.4518 59.2463 21.0643C59.4647 20.6769 59.7922 20.3669 60.2225 20.128L60.7235 21.045C60.2803 21.2904 59.9977 21.6068 59.8885 21.9942C59.7794 22.3817 59.8372 22.7885 60.0748 23.2211C60.2932 23.6215 60.5629 23.8669 60.8776 23.9573C61.1923 24.0477 61.5262 23.996 61.8795 23.8023V23.7829Z" fill="black"/>
</svg>
