<svg width="20" height="20" viewBox="0 0 20 20" fill="none" xmlns="http://www.w3.org/2000/svg">
<g clip-path="url(#clip0_341_8530)">
<path d="M19.1455 7.24486L13.2414 1.34075C11.4503 -0.446918 8.55137 -0.446918 6.76027 1.34075L0.854452 7.24486C0.306507 7.7911 0 8.53253 0 9.30651V17.9555C0.00342466 19.0839 0.917808 19.9983 2.04623 20H17.9538C19.0839 19.9983 19.9983 19.0839 20 17.9555V9.30651C20.0017 8.53253 19.6952 7.7911 19.1455 7.24486ZM17.5 17.5H13.3339V14.8476C13.3339 13.0908 11.9092 11.6661 10.1524 11.6661H9.84931C8.09247 11.6661 6.66781 13.0908 6.66781 14.8476V17.5H2.5V9.30651C2.50171 9.19692 2.54452 9.09075 2.62158 9.01199L8.5274 3.10788C9.34075 2.29452 10.6592 2.29281 11.4726 3.10788H11.4743L17.3784 9.01199C17.4555 9.09075 17.5 9.19692 17.5 9.30651V17.5Z" fill="black"/>
<path d="M17.5 9.30648V17.5H13.3339V14.8476C13.3339 13.0907 11.9092 11.6661 10.1524 11.6661H9.84931C8.09246 11.6661 6.66781 13.0907 6.66781 14.8476V17.5H2.5V9.30648C2.50171 9.19689 2.54452 9.09073 2.62158 9.01196L8.5274 3.10785C9.34075 2.2945 10.6592 2.29278 11.4726 3.10785H11.4743L17.3784 9.01196C17.4555 9.09073 17.5 9.19689 17.5 9.30648Z" fill="#FDD41D"/>
</g>
<defs>
<clipPath id="clip0_341_8530">
<rect width="20" height="20" fill="white"/>
</clipPath>
</defs>
</svg>
