<svg width="20" height="15" viewBox="0 0 20 15" fill="none" xmlns="http://www.w3.org/2000/svg">
<path d="M17.9162 15.0011H16.6664C15.5157 15.0011 14.5826 14.068 14.5826 12.9172V8.75097C14.5826 7.6002 15.5157 6.66714 16.6664 6.66714H17.9162C19.0669 6.66714 20 7.6002 20 8.75097V12.9172C20 14.068 19.0669 15.0011 17.9162 15.0011ZM3.33357 5.00035H2.08383C0.933059 5.00035 0 5.93341 0 7.08419V12.9172C0 14.068 0.933059 15.0011 2.08383 15.0011H3.33357C4.48434 15.0011 5.4174 14.068 5.4174 12.9172V7.08419C5.4174 5.93341 4.48434 5.00035 3.33357 5.00035ZM10.8334 0.00141403H9.16661C8.01583 0.00141403 7.08277 0.934474 7.08277 2.08525V12.9186C7.08277 14.0694 8.01583 15.0025 9.16661 15.0025H10.8334C11.9842 15.0025 12.9172 14.0694 12.9172 12.9186V2.08383C12.9172 0.93306 11.9842 0 10.8334 0V0.00141403Z" fill="black"/>
</svg>
