<svg width="120" height="120" viewBox="0 0 120 120" fill="none" xmlns="http://www.w3.org/2000/svg">
<path d="M77.1694 27.1395L77.8597 38.8223C78.0241 41.5789 80.2812 43.7448 83.0423 43.7995L94.7662 44.0292C99.5653 44.1277 101.779 50.0456 98.2067 53.2507L89.485 61.0721C87.4251 62.9207 87.1402 66.0274 88.8166 68.2152L95.9496 77.5133C98.8751 81.32 95.6099 86.7348 90.8656 85.9472L79.2951 84.0219C76.5668 83.5625 73.9481 85.2799 73.2797 87.9599L70.4419 99.3255C69.2805 103.985 63.0131 104.806 60.6683 100.616L54.9707 90.3884C53.623 87.9818 50.6537 86.9973 48.1336 88.1459L37.4726 93.0137C33.1008 95.0046 28.5427 90.629 30.3725 86.1988L34.832 75.3692C35.8838 72.8205 34.7881 69.8888 32.3228 68.6418L21.859 63.3474C17.5748 61.1815 18.1555 54.8916 22.7684 53.5461L34.0321 50.2753C36.6837 49.4987 38.3053 46.8296 37.7355 44.1277L35.3579 32.6637C34.3827 27.9709 39.6749 24.5032 43.5975 27.2708L53.1848 34.0201C55.4419 35.6062 58.5427 35.2015 60.3177 33.0794L67.8122 24.0766C70.8802 20.3902 76.8955 22.3592 77.1804 27.1395H77.1694Z" fill="black"/>
<path d="M77.0928 26.9864L77.7831 38.6692C77.9474 41.4258 80.2045 43.5917 82.9657 43.6464L94.6896 43.8761C99.4887 43.9746 101.702 49.8926 98.13 53.0977L89.4083 60.919C87.3484 62.7677 87.0636 65.8743 88.74 68.0621L95.8729 77.3602C98.7984 81.1669 95.5332 86.5817 90.7889 85.7941L79.2184 83.8689C76.4901 83.4094 73.8714 85.1268 73.2031 87.8069L70.3652 99.1724C69.2038 103.832 62.9365 104.653 60.5917 100.463L54.8941 90.2353C53.5464 87.8287 50.5771 86.8442 48.057 87.9928L37.3959 92.8606C33.0241 94.8515 28.466 90.476 30.2958 86.0457L34.7553 75.2162C35.8072 72.6674 34.7115 69.7358 32.2462 68.4887L21.7823 63.1943C17.4982 61.0284 18.0789 54.7385 22.6917 53.393L33.9554 50.1223C36.607 49.3456 38.2286 46.6765 37.6589 43.9746L35.2812 32.5106C34.3061 27.8178 39.5982 24.3502 43.5208 27.1177L53.1081 33.867C55.3652 35.4532 58.466 35.0484 60.2411 32.9263L67.7356 23.9235C70.8035 20.2371 76.8189 22.2061 77.1037 26.9864H77.0928Z" fill="#0C070D" stroke="black" stroke-width="0.05" stroke-miterlimit="10"/>
<path d="M77.027 26.8332L77.7173 38.516C77.8816 41.2726 80.1387 43.4385 82.8999 43.4932L94.6238 43.7229C99.4229 43.8214 101.636 49.7394 98.0642 52.9445L89.3425 60.7658C87.2826 62.6145 86.9978 65.7211 88.6742 67.9089L95.8071 77.207C98.7326 81.0137 95.4674 86.4285 90.7231 85.6409L79.1526 83.7157C76.4243 83.2562 73.8056 84.9736 73.1373 87.6537L70.2994 99.0192C69.138 103.679 62.8707 104.5 60.5259 100.31L54.8283 90.0821C53.4806 87.6755 50.5113 86.691 47.9912 87.8396L37.3301 92.7075C32.9583 94.6983 28.4002 90.3228 30.23 85.8925L34.6895 75.063C35.7414 72.5142 34.6457 69.5826 32.1804 68.3355L21.7165 63.0411C17.4324 60.8752 18.0131 54.5853 22.6259 53.2398L33.8896 49.9691C36.5412 49.1924 38.1628 46.5233 37.5931 43.8214L35.2154 32.3574C34.2403 27.6646 39.5325 24.197 43.455 26.9645L53.0423 33.7138C55.2994 35.3 58.4002 34.8952 60.1753 32.7731L67.6698 23.7703C70.7377 20.0839 76.7531 22.0529 77.0379 26.8332H77.027Z" fill="#170F1B" stroke="black" stroke-width="0.11" stroke-miterlimit="10"/>
<path d="M76.9503 26.68L77.6406 38.3628C77.805 41.1194 80.0621 43.2853 82.8232 43.34L94.5471 43.5697C99.3462 43.6682 101.56 49.5862 97.9876 52.7913L89.2659 60.6126C87.206 62.4613 86.9211 65.5679 88.5975 67.7557L95.7305 77.0538C98.6559 80.8605 95.3908 86.2753 90.6464 85.4877L79.076 83.5625C76.3477 83.103 73.729 84.8204 73.0606 87.5005L70.2228 98.866C69.0613 103.526 62.794 104.346 60.4492 100.157L54.7516 89.9289C53.4039 87.5223 50.4346 86.5378 47.9145 87.6864L37.2535 92.5543C32.8816 94.5451 28.3236 90.1696 30.1534 85.7393L34.6128 74.9098C35.6647 72.361 34.569 69.4294 32.1037 68.1823L21.6399 62.8879C17.3557 60.722 17.9364 54.4321 22.5493 53.0866L33.813 49.8159C36.4646 49.0392 38.0862 46.3701 37.5164 43.6682L35.1388 32.2042C34.1636 27.5114 39.4558 24.0438 43.3784 26.8113L52.9657 33.5606C55.2228 35.1468 58.3236 34.742 60.0986 32.6199L67.5931 23.6171C70.6611 19.9307 76.6764 21.8997 76.9613 26.68H76.9503Z" fill="#231628" stroke="black" stroke-width="0.16" stroke-miterlimit="10"/>
<path d="M76.8737 26.527L77.5639 38.2097C77.7283 40.9664 79.9854 43.1323 82.7466 43.187L94.4704 43.4167C99.2696 43.5151 101.483 49.4331 97.9109 52.6382L89.1892 60.4595C87.1293 62.3082 86.8444 65.4148 88.5208 67.6026L95.6538 76.9007C98.5793 80.7075 95.3141 86.1222 90.5698 85.3346L78.9993 83.4094C76.271 82.9499 73.6523 84.6674 72.984 87.3474L70.1461 98.7129C68.9847 103.373 62.7173 104.193 60.3726 100.004L54.675 89.7758C53.3273 87.3693 50.3579 86.3848 47.8379 87.5333L37.1768 92.4012C32.805 94.3921 28.2469 90.0165 30.0767 85.5862L34.5362 74.7567C35.588 72.2079 34.4924 69.2763 32.027 68.0292L21.5632 62.7348C17.2791 60.5689 17.8598 54.279 22.4726 52.9335L33.7363 49.6628C36.3879 48.8861 38.0095 46.217 37.4398 43.5151L35.0621 32.0511C34.0869 27.3583 39.3791 23.8907 43.3017 26.6582L52.889 33.4076C55.1461 34.9937 58.2469 34.589 60.0219 32.4668L67.5165 23.4641C70.5844 19.7777 76.5997 21.7467 76.8846 26.527H76.8737Z" fill="#2E1D35" stroke="black" stroke-width="0.21" stroke-miterlimit="10"/>
<path d="M76.7969 26.3738L77.4872 38.0565C77.6515 40.8132 79.9086 42.9791 82.6698 43.0338L94.3937 43.2635C99.1928 43.3619 101.406 49.2799 97.8341 52.485L89.1124 60.3063C87.0525 62.155 86.7677 65.2617 88.4441 67.4494L95.577 76.7475C98.5025 80.5543 95.2373 85.969 90.493 85.1814L78.9225 83.2562C76.1942 82.7967 73.5755 84.5142 72.9072 87.1942L70.0693 98.5597C68.9079 103.22 62.6406 104.04 60.2958 99.8505L54.5982 89.6226C53.2505 87.2161 50.2812 86.2316 47.7611 87.3801L37.1 92.248C32.7282 94.2389 28.1701 89.8633 29.9999 85.433L34.4594 74.6035C35.5113 72.0547 34.4156 69.1231 31.9503 67.8761L21.4864 62.5816C17.2023 60.4157 17.783 54.1258 22.3958 52.7803L33.6595 49.5096C36.3111 48.7329 37.9327 46.0638 37.363 43.3619L34.9853 31.8979C34.0102 27.2051 39.3023 23.7375 43.2249 26.505L52.8122 33.2544C55.0693 34.8405 58.1701 34.4358 59.9452 32.3136L67.4397 23.3109C70.5076 19.6245 76.5229 21.5935 76.8078 26.3738H76.7969Z" fill="#3A2542" stroke="black" stroke-width="0.26" stroke-miterlimit="10"/>
<path d="M76.7312 26.2207L77.4215 37.9035C77.5858 40.6601 79.843 42.826 82.6041 42.8807L94.328 43.1104C99.1271 43.2088 101.34 49.1268 97.7685 52.3319L89.0468 60.1532C86.9869 62.0019 86.702 65.1086 88.3784 67.2964L95.5113 76.5944C98.4368 80.4012 95.1717 85.816 90.4273 85.0284L78.8568 83.1031C76.1286 82.6437 73.5099 84.3611 72.8415 87.0411L70.0037 98.4067C68.8422 103.067 62.5749 103.887 60.2301 99.6974L54.5325 89.4696C53.1848 87.063 50.2155 86.0785 47.6954 87.2271L37.0343 92.0949C32.6625 94.0858 28.1045 89.7102 29.9343 85.28L34.3937 74.4504C35.4456 71.9016 34.3499 68.97 31.8846 67.723L21.4207 62.4285C17.1366 60.2626 17.7173 53.9727 22.3302 52.6273L33.5939 49.3565C36.2454 48.5799 37.8671 45.9108 37.2973 43.2088L34.9197 31.7449C33.9445 27.0521 39.2367 23.5844 43.1592 26.352L52.7465 33.1013C55.0037 34.6874 58.1045 34.2827 59.8795 32.1605L67.374 23.1578C70.4419 19.4714 76.4573 21.4404 76.7422 26.2207H76.7312Z" fill="#452C50" stroke="black" stroke-width="0.32" stroke-miterlimit="10"/>
<path d="M76.6544 26.0675L77.3447 37.7503C77.509 40.5069 79.7662 42.6728 82.5273 42.7275L94.2512 42.9572C99.0503 43.0556 101.264 48.9736 97.6917 52.1787L88.97 60C86.9101 61.8487 86.6252 64.9554 88.3016 67.1432L95.4345 76.4412C98.36 80.248 95.0949 85.6628 90.3505 84.8752L78.7801 82.9499C76.0518 82.4905 73.4331 84.2079 72.7647 86.8879L69.9269 98.2535C68.7654 102.913 62.4981 103.734 60.1533 99.5443L54.4557 89.3164C53.108 86.9098 50.1387 85.9253 47.6186 87.0739L36.9576 91.9417C32.5857 93.9326 28.0277 89.557 29.8575 85.1268L34.3169 74.2972C35.3688 71.7484 34.2731 68.8168 31.8078 67.5698L21.344 62.2753C17.0598 60.1094 17.6405 53.8195 22.2534 52.4741L33.5171 49.2033C36.1687 48.4267 37.7903 45.7576 37.2205 43.0556L34.8429 31.5917C33.8677 26.8989 39.1599 23.4312 43.0825 26.1988L52.6698 32.9481C54.9269 34.5342 58.0277 34.1295 59.8027 32.0073L67.2972 23.0046C70.3651 19.3182 76.3805 21.2872 76.6654 26.0675H76.6544Z" fill="#51345D" stroke="black" stroke-width="0.37" stroke-miterlimit="10"/>
<path d="M76.5778 25.9144L77.268 37.5972C77.4324 40.3538 79.6895 42.5197 82.4507 42.5744L94.1745 42.8041C98.9737 42.9026 101.187 48.8205 97.615 52.0256L88.8933 59.847C86.8334 61.6956 86.5485 64.8023 88.2249 66.9901L95.3579 76.2882C98.2834 80.0949 95.0182 85.5097 90.2739 84.7221L78.7034 82.7968C75.9751 82.3374 73.3564 84.0548 72.6881 86.7348L69.8502 98.1004C68.6888 102.76 62.4214 103.581 60.0767 99.3912L54.3791 89.1633C53.0314 86.7567 50.062 85.7722 47.542 86.9208L36.8809 91.7886C32.5091 93.7795 27.951 89.4039 29.7808 84.9737L34.2403 74.1441C35.2921 71.5954 34.1965 68.6637 31.7312 67.4167L21.2673 62.1223C16.9832 59.9564 17.5639 53.6665 22.1767 52.321L33.4404 49.0502C36.092 48.2736 37.7136 45.6045 37.1439 42.9026L34.7662 31.4386C33.791 26.7458 39.0832 23.2781 43.0058 26.0457L52.5931 32.795C54.8502 34.3811 57.951 33.9764 59.726 31.8543L67.2206 22.8515C70.2885 19.1651 76.3038 21.1341 76.5887 25.9144H76.5778Z" fill="#5D3B6A" stroke="black" stroke-width="0.42" stroke-miterlimit="10"/>
<path d="M76.5011 25.7722L77.1914 37.455C77.3557 40.2116 79.6129 42.3775 82.374 42.4322L94.0979 42.6619C98.897 42.7604 101.11 48.6783 97.5384 51.8834L88.8167 59.7048C86.7568 61.5534 86.4719 64.6601 88.1483 66.8479L95.2812 76.146C98.2067 79.9527 94.9416 85.3675 90.1972 84.5799L78.6267 82.6546C75.8985 82.1952 73.2798 83.9126 72.6114 86.5926L69.7736 97.9582C68.6121 102.618 62.3448 103.439 60 99.249L54.3024 89.0211C52.9547 86.6145 49.9854 85.63 47.4653 86.7786L36.8042 91.6464C32.4324 93.6373 27.8744 89.2617 29.7042 84.8315L34.1636 74.0019C35.2155 71.4532 34.1198 68.5215 31.6545 67.2745L21.1906 61.98C16.9065 59.8141 17.4872 53.5243 22.1001 52.1788L33.3638 48.908C36.0153 48.1314 37.637 45.4623 37.0672 42.7604L34.6896 31.2964C33.7144 26.6036 39.0066 23.1359 42.9291 25.9035L52.5164 32.6528C54.7736 34.2389 57.8744 33.8342 59.6494 31.712L67.1439 22.7093C70.2118 19.0229 76.2272 20.9919 76.5121 25.7722H76.5011Z" fill="#684277" stroke="black" stroke-width="0.47" stroke-miterlimit="10"/>
<path d="M76.4353 25.619L77.1256 37.3018C77.2899 40.0584 79.5471 42.2243 82.3082 42.279L94.0321 42.5087C98.8312 42.6072 101.045 48.5251 97.4726 51.7302L88.7509 59.5516C86.691 61.4002 86.4061 64.5069 88.0825 66.6947L95.2154 75.9928C98.1409 79.7995 94.8758 85.2143 90.1314 84.4267L78.5609 82.5014C75.8327 82.042 73.214 83.7594 72.5456 86.4394L69.7078 97.805C68.5463 102.465 62.279 103.285 59.9342 99.0958L54.2366 88.8679C52.8889 86.4613 49.9196 85.4768 47.3995 86.6254L36.7384 91.4932C32.3666 93.4841 27.8086 89.1085 29.6384 84.6783L34.0978 73.8487C35.1497 71.3 34.054 68.3683 31.5887 67.1213L21.1249 61.8269C16.8407 59.6609 17.4214 53.3711 22.0343 52.0256L33.298 48.7548C35.9495 47.9782 37.5712 45.3091 37.0014 42.6072L34.6238 31.1432C33.6486 26.4504 38.9408 22.9827 42.8633 25.7503L52.4506 32.4996C54.7078 34.0857 57.8086 33.681 59.5836 31.5588L67.0781 22.5561C70.146 18.8697 76.1614 20.8387 76.4463 25.619H76.4353Z" fill="#744A85" stroke="black" stroke-width="0.53" stroke-miterlimit="10"/>
<path d="M76.3586 25.4659L77.0489 37.1487C77.2133 39.9053 79.4704 42.0712 82.2315 42.1259L93.9554 42.3556C98.7546 42.4541 100.968 48.372 97.3959 51.5771L88.6742 59.3985C86.6143 61.2472 86.3294 64.3538 88.0058 66.5416L95.1388 75.8397C98.0643 79.6464 94.7991 85.0612 90.0548 84.2736L78.4843 82.3483C75.756 81.8889 73.1373 83.6063 72.4689 86.2864L69.6311 97.6519C68.4697 102.312 62.2023 103.132 59.8575 98.9427L54.16 88.7148C52.8123 86.3082 49.8429 85.3237 47.3228 86.4723L36.6618 91.3401C32.29 93.331 27.7319 88.9555 29.5617 84.5252L34.0212 73.6957C35.073 71.1469 33.9773 68.2153 31.512 66.9682L21.0482 61.6738C16.764 59.5079 17.3448 53.218 21.9576 51.8725L33.2213 48.6018C35.8729 47.8251 37.4945 45.156 36.9247 42.4541L34.5471 30.9901C33.5719 26.2973 38.8641 22.8297 42.7867 25.5972L52.374 32.3465C54.6311 33.9327 57.7319 33.5279 59.5069 31.4058L67.0014 22.403C70.0694 18.7166 76.0847 20.6856 76.3696 25.4659H76.3586Z" fill="#7F5192" stroke="black" stroke-width="0.58" stroke-miterlimit="10"/>
<path d="M76.282 25.3127L76.9723 36.9955C77.1366 39.7521 79.3937 41.918 82.1549 41.9727L93.8788 42.2024C98.6779 42.3009 100.891 48.2188 97.3192 51.4239L88.5975 59.2453C86.5376 61.094 86.2528 64.2006 87.9292 66.3884L95.0621 75.6865C97.9876 79.4932 94.7225 84.908 89.9781 84.1204L78.4076 82.1951C75.6793 81.7357 73.0606 83.4531 72.3923 86.1332L69.5544 97.4987C68.393 102.159 62.1257 102.979 59.7809 98.7895L54.0833 88.5616C52.7356 86.155 49.7663 85.1705 47.2462 86.3191L36.5851 91.1869C32.2133 93.1778 27.6552 88.8023 29.485 84.372L33.9445 73.5425C34.9964 70.9937 33.9007 68.0621 31.4354 66.815L20.9715 61.5206C16.6874 59.3547 17.2681 53.0648 21.881 51.7193L33.1447 48.4486C35.7962 47.6719 37.4178 45.0028 36.8481 42.3009L34.4704 30.8369C33.4953 26.1441 38.7875 22.6765 42.71 25.444L52.2973 32.1933C54.5544 33.7795 57.6552 33.3747 59.4303 31.2526L66.9248 22.2498C69.9927 18.5634 76.0081 20.5324 76.2929 25.3127H76.282Z" fill="#8B589F" stroke="black" stroke-width="0.63" stroke-miterlimit="10"/>
<path d="M76.2052 25.1595L76.8955 36.8423C77.0598 39.5989 79.317 41.7648 82.0781 41.8195L93.802 42.0492C98.6011 42.1477 100.814 48.0656 97.2425 51.2708L88.5208 59.0921C86.4609 60.9408 86.176 64.0474 87.8524 66.2352L94.9853 75.5333C97.9108 79.34 94.6457 84.7548 89.9013 83.9672L78.3308 82.0419C75.6026 81.5825 72.9839 83.2999 72.3155 85.98L69.4777 97.3455C68.3162 102.005 62.0489 102.826 59.7041 98.6363L54.0065 88.4084C52.6588 86.0018 49.6895 85.0173 47.1694 86.1659L36.5083 91.0337C32.1365 93.0246 27.5785 88.6491 29.4083 84.2188L33.8677 73.3893C34.9196 70.8405 33.8239 67.9089 31.3586 66.6618L20.8947 61.3674C16.6106 59.2015 17.1913 52.9116 21.8042 51.5661L33.0679 48.2954C35.7194 47.5187 37.3411 44.8496 36.7713 42.1477L34.3937 30.6837C33.4185 25.9909 38.7107 22.5233 42.6332 25.2908L52.2205 32.0401C54.4777 33.6263 57.5785 33.2215 59.3535 31.0994L66.848 22.0966C69.9159 18.4102 75.9313 20.3792 76.2162 25.1595H76.2052Z" fill="#9760AC" stroke="black" stroke-width="0.68" stroke-miterlimit="10"/>
<path d="M76.1395 25.0065L76.8298 36.6892C76.9942 39.4458 79.2513 41.6117 82.0124 41.6664L93.7363 41.8962C98.5354 41.9946 100.749 47.9126 97.1768 51.1177L88.4551 58.939C86.3952 60.7877 86.1103 63.8943 87.7867 66.0821L94.9196 75.3802C97.8451 79.187 94.58 84.6017 89.8356 83.8141L78.2652 81.8889C75.5369 81.4294 72.9182 83.1468 72.2498 85.8269L69.412 97.1924C68.2505 101.852 61.9832 102.673 59.6384 98.4832L53.9408 88.2553C52.5931 85.8488 49.6238 84.8643 47.1037 86.0128L36.4427 90.8807C32.0709 92.8716 27.5128 88.496 29.3426 84.0657L33.802 73.2362C34.8539 70.6874 33.7582 67.7558 31.2929 66.5087L20.8291 61.2143C16.5449 59.0484 17.1256 52.7585 21.7385 51.413L33.0022 48.1423C35.6538 47.3656 37.2754 44.6965 36.7056 41.9946L34.328 30.5306C33.3528 25.8378 38.645 22.3702 42.5676 25.1377L52.1549 31.887C54.412 33.4732 57.5128 33.0685 59.2878 30.9463L66.7823 21.9436C69.8503 18.2571 75.8656 20.2262 76.1505 25.0065H76.1395Z" fill="#A267BA" stroke="black" stroke-width="0.74" stroke-miterlimit="10"/>
<path d="M76.0627 24.8533L76.753 36.536C76.9174 39.2926 79.1745 41.4586 81.9356 41.5132L93.6595 41.743C98.4586 41.8414 100.672 47.7594 97.1 50.9645L88.3783 58.7858C86.3184 60.6345 86.0335 63.7411 87.7099 65.9289L94.8429 75.227C97.7684 79.0338 94.5032 84.4485 89.7589 83.6609L78.1884 81.7357C75.4601 81.2762 72.8414 82.9936 72.173 85.6737L69.3352 97.0392C68.1738 101.699 61.9064 102.52 59.5616 98.33L53.8641 88.1021C52.5164 85.6956 49.547 84.7111 47.0269 85.8596L36.3659 90.7275C31.9941 92.7184 27.436 88.3428 29.2658 83.9125L33.7253 73.083C34.7771 70.5342 33.6814 67.6026 31.2161 66.3555L20.7523 61.0611C16.4681 58.8952 17.0489 52.6053 21.6617 51.2598L32.9254 47.9891C35.577 47.2124 37.1986 44.5433 36.6288 41.8414L34.2512 30.3774C33.276 25.6846 38.5682 22.217 42.4908 24.9845L52.0781 31.7338C54.3352 33.32 57.436 32.9153 59.211 30.7931L66.7055 21.7904C69.7735 18.1039 75.7888 20.073 76.0737 24.8533H76.0627Z" fill="#AE6FC7" stroke="black" stroke-width="0.79" stroke-miterlimit="10"/>
<path d="M75.9861 24.7002L76.6764 36.383C76.8407 39.1396 79.0978 41.3055 81.859 41.3602L93.5829 41.5899C98.382 41.6883 100.595 47.6063 97.0233 50.8114L88.3016 58.6327C86.2417 60.4814 85.9569 63.5881 87.6333 65.7759L94.7662 75.0739C97.6917 78.8807 94.4265 84.2954 89.6822 83.5078L78.1117 81.5826C75.3834 81.1232 72.7648 82.8406 72.0964 85.5206L69.2585 96.8861C68.0971 101.546 61.8298 102.367 59.485 98.1769L53.7874 87.9491C52.4397 85.5425 49.4704 84.558 46.9503 85.7066L36.2892 90.5744C31.9174 92.5653 27.3593 88.1897 29.1891 83.7594L33.6486 72.9299C34.7005 70.3811 33.6048 67.4495 31.1395 66.2025L20.6756 60.908C16.3915 58.7421 16.9722 52.4522 21.5851 51.1068L32.8488 47.836C35.5003 47.0593 37.1219 44.3903 36.5522 41.6883L34.1745 30.2243C33.1994 25.5315 38.4916 22.0639 42.4141 24.8315L52.0014 31.5808C54.2585 33.1669 57.3593 32.7622 59.1344 30.64L66.6289 21.6373C69.6968 17.9509 75.7122 19.9199 75.997 24.7002H75.9861Z" fill="#B976D4" stroke="black" stroke-width="0.84" stroke-miterlimit="10"/>
<path d="M75.9094 24.547L76.5997 36.2298C76.7641 38.9864 79.0212 41.1523 81.7823 41.207L93.5062 41.4367C98.3053 41.5351 100.519 47.4531 96.9467 50.6582L88.225 58.4795C86.1651 60.3282 85.8802 63.4349 87.5566 65.6227L94.6896 74.9207C97.615 78.7275 94.3499 84.1423 89.6055 83.3546L78.0351 81.4294C75.3068 80.97 72.6881 82.6874 72.0197 85.3674L69.1819 96.733C68.0204 101.393 61.7531 102.213 59.4083 98.0238L53.7107 87.7959C52.363 85.3893 49.3937 84.4048 46.8736 85.5534L36.2126 90.4212C31.8408 92.4121 27.2827 88.0365 29.1125 83.6062L33.5719 72.7767C34.6238 70.2279 33.5281 67.2963 31.0628 66.0493L20.599 60.7548C16.3148 58.5889 16.8955 52.299 21.5084 50.9536L32.7721 47.6828C35.4237 46.9062 37.0453 44.2371 36.4755 41.5351L34.0979 30.0711C33.1227 25.3783 38.4149 21.9107 42.3375 24.6783L51.9248 31.4276C54.1819 33.0137 57.2827 32.609 59.0577 30.4868L66.5522 21.4841C69.6202 17.7977 75.6355 19.7667 75.9204 24.547H75.9094Z" fill="#C57DE1" stroke="black" stroke-width="0.89" stroke-miterlimit="10"/>
<path d="M75.8436 24.3939L76.5339 36.0767C76.6983 38.8333 78.9554 40.9992 81.7165 41.0539L93.4404 41.2836C98.2395 41.3821 100.453 47.3 96.8809 50.5051L88.1592 58.3265C86.0993 60.1751 85.8144 63.2818 87.4908 65.4696L94.6238 74.7677C97.5493 78.5744 94.2841 83.9892 89.5398 83.2016L77.9693 81.2763C75.241 80.8169 72.6223 82.5343 71.9539 85.2143L69.1161 96.5799C67.9547 101.24 61.6873 102.06 59.3425 97.8707L53.6449 87.6428C52.2972 85.2362 49.3279 84.2517 46.8078 85.4003L36.1468 90.2681C31.775 92.259 27.2169 87.8834 29.0467 83.4532L33.5062 72.6236C34.558 70.0749 33.4623 67.1432 30.997 65.8962L20.5332 60.6018C16.249 58.4358 16.8297 52.146 21.4426 50.8005L32.7063 47.5297C35.3579 46.7531 36.9795 44.084 36.4097 41.3821L34.0321 29.9181C33.0569 25.2253 38.3491 21.7576 42.2717 24.5252L51.859 31.2745C54.1161 32.8606 57.2169 32.4559 58.9919 30.3337L66.4864 21.331C69.5544 17.6446 75.5697 19.6136 75.8546 24.3939H75.8436Z" fill="#D085EF" stroke="black" stroke-width="0.95" stroke-miterlimit="10"/>
<path d="M75.767 24.2407L76.4573 35.9235C76.6216 38.6801 78.8787 40.846 81.6399 40.9007L93.3638 41.1304C98.1629 41.2289 100.376 47.1468 96.8042 50.3519L88.0825 58.1733C86.0226 60.0219 85.7377 63.1286 87.4142 65.3164L94.5471 74.6145C97.4726 78.4212 94.2074 83.836 89.4631 83.0484L77.8926 81.1231C75.1643 80.6637 72.5456 82.3811 71.8773 85.0611L69.0394 96.4267C67.878 101.087 61.6106 101.907 59.2659 97.7175L53.5683 87.4896C52.2206 85.083 49.2513 84.0985 46.7312 85.2471L36.0701 90.1149C31.6983 92.1058 27.1402 87.7302 28.97 83.3L33.4295 72.4704C34.4814 69.9217 33.3857 66.99 30.9204 65.743L20.4565 60.4486C16.1724 58.2826 16.7531 51.9928 21.3659 50.6473L32.6296 47.3765C35.2812 46.5999 36.9028 43.9308 36.3331 41.2289L33.9554 29.7649C32.9803 25.0721 38.2724 21.6044 42.195 24.372L51.7823 31.1213C54.0394 32.7074 57.1402 32.3027 58.9152 30.1806L66.4098 21.1778C69.4777 17.4914 75.493 19.4604 75.7779 24.2407H75.767Z" fill="#DC8CFC" stroke="black" stroke-miterlimit="10"/>
<path d="M113.239 65.8196L109.01 65.2289L109.196 63.8724L120 65.382L119.518 68.8168C119.375 69.8232 118.97 70.5671 118.291 71.0484C117.611 71.5406 116.768 71.7156 115.771 71.5734C114.73 71.4312 113.974 71.0484 113.492 70.4248C113.009 69.8013 112.823 68.9919 112.944 67.9964L113.25 65.8196H113.239ZM114.401 65.9836L114.105 68.062C114.017 68.6637 114.138 69.1559 114.456 69.5279C114.773 69.8998 115.267 70.1295 115.946 70.2279C116.592 70.3155 117.14 70.228 117.578 69.9545C118.017 69.681 118.28 69.2544 118.356 68.6746L118.652 66.5853L114.412 65.9946L114.401 65.9836Z" fill="black"/>
<path d="M109.985 80.1495C108.572 79.6901 107.575 79.0338 107.016 78.1805C106.446 77.3273 106.348 76.3537 106.709 75.2379C107.06 74.1659 107.706 73.4549 108.649 73.072C109.591 72.6892 110.752 72.7111 112.111 73.1377L114.061 73.7721C115.453 74.2206 116.439 74.877 117.02 75.7521C117.611 76.6162 117.721 77.6008 117.359 78.6946C117.009 79.7885 116.351 80.5105 115.398 80.8824C114.445 81.2544 113.272 81.2106 111.87 80.773L109.985 80.1605V80.1495ZM112.221 79.4385C113.316 79.7995 114.193 79.876 114.839 79.701C115.486 79.5151 115.935 79.0556 116.176 78.3118C116.406 77.5898 116.318 76.9663 115.891 76.4193C115.475 75.8724 114.73 75.4348 113.678 75.0848L111.815 74.4832C110.752 74.1331 109.887 74.0565 109.218 74.2425C108.539 74.4285 108.09 74.8879 107.849 75.6208C107.608 76.3537 107.695 76.9772 108.09 77.4914C108.484 78.0055 109.218 78.4431 110.27 78.804L112.21 79.4385H112.221Z" fill="black"/>
<path d="M104.167 81.845L104.759 80.6089L114.598 85.3017L114.007 86.5378L104.167 81.845Z" fill="black"/>
<path d="M99.3243 89.8742L100.08 88.7256L109.503 89.6663L102.469 85.0829L103.225 83.9343L112.352 89.8851L111.596 91.0337L102.129 90.0929L109.197 94.6982L108.451 95.8359L99.3243 89.8851V89.8742Z" fill="black"/>
<path d="M100.902 102.629L102.852 100.529L95.7085 93.9327L96.6398 92.9263L103.784 99.5224L105.723 97.4222L106.589 98.2207L101.768 103.428L100.902 102.629Z" fill="black"/>
<path d="M90.734 101.995C91.0737 102.421 91.4462 102.651 91.8626 102.695C92.2789 102.738 92.8706 102.629 93.6376 102.367C94.4155 102.104 95.051 101.962 95.5551 101.951C96.0591 101.94 96.5193 102.016 96.9137 102.192C97.3082 102.367 97.6697 102.651 97.9765 103.045C98.5134 103.723 98.7326 104.456 98.623 105.254C98.5134 106.053 98.0971 106.742 97.3739 107.311C96.8699 107.705 96.333 107.945 95.7742 108.033C95.2045 108.12 94.6566 108.044 94.1307 107.814C93.6047 107.584 93.1555 107.234 92.772 106.753L93.8568 105.9C94.2731 106.425 94.7223 106.731 95.2154 106.819C95.7085 106.906 96.1796 106.764 96.6617 106.381C97.1 106.042 97.341 105.648 97.3849 105.222C97.4287 104.795 97.2753 104.357 96.9356 103.92C96.6508 103.559 96.2782 103.362 95.829 103.318C95.3798 103.274 94.81 103.384 94.1197 103.614C93.0569 103.996 92.1803 104.139 91.501 104.018C90.8217 103.898 90.2081 103.515 89.6931 102.859C89.1453 102.17 88.9261 101.437 89.0467 100.66C89.1672 99.8834 89.6164 99.1942 90.3834 98.5817C90.8765 98.1879 91.4243 97.9363 92.016 97.8159C92.6077 97.6956 93.1774 97.7394 93.7362 97.9472C94.2841 98.1441 94.7662 98.5051 95.1716 99.0083L94.0868 99.8615C93.6705 99.3364 93.1993 99.0411 92.6624 98.9864C92.1365 98.9317 91.6106 99.0958 91.1066 99.5005C90.6354 99.8725 90.3725 100.277 90.3286 100.704C90.2848 101.13 90.4272 101.557 90.7559 101.984L90.734 101.995Z" fill="black"/>
<path d="M83.5574 103.373L88.1373 113.251L85.7816 114.345C84.6311 114.881 83.5573 114.935 82.5931 114.509C81.6289 114.082 80.8291 113.218 80.2265 111.905L79.4595 110.253C78.8568 108.941 78.7034 107.792 79.0212 106.775C79.3389 105.757 80.1169 104.97 81.3441 104.401L83.5574 103.373ZM86.4061 112.758L82.8123 105.014L81.8152 105.473C80.9386 105.878 80.4237 106.425 80.2484 107.114C80.0731 107.803 80.2155 108.634 80.6647 109.619L81.4755 111.369C81.9576 112.408 82.5164 113.087 83.141 113.382C83.7655 113.688 84.4887 113.644 85.2995 113.273L86.4171 112.758H86.4061Z" fill="black"/>
<path d="M72.0416 112.999L75.756 111.971L74.7151 108.252L70.3871 109.455L70.0693 108.328L75.7231 106.764L78.6486 117.254L73.0715 118.808L72.7538 117.681L77.016 116.5L76.0737 113.119L72.3593 114.148L72.0416 113.021V112.999Z" fill="black"/>
<path d="M63.6815 110.308L59.4083 110.527L59.3425 109.356L64.9853 109.072L65.5441 119.945L64.1636 120.011L63.6595 110.308H63.6815Z" fill="black"/>
<path d="M52.3849 111.588L56.0445 111.993L57.195 109.258L58.5975 109.411L53.9189 119.847L52.7465 119.716L50.4346 108.514L51.8371 108.667L52.3849 111.588ZM55.5624 113.119L52.604 112.791L53.5463 117.878L55.5624 113.119Z" fill="black"/>
<path d="M40.3543 108.241C40.168 108.755 40.168 109.192 40.3433 109.564C40.5186 109.936 40.924 110.385 41.5595 110.899C42.195 111.413 42.6443 111.894 42.9182 112.31C43.2031 112.737 43.3674 113.163 43.4222 113.59C43.477 114.027 43.4222 114.476 43.2578 114.946C42.962 115.756 42.447 116.325 41.7129 116.653C40.9788 116.981 40.179 116.992 39.2914 116.664C38.6888 116.445 38.2067 116.117 37.8342 115.679C37.4616 115.242 37.2315 114.739 37.1548 114.17C37.0782 113.601 37.1439 113.032 37.3411 112.463L38.634 112.934C38.4039 113.568 38.382 114.115 38.5573 114.574C38.7326 115.034 39.1161 115.362 39.6859 115.57C40.2118 115.756 40.6611 115.756 41.0555 115.57C41.45 115.384 41.7348 115.023 41.9321 114.498C42.0855 114.071 42.0635 113.645 41.8663 113.24C41.6581 112.835 41.2746 112.409 40.7158 111.938C39.8283 111.238 39.2586 110.571 38.9956 109.925C38.7436 109.28 38.7546 108.569 39.0394 107.781C39.3353 106.95 39.8502 106.381 40.5734 106.086C41.2966 105.78 42.1183 105.801 43.0497 106.13C43.6413 106.348 44.1454 106.677 44.5617 107.114C44.9671 107.552 45.241 108.066 45.3506 108.646C45.4711 109.225 45.4164 109.816 45.1972 110.418L43.9043 109.947C44.1344 109.313 44.1344 108.755 43.9043 108.274C43.6742 107.792 43.2578 107.442 42.6443 107.223C42.0745 107.016 41.5924 107.005 41.2089 107.191C40.8145 107.377 40.5296 107.727 40.3433 108.219L40.3543 108.241Z" fill="black"/>
<path d="M31.5558 106.37L34.9415 108.219L36.8042 104.839L32.8597 102.684L33.4294 101.656L38.5682 104.478L33.3199 114.017L28.2468 111.238L28.8166 110.21L32.6953 112.332L34.3827 109.258L30.997 107.409L31.5668 106.381L31.5558 106.37Z" fill="black"/>
<path d="M23.8093 108.197L27.2826 99.5443L19.4155 104.576L18.0569 103.449L25.0036 95.0593L26.0554 95.9344L23.3491 99.2052L20.5441 102.399L28.1592 97.6737L28.97 98.341L25.7596 106.666L28.3564 103.329L31.0627 100.058L32.1146 100.934L25.1679 109.324L23.8093 108.197Z" fill="black"/>
<path d="M18.1336 91.2087L20.4455 94.0747L23.1957 92.948L24.0832 94.0419L13.3783 98.1331L12.6442 97.2142L18.9334 87.6536L19.8209 88.7475L18.1336 91.2087ZM19.295 94.5341L17.4323 92.2151L14.5068 96.4813L19.295 94.5341Z" fill="black"/>
<path d="M17.5748 85.2034L18.2979 86.3738L9.00648 92.084L8.28333 90.9135L17.5748 85.2034Z" fill="black"/>
<path d="M13.444 76.7802L14.0029 78.0382L8.09708 85.4329L15.7779 82.02L16.3367 83.2779L6.37685 87.6973L5.81804 86.4393L11.7457 79.0118L4.03207 82.4357L3.47327 81.1886L13.4331 76.7693L13.444 76.7802Z" fill="black"/>
<path d="M6.63989 70.917L7.59314 74.6472L11.3404 73.6955L10.2338 69.3418L11.3733 69.0574L12.8196 74.7347L2.24617 77.4147L0.821777 71.814L1.9613 71.5296L3.04603 75.8067L6.45363 74.9425L5.50037 71.2123L6.63989 70.9279V70.917Z" fill="black"/>
<path d="M5.01822 64.3536C4.57995 64.3755 4.21837 64.2552 3.92253 63.9927C3.6267 63.7301 3.4733 63.3691 3.45139 62.9097C3.42947 62.4612 3.55 62.0784 3.80201 61.783C4.05402 61.4876 4.41559 61.3236 4.88674 61.3017H5.16066C5.59894 61.2689 5.96052 61.3892 6.2454 61.6408C6.53028 61.9033 6.68367 62.2643 6.71654 62.7347C6.73846 63.1941 6.61793 63.577 6.35497 63.8614C6.092 64.1567 5.74138 64.3099 5.3031 64.3318H5.01822V64.3536Z" fill="black"/>
<path d="M6.77127 53.3491L10.9897 54.0164L10.7815 55.3728L0.0108643 53.6773L0.547753 50.2534C0.701149 49.2579 1.12847 48.5141 1.81875 48.0328C2.50904 47.5515 3.35272 47.3983 4.3498 47.5515C5.3907 47.7156 6.13577 48.1094 6.61788 48.7438C7.08902 49.3783 7.26433 50.1878 7.12189 51.1832L6.78223 53.36L6.77127 53.3491ZM5.60984 53.1631L5.93855 51.0847C6.03716 50.4831 5.92759 49.9909 5.60984 49.6189C5.30305 49.247 4.80999 48.9954 4.14162 48.897C3.49516 48.7985 2.94731 48.8751 2.50904 49.1486C2.07076 49.422 1.79684 49.8377 1.70918 50.4175L1.38048 52.4959L5.60984 53.1631Z" fill="black"/>
<path d="M10.2666 39.0739C11.6691 39.5552 12.6552 40.2334 13.2031 41.0866C13.7509 41.9399 13.8386 42.9244 13.466 44.0292C13.1044 45.0903 12.447 45.8013 11.4938 46.1623C10.5405 46.5233 9.39006 46.4795 8.0314 46.042L6.09203 45.3747C4.71146 44.9043 3.7363 44.2261 3.16654 43.351C2.59678 42.4759 2.49817 41.4914 2.8707 40.4084C3.24324 39.3255 3.91161 38.6035 4.86486 38.2644C5.81811 37.9143 7.00145 37.969 8.39298 38.4394L10.2666 39.0848V39.0739ZM8.02045 39.7521C6.92476 39.3802 6.05916 39.2817 5.40175 39.4458C4.74433 39.6208 4.2951 40.0693 4.04309 40.8132C3.80204 41.5242 3.87874 42.1586 4.2951 42.7056C4.71146 43.2525 5.43462 43.712 6.48648 44.073L8.3382 44.7074C9.39006 45.0684 10.2557 45.1669 10.935 44.9918C11.6143 44.8168 12.0745 44.3683 12.3265 43.6354C12.5785 42.9134 12.5128 42.2899 12.1183 41.7648C11.7239 41.2398 11.0117 40.7913 9.95982 40.4194L8.0314 39.7521H8.02045Z" fill="black"/>
<path d="M16.0957 37.5096L15.4821 38.7348L5.71948 33.8779L6.33307 32.6527L16.0957 37.5096Z" fill="black"/>
<path d="M21.081 29.5461L20.314 30.6837L10.902 29.5898L17.8597 34.2936L17.0817 35.4312L8.05322 29.3273L8.83116 28.1896L18.276 29.2945L11.2855 24.5688L12.0525 23.4421L21.081 29.5461Z" fill="black"/>
<path d="M19.7115 16.7694L17.7283 18.8368L24.7626 25.5424L23.8203 26.5269L16.786 19.8214L14.8137 21.8888L13.9591 21.0793L18.8678 15.949L19.7224 16.7585L19.7115 16.7694Z" fill="black"/>
<path d="M29.8685 17.5679C29.5398 17.1413 29.1672 16.9006 28.7618 16.8459C28.3564 16.7912 27.7538 16.8897 26.9758 17.1413C26.1979 17.3928 25.5514 17.5241 25.0474 17.5241C24.5434 17.5241 24.0942 17.4475 23.6888 17.2616C23.2834 17.0756 22.9437 16.7912 22.6369 16.3974C22.111 15.7083 21.9028 14.9753 22.0233 14.1768C22.1439 13.3783 22.5712 12.7 23.3162 12.1312C23.8203 11.7484 24.3571 11.5077 24.9269 11.4311C25.4967 11.3546 26.0445 11.4311 26.5704 11.6718C27.0964 11.9124 27.5456 12.2734 27.9072 12.7547L26.8115 13.5861C26.4061 13.0501 25.9569 12.7329 25.4747 12.6454C24.9926 12.5469 24.5105 12.6891 24.0284 13.061C23.5902 13.4001 23.3382 13.783 23.2943 14.2096C23.2505 14.6362 23.382 15.0738 23.7216 15.5223C24.0065 15.8833 24.3681 16.0911 24.8173 16.1349C25.2666 16.1786 25.8363 16.0911 26.5376 15.8614C27.6113 15.4895 28.4769 15.3691 29.1672 15.5004C29.8466 15.6317 30.4492 16.0255 30.9532 16.6928C31.4901 17.3928 31.6983 18.1258 31.5668 18.9024C31.4353 19.6791 30.9751 20.3573 30.1972 20.9589C29.6932 21.3418 29.1453 21.5934 28.5536 21.6918C27.962 21.8012 27.3922 21.7465 26.8334 21.5387C26.2856 21.3309 25.8144 20.9699 25.42 20.4557L26.5157 19.6135C26.9211 20.1495 27.3922 20.4448 27.9181 20.5214C28.4441 20.587 28.97 20.4229 29.485 20.0291C29.9671 19.6681 30.23 19.2634 30.2848 18.8368C30.3396 18.4102 30.1972 17.9835 29.8794 17.5569L29.8685 17.5679Z" fill="black"/>
<path d="M37.0781 16.299L32.6625 6.34457L35.0401 5.29443C36.2016 4.7803 37.2644 4.74748 38.2395 5.18504C39.2147 5.6226 39.9817 6.50865 40.5624 7.82132L41.3075 9.48404C41.8882 10.7967 42.0197 11.9672 41.68 12.9736C41.3403 13.9799 40.5624 14.7566 39.3133 15.3035L37.0781 16.288V16.299ZM34.3937 6.86963L37.856 14.68L38.8641 14.2315C39.7406 13.8377 40.2775 13.3017 40.4638 12.6235C40.6501 11.9453 40.5186 11.103 40.0913 10.1076L39.3133 8.34639C38.8531 7.29625 38.3053 6.61804 37.6807 6.30081C37.0562 5.98358 36.344 6.0164 35.5222 6.37738L34.4046 6.86963H34.3937Z" fill="black"/>
<path d="M48.7691 6.8696L45.0328 7.83223L46.0079 11.5624L50.3578 10.4357L50.6537 11.5733L44.978 13.0501L42.2388 2.51591L47.8377 1.06104L48.1336 2.19868L43.8604 3.30351L44.7479 6.69458L48.4842 5.73196L48.78 6.8696H48.7691Z" fill="black"/>
<path d="M57.0745 9.71376L61.3477 9.56062L61.3915 10.7311L55.7377 10.928L55.3542 0.0437557L56.7348 0L57.0745 9.71376Z" fill="black"/>
<path d="M68.382 8.60889L64.7224 8.14946L63.5281 10.8732L62.1366 10.6982L66.9796 0.328125L68.141 0.470331L70.2666 11.7155L68.8751 11.5405L68.382 8.60889ZM65.2264 7.02275L68.1739 7.39467L67.3192 2.29713L65.2264 7.02275Z" fill="black"/>
<path d="M80.3251 12.1532C80.5223 11.65 80.5332 11.2015 80.3579 10.8296C80.1826 10.4577 79.7882 9.99822 79.1636 9.47315C78.5391 8.94808 78.1008 8.46677 77.8269 8.04015C77.553 7.61353 77.3886 7.18692 77.3448 6.74936C77.29 6.3118 77.3557 5.86331 77.531 5.40387C77.8378 4.59439 78.3638 4.03651 79.0979 3.71928C79.832 3.40205 80.6428 3.41299 81.5084 3.74116C82.111 3.97087 82.5822 4.29904 82.9547 4.74754C83.3163 5.19603 83.5354 5.69922 83.6121 6.26805C83.6779 6.83687 83.6121 7.4057 83.393 7.97452L82.1001 7.48227C82.3411 6.84781 82.374 6.3118 82.1987 5.85237C82.0234 5.39293 81.6618 5.05383 81.092 4.83505C80.5771 4.63815 80.1169 4.62721 79.7224 4.81317C79.328 4.99913 79.0321 5.34918 78.8349 5.86331C78.6706 6.28993 78.6925 6.7056 78.8897 7.12128C79.0869 7.52602 79.4595 7.96358 80.0183 8.44489C80.8948 9.15592 81.4536 9.83414 81.7056 10.4905C81.9576 11.1359 81.9248 11.8578 81.6289 12.6345C81.3112 13.4549 80.7962 14.0128 80.073 14.3082C79.3499 14.6035 78.5172 14.5707 77.5968 14.2206C77.0051 13.9909 76.5011 13.6628 76.1066 13.2033C75.7122 12.7439 75.4492 12.2407 75.3397 11.6609C75.2301 11.0812 75.2958 10.4905 75.5259 9.88883L76.8188 10.3811C76.5778 11.0155 76.5668 11.5625 76.786 12.0547C77.0051 12.5361 77.4215 12.897 78.0241 13.1268C78.5939 13.3455 79.065 13.3565 79.4595 13.1814C79.8539 13.0064 80.1497 12.6564 80.336 12.1641L80.3251 12.1532Z" fill="black"/>
<path d="M89.1124 14.1768L85.7596 12.2625L83.8422 15.6098L87.7428 17.8304L87.1621 18.8477L82.0671 15.9489L87.4798 6.49768L92.5091 9.36368L91.9284 10.381L88.0934 8.19321L86.3513 11.2342L89.7041 13.1485L89.1234 14.1659L89.1124 14.1768Z" fill="black"/>
<path d="M96.9028 12.4813L93.287 21.0793L101.231 16.1786L102.578 17.3272L95.4893 25.597L94.4484 24.711L97.2096 21.484L100.069 18.3336L92.3776 22.9279L91.5777 22.2497L94.9305 13.9799L92.279 17.2725L89.5178 20.4995L88.4769 19.6135L95.566 11.3436L96.9137 12.4922L96.9028 12.4813Z" fill="black"/>
<path d="M102.283 29.546L100.026 26.6363L97.2534 27.7192L96.3878 26.6144L107.158 22.6982L107.882 23.6281L101.428 33.0902L100.562 31.9854L102.283 29.5569V29.546ZM101.165 26.2096L102.995 28.5506L105.997 24.3391L101.176 26.2096H101.165Z" fill="black"/>
<path d="M102.732 35.5515L102.031 34.3701L111.41 28.8131L112.111 29.9945L102.732 35.5515Z" fill="black"/>
<path d="M106.72 44.0292L106.183 42.7603L112.21 35.464L104.474 38.7457L103.937 37.4767L113.974 33.2106L114.511 34.4795L108.462 41.8086L116.231 38.505L116.768 39.763L106.731 44.0292H106.72Z" fill="black"/>
<path d="M113.437 50.0236L112.549 46.2716L108.791 47.1576L109.821 51.5223L108.681 51.7957L107.334 46.0966L117.951 43.5916L119.288 49.2142L118.148 49.4876L117.129 45.1996L113.711 46.0091L114.598 49.7611L113.459 50.0346L113.437 50.0236Z" fill="black"/>
<path d="M114.949 56.6308C115.387 56.6199 115.749 56.7402 116.034 57.0137C116.318 57.2762 116.472 57.6481 116.494 58.1076C116.505 58.5561 116.384 58.9389 116.121 59.2233C115.858 59.5187 115.497 59.6718 115.037 59.6828H114.763C114.324 59.7046 113.974 59.5843 113.689 59.3218C113.404 59.0592 113.251 58.6873 113.24 58.217C113.229 57.7575 113.349 57.3747 113.623 57.0902C113.886 56.8058 114.248 56.6527 114.686 56.6417H114.971L114.949 56.6308Z" fill="black"/>
</svg>
