<svg width="76" height="76" viewBox="0 0 76 76" fill="none" xmlns="http://www.w3.org/2000/svg">
<path d="M35.8136 75.2805C36.2425 64.7492 37.6763 54.1058 29.4787 45.4294C21.4158 36.8981 10.8133 37.5574 0.389236 37.2026C0.431703 36.874 0.464177 36.545 0.506644 36.2164C1.26178 36.0948 2.01071 35.873 2.76093 35.8814C6.45094 35.9511 10.1518 36.2614 13.8375 36.1808C27.0672 35.9113 37.5108 25.7092 38.1813 12.4951C38.383 8.48987 38.4848 4.48085 39.529 0.427463C39.6456 1.31251 39.8625 2.19135 39.8491 3.07147C39.7838 6.38137 39.5683 9.69559 39.5329 13.0066C39.3871 26.3707 49.2603 37.042 62.8205 38.0859C66.9615 38.4028 71.1138 38.42 75.2609 38.577C75.2427 39.0567 75.2345 39.5367 75.2263 40.0167C73.0679 39.935 70.8974 39.6426 68.7695 39.8122C63.6204 40.2177 58.1397 39.87 53.4122 41.5623C43.5312 45.1009 38.3343 52.8498 37.6149 63.3901C37.3459 67.3228 37.2963 71.2737 37.1472 75.2109C36.706 75.2342 36.2652 75.2475 35.824 75.2709L35.8136 75.2805Z" fill="#CCCCFF"/>
</svg>
