<svg width="72" height="71" viewBox="0 0 72 71" fill="none" xmlns="http://www.w3.org/2000/svg">
<path d="M25.103 12.4526C26.2145 9.401 27.0229 6.32915 28.7811 3.64128C31.6306 -0.723973 34.4802 -1.10795 38.3806 2.1862C40.927 4.34862 43.1703 6.73334 44.2414 9.94665C44.7466 11.4826 45.3933 11.2401 46.4644 10.6944C47.5557 10.1487 48.7481 9.76477 49.8798 9.29995C54.1643 7.58214 57.5595 8.89576 60.6919 12.0889C63.4404 14.898 62.7735 17.889 61.8237 20.981C61.2982 22.7393 59.7017 24.5581 60.025 26.0738C60.3484 27.6502 63.0766 27.6704 64.4711 28.8426C66.1081 30.237 67.8663 31.5304 69.382 33.0461C71.9688 35.6127 71.8678 38.341 69.1597 40.7864C66.6537 43.0498 63.5415 44.222 60.3888 45.091C58.7518 45.5356 58.7114 46.0611 59.4389 47.3343C61.0759 50.204 62.4704 53.195 62.632 56.57C62.8139 60.4704 60.6111 62.552 56.7106 62.168C52.9517 61.8043 49.6777 60.0056 46.2017 58.2272C45.0902 61.3597 44.2414 64.4921 42.4225 67.2204C39.6134 71.4038 36.8245 71.7878 33.0049 68.6149C30.4181 66.4727 28.1748 64.1082 27.1037 60.8746C26.5783 59.2983 25.8709 59.4398 24.6381 60.0663C23.2639 60.7534 21.7886 61.198 20.3335 61.7234C16.0491 63.2796 13.0177 61.1374 10.249 58.2676C7.9653 55.9233 8.36949 53.195 9.23849 50.4667C9.8852 48.4256 11.7849 46.1217 11.2594 44.5656C10.7542 43.07 7.80362 42.4436 6.04539 41.2916C4.85303 40.5034 3.82234 39.4525 2.77145 38.4825C-1.27045 34.7639 -0.906683 31.1869 3.96381 28.4586C5.78267 27.4279 7.74299 26.5791 9.74373 25.993C11.8859 25.3665 12.957 24.8209 11.3403 22.4361C9.96604 20.395 9.19808 17.99 8.75347 15.5447C7.86425 10.5125 10.1883 8.06717 15.2407 8.63303C18.7976 9.03722 21.8088 10.8763 25.0828 12.392L25.103 12.4526ZM10.2692 53.2152C10.1277 57.1763 11.7243 58.4697 15.4024 57.6613C18.3328 57.0146 21.1419 56.1052 23.6479 54.4278C25.3051 53.3163 26.1943 53.1546 26.7601 55.5595C27.4675 58.5303 28.4577 61.4809 30.3776 63.9869C32.7826 67.1598 35.1269 67.18 37.5924 64.0677C39.6134 61.5011 40.4622 58.3889 41.2706 55.3372C41.8162 53.3163 42.4225 53.3971 43.9382 54.2459C46.808 55.8425 49.7788 57.2773 53.0729 57.8634C56.2054 58.4091 57.7009 57.0752 57.7615 53.9226C57.8222 50.3657 56.2256 47.3545 54.5482 44.4241C53.275 42.201 53.8409 41.4129 56.2256 40.9278C59.1358 40.3216 61.9449 39.2505 64.3094 37.3305C67.1792 34.9862 67.1186 32.9653 64.3094 30.5806C61.8641 28.5192 58.9337 27.6704 55.9629 26.8418C54.043 26.3164 53.1538 25.6292 54.5684 23.4264C56.3469 20.6779 57.6807 17.6465 57.7615 14.2311C57.8424 10.8359 56.7309 9.72435 53.3154 10.0477C49.9809 10.3711 47.0101 11.7857 44.1808 13.5237C42.6044 14.4938 41.7556 14.4736 41.2504 12.3112C40.4218 8.81492 39.088 5.46014 36.6022 2.73186C34.8642 0.85237 33.1464 0.83216 31.3679 2.79248C29.0034 5.3793 27.6696 8.53199 26.9622 11.8059C26.3357 14.7161 25.0828 14.3119 23.2235 13.261C20.3537 11.6443 17.484 10.0679 14.0484 10.0073C11.502 9.96686 10.2894 11.0986 10.249 13.7056C10.1883 17.4848 11.8859 20.6375 13.7048 23.7295C14.6142 25.2655 14.4323 26.0536 12.5933 26.5993C9.48101 27.5289 6.2677 28.3171 3.64046 30.3987C0.831335 32.6015 0.932383 35.4511 3.90318 37.472C6.38895 39.1494 9.07682 40.5034 12.0476 40.9683C14.5132 41.3522 14.594 42.2819 13.5835 44.2624C12.1285 47.1726 10.249 49.9615 10.2894 53.2354L10.2692 53.2152Z" fill="#170C11"/>
<path d="M10.2488 53.2152C10.1881 49.9413 12.0676 47.1524 13.5429 44.2422C14.5332 42.2617 14.4726 41.332 12.007 40.9481C9.0362 40.4832 6.34833 39.1292 3.86256 37.4518C0.891764 35.4309 0.790717 32.6015 3.59984 30.3785C6.22708 28.3171 9.44039 27.5087 12.5527 26.5791C14.3917 26.0334 14.5736 25.2453 13.6642 23.7093C11.8453 20.6173 10.1679 17.4646 10.2084 13.6854C10.2488 11.0784 11.4411 9.94666 14.0077 9.98708C17.4434 10.0477 20.3131 11.6241 23.1829 13.2408C25.0623 14.2917 26.2951 14.6959 26.9216 11.7857C27.629 8.51179 28.983 5.3591 31.3273 2.77228C33.1057 0.811961 34.8235 0.832171 36.5616 2.71166C39.0473 5.43994 40.3812 8.79472 41.2097 12.291C41.715 14.4534 42.5638 14.4534 44.1401 13.5035C46.9695 11.7857 49.9403 10.3509 53.2748 10.0275C56.7105 9.68394 57.8018 10.8157 57.7209 14.2109C57.6401 17.6061 56.3063 20.6577 54.5278 23.4062C53.0929 25.609 53.9822 26.276 55.9223 26.8216C58.8931 27.6502 61.8235 28.499 64.2688 30.5604C67.0981 32.9451 67.1588 34.966 64.2688 37.3104C61.9043 39.2303 59.0952 40.3014 56.185 40.9076C53.8003 41.3927 53.2344 42.2011 54.5076 44.4039C56.185 47.3343 57.7816 50.3455 57.7209 53.9024C57.6603 57.0753 56.185 58.4091 53.0323 57.8432C49.7584 57.2774 46.7876 55.8223 43.8976 54.2257C42.3819 53.3971 41.7756 53.3163 41.23 55.317C40.4216 58.3687 39.5728 61.4809 37.5518 64.0476C35.0863 67.1598 32.742 67.1396 30.337 63.9667C28.4373 61.4607 27.4269 58.5101 26.7195 55.5393C26.1537 53.1142 25.2644 53.2961 23.6073 54.4076C21.1013 56.0648 18.2719 56.9944 15.3618 57.6411C11.6836 58.4495 10.1073 57.1561 10.2286 53.195L10.2488 53.2152Z" fill="#CCCCFF"/>
</svg>
