<svg width="26" height="49" viewBox="0 0 26 49" fill="none" xmlns="http://www.w3.org/2000/svg">
<g clip-path="url(#clip0_351_10185)">
<path d="M7.18336 0.166992H21.8021C24.0278 0.166992 25.832 1.95944 25.832 4.17053V31.8417C25.832 34.0528 24.0278 35.8452 21.8021 35.8452H7.18336C4.95767 35.8452 3.15339 34.0528 3.15339 31.8417V4.17053C3.15339 1.95944 4.95767 0.166992 7.18336 0.166992Z" fill="#F41731" stroke="#1D1D1B" stroke-miterlimit="10"/>
<path d="M0.288786 43.0981C0.342518 43.345 1.7698 46.1341 3.20715 49H3.88553C3.15006 47.6321 2.40787 46.2643 1.65897 44.9031C0.983952 43.6753 0.399607 40.7928 0.795887 39.8753C1.19217 38.9545 1.53807 38.2271 2.04182 37.4932C2.73363 36.4823 3.45231 35.4881 4.18106 34.5005C4.65794 33.8466 5.13818 33.196 5.61506 32.5388C5.80984 32.2719 6.65277 31.4979 6.65277 31.4979C6.65277 31.4979 9.25546 30.4336 10.6458 29.6529C11.3779 29.2425 12.4257 29.3326 13.1511 29.2392C13.8798 29.1458 15.3038 29.0324 16.3818 29.1758C16.5396 29.3059 16.7176 29.3893 16.8755 29.5161C17.3423 30.2801 16.9661 31.2577 15.9788 31.598C15.0485 31.9149 13.0772 32.3653 13.0772 32.3653C13.0772 32.3653 11.5794 32.8124 10.7298 32.9358C9.48047 33.116 8.52671 33.7232 7.72071 34.6273C7.36809 35.021 7.01883 35.4147 6.67292 35.8117C6.29679 36.2354 5.92402 36.6624 5.55461 37.0895C4.95347 37.7901 4.36577 38.5041 3.64709 39.1446C4.00643 38.9311 4.41278 38.7743 4.70831 38.4941C5.63521 37.6233 6.54195 36.7325 7.45205 35.845C7.77781 35.5281 8.1002 35.2111 8.42596 34.8942C9.34949 34.0001 9.86331 33.7899 9.86331 33.7899C9.86331 33.7899 12.3149 33.1026 13.5239 32.7757C14.0713 32.6255 14.6254 32.4988 15.1762 32.362C16.5027 32.0283 17.8426 33.7866 17.8426 33.6197C17.8897 33.6264 18.3833 34.1035 18.5479 34.3671C18.8401 34.8408 18.9442 35.3579 18.6352 35.845C18.6218 35.8684 18.6083 35.8884 18.5949 35.9084C18.2289 36.4289 17.6882 36.6658 17.0534 36.5523C16.3919 36.4322 15.7403 36.2554 15.0855 36.0919C14.0276 35.8284 13.0873 35.9651 12.3082 36.8026C11.7205 37.4331 11.0925 38.0236 10.5047 38.6542C9.47039 39.7685 8.44947 40.8995 7.311 41.9438C7.73415 41.6902 8.21103 41.4934 8.57708 41.1731C9.81294 40.1021 11.0219 38.9978 12.2175 37.8835C12.7246 37.4131 13.1477 36.8826 13.9 36.7392C14.5918 36.6057 18.1012 37.3464 18.4774 38.5808C18.7695 39.545 18.4136 40.0888 17.4262 40.0221C16.4288 39.9587 15.6228 40.2756 14.8672 40.8795C13.3123 42.1239 11.7339 43.3417 10.0178 44.6862C10.5585 44.4593 10.985 44.3492 11.3343 44.119C12.7582 43.1849 14.1787 42.2507 15.5523 41.2465C16.3045 40.6993 17.0837 40.4958 17.9803 40.6226C18.8401 40.7394 19.411 41.3366 19.4781 42.2107C19.5352 42.9346 19.2196 43.5452 18.1785 43.702C17.134 43.8555 16.0863 45.4736 14.5884 46.2142C14.6019 46.2609 14.6153 46.311 14.6321 46.361C15.0217 46.321 15.4112 46.2843 15.8008 46.2476C15.878 47.075 15.8377 48.3628 15.8109 49H16.4019C16.3281 48.5529 16.5363 48.0458 16.4523 47.5954C16.2072 46.2142 16.9594 45.3868 17.9568 44.6662C18.0744 44.5828 18.3733 44.3592 18.5109 44.3159C19.3405 44.059 19.8946 43.8188 20.0323 42.8846C20.18 41.8737 19.6931 40.8561 18.7494 40.2289C19.2666 38.9978 18.9005 37.9069 17.7251 36.9961C18.3833 36.7925 19.0113 36.4356 19.2263 35.845C19.2599 35.755 19.2834 35.6582 19.2968 35.5548C19.3808 34.8375 19.1524 34.277 18.6688 33.7499C18.1046 33.136 17.0971 32.6355 16.5295 31.9783C17.2247 31.4111 17.7587 30.8006 17.396 29.6229C17.0367 28.4452 13.2082 28.2683 11.8716 28.6487C9.61816 29.2892 6.60911 30.6004 5.96432 31.1742C5.53446 31.5579 4.91653 32.2085 3.72769 33.8933C3.13663 34.7274 2.40452 35.8217 1.48434 37.2663C-0.779158 39.9787 0.198111 42.6744 0.288786 43.0981Z" fill="#1D1D1B"/>
<path d="M1.65904 44.9033C2.40794 46.2645 3.15013 47.6324 3.8856 49.0002H15.8109C15.8378 48.363 15.8781 47.0752 15.8009 46.2478C15.4113 46.2845 15.0217 46.3212 14.6322 46.3612C14.6154 46.3112 14.602 46.2611 14.5885 46.2144C16.0863 45.4738 17.1341 43.8557 18.1785 43.7022C19.2196 43.5454 19.5353 42.9349 19.4782 42.2109C19.411 41.3368 18.8401 40.7396 17.9804 40.6228C17.0837 40.496 16.3046 40.6996 15.5524 41.2467C14.1788 42.2509 12.7582 43.1851 11.3343 44.1193C10.9851 44.3495 10.5586 44.4596 10.0179 44.6864C11.734 43.3419 13.3124 42.1242 14.8673 40.8797C15.6229 40.2759 16.4289 39.9589 17.4263 40.0223C18.4136 40.089 18.7696 39.5452 18.4774 38.581C18.1013 37.3466 14.5919 36.6059 13.9001 36.7394C13.1478 36.8829 12.7247 37.4133 12.2176 37.8837C11.022 38.9981 9.81301 40.1024 8.57715 41.1733C8.2111 41.4936 7.73422 41.6904 7.31107 41.944C8.44954 40.8997 9.47046 39.7687 10.5048 38.6544C11.0925 38.0239 11.7205 37.4333 12.3082 36.8028C13.0874 35.9654 14.0277 35.8286 15.0855 36.0922C15.7404 36.2556 16.3919 36.4325 17.0535 36.5526C17.6882 36.666 18.2289 36.4291 18.595 35.9087C18.6084 35.8886 18.6218 35.8686 18.6353 35.8453C18.9442 35.3582 18.8401 34.841 18.548 34.3673C18.3834 34.1037 17.8897 33.6266 17.8427 33.62C17.8427 33.7868 16.5028 32.0286 15.1762 32.3622C14.6255 32.499 14.0713 32.6258 13.5239 32.7759C12.3149 33.1028 9.86338 33.7901 9.86338 33.7901C9.86338 33.7901 9.34956 34.0003 8.42603 34.8944C8.10027 35.2114 7.77788 35.5283 7.45212 35.8453C6.54202 36.7327 5.63528 37.6235 4.70838 38.4943C4.41285 38.7745 4.0065 38.9313 3.64716 39.1449C4.36584 38.5043 4.95354 37.7903 5.55468 37.0897C5.92409 36.6627 6.29686 36.2356 6.67299 35.8119C7.0189 35.4149 7.36816 35.0212 7.72078 34.6275C8.52678 33.7234 9.48054 33.1162 10.7298 32.936C11.5795 32.8126 13.0773 32.3655 13.0773 32.3655C13.0773 32.3655 15.0486 31.9151 15.9789 31.5982C16.9662 31.2579 17.3423 30.2803 16.8755 29.5163C16.7177 29.3896 16.5397 29.3062 16.3819 29.176C15.3038 29.0326 13.8799 29.146 13.1512 29.2394C12.4258 29.3328 11.378 29.2428 10.6459 29.6531C9.25553 30.4338 6.65284 31.4981 6.65284 31.4981C6.65284 31.4981 5.80991 32.2721 5.61513 32.539C5.13825 33.1963 4.65801 33.8468 4.18113 34.5007C3.45238 35.4883 2.7337 36.4825 2.04189 37.4934C1.53815 38.2274 1.19224 38.9547 0.795958 39.8755C0.399677 40.793 0.984022 43.6755 1.65904 44.9033Z" fill="white"/>
</g>
<defs>
<clipPath id="clip0_351_10185">
<rect width="26" height="49" fill="white" transform="matrix(-1 0 0 1 26 0)"/>
</clipPath>
</defs>
</svg>
