<svg width="9" height="16" viewBox="0 0 9 16" fill="none" xmlns="http://www.w3.org/2000/svg">
<path d="M1.00012 9C1.55241 9 2.00012 8.55228 2.00012 8C2.00012 7.44772 1.55241 7 1.00012 7V9ZM0.292915 7.29289C-0.097609 7.68342 -0.097609 8.31658 0.292915 8.70711L6.65688 15.0711C7.0474 15.4616 7.68057 15.4616 8.07109 15.0711C8.46161 14.6805 8.46161 14.0474 8.07109 13.6569L2.41424 8L8.07109 2.34315C8.46161 1.95262 8.46161 1.31946 8.07109 0.928932C7.68057 0.538408 7.0474 0.538408 6.65688 0.928932L0.292915 7.29289ZM1.00012 7H1.00002V9H1.00012V7Z" fill="black"/>
</svg>
