<?xml version="1.0" encoding="UTF-8"?>
<svg id="Calque_2" data-name="Calque 2" xmlns="http://www.w3.org/2000/svg" viewBox="0 0 108 144.69">
  <defs>
    <style>
      .cls-1 {
        fill: #ffd500;
      }

      .cls-1, .cls-2, .cls-3, .cls-4 {
        stroke-width: 0px;
      }

      .cls-5 {
        stroke-width: 2.2px;
      }

      .cls-5, .cls-6, .cls-7, .cls-8, .cls-9 {
        stroke: #000;
      }

      .cls-3, .cls-7 {
        fill: #fff;
      }

      .cls-6 {
        stroke-width: 2.08px;
      }

      .cls-6, .cls-9 {
        fill: none;
      }

      .cls-7, .cls-9 {
        stroke-width: .8px;
      }

      .cls-4 {
        fill: #c51315;
      }

      .cls-8 {
        stroke-width: .64px;
      }
    </style>
  </defs>
  <g id="Calque_1-2" data-name="Calque 1">
    <g>
      <path class="cls-3" d="M54,144.69c-.67,0-1.34-.17-1.94-.5l-.5-.28C18.31,125.55,0,97.05,0,63.66V8.57c0-2.07,1.58-3.79,3.64-3.98L53.54.02c.12-.01.24-.02.36-.02s.24,0,.36.02l50.09,4.57c2.06.19,3.64,1.92,3.64,3.98v55.09c0,33.39-18.31,61.89-51.57,80.26l-.48.27c-.61.34-1.28.51-1.95.51Z"/>
      <g>
        <path class="cls-5" d="M54,140.69l-.5-.28C21.58,122.79,4,95.53,4,63.66V8.57L53.91,4l50.09,4.57v55.09c0,31.87-17.58,59.13-49.5,76.76l-.5.28Z"/>
        <polygon class="cls-3" points="54 5.03 5.04 9.51 5.04 27.81 102.94 27.81 102.96 9.51 54 5.03"/>
        <path class="cls-1" d="M72.69,126.77c21.22-17.9,30.27-40.4,30.27-63.11V27.81H37.72l34.96,98.95Z"/>
        <path class="cls-4" d="M37.72,27.81H5.04v35.84c0,28.51,14.27,56.68,48.96,75.84,7.06-3.9,13.27-8.16,18.69-12.73L37.72,27.81Z"/>
        <line class="cls-6" x1="72.69" y1="126.77" x2="37.72" y2="27.81"/>
        <path class="cls-2" d="M54,140.69l-.5-.28C21.58,122.79,4,95.53,4,63.66V8.57L53.91,4l50.09,4.57v55.09c0,31.87-17.58,59.13-49.5,76.76l-.5.28ZM6.08,10.47v53.19c0,30.91,17.01,57.4,47.92,74.65,30.91-17.25,47.92-43.74,47.92-74.65V10.47l-48.02-4.4L6.08,10.47Z"/>
        <line class="cls-6" x1="5.04" y1="27.81" x2="102.94" y2="27.81"/>
        <g>
          <path class="cls-7" d="M57.5,63.59l-.28.75c-.55,1.14-.12,1.89-.12,1.89,0,0,.71.07,1.39-.73.14,1.31.92,1.73.92,1.73,0,0,.78-.42.92-1.74.68.82,1.39.75,1.39.75,0,0,.43-.75-.12-1.89l-.28-.75h-3.82Z"/>
          <path class="cls-7" d="M61.11,62.8s.09-.56.32-.96c.43-.75,1.21-.5,1.21-.5.36.09.82.37,1.22,1.13,0,0,.77-1.48-.04-2.83-.36-.54-.82-.82-1.26-.93,0,0-1.97-.59-2.44,2.89h-1.44c-.48-3.48-2.44-2.89-2.44-2.89-.43.1-.9.39-1.25.93-.81,1.34-.05,2.83-.05,2.83.4-.76.86-1.04,1.22-1.13,0,0,.77-.24,1.21.5.23.4.32.96.32.96h3.44Z"/>
          <path class="cls-7" d="M59.4,54.14s-2.53,2.36-.48,8.49h.97c2.05-6.13-.49-8.49-.49-8.49Z"/>
          <path class="cls-8" d="M61.31,62.64h-3.81c-.32,0-.57.27-.57.61s.25.61.57.61h3.81c.32,0,.57-.27.57-.61s-.26-.61-.57-.61Z"/>
        </g>
        <g>
          <path class="cls-7" d="M93.42,63.59l-.28.75c-.55,1.14-.12,1.89-.12,1.89,0,0,.71.07,1.39-.73.15,1.31.92,1.73.92,1.73,0,0,.78-.42.92-1.74.68.82,1.39.75,1.39.75,0,0,.43-.75-.12-1.89l-.28-.75h-3.82Z"/>
          <path class="cls-7" d="M97.03,62.8s.09-.56.32-.96c.43-.75,1.21-.5,1.21-.5.36.09.82.37,1.21,1.13,0,0,.76-1.48-.05-2.83-.36-.54-.82-.82-1.25-.93,0,0-1.97-.59-2.45,2.89h-1.44c-.48-3.48-2.44-2.89-2.44-2.89-.43.1-.9.39-1.25.93-.81,1.34-.05,2.83-.05,2.83.4-.76.86-1.04,1.22-1.13,0,0,.78-.24,1.21.5.23.4.32.96.32.96h3.43Z"/>
          <path class="cls-7" d="M95.32,54.14s-2.54,2.36-.48,8.49h.97c2.05-6.13-.49-8.49-.49-8.49Z"/>
          <path class="cls-8" d="M97.23,62.64h-3.81c-.32,0-.57.27-.57.61s.25.61.57.61h3.81c.32,0,.57-.27.57-.61s-.26-.61-.57-.61Z"/>
        </g>
        <g>
          <path class="cls-7" d="M85.32,83.28v-5.63c0-1,.75-1.81,1.68-1.81s1.68.81,1.68,1.81v5.63h4.48l-3.96-19-.02-12.04,1.52-1.92v-3.14h-1.64v1.42h-1.39v-1.42h-1.62v1.42h-1.43v-1.42h-1.6v1.48h-11.3v-1.48h-1.6v1.42h-1.43v-1.42h-1.62v1.42h-1.39v-1.42h-1.64v3.14l1.53,1.92-.02,12.04-3.97,19h4.48v-5.63c0-1,.75-1.81,1.68-1.81s1.68.81,1.68,1.81v5.63h15.9Z"/>
          <path class="cls-2" d="M84.26,59.75v-3.32c0-.77.58-1.39,1.29-1.39s1.3.63,1.3,1.39v3.32h-2.59Z"/>
          <line class="cls-9" x1="89.13" y1="64.28" x2="65.57" y2="64.28"/>
          <path class="cls-2" d="M84.24,84.79l-1.23-8.88c.48-.3.82-.85.82-1.5,0-.73-.43-1.36-1.03-1.61l-.94-28.38,2.54-.16-.02-.64-7.01-4.5-7.05,4.5v.64l2.53.16-1,28.41c-.57.27-.96.87-.96,1.58,0,.64.33,1.2.81,1.5l-1.23,8.88v.71h13.75l.02-.71Z"/>
          <rect class="cls-1" x="74.11" y="44.67" width="1.22" height="2.9"/>
          <rect class="cls-1" x="76.76" y="44.67" width="1.22" height="2.9"/>
          <rect class="cls-1" x="79.45" y="44.67" width="1.22" height="2.9"/>
          <path class="cls-2" d="M75.55,38.02c0,1.07.81,1.93,1.8,1.93s1.8-.87,1.8-1.93-.8-1.94-1.8-1.94-1.8.87-1.8,1.94ZM76.37,38.03c0-.58.44-1.06.98-1.06s.98.48.98,1.06-.44,1.05-.98,1.05c-.54,0-.98-.47-.98-1.05Z"/>
          <rect class="cls-3" x="73.65" y="67.36" width="1.35" height="5.31"/>
          <rect class="cls-3" x="79.68" y="67.36" width="1.35" height="5.31"/>
          <rect class="cls-3" x="76.67" y="67.36" width="1.35" height="5.31"/>
          <line class="cls-9" x1="64.07" y1="50.38" x2="90.62" y2="50.38"/>
          <line class="cls-9" x1="65.52" y1="52.3" x2="89.13" y2="52.3"/>
          <line class="cls-9" x1="65.52" y1="62.35" x2="89.13" y2="62.35"/>
          <path class="cls-2" d="M70.47,59.75v-3.32c0-.77-.58-1.39-1.29-1.39s-1.3.63-1.3,1.39v3.32h2.59Z"/>
        </g>
        <path class="cls-3" d="M13.72,38.21h11.75c3.8,0,6.42,1,8.09,2.7,1.45,1.42,2.2,3.33,2.2,5.78v.07c0,3.8-2.02,6.32-5.11,7.63l5.93,8.65h-7.95l-5-7.52h-3.01v7.52h-6.89v-24.83ZM25.15,50.13c2.34,0,3.69-1.14,3.69-2.95v-.07c0-1.95-1.42-2.94-3.72-2.94h-4.51v5.97h4.54Z"/>
        <path class="cls-3" d="M21.03,81.79v-.07c0-7.24,5.57-12.91,13.09-12.91,5.07,0,8.34,2.13,10.53,5.18l-5.18,4.01c-1.42-1.78-3.05-2.91-5.43-2.91-3.48,0-5.93,2.94-5.93,6.57v.07c0,3.72,2.45,6.63,5.93,6.63,2.59,0,4.11-1.21,5.61-3.02l5.18,3.69c-2.34,3.23-5.5,5.61-10.99,5.61-7.09,0-12.8-5.43-12.8-12.84Z"/>
        <path class="cls-3" d="M41.05,97.93h6.88v18.8h12.03v6.04h-18.91v-24.84Z"/>
        <g>
          <path class="cls-2" d="M48.05,9.21h.63v4.47h-.91v-3.48l-.73.19-.19-.8,1.21-.38Z"/>
          <path class="cls-2" d="M51.16,13.76c-.62,0-1.03-.22-1.39-.52l.49-.74c.31.26.57.38.92.38.52,0,.8-.41.86-1.01-.21.18-.49.3-.86.3-.91,0-1.5-.53-1.5-1.44s.66-1.56,1.61-1.56c.57,0,.9.15,1.22.48.3.32.5.8.5,1.68,0,1.44-.64,2.43-1.85,2.43ZM51.31,10c-.46,0-.72.28-.72.68s.28.67.73.67.72-.28.72-.66c0-.4-.27-.69-.74-.69Z"/>
          <path class="cls-2" d="M55.31,13.76c-1.13,0-1.87-1-1.87-2.29s.75-2.3,1.88-2.3,1.87,1,1.87,2.29c0,1.3-.75,2.3-1.88,2.3ZM55.31,10.05c-.56,0-.91.59-.91,1.41s.37,1.42.93,1.42.91-.59.91-1.41-.37-1.43-.93-1.43Z"/>
          <path class="cls-2" d="M60.31,10.41c-.28-.22-.5-.36-.86-.36-.52,0-.79.44-.85,1.03.21-.15.46-.29.87-.29.84,0,1.48.49,1.48,1.42s-.69,1.54-1.61,1.54c-.55,0-.92-.16-1.22-.48-.31-.32-.5-.8-.5-1.69,0-1.38.59-2.43,1.85-2.43.57,0,.95.18,1.32.49l-.49.76ZM59.3,11.61c-.46,0-.72.27-.72.65s.28.66.73.66.72-.27.72-.66-.28-.65-.73-.65Z"/>
        </g>
        <path class="cls-2" d="M9.45,15.53h2.56c.93,0,1.52.37,1.89.96.31.5.48,1.13.48,1.99v.02c0,1.22-.4,2.07-1.03,2.56l1.22,2.85h-2l-.99-2.4h-.38v2.4h-1.75v-8.39h0ZM11.96,19.52c.42,0,.67-.3.67-.81v-.03c0-.54-.26-.8-.66-.8h-.77v1.64s.76,0,.76,0Z"/>
        <path class="cls-2" d="M16.84,15.47h1.73l2.21,8.46h-1.9l-.27-1.12h-1.84l-.27,1.12h-1.87l2.21-8.46ZM18.16,20.81l-.48-2.04-.48,2.04h.95Z"/>
        <path class="cls-2" d="M20.43,19.75v-.02c0-2.51,1.22-4.38,2.78-4.38,1.15,0,1.93.9,2.37,2.18l-1.44,1.35c-.19-.59-.47-1.02-.95-1.02-.59,0-.98.82-.98,1.83v.02c0,1.09.4,1.86.98,1.86.49,0,.77-.43.99-1.06l1.44,1.31c-.44,1.25-1.17,2.27-2.48,2.27-1.45,0-2.72-1.75-2.72-4.35Z"/>
        <path class="cls-2" d="M26.01,15.53h1.75v8.39h-1.75v-8.39Z"/>
        <path class="cls-2" d="M28.5,15.53h1.64l1.86,3.71v-3.71h1.74v8.39h-1.55l-1.94-3.87v3.87h-1.74v-8.39h0Z"/>
        <path class="cls-2" d="M34.12,19.75v-.02c0-2.51,1.23-4.38,2.89-4.38.9,0,1.62.48,2.19,1.27l-.98,1.89c-.34-.47-.73-.73-1.16-.73-.68,0-1.17.84-1.17,1.98v.02c0,1.19.52,2.01,1.25,2.01.3,0,.46-.07.59-.19v-.84h-.9v-1.8h2.54v3.89c-.57.74-1.37,1.26-2.31,1.26-1.63,0-2.94-1.76-2.94-4.36Z"/>
        <path class="cls-2" d="M41.97,19.75v-.02c0-2.51,1.22-4.38,2.78-4.38,1.15,0,1.93.9,2.37,2.18l-1.44,1.35c-.19-.59-.47-1.02-.95-1.02-.59,0-.98.82-.98,1.83v.02c0,1.09.41,1.86.98,1.86.5,0,.77-.43.98-1.06l1.44,1.31c-.44,1.25-1.17,2.27-2.47,2.27-1.45,0-2.71-1.75-2.71-4.35Z"/>
        <path class="cls-2" d="M47.54,15.53h1.76v6h2.46v2.4h-4.21v-8.39h0Z"/>
        <path class="cls-2" d="M52.02,20.16v-4.63h1.78v4.59c0,1.04.33,1.48.81,1.48s.81-.41.81-1.43v-4.65h1.78v4.57c0,2.87-1.04,4-2.6,4s-2.58-1.15-2.58-3.94Z"/>
        <path class="cls-2" d="M57.9,15.53h2.93c.73,0,1.18.26,1.49.75.19.3.32.73.32,1.3v.02c0,1-.37,1.61-.93,1.92.67.31,1.11.89,1.11,2.04v.02c0,1.34-.69,2.33-2.01,2.33h-2.9v-8.39h0ZM60.37,18.83c.37,0,.55-.21.55-.58v-.02c0-.37-.19-.57-.56-.57h-.76v1.18s.77,0,.77,0ZM60.48,21.8c.38,0,.58-.25.58-.61v-.02c0-.36-.19-.61-.57-.61h-.89v1.25s.88,0,.88,0Z"/>
        <path class="cls-2" d="M65.4,15.53h2c2.08,0,3.12,1.64,3.12,4.13v.02c0,2.49-1.06,4.25-3.18,4.25h-1.94v-8.39ZM67.44,21.47c.8,0,1.32-.52,1.32-1.73v-.02c0-1.21-.52-1.74-1.32-1.74h-.29v3.5h.29Z"/>
        <path class="cls-2" d="M70.89,15.53h4.47v2.3h-2.74v.85h2.56v2.03h-2.56v.91h2.78v2.3h-4.5v-8.39h0Z"/>
        <path class="cls-2" d="M78.08,15.53h1.75v6h2.46v2.4h-4.21v-8.39h0Z"/>
        <path class="cls-2" d="M82.91,15.53h4.47v2.3h-2.74v.85h2.56v2.03h-2.56v.91h2.78v2.3h-4.5v-8.39Z"/>
        <path class="cls-2" d="M88.06,15.53h1.64l1.87,3.71v-3.71h1.73v8.39h-1.55l-1.94-3.87v3.87h-1.74v-8.39Z"/>
        <path class="cls-2" d="M93.6,22.67l.93-1.79c.57.7,1.22.98,1.83.98.32,0,.45-.13.45-.36v-.03c0-.24-.16-.37-.73-.55-1.18-.38-2.21-.92-2.21-2.7v-.02c0-1.6.78-2.83,2.22-2.83,1.01,0,1.76.39,2.36,1.15l-.85,1.89c-.5-.58-1.09-.83-1.57-.83-.26,0-.38.15-.38.35v.02c0,.23.14.37.69.54,1.34.39,2.24,1.02,2.24,2.71v.02c0,1.76-.91,2.84-2.32,2.84-1.05,0-2.01-.48-2.67-1.41Z"/>
      </g>
    </g>
  </g>
</svg>