<?xml version="1.0" encoding="UTF-8"?>
<svg id="Calque_2" data-name="Calque 2" xmlns="http://www.w3.org/2000/svg" viewBox="0 0 118.16 165.41">
  <defs>
    <style>
      .cls-1 {
        fill: #731013;
      }

      .cls-1, .cls-2 {
        stroke-width: 0px;
      }

      .cls-2 {
        fill: #fff;
      }
    </style>
  </defs>
  <g id="Calque_1-2" data-name="Calque 1">
    <g>
      <path class="cls-2" d="M70.94,165.41c-.99,0-1.96-.37-2.72-1.07l-24.77-22.95c-.82-.76-1.28-1.82-1.28-2.93v-12.93H15.11c-2.21,0-4-1.79-4-4v-23.92c0-2.21,1.79-4,4-4h15.5c-2-.23-3.55-1.92-3.55-3.97v-23.93c0-2.21,1.79-4,4-4h11.1v-31.21s-38.16.1-38.16.1c-1.06,0-2.07-.42-2.82-1.17-.75-.75-1.18-1.77-1.18-2.83V4C0,2.94.42,1.92,1.18,1.17c.75-.75,1.76-1.17,2.82-1.17,0,0,110.18.49,110.18.49,2.2,0,3.98,1.8,3.98,4v22c0,1.39-.71,2.62-1.8,3.34-.68.5-1.51.78-2.37.78,0,0-38.84-.1-38.84-.1v31.21h11.72c2.21,0,4,1.79,4,4v23.93c0,2.06-1.55,3.75-3.55,3.97h15.5c2.21,0,4,1.79,4,4v23.92c0,2.21-1.79,4-4,4h-27.67v28.57c0,.74-.08,1.48-.23,2.23v5.07c0,1.59-.94,3.03-2.4,3.67-.51.22-1.06.33-1.6.33Z"/>
      <g>
        <path class="cls-1" d="M47.09,33.81v31.9h-15.95v23.92h15.95v7.98H15.19v23.92h31.9v15.95l23.92,23.93v-39.88h31.9v-23.92h-31.9v-7.97h15.95v-23.93h-15.95v-7.98c-7.98-7.98-15.89-15.95-23.92-23.92"/>
        <path class="cls-1" d="M8.54,8.29h8.8v-4.29H4.08v22.6h4.46v-8.3h8.58v-4.29h-8.58v-5.72ZM23.5,18.52c0-2.58,1.92-4.46,4.35-4.46,1.7,0,3.14.88,3.69,2.26h4.4c-.77-3.68-4.07-6.33-8.09-6.33-4.89,0-8.52,3.74-8.52,8.53s3.63,8.58,8.52,8.58c4.01,0,7.31-2.64,8.09-6.38h-4.4c-.55,1.38-1.98,2.26-3.69,2.26-2.42-.05-4.35-1.87-4.35-4.46M64.42,26.61h4.45V4h-5.06l-6,13.86-5.99-13.86h-5.06v22.6h4.45v-15.18l5,11.6h3.25l5-11.61v15.18h-.06ZM84.49,16.98h-8.14c.49-2.04,2.03-3.24,4.23-3.24,1.76,0,3.41.93,3.91,3.24M88.51,20.28c.11-.55.17-1.1.17-1.71,0-4.73-3.3-8.52-8.03-8.52-5.12,0-8.58,3.74-8.58,8.52s3.41,8.53,8.64,8.53c3.63,0,6.43-1.87,7.48-5.11l-4.12.05c-.55.94-1.87,1.6-3.36,1.6-2.09,0-3.79-1.05-4.34-3.36h12.15ZM114.08,22.7h-7.15l6.88-9.46v-2.75h-16.83v-5.22h-4.18v5.17h-2.81v4.02h2.81v12.15h4.18v-12.21h11.17l-6.82,9.46v2.75h12.76v-3.9Z"/>
      </g>
    </g>
  </g>
</svg>