<?xml version="1.0" encoding="UTF-8"?>
<svg id="Calque_2" data-name="Calque 2" xmlns="http://www.w3.org/2000/svg" xmlns:xlink="http://www.w3.org/1999/xlink" viewBox="0 0 127.99 152.17">
  <defs>
    <style>
      .cls-1 {
        stroke: #ca9e67;
        stroke-width: 1.86px;
      }

      .cls-1, .cls-2, .cls-3, .cls-4 {
        fill: none;
      }

      .cls-1, .cls-3 {
        stroke-miterlimit: 13.33;
      }

      .cls-5 {
        fill: url(#Dégradé_sans_nom_7-3);
      }

      .cls-5, .cls-6, .cls-7, .cls-8, .cls-9, .cls-10, .cls-11, .cls-12, .cls-13, .cls-14, .cls-15 {
        stroke-width: 0px;
      }

      .cls-6 {
        fill: url(#Dégradé_sans_nom_8);
      }

      .cls-7 {
        fill: url(#Dégradé_sans_nom_7);
      }

      .cls-8 {
        fill: #ededed;
      }

      .cls-8, .cls-9, .cls-13 {
        fill-rule: evenodd;
      }

      .cls-9 {
        fill: #f6f6f6;
      }

      .cls-2 {
        stroke: #f6f6f6;
      }

      .cls-2, .cls-3, .cls-4 {
        isolation: isolate;
        opacity: .5;
        stroke-width: .27px;
      }

      .cls-2, .cls-4 {
        stroke-miterlimit: 6.67;
      }

      .cls-3, .cls-4 {
        stroke: #fff;
      }

      .cls-10 {
        fill: url(#Dégradé_sans_nom_7-2);
      }

      .cls-11, .cls-13 {
        fill: #fff;
      }

      .cls-12 {
        fill: url(#Dégradé_sans_nom_8-2);
      }

      .cls-14 {
        fill: url(#Dégradé_sans_nom_7-4);
      }

      .cls-15 {
        fill: #89c2eb;
      }
    </style>
    <linearGradient id="Dégradé_sans_nom_8" data-name="Dégradé sans nom 8" x1="191.75" y1="-196.23" x2="191.96" y2="-196.23" gradientTransform="translate(137423.43 -134223.8) rotate(90) scale(700 -700)" gradientUnits="userSpaceOnUse">
      <stop offset="0" stop-color="#213255"/>
      <stop offset="1" stop-color="#13182c"/>
    </linearGradient>
    <linearGradient id="Dégradé_sans_nom_8-2" data-name="Dégradé sans nom 8" x1="191.35" y1="-194.99" x2="191.55" y2="-194.99" gradientTransform="translate(-128197.95 126007.64) rotate(-90) scale(657.77 -657.77)" xlink:href="#Dégradé_sans_nom_8"/>
    <linearGradient id="Dégradé_sans_nom_7" data-name="Dégradé sans nom 7" x1="192.26" y1="-186.84" x2="192.46" y2="-186.84" gradientTransform="translate(-7866.74 8272.39) rotate(-90) scale(42.38 -42.38)" gradientUnits="userSpaceOnUse">
      <stop offset="0" stop-color="#dadada"/>
      <stop offset="1" stop-color="#ededed"/>
      <stop offset="1" stop-color="#ededed"/>
    </linearGradient>
    <linearGradient id="Dégradé_sans_nom_7-2" data-name="Dégradé sans nom 7" x1="192.24" y1="-186.34" x2="192.45" y2="-186.34" gradientTransform="translate(-7971.82 8409.51) rotate(-90) scale(43.1 -43.1)" xlink:href="#Dégradé_sans_nom_7"/>
    <linearGradient id="Dégradé_sans_nom_7-3" data-name="Dégradé sans nom 7" y1="-185.38" y2="-185.38" gradientTransform="translate(-7789.1 8272.39) rotate(-90) scale(42.38 -42.38)" xlink:href="#Dégradé_sans_nom_7"/>
    <linearGradient id="Dégradé_sans_nom_7-4" data-name="Dégradé sans nom 7" x1="192.25" y1="-184.85" x2="192.45" y2="-184.85" gradientTransform="translate(-7825.75 8340.77) rotate(-90) scale(42.74 -42.74)" xlink:href="#Dégradé_sans_nom_7"/>
  </defs>
  <g id="Calque_1-2" data-name="Calque 1">
    <g>
      <path class="cls-8" d="M64,152.17c-.62,0-1.23-.14-1.8-.43C29.85,135.48,9.18,108.34,2.42,73.25c-4.83-25.1-1.16-46.72.08-52.75l.03-.13c.28-1.71,1.65-3.06,3.38-3.31C32.47,13.27,62.1.46,62.4.33c.51-.22,1.05-.33,1.6-.33s1.09.11,1.6.33c.3.13,29.93,12.93,56.49,16.73,1.73.25,3.1,1.59,3.38,3.31l.03.13c1.24,6.03,4.91,27.66.08,52.75-6.75,35.09-27.42,62.23-59.77,78.49-.56.28-1.18.43-1.8.43Z"/>
      <g id="g841">
        <g id="g2106">
          <path id="path875" class="cls-6" d="M6.48,21.02c.09.04-20.89,87.74,57.52,127.15h0c78.41-39.41,57.42-127.11,57.52-127.15h0C94.08,17.1,64,4,64,4h0S33.9,17.1,6.48,21.02"/>
          <path id="path895" class="cls-12" d="M9.95,24.34c.09.03-19.63,82.45,54.05,119.48h0c73.68-37.03,53.96-119.44,54.05-119.48h0c-25.77-3.68-54.05-16-54.05-16h0s-28.27,12.31-54.05,16"/>
          <path id="path907" class="cls-15" d="M14.4,69.11c.16.99.34,1.98.53,2.99,2.59,13.46,7.52,25.58,14.65,36.04,8.41,12.33,19.98,22.44,34.42,30.08V62.09c-18.09,0-35.04,2.56-49.6,7.03"/>
          <path id="path911" class="cls-1" d="M113.95,28.55c-21.48-3.63-43.37-12.28-49.95-15.01-6.58,2.73-28.47,11.38-49.95,15.01-1.22,7.26-2.94,22.55-.03,40.21,14.67-4.5,31.75-7.08,49.98-7.08s35.31,2.58,49.98,7.08c2.91-17.66,1.19-32.95-.03-40.21h0Z"/>
          <path id="path915" class="cls-1" d="M14.02,68.77c.16,1,.34,2,.53,3.01,2.61,13.56,7.58,25.78,14.76,36.32,8.47,12.42,20.13,22.61,34.68,30.32,14.55-7.7,26.21-17.89,34.68-30.32,7.19-10.54,12.15-22.75,14.76-36.32.19-1.01.37-2.01.53-3.01-14.67-4.5-31.75-7.08-49.98-7.08s-35.31,2.58-49.98,7.08h0Z"/>
        </g>
        <g id="g2111">
          <path id="path935" class="cls-11" d="M43.05,30.87v13.35h-10.63v-13.35h-5.37v26.08h5.37v-7.94h10.63v7.94h5.37v-26.08h-5.37Z"/>
          <path id="path1571" class="cls-11" d="M63.95,30.64l-11.47,26.31h5.18l1.23-2.95h10.59l1.23,2.95h5.18l-11.47-26.31h-.46ZM64.18,40.3l3.49,9.21h-6.98l3.49-9.21Z"/>
          <path id="path1039" class="cls-11" d="M77.42,44.06c0,7.62,5.75,13.23,12.98,13.23h0c4.86,0,8.35-2.2,10.54-5.69h0l-4.04-2.84c-1.41,2.2-3.23,3.79-6.49,3.79h0c-4.56,0-7.64-3.68-7.64-8.49h0c0-4.82,3.08-8.42,7.64-8.42h0c2.89,0,4.93,1.4,6.12,3.38h0l3.97-2.88c-2.26-3.6-5.53-5.27-10.09-5.27h0c-7.23,0-12.98,5.57-12.98,13.2"/>
        </g>
        <g id="g2121">
          <path id="path1093" class="cls-7" d="M52.06,115.1l-1.86,1.62v2.15l1.86-1.62v6.58h2.01v-8.73h-2.01Z"/>
          <path id="path1147" class="cls-10" d="M56.47,117.62c0,.94.59,1.47.89,1.73h0c-.33.27-.98.78-.98,1.88h0c0,1.81,1.32,2.68,2.93,2.68h0c1.61,0,2.93-.87,2.93-2.68h0c0-1.09-.65-1.61-.98-1.88h0c.31-.26.9-.79.9-1.73h0c0-1.65-1.35-2.59-2.84-2.59h0c-1.5,0-2.84.93-2.84,2.59M58.48,117.68c0-.47.37-.83.83-.83h0c.47,0,.83.37.83.83h0c0,.47-.37.83-.83.83h0c-.47,0-.83-.37-.83-.83M58.4,121.17c0-.5.42-.92.92-.92h0c.5,0,.92.42.92.92h0c0,.5-.42.92-.92.92h0c-.5,0-.92-.42-.92-.92"/>
          <path id="path1115" class="cls-3" d="M52.06,123.83v-6.58l-1.86,1.62v-2.14l1.86-1.62h2.01v8.73h-2.01Z"/>
          <path id="path1201" class="cls-5" d="M65.13,115.1v3.19h1.91v-1.37h1.86l-2.72,6.91h2.21l2.72-6.91v-1.81h-5.98Z"/>
          <path id="path1169" class="cls-3" d="M59.32,116.84c-.47,0-.83.37-.83.83s.37.83.83.83.83-.37.83-.83-.37-.83-.83-.83ZM59.32,120.25c-.5,0-.92.42-.92.92s.42.92.92.92.92-.42.92-.92-.42-.92-.92-.92ZM59.32,123.91c-1.61,0-2.93-.87-2.93-2.69,0-1.09.65-1.61.98-1.88-.31-.26-.9-.78-.9-1.73,0-1.65,1.35-2.59,2.84-2.59s2.84.93,2.84,2.59c0,.94-.59,1.47-.9,1.73.33.27.98.79.98,1.88,0,1.81-1.32,2.69-2.93,2.69Z"/>
          <path id="path1255" class="cls-14" d="M72.18,117.69h2.01c0-.67.44-.84.81-.84h0c.51,0,.79.33.79.81h0c0,.37-.12.59-.44.93h0l-3.16,3.43v1.81h5.62v-1.81h-3.16l2.08-2.21c.7-.73,1.08-1.22,1.08-2.14h0c0-1.64-1.18-2.64-2.8-2.64h0c-1.52,0-2.82.94-2.82,2.66"/>
          <path id="path1223" class="cls-3" d="M68.39,123.83h-2.21l2.72-6.91h-1.86v1.37h-1.91v-3.19h5.98v1.81l-2.72,6.91Z"/>
          <path id="path1277" class="cls-3" d="M72.18,123.83v-1.81l3.16-3.43c.32-.34.44-.56.44-.93,0-.48-.27-.81-.79-.81-.37,0-.81.17-.81.85h-2.01c0-1.72,1.3-2.66,2.82-2.66,1.62,0,2.8.99,2.8,2.64,0,.92-.38,1.41-1.08,2.15l-2.08,2.21h3.16v1.81h-5.62Z"/>
        </g>
        <g id="g2141">
          <path id="path1291" class="cls-13" d="M57,69.68l-.45.45c-.17-.43.11-1.82.22-2.2v-.03c-.72.2-1.62.87-2.04,1.4-.21.27-.43.53-.64.8-.05-1.23-.11-2.47-.16-3.7-.28.14-.57.17-.8.35-.82.63-1.42,2.35-1.6,3.57-.02.01-.04.02-.06.03-.44-1.66-1.23-3.23-2.84-3.76.05,1.18.32,2.36.26,3.54-.32-.36-.64-.72-.96-1.08-.53-.42-1.11-.78-1.75-1.08-.17.51.29,1.52.29,2.23-.2-.17-.4-.34-.61-.51l-.06-.06h-.03c.09.94.46,1.53.67,2.36.09.52.17,1.04.26,1.56v.06c3.1-.32,6.39-.82,9.32.16l.29-1.44c.3-1.01.66-1.69.93-2.78-.07.04-.15.09-.22.13"/>
          <path id="path1319" class="cls-13" d="M70.44,75.04c.63-.01,1.49-.08,1.98.13v.03c-.94.05-2.51.6-2.97,1.21,1.83-.28,4.44-.77,6.41-.19.57.16,1.01.47,1.5.67v.03c-1.13.02-2.14.36-2.94.77-1.35.68-2.36,1.66-3.57,2.42-1.99,1.25-5.76,2.22-8.61,1.15-.81-.3-1.71-.65-2.2-1.28,2.8-.22,3.67-2.29,5.52-3.45.95-.59,2.08-1.02,3.32-1.31.52-.06,1.04-.13,1.56-.19"/>
          <path id="path1305" class="cls-4" d="M57,69.68l-.45.45c-.17-.43.11-1.82.22-2.2v-.03c-.72.2-1.62.87-2.04,1.4-.21.27-.43.53-.64.8-.05-1.23-.11-2.47-.16-3.7-.28.14-.57.17-.8.35-.82.63-1.42,2.35-1.6,3.57-.02.01-.04.02-.06.03-.44-1.66-1.23-3.23-2.84-3.76.05,1.18.32,2.36.26,3.54-.32-.36-.64-.72-.96-1.08-.53-.42-1.11-.78-1.75-1.08-.17.51.29,1.52.29,2.23-.2-.17-.4-.34-.61-.51l-.06-.06h-.03c.09.94.46,1.53.67,2.36.09.52.17,1.04.26,1.56v.06c3.1-.32,6.39-.82,9.32.16l.29-1.44c.3-1.01.66-1.69.93-2.78-.07.04-.15.09-.22.13h0Z"/>
          <path id="path1347" class="cls-13" d="M50.72,77.53c.07,1.71-2.09,1.05-2.11-.32.79.02,1.4.25,2.11.32M91.3,95.49c-.23-.75-.54-1.49-.93-2.11-.27-.36-.53-.72-.8-1.08-.27-.22.17-.52.35-.77-.6-.58-1.53-1.4-2.36-1.69.12-.34.23-.68.35-1.02-1.16-.33-2.37-.84-3.73-.96.04-.47.08-.94.13-1.4-1.26-.34-2.93,0-4.18.06-.03-.53-.06-1.06-.1-1.6-.85.14-1.7.28-2.55.41-.9.24-1.81.49-2.71.73-.07-.56-.15-1.13-.22-1.69-.56.13-1.13.26-1.69.38-1.16.35-2.31.75-3.38,1.21-.11-.56-.21-1.13-.32-1.69-.95.3-1.89.6-2.84.89-.8.34-1.6.68-2.39,1.02-.07-.44-.15-.87-.22-1.31-2.04.23-4.16,1.4-5.84,2.14-.05-.27-.11-.53-.16-.8-4.46.67-6.35,4.2-10.43,5.23-3.76.95-5.58-1.9-6.22-4.59-.13-.57-.32-1.43-.19-2.17.4-2.37,1.36-3.54,3.61-4.05.53-.12,1.44-.17,1.95.03,1.12.45,1.58,1.65,2.87,1.95,1.82.41,6.55-.14,6.89-1.31-.46-.39-1.48-.34-2.14-.51-.68-.17-1.63-.64-2.14-1.05h-.06c.37-.15,1.05-.06,1.53-.06,1.51,0,2.83.03,3.8-.54.33-.2.65-.31.67-.83-.62-.65-1.69-.94-2.58-1.31-1.93-.8-3.66-1.39-6.54-1.34-.37.03-.74.06-1.12.1-.71.12-1.43.23-2.14.35-3.03.76-5.58,1.78-7.15,3.99-.72,1.02-1.22,2.27-1.6,3.64-.68,2.51-.2,5.8.57,7.78,2.19,5.58,7.65,8.07,14.87,8.61.59.88-.44,1.85-.86,2.46-.53.77-1.13,1.9-1.91,2.39-.39.1-.79.19-1.18.29-1.19.37-2.56,1.08-3.06,2.14-.05.05-.11.11-.16.16.81-.12,1.45-.52,2.39-.51.24.51-.06,1.5-.22,1.98,1.18-.49,2.12-1.69,3.54-1.88.28.27.29.75.22,1.28.67-.21,1.94-.71,2.23-1.31.24-.59-.61-1.2-.96-1.37.4-2.72,3.03-3.54,4.95-4.79-.28-1.42-.66-2.13-.32-3.86.04.03.41,1.25.51,1.4.53.84,1.54,1.69,2.49,2.11.98.43,3.08.51,4.37.26,3.1-.62,5.71-1.61,8.29-2.71.87.75,1.52,1.73,2.81,2.07-.57,1.61-1.15,3.21-1.72,4.82-1.72.58-3.42.94-4.15,2.46l-.1.1c.78-.14,1.48-.48,2.39-.48.31.56-.12,1.38-.19,1.91,1.2-.43,2.1-1.63,3.48-1.85.36.21.29.76.26,1.28.66-.32,1.92-.69,2.23-1.34.28-.71-1.07-1.78-1.6-1.88.06-2.41,2.82-4.71,4.31-5.84-.11-.43-.54-.76-.77-1.12-.89-1.41-1.53-3.12-.89-5.14.02-.01.04-.02.06-.03.06,1.3.67,2.76,1.69,3.09,1.92-.51,5.18.09,5.87,1.15.4.62.24,1.7-.09,2.27-.94,1.59-3.72,1.37-6.25,1.34-.81.6-1.5,1.62-1.88,2.65v.03c1.89,0,3.02.44,5.26.61,2.25.17,3.78-.24,4.53-.57,2.41-1.06,4.72-4.44,3.57-8.2"/>
          <path id="path1333" class="cls-2" d="M70.44,75.04c.63-.01,1.49-.08,1.98.13v.03c-.94.05-2.51.6-2.97,1.21,1.83-.28,4.44-.77,6.41-.19.57.16,1.01.47,1.5.67v.03c-1.13.02-2.14.36-2.94.77-1.35.68-2.36,1.66-3.57,2.42-1.99,1.25-5.76,2.22-8.61,1.15-.81-.3-1.71-.65-2.2-1.28,2.8-.22,3.67-2.29,5.52-3.45.95-.59,2.08-1.02,3.32-1.31.52-.06,1.04-.13,1.56-.19Z"/>
          <path id="path1375" class="cls-9" d="M73.63,101.27c-.31.66-.61,1.42-.77,2.23-3.94-.21-8.37-.19-11.2,1.02-.98.42-2.17.98-2.3,2.23h-.03c-.15-1.65.83-2.21,1.82-2.81,2.36-1.42,6.96-2.08,8.84-2.36s3.56-.33,3.64-.32"/>
          <path id="path1361" class="cls-4" d="M50.72,77.53c.07,1.71-2.09,1.05-2.11-.32.79.02,1.4.25,2.11.32ZM91.3,95.49c-.23-.75-.54-1.49-.93-2.11-.27-.36-.53-.72-.8-1.08-.27-.22.17-.52.35-.77-.6-.58-1.53-1.4-2.36-1.69.12-.34.23-.68.35-1.02-1.16-.33-2.37-.84-3.73-.96.04-.47.08-.94.13-1.4-1.26-.34-2.93,0-4.18.06-.03-.53-.06-1.06-.1-1.6-.85.14-1.7.28-2.55.41-.9.24-1.81.49-2.71.73-.07-.56-.15-1.13-.22-1.69-.56.13-1.13.26-1.69.38-1.16.35-2.31.75-3.38,1.21-.11-.56-.21-1.13-.32-1.69-.95.3-1.89.6-2.84.89-.8.34-1.6.68-2.39,1.02-.07-.44-.15-.87-.22-1.31-2.04.23-4.16,1.4-5.84,2.14-.05-.27-.11-.53-.16-.8-4.46.67-6.35,4.2-10.43,5.23-3.76.95-5.58-1.9-6.22-4.59-.13-.57-.32-1.43-.19-2.17.4-2.37,1.36-3.54,3.61-4.05.53-.12,1.44-.17,1.95.03,1.12.45,1.58,1.65,2.87,1.95,1.82.41,6.55-.14,6.89-1.31-.46-.39-1.48-.34-2.14-.51-.68-.17-1.63-.64-2.14-1.05h-.06c.37-.15,1.05-.06,1.53-.06,1.51,0,2.83.03,3.8-.54.33-.2.65-.31.67-.83-.62-.65-1.69-.94-2.58-1.31-1.93-.8-3.66-1.39-6.54-1.34-.37.03-.74.06-1.12.1-.71.12-1.43.23-2.14.35-3.03.76-5.58,1.78-7.15,3.99-.72,1.02-1.22,2.27-1.6,3.64-.68,2.51-.2,5.8.57,7.78,2.19,5.58,7.65,8.07,14.87,8.61.59.88-.44,1.85-.86,2.46-.53.77-1.13,1.9-1.91,2.39-.39.1-.79.19-1.18.29-1.19.37-2.56,1.08-3.06,2.14-.05.05-.11.11-.16.16.81-.12,1.45-.52,2.39-.51.24.51-.06,1.5-.22,1.98,1.18-.49,2.12-1.69,3.54-1.88.28.27.29.75.22,1.28.67-.21,1.94-.71,2.23-1.31.24-.59-.61-1.2-.96-1.37.4-2.72,3.03-3.54,4.95-4.79-.28-1.42-.66-2.13-.32-3.86.04.03.41,1.25.51,1.4.53.84,1.54,1.69,2.49,2.11.98.43,3.08.51,4.37.26,3.1-.62,5.71-1.61,8.29-2.71.87.75,1.52,1.73,2.81,2.07-.57,1.61-1.15,3.21-1.72,4.82-1.72.58-3.42.94-4.15,2.46l-.1.1c.78-.14,1.48-.48,2.39-.48.31.56-.12,1.38-.19,1.91,1.2-.43,2.1-1.63,3.48-1.85.36.21.29.76.26,1.28.66-.32,1.92-.69,2.23-1.34.28-.71-1.07-1.78-1.6-1.88.06-2.41,2.82-4.71,4.31-5.84-.11-.43-.54-.76-.77-1.12-.89-1.41-1.53-3.12-.89-5.14.02-.01.04-.02.06-.03.06,1.3.67,2.76,1.69,3.09,1.92-.51,5.18.09,5.87,1.15.4.62.24,1.7-.09,2.27-.94,1.59-3.72,1.37-6.25,1.34-.81.6-1.5,1.62-1.88,2.65v.03c1.89,0,3.02.44,5.26.61,2.25.17,3.78-.24,4.53-.57,2.41-1.06,4.72-4.44,3.57-8.2h0Z"/>
          <path id="path1403" class="cls-8" d="M61.12,80.2s3.43,2.04,7.09.51c3.66-1.53,4.32-3.03,5.94-3.43-.88.04-2.34.81-4.74,2-2.4,1.19-3.52,1.46-4.96,1.46s-3.32-.53-3.32-.53"/>
          <path id="path1389" class="cls-4" d="M73.63,101.27c-.31.66-.61,1.42-.77,2.23-3.94-.21-8.37-.19-11.2,1.02-.98.42-2.17.98-2.3,2.23h-.03c-.15-1.65.83-2.21,1.82-2.81,2.36-1.42,6.96-2.08,8.84-2.36s3.56-.33,3.64-.32h0Z"/>
          <path id="path1407" class="cls-8" d="M83.68,104.14s5.1.19,6.7-3.47c-.03-.55-.64.72-2.51,2-2.8,1.47-4.18,1.47-4.18,1.47"/>
          <path id="path1411" class="cls-8" d="M45.57,107.24s1.3-1.37,2.86-1.62c1.56-.24.46.47.12.55-.34.08-2.15.48-2.98,1.07"/>
          <path id="path1415" class="cls-8" d="M70,107.03s1.11-.93,2.43-1.31c.93-.27.87.16.52.29-1.43.52-1.75.55-2.95,1.02"/>
          <path id="path1419" class="cls-8" d="M46.56,71.92s.23.55.27,1.52c0,0,4.86-.7,6.75-.41,1.89.28-1.77-.56-4.02-.37-1.26.1-2.33.17-2.33.17-.05-.26-.66-.9-.66-.9"/>
          <path id="path1423" class="cls-8" d="M57.07,96.4s.53,5.6,7.31,3.77c5.72-1.55-5.18,1.2-7.31-3.77"/>
          <path id="path1427" class="cls-8" d="M37.7,81.95s-5.35,15.72,13.78,17.64c0,0-7.86-.74-11.02-5.29-4.48-5.67-2.76-12.34-2.76-12.34"/>
          <path id="path1431" class="cls-8" d="M42.78,80.97s2.86-1.27,4.22-.44c1.36.83,1.16,1.19,1.16,1.19,0,0,.29-1.18-1-1.5-.61-.16-1.01-.21-1.54-.12-1.87.34-2.85.87-2.85.87"/>
          <path id="path1435" class="cls-8" d="M73.02,97.98c-.42.22.98,1.53,2.24,1.98-1.77-1.09-1.82-2.19-2.24-1.98"/>
          <path id="path1439" class="cls-8" d="M78.97,93.13s.41,1.9,1.13,2.43c.72.53,3.86-.13,5.42.91,1.44.77,1.17,2,1.17,2,0,0,.53-1.28-.64-2.21-.86-.76-2.03-1.04-3.49-1.04s-1.68,0-2.56-.76c-.88-.76-1.03-1.33-1.03-1.33"/>
        </g>
      </g>
    </g>
  </g>
</svg>