<?xml version="1.0" encoding="UTF-8"?>
<svg id="Calque_2" data-name="Calque 2" xmlns="http://www.w3.org/2000/svg" viewBox="0 0 92.13 149.37">
  <defs>
    <style>
      .cls-1 {
        fill: #fff;
      }

      .cls-1, .cls-2 {
        stroke-width: 0px;
      }

      .cls-2 {
        fill: #eb0000;
      }
    </style>
  </defs>
  <g id="Calque_1-2" data-name="Calque 1">
    <g>
      <path class="cls-1" d="M46.07,149.37c-.45,0-.9-.07-1.34-.2C20.48,141.93,0,114.56,0,89.4v-45.06c0-2.59,2.1-4.68,4.68-4.68h7.6c1.19,0,2.28.44,3.11,1.18,1.2-.95,2.51-1.77,3.92-2.43l-.97-11.82c-.01-.13-.02-.25-.02-.38,0-1.16-.22-2.31-.64-3.39l-4.22-10.75c-.57-1.44-.38-3.07.49-4.35.87-1.28,2.32-2.05,3.87-2.05h7.44c2.42,0,4.44,1.84,4.67,4.25.02.24.11.47.25.66.26.18.93.43,2.08.45.9-.36,1.83-.65,2.77-.87,1.61-1.15,2.66-3.27,2.66-5.48,0-2.59,2.1-4.68,4.68-4.68h7.39c2.59,0,4.68,2.1,4.68,4.68,0,2.02.91,4.02,2.31,5.21,1.32.22,2.62.58,3.89,1.07.69-.09,1.11-.26,1.3-.39.14-.19.23-.42.25-.66.22-2.41,2.24-4.25,4.67-4.25h7.44c1.55,0,3,.77,3.87,2.05.87,1.28,1.06,2.91.49,4.35l-4.22,10.75c-.43,1.08-.64,2.22-.64,3.39,0,0,0,3.12,0,3.16l-.25,9.49c1.11.59,2.15,1.27,3.11,2.04.84-.77,1.96-1.25,3.18-1.25h7.6c2.59,0,4.68,2.1,4.68,4.68v45.06c0,25.16-20.48,52.54-44.72,59.77-.44.13-.89.2-1.34.2Z"/>
      <g>
        <path class="cls-2" d="M46.07,144.68c22.44-6.7,41.38-31.97,41.38-55.29v-45.06h-7.6v45.06c0,9.16-3.54,19.14-9.96,28.12,0,0-9.1,13.78-23.82,19.08-14.72-5.3-23.82-19.08-23.82-19.08-6.42-8.97-9.96-18.96-9.96-28.12v-45.06h-7.6v45.06c0,23.31,18.94,48.58,41.38,55.29Z"/>
        <path class="cls-2" d="M38.52,122.51v-47.25l-9.42,5.2v31.8c2.67,3.82,5.84,7.27,9.42,10.25Z"/>
        <path class="cls-2" d="M55.29,98.07l8.26,13.81c-2.07,2.97-4.43,5.73-7.04,8.24l-15.76-29.17,9.36.03c.67,0,1.31-.28,1.77-.76.5-.51.77-1.2.77-1.91v-6.67c-.06-1.31-.79-2.5-1.93-3.16-4.35-2.26-11.81-6.48-17.29-9.62-3-1.73-4.86-4.93-4.86-8.4v-6.79c0-5.34,4.34-9.67,9.68-9.68h16.29c4.15,0,7.52,3.37,7.52,7.52h0v4.19l-9.42,5.2v-6.11c0-1.53-1.16-2.52-2.95-2.52h-7.92c-1.63,0-2.95,1.32-2.95,2.95v3.93c0,1.28.69,2.47,1.8,3.1.1.05,8.39,4.34,16.4,8.64,3.13,1.68,5.08,4.94,5.08,8.49v11.31s.2,6.38-6.81,7.37Z"/>
        <path class="cls-2" d="M69.12,29.25v-3.04c0-1.75.33-3.47.97-5.1l4.22-10.75h-7.44c-.12,1.33-.69,2.59-1.61,3.56-1.38,1.31-3.47,1.8-5.55,1.8-5.68,0-9.94-5.26-9.94-11.03h-7.39c0,5.78-4.26,11.03-9.94,11.03-2.09,0-4.17-.5-5.55-1.8-.92-.97-1.49-2.23-1.61-3.56h-7.44l4.22,10.75c.64,1.62.96,3.35.97,5.1v3.04h46.11ZM48.57,24.8c-1.66.23-3.34.23-5,0-1.34-1.77-2.43-3.71-3.23-5.78,1.7-1.7,3.64-3.15,5.76-4.3h0c2.1,1.15,4.03,2.59,5.73,4.28-.81,2.08-1.91,4.03-3.26,5.8h0Z"/>
      </g>
    </g>
  </g>
</svg>