<?xml version="1.0" encoding="UTF-8"?>
<svg id="Calque_2" data-name="Calque 2" xmlns="http://www.w3.org/2000/svg" viewBox="0 0 100 143.39">
  <defs>
    <style>
      .cls-1 {
        fill: #ea670b;
      }

      .cls-1, .cls-2, .cls-3 {
        stroke-width: 0px;
      }

      .cls-2 {
        fill: #fff;
      }

      .cls-3 {
        fill: #1b1615;
      }
    </style>
  </defs>
  <g id="Calque_1-2" data-name="Calque 1">
    <g id="g830">
      <path id="path844" class="cls-2" d="M50,143.39l-.72-.4c-20.78-11.66-35.19-28.1-42.86-48.87C0,76.71,0,60.38,0,53.4,0,37.12,3.44,15.63,3.47,15.42l.12-.77s1.31-.61,1.64-.75c.29-2.3.64-4.82.64-4.82l.71-.34c.2-.1,4.98-2.39,12.4-4.48C25.86,2.31,36.83,0,50,0s24.14,2.31,31.03,4.25c7.42,2.09,12.2,4.38,12.4,4.48l.71.34s.35,2.53.64,4.82c.32.15,1.64.75,1.64.75l.12.77c.04.22,3.47,21.71,3.47,37.98,0,6.98,0,23.32-6.42,40.72-7.66,20.76-22.08,37.2-42.86,48.87l-.72.4Z"/>
      <path id="path1252" class="cls-3" d="M95.08,15.65c-.56-.26-1.67-.76-1.67-.76-.33-2.71-.63-4.84-.63-4.84,0,0-4.78-2.31-12.16-4.39-6.8-1.91-17.63-4.2-30.63-4.2s-23.83,2.28-30.63,4.2c-7.38,2.08-12.16,4.39-12.16,4.39,0,0-.3,2.13-.63,4.84,0,0-1.11.5-1.67.76,0,0-3.45,21.4-3.45,37.75s.71,61.46,48.53,88.3c47.82-26.84,48.53-71.96,48.53-88.3s-3.45-37.75-3.45-37.75"/>
      <path id="path1408" class="cls-1" d="M50,129.33c34.17-19.9,42.58-46.82,44.65-65.46H5.35c2.07,18.64,10.48,45.56,44.64,65.46"/>
      <g id="g12271">
        <g id="g12222">
          <path id="path11843" class="cls-2" d="M80.46,20.38c-4.33,0-9.6.25-15.6.99-11.25,1.39-19.3,3.96-22.88,5.27-.24,2.52-.41,5.26-.47,8.22,4.82-1.73,16.09-5.45,27.99-7.05,13.15-1.76,21.45-1.34,24.45-1.07-.15-1.52-.3-3.02-.45-4.4-.04-.37-.08-.75-.12-1.11-1.09-.18-5.71-.85-12.93-.84Z"/>
          <path id="path11829" class="cls-2" d="M66.28,6.96c-9.05,0-16.11,1.01-20.64,1.91-.44,1.26-.96,2.93-1.49,5-.21.84-.42,1.75-.63,2.73,4.07-1.17,12.69-3.3,23.37-3.93,15.29-.91,24.15,1.51,25.72,1.99,0-.07-.02-.19-.03-.26-.24-1.88-.48-3.75-.49-3.78,0,.04.21,1.59.44,3.4-.26-2.05-.45-3.45-.45-3.45,0,0-1.54-.74-4.32-1.78,2.78,1.04,4.32,1.78,4.32,1.78h0s0,0,0,0c-.07-.03-8.91-3.6-25.81-3.6Z"/>
          <path id="path1248" class="cls-2" d="M44.51,6.6c-1.9.77-5.65,1.71-12.5,2.39-.21-2.39-.51-4.06-.66-4.82,4.99.02,8.71.38,11.19.79,1.28.21,2.23.44,2.84.64.24.08.43.15.56.22-.23.19-.68.49-1.44.78"/>
          <path id="path1244" class="cls-1" d="M30.53,3.91c.02.07.07.31.15.73.16.84.4,2.36.59,4.43-5.34.5-12.48.85-21.93.86,2.99-1.27,10.54-4.16,21.2-6.01"/>
          <path id="path1240" class="cls-2" d="M7.89,10.67h0c.34,0,.69,0,1.03,0,15.18,0,24.46-.85,30.02-1.85,2.78-.5,4.64-1.03,5.84-1.52.29-.12.54-.23.76-.34-1.39,3.49-4.81,13.75-4.81,30.27,0,.29,0,.58,0,.87h21.6c1.41-.33,2.84-.64,4.29-.93,13.72-2.74,24.23-2.91,28-2.87-.15-1.95-.31-3.87-.49-5.73.33,3.59.64,7.42.86,11.18H5c.77-13.44,2.7-27.71,2.89-29.09"/>
        </g>
        <g id="g9084">
          <g id="g7657">
            <path id="path1194" class="cls-3" d="M31.67,21.25c-.26-.64-.52-1.29-.78-1.93-.39.7-.78,1.39-1.18,2.09.3.28.59.55.89.82.36-.32.72-.65,1.07-.98"/>
            <path id="path1192" class="cls-3" d="M29.13,23.58c.37-.33.74-.66,1.11-.98-.3-.28-.61-.56-.91-.84-.87.36-1.74.72-2.62,1.08.8.25,1.61.5,2.42.74"/>
            <path id="path1190" class="cls-3" d="M31.81,23.37c.87-.37,1.74-.75,2.6-1.14-.81-.22-1.62-.45-2.43-.69-.36.33-.73.66-1.09.99.3.28.61.55.92.83"/>
            <path id="path1154" class="cls-3" d="M30.53,22.9c-1.19,2.07-2.42,4.12-3.69,6.16.62-.21,1.24-.43,1.86-.65.38.33.75.66,1.14.98.46-.39.92-.78,1.37-1.17.58.13,1.16.26,1.74.39-.82-1.9-1.63-3.81-2.41-5.72"/>
          </g>
          <g id="g7645">
            <path id="path1204" class="cls-3" d="M26.58,16.03c.85-.35,1.69-.71,2.53-1.07-.78-.24-1.55-.49-2.32-.74-.36.32-.71.65-1.07.97.29.28.58.57.87.85"/>
            <path id="path1202" class="cls-3" d="M26.49,13.91c-.24-.65-.48-1.3-.71-1.95-.39.69-.78,1.37-1.18,2.06.28.28.56.56.84.84.35-.32.7-.63,1.05-.95"/>
            <path id="path1200" class="cls-3" d="M25.08,15.22c-.29-.28-.57-.57-.86-.86-.85.34-1.69.68-2.55,1.01.77.27,1.54.54,2.32.8.36-.32.73-.64,1.09-.96"/>
            <path id="path1198" class="cls-3" d="M24.54,22.01c.45-.38.9-.75,1.35-1.13.56.14,1.11.29,1.67.43-.75-1.92-1.49-3.85-2.21-5.78-1.19,2.03-2.43,4.06-3.69,6.07.61-.2,1.21-.4,1.81-.6.36.34.72.67,1.08,1.01"/>
          </g>
          <g id="g7639">
            <path id="path1186" class="cls-3" d="M12.27,22.28c.47-.35.95-.7,1.41-1.05.55.18,1.09.35,1.64.52-.64-1.96-1.27-3.93-1.88-5.89-1.31,1.96-2.66,3.91-4.04,5.85.62-.16,1.23-.33,1.84-.5.34.36.68.71,1.02,1.07"/>
            <path id="path1182" class="cls-3" d="M13.2,15.52c-.27-.3-.54-.6-.81-.9-.87.29-1.73.58-2.6.87.75.31,1.51.63,2.27.93.38-.3.76-.59,1.14-.89"/>
            <path id="path1178" class="cls-3" d="M14.65,16.42c.87-.3,1.73-.61,2.59-.93-.76-.29-1.52-.58-2.28-.88-.37.3-.75.6-1.13.9.27.3.54.6.82.9"/>
            <path id="path1176" class="cls-3" d="M14.68,14.3c-.2-.66-.4-1.33-.6-1.99-.43.66-.86,1.33-1.3,1.99.26.3.53.59.79.89.37-.3.74-.59,1.11-.89"/>
          </g>
          <g id="g7675">
            <path id="path1206" class="cls-3" d="M19.36,30.85c.82.28,1.65.55,2.48.83.39-.31.79-.63,1.18-.95-.3-.29-.61-.58-.91-.87-.91.33-1.83.66-2.75.99"/>
            <path id="path1172" class="cls-3" d="M24.55,29.44c-.25-.65-.5-1.31-.74-1.96-.43.69-.86,1.37-1.3,2.05.3.29.59.57.89.85.38-.31.76-.63,1.15-.94"/>
            <path id="path1168" class="cls-3" d="M19.27,37.09c.65-.19,1.3-.39,1.95-.58.38.34.76.68,1.14,1.02.49-.37.98-.74,1.46-1.12.59.15,1.19.3,1.78.44-.78-1.93-1.54-3.86-2.29-5.8-1.31,2.02-2.66,4.04-4.05,6.04"/>
            <path id="path1164" class="cls-3" d="M23.7,30.7c.31.29.61.57.92.86.92-.34,1.83-.7,2.74-1.05-.83-.25-1.66-.51-2.49-.77-.39.32-.78.64-1.17.96"/>
          </g>
          <g id="g7663">
            <path id="path1188" class="cls-3" d="M19.46,24.05c.89-.32,1.78-.65,2.66-.99-.8-.27-1.59-.54-2.39-.82-.38.31-.76.62-1.15.93.29.29.58.59.87.88"/>
            <path id="path1180" class="cls-3" d="M19.44,21.93c-.23-.66-.45-1.32-.67-1.97-.43.67-.86,1.35-1.3,2.02.28.29.56.58.84.87.38-.3.75-.61,1.13-.92"/>
            <path id="path1170" class="cls-3" d="M14.4,23.22c.79.3,1.58.59,2.38.88.39-.31.78-.61,1.16-.92-.29-.29-.57-.59-.86-.89-.89.31-1.78.62-2.68.93"/>
            <path id="path1160" class="cls-3" d="M18.21,23.51c-1.31,1.99-2.66,3.97-4.04,5.94.63-.18,1.26-.36,1.89-.54.36.35.72.7,1.08,1.05.48-.36.96-.72,1.44-1.09.57.16,1.14.33,1.71.49-.71-1.95-1.41-3.9-2.08-5.85"/>
          </g>
          <g id="g7669">
            <path id="path1196" class="cls-3" d="M6.14,37.02c.66-.15,1.32-.31,1.98-.47.36.36.72.72,1.08,1.08.51-.34,1.02-.69,1.53-1.03.58.19,1.17.37,1.76.55-.67-1.97-1.32-3.94-1.95-5.92-1.43,1.95-2.89,3.88-4.39,5.79"/>
            <path id="path1184" class="cls-3" d="M10.25,30.89c-.29-.3-.57-.61-.86-.92-.93.28-1.87.56-2.81.83.81.33,1.62.65,2.43.97.41-.29.82-.58,1.23-.88"/>
            <path id="path1162" class="cls-3" d="M10.93,30.9c.29.3.58.61.87.91.94-.29,1.87-.59,2.8-.89-.82-.3-1.63-.6-2.44-.9-.41.3-.81.59-1.22.89"/>
            <path id="path1158" class="cls-3" d="M9.81,29.66c.28.3.56.6.84.9.4-.29.8-.58,1.2-.88-.21-.67-.42-1.33-.63-2-.47.66-.94,1.32-1.41,1.97"/>
          </g>
          <g id="g7681">
            <path id="path1156" class="cls-3" d="M36.42,29.77c.32.27.64.54.97.8.89-.4,1.78-.8,2.67-1.21-.85-.2-1.69-.41-2.53-.62-.37.34-.74.68-1.11,1.02"/>
            <path id="path1152" class="cls-3" d="M32.36,36.4c.64-.23,1.28-.46,1.91-.7.4.32.8.64,1.2.95.47-.4.93-.8,1.4-1.2.6.12,1.2.23,1.8.34-.89-1.88-1.76-3.77-2.61-5.66-1.19,2.1-2.42,4.18-3.69,6.26"/>
            <path id="path1148" class="cls-3" d="M35.17,28.67c.31.27.63.53.94.8.36-.33.73-.67,1.09-1.01-.29-.64-.57-1.27-.85-1.91-.39.71-.78,1.41-1.18,2.12"/>
            <path id="path1146" class="cls-3" d="M35.74,29.84c-.32-.27-.64-.54-.96-.81-.89.39-1.79.77-2.69,1.14.84.23,1.68.46,2.52.68.38-.34.75-.67,1.12-1.01"/>
          </g>
          <g id="g7651">
            <path id="path1174" class="cls-3" d="M36.91,14.23c-.3-.27-.6-.54-.91-.81-.82.39-1.65.78-2.48,1.16.78.23,1.57.45,2.36.67.35-.34.69-.68,1.03-1.02"/>
            <path id="path1166" class="cls-3" d="M38.24,12.85c-.28-.64-.55-1.27-.82-1.91-.35.71-.7,1.42-1.06,2.12.3.27.59.53.89.79.33-.34.67-.67,1-1.01"/>
            <path id="path1150" class="cls-3" d="M38.46,14.96c.83-.4,1.65-.81,2.46-1.22-.79-.2-1.58-.4-2.37-.61-.34.34-.68.69-1.02,1.03.3.27.61.53.92.8"/>
            <path id="path852" class="cls-3" d="M39.74,20.17c-.86-1.88-1.71-3.75-2.54-5.64-1.08,2.1-2.19,4.19-3.34,6.28.59-.23,1.18-.47,1.77-.71.37.32.75.63,1.13.95.43-.4.86-.8,1.28-1.21.56.11,1.13.22,1.69.33"/>
          </g>
        </g>
      </g>
      <g id="g1142">
        <path id="path1111" class="cls-2" d="M5.9,59.53h3.16v-6.07c0-.27.21-.48.48-.48h3.38v-2.37h-3.38c-.13,0-.25-.05-.34-.14-.09-.09-.14-.21-.14-.34v-3.32c0-.27.22-.48.48-.48h3.38v-2.29h-7.02v15.49Z"/>
        <path id="path1109" class="cls-2" d="M34.56,57.04c-.09-.09-.14-.21-.14-.34v-12.66h-3.23v15.49h6.95v-2.34s-3.24,0-3.24,0c-.13,0-.25-.05-.34-.14"/>
        <path id="path1107" class="cls-2" d="M50.91,44.04v15.5h3.1v-4.96c0-.23.16-.43.39-.48.03,0,.06,0,.09,0,.19,0,.37.12.45.3l1.94,5.15h2.97l-2.14-5.67c-.24-.59-.06-1.07.26-1.32.27-.22.37-.29.74-.59.38-.32.59-.82.6-1.44v-4.43c0-.61-.2-1.05-.6-1.44-.45-.4-.92-.59-1.49-.61h-6.31ZM54.49,46.33h1.06c.13,0,.25.05.34.14.09.09.14.21.14.34v3.32c0,.13-.05.25-.14.34s-.21.14-.34.14h-1.06c-.13,0-.25-.05-.34-.14-.09-.09-.14-.21-.14-.34v-3.32c0-.13.05-.25.14-.34.09-.09.21-.14.34-.14Z"/>
        <path id="path1103" class="cls-2" d="M42.32,44.05c-.57.02-1.04.21-1.49.61h0c-.4.38-.59.82-.6,1.44v11.39c0,.61.19,1.05.6,1.44.45.4.91.59,1.49.61h4.14c.57-.02,1.04-.21,1.49-.61.4-.38.59-.82.6-1.44v-11.39c0-.61-.19-1.05-.6-1.44h0c-.45-.4-.92-.59-1.49-.61h-4.14ZM43.89,46.33h1.06c.13,0,.25.05.34.14.09.09.14.21.14.34v9.93c0,.13-.05.25-.14.34-.09.09-.22.14-.34.14h-1.06c-.13,0-.25-.05-.34-.14-.09-.09-.14-.21-.14-.34v-9.93c0-.13.05-.25.14-.34.09-.09.21-.14.34-.14Z"/>
        <path id="path1099" class="cls-2" d="M84.25,44.66c-.45-.4-.92-.59-1.49-.61h-6.22v15.49h3.17v-12.72c0-.13.05-.25.14-.34.09-.09.21-.14.34-.14h1.06c.13,0,.25.05.34.14.09.09.14.21.14.34v12.72h3.12v-13.44c0-.61-.2-1.05-.6-1.44h0Z"/>
        <path id="path1097" class="cls-2" d="M61.67,59.54h3.12v-15.49h-3.12v15.49Z"/>
        <path id="path1095" class="cls-2" d="M67.16,59.53h7.02v-2.29h-3.38c-.27,0-.48-.21-.48-.48v-3.3c0-.27.21-.48.48-.48h3.38v-2.37h-3.38c-.27,0-.48-.21-.48-.48v-3.33c0-.27.22-.48.48-.48h3.38v-2.29h-7.02v15.49Z"/>
        <path id="path1093" class="cls-2" d="M86.95,44.05v2.29h1.59c.13,0,.25.05.34.14.09.09.14.21.14.34v12.72h2.98v-12.72h0c0-.13.05-.25.14-.34.09-.09.21-.14.34-.14h1.59v-2.29h-7.12Z"/>
        <path id="path854" class="cls-2" d="M22.99,44.66c-.45-.4-.92-.59-1.49-.61h-4.14c-.57.02-1.04.21-1.49.61h0c-.4.38-.59.82-.6,1.44v11.39c0,.61.19,1.05.6,1.44.45.4.92.59,1.49.61h4.14c.57-.02,1.04-.21,1.49-.61.4-.38.59-.82.6-1.44v-3.55h-3.11v2.81c0,.13-.05.25-.14.34-.09.09-.21.14-.34.14h-1.06c-.13,0-.25-.05-.34-.14-.09-.09-.14-.21-.14-.34v-9.93c0-.13.05-.25.14-.34.09-.09.21-.14.34-.14h1.06c.13,0,.25.05.34.14.09.09.14.21.14.34v2.84h3.11v-3.56c0-.61-.19-1.05-.6-1.44h0Z"/>
      </g>
      <g id="g4960">
        <path id="path1220" class="cls-3" d="M43.99,102.51l-.13.24-.55,1.04-.35.66h.83v4.37h2.08v-.28c.22.18.47.27.76.28h1.86c.27,0,.51-.09.73-.27v.27h4.06v-.26c.21.16.45.25.73.26h1.86c.31,0,.57-.12.82-.34.23-.22.35-.49.35-.83v-1.82c0-.32-.11-.58-.33-.8h.33v-1.37c0-.33-.12-.6-.36-.83-.24-.21-.5-.32-.82-.33h-1.86c-.31,0-.57.12-.82.34-.05.04-.09.09-.13.14-.04-.05-.08-.1-.13-.15-.24-.21-.5-.32-.82-.33h-1.71c-.31,0-.57.12-.82.34-.05.05-.1.1-.13.15-.04-.06-.09-.11-.14-.16-.24-.21-.5-.32-.82-.33h-1.86c-.28,0-.52.1-.75.28v-.28h-1.88ZM49.66,105h.96l-.96,1.28v-1.28ZM52.83,105.61v1.26h-.94l.94-1.26Z"/>
        <g id="g1471">
          <path id="path1218" class="cls-2" d="M54.01,102.96c-.2,0-.36.07-.52.21-.14.13-.21.29-.21.5v3.99c0,.21.07.37.21.5.16.14.32.21.52.21h1.84c.2,0,.36-.07.52-.21.14-.13.21-.29.21-.5v-1.81c0-.21-.07-.37-.21-.5-.16-.14-.32-.21-.52-.21h-1.26v-1.13h.75v.59h1.23v-.92c0-.21-.07-.37-.21-.5-.16-.14-.32-.21-.52-.21h-1.84ZM54.59,106.19h.75v1.13h-.75v-1.13Z"/>
          <path id="path1216" class="cls-2" d="M45.42,108.38h-1.18v-4.37h-.53l.55-1.05h1.16v5.42Z"/>
          <path id="path1214" class="cls-2" d="M46.63,102.96c-.2,0-.36.07-.52.21-.14.13-.21.29-.21.5v1.81c0,.21.07.37.21.5.16.14.32.21.52.21h1.26v1.13h-.75v-.59h-1.24v.92c0,.21.07.37.21.5.16.14.32.21.52.21h1.84c.2,0,.36-.07.52-.21.14-.13.21-.29.21-.5v-3.99c0-.21-.07-.37-.21-.5-.16-.14-.32-.21-.52-.21h-1.84ZM47.14,104.03h.75v1.13h-.75v-1.13Z"/>
          <path id="path1210" class="cls-2" d="M52.83,108.38h-3.15v-1.37l1.84-2.46v-.53h-.53v.53h-1.31v-.87c0-.21.07-.37.21-.5.16-.14.32-.21.52-.21h1.7c.2,0,.36.07.52.21.14.13.21.29.21.5v1.18l-1.84,2.46h1.84v1.06Z"/>
        </g>
      </g>
      <g id="g6404">
        <path id="path1588" class="cls-3" d="M50,70.02c-5.58,0-10.69,1.99-14.68,5.3-2.08-.32-4.46-.46-6.49,0-.42.1-1.13.41-.15,1.67l1.56,2.01c.15.19.33.8-.27.8s-3.11-.15-3.37.11c-1.99,1.99-4.23,6.67-4.23,12.51,0,1.65.32,3.34.9,5.02,0,0,.22.6.33.88,4.16,10.6,14.29,17.71,26.4,17.71,8.73,0,16.39-3.77,21.58-9.8,1.29-1.5,2.42-3.14,3.38-4.89,1.94-4.05,1.4-7.47-1.41-8.6-.17-.07-.35-.13-.55-.18-.25-12.47-10.47-22.55-23-22.55ZM50,71.75c11.62,0,21.1,9.12,21.7,20.58-5.93-.76-16.99.06-24.9,2.19.62-.06,1.23-.12,1.83-.16,8.63-.63,15.53.95,17.88,5.02,2.39,4.15-2.02,11.96-10.22,14.76-.04.01-.07.02-.11.04-.22.07-.44.14-.66.21-.19.06-.38.11-.57.16-.09.02-.17.05-.26.07-.29.07-.58.13-.87.19-.01,0-.02,0-.03,0-1.01.2-2.07.32-3.16.35-.21,0-.42.01-.63.01-3.47,0-6.73-1.17-9.6-3.24-3.66-2.76-5.8-6.61-5.97-8.91-.27-3.57-.4-6.47,13.54-10.56,3.86-1.05,5.97-1.22,8.27-1.59,2.89-.47,7.23-1.42,10.21-3.96,0,0,1.09-.14,1.33-.25.28-.11.44-1.34.27-1.54-.19-.23-1.92-2.7-7.05-4.81-3.8-1.56-10.07-3.33-17.71-3.33-1.2,0-1.49,0-3.26-.56-.55-.18-1.45-.44-2.55-.69,3.54-2.5,7.86-3.98,12.53-3.98h0Z"/>
        <path id="path1230" class="cls-2" d="M50,71.75c-4.67,0-8.98,1.48-12.53,3.98,0,0,0,0,0,0,3.54-2.5,7.86-3.98,12.52-3.98.34,0,.68,0,1.02.02-.34-.02-.68-.02-1.02-.02ZM65.7,78.45c.23.24.46.49.68.74-.22-.25-.45-.5-.68-.74ZM47.75,78.5c-3.46.07-7.25.56-11.03,1.77-16.15,5.18-11.24,20.67-6.8,25.71,7.48,8.49,16.25,9.77,20.08,9.77s6.36-.62,10.32-2.46c3.96-1.84,10.87-8.4,7.99-13.88-2.43-4.63-11.42-5.97-21.5-4.9.62-.06,1.23-.12,1.83-.16,8.63-.63,15.53.95,17.88,5.02,2.39,4.15-2.02,11.96-10.22,14.76-.04.01-.07.02-.11.04-.22.07-.44.14-.66.21-.19.06-.38.11-.57.16-.09.02-.17.05-.26.07-.29.07-.58.13-.87.19-.01,0-.02,0-.03,0-1.01.2-2.07.32-3.16.35-.21,0-.42.01-.63.01-2.6,0-5.09-.66-7.38-1.86,2.08,1.09,4.31,1.73,6.65,1.84.24,0,.49.02.73.02-.24,0-.49,0-.73-.02-11.25-.39-19.91-9.8-18.6-16.41,1.01-5.11,17.16-10.13,17.85-10.3.37-.09.61-.37.29-.72-1.74-1.89-2.79-3.89-3.06-4.68-.29-.84-.12-1.92,1.7-2.34,2.38-.55,4.61-.35,4.61-.35,0,0-4.11-.07-4.84,1.42-.36.73,1.07,3.53,4.32,6.02.73.56,1.47.98,2.65,1.2,1.4.25,7.8,1.21,12.26-2.08,0,0,0,0,0,0,0,0,0,0,0,0,0,0,.27-.04.57-.09-.3.05-.57.08-.57.08,0,0-4.32.38-5.86.38,2.62-.29,5.11-.84,5.9-1.16.19-.07.5-.79.34-1.18-.35-.88-2.37-3.16-6.13-4.59-2.33-.89-7.17-1.96-12.94-1.85ZM55.77,78.58c.67.17,1.3.36,1.91.54-.6-.19-1.24-.37-1.91-.54ZM67.08,84.05c.6.58.89.98.96,1.07.02.03.04.07.05.12-.01-.05-.03-.1-.05-.12-.07-.09-.36-.49-.96-1.07ZM68.07,85.92c-.06.35-.17.68-.31.74-.06.03-.17.05-.3.08.14-.03.25-.06.31-.08.14-.06.25-.39.3-.74ZM70.47,86.18c.69,1.94,1.12,4.01,1.23,6.16-4.82-.62-13.02-.19-20.17,1.13,7.15-1.32,15.35-1.75,20.17-1.13-.11-2.15-.54-4.22-1.23-6.16ZM55.92,90.91c-.94.15-1.88.28-2.92.45,1.04-.17,1.98-.3,2.92-.45ZM52.63,91.42c-.61.1-1.27.23-1.99.38.72-.16,1.38-.28,1.99-.38ZM43.34,93.95c-5.3,1.91-7.53,3.58-8.42,5.24.9-1.66,3.13-3.33,8.42-5.24ZM34.91,99.19c-.11.21-.2.42-.28.62.07-.21.16-.42.28-.62ZM34.64,99.82c-.07.21-.13.41-.17.62.04-.21.1-.41.17-.62ZM34.46,100.45c-.04.2-.07.4-.08.61.02-.2.04-.41.08-.61ZM34.36,101.73c0,.41.03.83.07,1.25-.03-.43-.06-.84-.07-1.25ZM34.93,105.01c.14.35.3.72.49,1.09-.19-.37-.35-.74-.49-1.09ZM35.44,106.15c.19.37.41.76.66,1.14-.24-.39-.46-.77-.66-1.14ZM36.11,107.32c.25.39.52.78.82,1.17-.3-.39-.57-.78-.82-1.17ZM39.1,110.85c.41.37.84.74,1.3,1.08.36.26.72.5,1.09.73-.37-.23-.74-.48-1.09-.73-.46-.34-.89-.71-1.3-1.08ZM41.49,112.66c.37.23.75.45,1.13.65-.38-.2-.76-.42-1.13-.65Z"/>
        <path id="path1228" class="cls-3" d="M36.86,89.93c2.61.42,3.31.2,4.55-.77,1.25-.97,4.33-4.25,4.33-4.25,0,0-2.26,1.59-4.03,2.61-1.77,1.02-2.56.97-2.89.97s-3.73-.67-4.93-1.02c-1.2-.35-1.05-1.07.25-1.57,4.44-1.71,11.2-2.14,11.2-2.14-8.06-.62-12.94,1.1-14.96,2.07-2.02.97-1.29,2.04-.27,2.44,1.02.4,4.13,1.24,6.75,1.67"/>
        <path id="path1226" class="cls-3" d="M55.68,84.08c3.29,1.03,4.53-.26,4.61-.65.08-.38.17-1.06-1.64-2.01-.35-.18-.93-.44-1.22-.51-.35-.08-2.04-.2-1.21.61.67.64,1.57,1.43,1.31,1.69-.26.26-1.5.55-3.09-.13-1.73-.74-1.84-1.65-1.84-1.65,0,0-.21,1.61,3.08,2.64"/>
      </g>
    </g>
  </g>
</svg>