<?xml version="1.0" encoding="UTF-8"?>
<svg id="Calque_2" data-name="Calque 2" xmlns="http://www.w3.org/2000/svg" viewBox="0 0 114.67 138">
  <defs>
    <style>
      .cls-1 {
        fill: #e13327;
      }

      .cls-1, .cls-2, .cls-3, .cls-4 {
        stroke-width: 0px;
      }

      .cls-3 {
        fill: #fff;
      }

      .cls-4 {
        fill: #fcbc17;
      }
    </style>
  </defs>
  <g id="Calque_1-2" data-name="Calque 1">
    <g>
      <path class="cls-3" d="M57.33,138c-1.8,0-3.38-1.2-3.86-2.94-.56-2.04-.68-2.26-1.57-3.98-.04-.08-.09-.17-.12-.26-2.01-4.64-8.63-7.15-15.63-9.81-.82-.31-1.64-.62-2.45-.94l-2.23-.87C8.23,110.1,0,99.9,0,80.25c0-10.3,3.41-24.43,6.15-35.79,1.35-5.59,2.62-10.87,2.92-13.54.65-5.78-1.75-9.86-1.89-10.09l-.93-1.42c-.95-1.45-.87-3.35.22-4.7L17.03,1.5c.77-.96,1.93-1.5,3.12-1.5.32,0,.63.04.95.11l1.46.36c9.37,2.31,21.62,3.58,34.47,3.58h.62c12.83,0,25.07-1.27,34.44-3.57l1.47-.36c.32-.08.63-.11.95-.11,1.2,0,2.35.54,3.12,1.5l10.56,13.21c1.08,1.35,1.17,3.25.21,4.7l-.93,1.42c-.14.23-2.54,4.3-1.89,10.09.3,2.67,1.58,7.95,2.92,13.54,2.74,11.36,6.15,25.5,6.15,35.79,0,19.66-8.23,29.85-31.46,38.95l-2.24.87c-.81.32-1.63.63-2.45.94-7.01,2.66-13.63,5.17-15.64,9.82-.04.09-.08.17-.12.26-.9,1.72-1.01,1.94-1.57,3.98-.48,1.74-2.06,2.94-3.86,2.94h0Z"/>
      <g>
        <path id="path9808" class="cls-4" d="M104.62,45.4c-1.44-5.96-2.68-11.11-3.01-14.03-.85-7.53,2.48-12.67,2.51-12.71l.95-1.44-10.56-13.21-1.46.36c-9.68,2.38-22.26,3.69-35.42,3.69h-.3s-.3,0-.3,0c-13.16,0-25.74-1.31-35.42-3.69l-1.46-.36-10.56,13.21.95,1.44s3.36,5.18,2.51,12.71c-.33,2.91-1.57,8.06-3.01,14.03-2.69,11.15-6.04,25.04-6.04,34.85,0,17.87,7.3,26.75,28.92,35.23l2.23.86c8.34,3.23,17.35,6.04,20.31,12.89.97,1.86,1.22,2.36,1.88,4.77.66-2.41.91-2.91,1.88-4.77,2.96-6.85,11.97-9.66,20.31-12.89l2.23-.86c21.62-8.47,28.92-17.36,28.92-35.23,0-9.81-3.35-23.7-6.04-34.85h0Z"/>
        <path id="path9810" class="cls-1" d="M106.34,63.77c-1.16-6.02-2.66-12.25-4.01-17.82-1.44-5.99-2.69-11.1-3.06-14.32-.11-.94-.15-1.85-.15-2.72,0-5.05,1.57-8.8,2.45-10.51.3-.58.5-.91.59-1.04,0,0,0,0,0,0h0s0-.01,0-.01l-8.56-10.7c-9.94,2.44-22.66,3.76-35.98,3.76h-.3s0,117.29,0,117.29c.88-1.8,2.11-3.34,3.54-4.64,1.59-1.46,3.42-2.65,5.37-3.69,3.9-2.08,8.31-3.61,12.43-5.21l2.22-.86c7.98-3.12,13.85-6.27,17.99-9.77,4.14-3.51,6.62-7.29,8.05-12.08.94-3.2,1.38-6.88,1.38-11.19,0-4.65-.81-10.47-1.97-16.48h0Z"/>
        <path id="path9812" class="cls-2" d="M57.33,10.4h-.3c-13.32,0-26.04-1.31-35.98-3.76h0s-8.56,10.7-8.56,10.7c0,0,0,.01.01.02,0,.01.01.02.02.03.01.02.03.04.04.07.03.05.07.12.12.2.09.16.22.38.36.66.29.56.66,1.35,1.03,2.35.73,1.99,1.46,4.82,1.46,8.24,0,.87-.05,1.78-.15,2.72-.37,3.22-1.62,8.33-3.06,14.32-1.35,5.58-2.85,11.8-4.01,17.82-1.16,6.01-1.97,11.83-1.97,16.48,0,4.31.44,7.99,1.38,11.19.94,3.2,2.37,5.94,4.43,8.46,4.11,5.02,10.95,9.23,21.6,13.39l2.22.86c3.09,1.2,6.34,2.36,9.42,3.74,3.08,1.38,5.99,2.98,8.38,5.16,1.43,1.31,2.66,2.85,3.54,4.64V10.4h0Z"/>
        <path id="path9828" class="cls-3" d="M66.73,86.53c0,.69-.01,1.19.64,1.57v.04h-2.19v-.04c.66-.38.66-.88.66-1.57v-4.94c0-.69,0-1.19-.64-1.56v-.04h1.81c.05.16.1.22.19.32l.17.25,4.53,5.72v-4.69c0-.69.01-1.19-.64-1.56v-.04h2.18v.04c-.64.37-.64.87-.64,1.56v6.94c-.88-.3-1.26-.71-1.81-1.41l-4.25-5.38v4.79"/>
        <path id="path9830" class="cls-3" d="M75.33,86.53c0,.69-.01,1.19.64,1.57v.04h-2.19v-.04c.66-.38.66-.88.66-1.57v-4.94c0-.69,0-1.19-.64-1.56v-.04h1.81c.05.16.1.22.18.32l.18.25,4.53,5.72v-4.69c0-.69.01-1.19-.64-1.56v-.04h2.18v.04c-.64.37-.64.87-.64,1.56v6.94c-.88-.3-1.26-.71-1.81-1.41l-4.25-5.38v4.79"/>
        <g id="g911">
          <path id="path9814" class="cls-3" d="M20.09,81.47c-.48-.5-1.25-.78-1.94-.78s-1.6.27-1.6,1.13c0,1.7,4.26,1.67,4.26,3.96,0,1.32-1.39,2.56-3.32,2.56-.75,0-1.51-.11-2.22-.37l-.36-1.55c.73.63,1.74,1.03,2.71,1.03.71,0,1.77-.42,1.77-1.29,0-1.93-4.26-1.58-4.26-4.21,0-1.56,1.6-2.15,3.11-2.15.62,0,1.25.09,1.84.27v1.4"/>
          <path id="path9816" class="cls-3" d="M24.32,86.53c0,.71-.01,1.19.64,1.57v.04h-2.45v-.04c.62-.24.55-1.14.55-1.7v-5.52h-1.09c-.53,0-1.09.14-1.47.49h-.04l.43-1.47h.04c.15.06.31.06.47.09h4.93c.21,0,.41-.01.57-.09h.04l-.4,1.47h-.04c-.16-.43-.66-.49-1.06-.49h-1.11v5.64"/>
          <path id="path9818" class="cls-3" d="M29.84,81.05l-1.23,3.12h2.44l-1.21-3.12M28.29,85.09l-.64,1.75c-.26.69-.35,1.05.25,1.27v.04h-2.28v-.04c.72-.36.93-1.05,1.2-1.76l2.07-5.16c.17-.45.41-.97-.18-1.15v-.04h1.96l2.57,6.35c.28.7.51,1.4,1.21,1.76v.04h-2.54v-.04c.61-.27.51-.41.17-1.27l-.67-1.75h-3.12Z"/>
          <path id="path9820" class="cls-3" d="M36.66,87.17c.3.06.59.09.9.09,1.84,0,3.49-.97,3.49-3.11s-1.21-3.26-3.28-3.26c-.37,0-.74.05-1.11.14v6.14M35.39,81.7c0-.57.09-1.47-.54-1.66v-.04h3.03c2.82,0,4.58,1.54,4.58,4s-1.87,4.14-4.64,4.14h-2.97v-.04c.62-.42.54-1.02.54-1.74v-4.67h0Z"/>
          <path id="path9822" class="cls-3" d="M44.85,87.1l1.57.15c.82.07,1.67-.19,2.29-.73h.04l-.56,1.62h-5.16v-.04c.63-.22.56-1.14.56-1.7v-4.67c0-.57.08-1.47-.56-1.71v-.04h3.96c.21,0,.42.03.58-.06h.04v1.45h-.04c-.38-.45-.89-.49-1.46-.49-.43,0-.87.01-1.26.09v2.3h1.47c.2,0,.4,0,.54-.08h.04v1.31h-.04c-.2-.36-.72-.35-1.1-.35h-.92v2.93"/>
          <path id="path9824" class="cls-3" d="M55.22,80c1.66,0,2.56.87,2.56,1.99s-.95,1.94-1.97,2.18l1.78,2.24c.52.64,1.3,1.29,2.01,1.73h-1.14c-.65,0-1.06-.16-1.44-.62l-1.51-1.87-1.14-1.74c.99-.15,2.14-.61,2.14-1.77,0-.89-.77-1.41-1.6-1.37-.29.01-.56.05-.84.1v5.54c0,.57-.07,1.47.56,1.7v.04h-2.36v-.04c.63-.22.54-1.14.54-1.7v-4.67c0-.57.09-1.47-.54-1.71v-.04h2.94"/>
          <path id="path9826" class="cls-3" d="M60.99,87.1l1.57.15c.82.07,1.67-.19,2.29-.73h.04l-.56,1.62h-5.16v-.04c.63-.22.56-1.14.56-1.7v-4.67c0-.57.08-1.47-.56-1.71v-.04h3.96c.21,0,.42.03.58-.06h.04v1.45h-.04c-.38-.45-.89-.49-1.46-.49-.43,0-.87.01-1.26.09v2.3h1.47c.2,0,.4,0,.54-.08h.04v1.31h-.04c-.2-.36-.72-.35-1.1-.35h-.92v2.93"/>
          <path id="path9832" class="cls-3" d="M86.26,81.05l-1.22,3.12h2.44l-1.21-3.12M84.72,85.09l-.64,1.75c-.26.69-.35,1.05.25,1.27v.04h-2.28v-.04c.72-.36.93-1.05,1.2-1.76l2.07-5.16c.17-.45.41-.97-.19-1.15v-.04h1.96l2.57,6.35c.29.7.51,1.4,1.21,1.76v.04h-2.54v-.04c.61-.27.51-.41.17-1.27l-.67-1.75h-3.12Z"/>
          <path id="path9834" class="cls-3" d="M91.83,81.75c0-.57.08-1.47-.55-1.71v-.04h2.35v.04c-.62.24-.54,1.15-.54,1.71v4.67c0,.56-.07,1.46.54,1.7v.04h-2.35v-.04c.62-.22.55-1.14.55-1.7v-4.67"/>
          <path id="path9836" class="cls-3" d="M99.03,81.47c-.48-.5-1.25-.78-1.94-.78s-1.6.27-1.6,1.13c0,1.7,4.26,1.67,4.26,3.96,0,1.32-1.39,2.56-3.32,2.56-.75,0-1.51-.11-2.21-.37l-.36-1.55c.73.63,1.74,1.03,2.71,1.03.7,0,1.77-.42,1.77-1.29,0-1.93-4.26-1.58-4.26-4.21,0-1.56,1.6-2.15,3.11-2.15.62,0,1.25.09,1.84.27v1.4"/>
        </g>
        <g id="g925">
          <path id="path9838" class="cls-3" d="M28.48,96.34c0,.31-.06.82.29.95v.02h-1.31v-.02c.35-.12.31-.64.31-.95v-2.61c0-.32.04-.82-.31-.95v-.02h2.21c.12,0,.24.02.33-.03h.02v.8h-.02c-.21-.24-.5-.27-.82-.27-.24,0-.48,0-.71.05v1.29h.83c.1,0,.21,0,.3-.04h.02v.73h-.02c-.11-.21-.4-.19-.62-.19h-.51v1.25"/>
          <path id="path9840" class="cls-3" d="M31.56,94.95c0,.97.68,1.96,1.77,1.96s1.72-.77,1.72-1.8-.64-1.98-1.74-1.98-1.76.77-1.76,1.82M35.84,94.98c0,1.41-1.17,2.43-2.55,2.43s-2.52-.98-2.52-2.4c0-1.31,1.14-2.41,2.59-2.38,1.45,0,2.48,1.1,2.48,2.35Z"/>
          <path id="path9842" class="cls-3" d="M37.44,94.95c0,.97.68,1.96,1.77,1.96s1.72-.77,1.72-1.8-.64-1.98-1.74-1.98-1.76.77-1.76,1.82M41.72,94.98c0,1.41-1.17,2.43-2.54,2.43s-2.53-.98-2.53-2.4c0-1.31,1.14-2.41,2.59-2.38,1.45,0,2.48,1.1,2.48,2.35Z"/>
          <path id="path9844" class="cls-3" d="M44.27,96.41c0,.39,0,.66.36.88v.02h-1.37v-.02c.35-.13.3-.64.3-.95v-3.09h-.61c-.3,0-.61.08-.82.28h-.02l.24-.82h.02c.08.03.17.03.26.05h2.75c.12,0,.23,0,.32-.05h.02l-.22.82h-.02c-.09-.24-.37-.28-.6-.28h-.62v3.16"/>
          <path id="path9846" class="cls-3" d="M48.03,94.59c.45,0,1.09-.15,1.09-.72,0-.48-.44-.73-.86-.68l-.46.05v1.36h.23M48.41,96.81c.57.06,1.14-.21,1.14-.86s-.65-.96-1.26-.93l-.48.03v1.71l.6.06ZM47.1,93.72c0-.31.05-.82-.3-.95v-.02h1.64c.91,0,1.45.39,1.45,1.01,0,.46-.3.73-.69.9.62.13,1.13.55,1.13,1.22,0,.53-.37.99-.83,1.21-.48.24-1.03.21-1.55.21h-1.14v-.02c.35-.13.3-.64.3-.95v-2.61s0,0,0,0Z"/>
          <path id="path9848" class="cls-3" d="M53.49,93.34l-.68,1.74h1.36l-.68-1.74M52.62,95.6l-.36.98c-.15.39-.19.59.14.71v.02h-1.27v-.02c.4-.2.52-.59.67-.98l1.16-2.88c.1-.25.23-.54-.1-.64v-.02h1.09l1.44,3.55c.16.39.29.78.68.98v.02h-1.42v-.02c.34-.15.28-.23.1-.71l-.37-.98h-1.74Z"/>
          <path id="path9850" class="cls-3" d="M58.81,96.81c.47.03.88-.13,1.23-.42h.02l-.36.92h-2.84v-.02c.35-.12.31-.64.31-.95v-2.61c0-.32.04-.82-.31-.95v-.02h1.32v.02c-.35.13-.3.64-.3.95v3.02l.94.06"/>
          <path id="path9852" class="cls-3" d="M62.9,96.81c.47.03.88-.13,1.22-.42h.02l-.36.92h-2.84v-.02c.35-.12.31-.64.31-.95v-2.61c0-.32.04-.82-.31-.95v-.02h1.32v.02c-.35.13-.31.64-.31.95v3.02l.94.06"/>
          <path id="path9854" class="cls-3" d="M72.84,93.61c-.38-.24-.82-.4-1.28-.4-.95,0-1.62.7-1.62,1.7s.69,1.92,1.76,1.92c.52,0,1.04-.19,1.48-.43h.02l-.35.8c-.33.15-.68.21-1.04.21-1.63,0-2.64-.91-2.64-2.39s1.01-2.38,2.43-2.38c.42,0,.85.08,1.26.17v.8"/>
          <path id="path9856" class="cls-3" d="M76.4,96.81c.47.03.88-.13,1.22-.42h.02l-.36.92h-2.84v-.02c.35-.12.31-.64.31-.95v-2.61c0-.32.04-.82-.31-.95v-.02h1.32v.02c-.35.13-.3.64-.3.95v3.02l.94.06"/>
          <path id="path9858" class="cls-3" d="M81.65,96.85c-.3.4-.87.57-1.36.57-.46,0-.94-.14-1.25-.48-.37-.4-.35-.87-.35-1.36v-1.85c0-.31.05-.82-.31-.95v-.02h1.32v.02c-.35.13-.3.64-.3.95v1.85c0,.92.39,1.35,1.1,1.35.39,0,.78-.16,1.01-.48.15-.21.14-.38.14-.63v-2.08c0-.31.04-.82-.3-.95v-.02h1.31v.02c-.35.13-.3.64-.3.95v2.61c0,.31-.04.82.31.95v.02h-1.02v-.46"/>
          <path id="path9860" class="cls-3" d="M84.92,94.59c.45,0,1.1-.15,1.1-.72,0-.48-.44-.73-.86-.68l-.46.05v1.36h.23M85.29,96.81c.57.06,1.14-.21,1.14-.86s-.65-.96-1.26-.93l-.49.03v1.71l.6.06ZM83.98,93.72c0-.31.05-.82-.3-.95v-.02h1.64c.91,0,1.45.39,1.45,1.01,0,.46-.3.73-.69.9.62.13,1.13.55,1.13,1.22,0,.53-.37.99-.83,1.21-.48.24-1.03.21-1.55.21h-1.14v-.02c.35-.13.3-.64.3-.95v-2.61s0,0,0,0Z"/>
        </g>
        <g id="g931">
          <path id="path9862" class="cls-4" d="M48.42,103.98c.56-.19,1.05-.59,1.34-1.1h.02v3.53c0,.36-.02.65.32.87v.02h-1.32v-.02c.39-.19.37-.48.37-.87v-2.42h-.73v-.02"/>
          <path id="path9864" class="cls-4" d="M53.36,107.04c1-.21,1.92-1.12,1.92-2.17,0-.64-.36-1.34-1.08-1.34-.54,0-.91.42-.91.95,0,.57.38,1.02.95,1.02.23,0,.46-.08.66-.2l-.43.52c-.16.06-.33.09-.51.09-.73,0-1.31-.55-1.31-1.3,0-.91.74-1.52,1.63-1.52.98,0,1.63.77,1.63,1.72,0,.72-.38,1.42-.94,1.86-.57.45-1.21.68-1.92.77l.32-.39"/>
          <path id="path9866" class="cls-4" d="M59.29,105.19c0,.63.21,1.72,1.01,1.72.62,0,.97-.76.97-1.65s-.38-1.68-1.01-1.7c-.79,0-.98,1.02-.98,1.62M58.62,105.26c0-1.16.57-2.17,1.67-2.17,1.16,0,1.66,1.12,1.66,2.14s-.5,2.18-1.68,2.18c-.98-.01-1.65-.99-1.65-2.15Z"/>
          <path id="path9868" class="cls-4" d="M64.57,103.98c.56-.19,1.05-.59,1.34-1.1h.02v3.53c0,.36-.02.65.31.87v.02h-1.31v-.02c.39-.19.37-.48.37-.87v-2.42h-.73v-.02"/>
        </g>
        <g id="g899">
          <polygon id="polygon9870" class="cls-3" points="30.92 57.21 45.63 72.22 69.03 72.22 69.2 72.04 83.74 57.21 83.74 33.32 69.41 18.79 45.25 18.79 30.92 33.32 30.92 57.21"/>
          <path id="path9872" class="cls-1" d="M51.91,37.08c0-2.89,2.26-5.24,5.1-5.41v-12.3h-11.52l-13.99,14.19v23.42l14.38,14.66h11.14v-29.15c-2.84-.16-5.1-2.52-5.1-5.41h0Z"/>
          <path id="path9874" class="cls-2" d="M69.17,19.37h-11.52v12.3c2.84.17,5.1,2.52,5.1,5.41s-2.26,5.24-5.1,5.41v29.15h11.14l14.37-14.66v-23.42l-13.99-14.19Z"/>
          <g id="g889">
            <path id="path9876" class="cls-3" d="M58.84,30.78l.14-1.88s2.81-.14,5.29,1.9c0,0,2-5.86,4.81-7.09,0,0,.19.76.38.81.19.05.86-.72,1.05-.67.19.05-.24,2.62,5.71,4.86l-.33,1.57s-7.28-.57-7.28,3.76c0,1.95,2.81,5.33,3.28,5.95.48.62,3.52,3.09,3.95,9.71,0,0,1.1-.81,1.1-2.9s-1.24-6.28-1.24-7.81-.24-5.62,3.9-5.62v2.09s-1.4-.04-1.57,1.81c-.14,1.57,1.9,8.47.95,11.09-.78,2.15-1.19,3-2.71,4.19-1.52,1.19-6.38,5.05-1.71,8.47l-4.33,7.86s-2.52.9-2.71.9-.72.1-.33-.33c.38-.43,3.71-3.52,3.71-6.9s-4.9-4.43-4.9-9.52c0-3.38,2.95-5.43,2.95-5.43,0,0-.52-1.24-1.05-1.66-.52-.43-3.43-2.14-3.86-3.19,0,0-2.86,2.33-5.14,2.48,0,0-.57-1-.62-1.71,0,0,5.71-.73,5.6-6.7-.09-5.01-5.03-6.03-5.03-6.03"/>
            <path id="path9878" class="cls-3" d="M55.82,30.78l-.14-1.88s-2.81-.14-5.28,1.9c0,0-2-5.86-4.81-7.09,0,0-.19.76-.38.81-.19.05-.86-.72-1.05-.67-.19.05.24,2.62-5.71,4.86l.33,1.57s7.28-.57,7.28,3.76c0,1.95-2.81,5.33-3.29,5.95-.48.62-3.52,3.09-3.95,9.71,0,0-1.09-.81-1.09-2.9s1.24-6.28,1.24-7.81.24-5.62-3.9-5.62v2.09s1.4-.04,1.57,1.81c.14,1.57-1.9,8.47-.95,11.09.78,2.15,1.19,3,2.71,4.19,1.52,1.19,6.38,5.05,1.71,8.47l4.33,7.86s2.52.9,2.71.9.71.1.33-.33c-.38-.43-3.71-3.52-3.71-6.9s4.9-4.43,4.9-9.52c0-3.38-2.95-5.43-2.95-5.43,0,0,.52-1.24,1.05-1.66.52-.43,3.43-2.14,3.85-3.19,0,0,2.86,2.33,5.14,2.48,0,0,.57-1,.62-1.71,0,0-5.71-.73-5.6-6.7.09-5.01,5.03-6.03,5.03-6.03"/>
            <path id="path9880" class="cls-3" d="M47.39,61.17l4.38,6.35,2.63.44s.44,0,.19-.38c-.25-.38-3.2-3.81-3.49-4.67-.29-.86-.95-1.59.22-3.21,1.17-1.62,3.43-3.14,3.43-6.38s-2.76-5.85-6.38-5.78c-1.62.03-.31,1.01-.16,1.21.35.44,1.33,1.81,1.56,3.87.24,2.27-.89,3.65-.89,3.84,0,.54.83.64.83,2,0,1.59-2.32,2.7-2.32,2.7"/>
            <path id="path9882" class="cls-3" d="M67.2,61.17l-4.38,6.35-2.64.44s-.44,0-.19-.38c.25-.38,3.21-3.81,3.49-4.67.28-.86.95-1.59-.22-3.21-1.17-1.62-3.43-3.14-3.43-6.38s2.76-5.85,6.38-5.78c1.62.03.31,1.01.16,1.21-.35.44-1.33,1.81-1.56,3.87-.24,2.27.89,3.65.89,3.84,0,.54-.83.64-.83,2,0,1.59,2.32,2.7,2.32,2.7"/>
          </g>
        </g>
      </g>
    </g>
  </g>
</svg>