<?xml version="1.0" encoding="UTF-8"?>
<svg id="Calque_2" data-name="Calque 2" xmlns="http://www.w3.org/2000/svg" viewBox="0 0 118 141.27">
  <defs>
    <style>
      .cls-1 {
        fill: #ed1c24;
      }

      .cls-1, .cls-2, .cls-3, .cls-4 {
        stroke-width: 0px;
      }

      .cls-3 {
        fill: #fff;
      }

      .cls-4 {
        fill: #231f20;
      }
    </style>
  </defs>
  <g id="Calque_1-2" data-name="Calque 1">
    <g>
      <path class="cls-3" d="M59.24,141.27c-.76,0-1.53-.21-2.19-.66l-.15-.1c-22.92-14.98-39.2-36.61-48.34-64.25C1.23,54.09.48,34.03.12,24.39c-.04-1.1-.08-2.05-.12-2.84-.1-1.89,1.15-3.59,2.99-4.07C19.4,13.2,25.39,9.68,38.31.71c.68-.47,1.48-.71,2.28-.71.64,0,1.29.16,1.88.47,6.33,3.37,14.4,4.06,16.21,4.06h.6c2.86,0,11.06-1.02,16.74-4.06.59-.32,1.24-.47,1.88-.47.8,0,1.6.24,2.28.72,13.13,9.13,18.51,12.51,34.81,16.76,1.83.48,3.08,2.17,2.99,4.07-.04.84-.08,1.86-.12,3.04-.68,20.01-2.75,80.89-56.29,115.95-.7.48-1.52.73-2.35.73Z"/>
      <g>
        <g id="g3056">
          <path id="path236" class="cls-4" d="M58.99,8.53c-2.24.07-11.27-.73-18.39-4.53C27.02,13.42,20.79,16.97,4,21.35c.73,14.48-.02,79.78,55.13,115.84l.15.1.05-.05c55.16-36.06,53.97-101.44,54.67-115.89-16.79-4.38-22.51-7.91-36.08-17.35-7.1,3.8-16.69,4.6-18.93,4.53"/>
          <path id="path238" class="cls-1" d="M110.93,23.56c-16.16-4.23-20.61-7.49-33.67-16.62-6.86,3.67-15.52,3.67-17.69,3.6h-.51c-2.17.07-10.83.07-17.71-3.6-13.07,9.12-17.54,12.38-33.67,16.62.71,13.99-1.56,77.37,51.51,112.26l.15.1.05-.05c53.07-34.89,50.88-98.32,51.58-112.31"/>
          <path id="path260" class="cls-3" d="M76.65,10.25c-6.45,3.45-14.65,3.45-16.67,3.41h-.49c-2.04.07-10.22.07-16.69-3.41-12.34,8.59-16.55,11.68-31.78,15.67.66,13.19-1.46,72.94,48.56,105.82l.12.1h.05c50.05-32.92,48-92.73,48.66-105.91-15.23-3.99-19.44-7.08-31.78-15.67Z"/>
          <path id="path536" class="cls-1" d="M59.74,126.17v.07l-.05-.05-.12.1v-.17C10.18,95.05,12.27,38.57,11.62,26.12c15.04-3.77,19.2-6.69,31.36-14.82,6.4,3.28,14.45,3.26,16.47,3.21h.49c2,.05,10.07.07,16.47-3.21,12.17,8.13,16.3,11.02,31.34,14.79-.66,12.48,1.36,69-48,100.07h0Z"/>
        </g>
        <g id="g646">
          <path id="path634" class="cls-2" d="M57.07,114.85s-.07,0-.11,0c-.57-.04-1.14.16-1.56.56-.28.3-.44.7-.44,1.12,0,.8.61,1.36,1.46,1.36.41,0,.8-.12,1.14-.34l.17-.07s.07.03.07.07c-.07.29-.2.55-.39.78-.44.54-1.05.88-1.92,1.05-.15.02-.19.05-.19.12s.07.12.17.12c.69-.06,1.37-.26,1.97-.61.95-.54,1.51-1.39,1.51-2.29l-.02.02c.03-1.02-.77-1.87-1.8-1.9-.02,0-.05,0-.07,0h0ZM56.75,115.02c.68,0,1.29.71,1.29,1.48l.02-.02c0,.58-.32.95-1,.95s-1.22-.75-1.22-1.36.22-1.05.9-1.05h0Z"/>
          <path id="path628" class="cls-2" d="M64.02,114.88c-1.14,0-2.02.8-2.02,1.87,0,.1,0,.2.02.29.15.71.83,1.27,1.7,1.36h.32c1.07,0,2.02-.83,2.02-1.8s-.9-1.73-2.04-1.73h0ZM63.68,115.22c.45,0,.87.22,1.14.58.31.4.49.88.51,1.39,0,.46-.44.8-1.05.8-.48-.01-.92-.27-1.17-.68-.25-.37-.39-.8-.41-1.24.04-.5.47-.88.97-.85Z"/>
          <path id="path626" class="cls-2" d="M55.58,118.28c0-.07-.07-.12-.22-.12-.58-.02-.78-.17-.78-.75v-1.46c0-.22.02-.56.02-.75s.02-.15.02-.17-.05-.1-.12-.1l-.15.07c-.26.22-.58.37-.92.41-.58.1-.66.15-.66.27,0,.05.04.1.1.1h.12l.29-.05c.09,0,.19.02.27.07l.07.07h.02l.07.66v1.09s0,.08,0,.12l-.1.22c-.12.13-.29.2-.46.19-.19,0-.27.02-.27.12s.05.1.17.1h.19l1.02-.05,1.05.05h.1c.07,0,.15-.05.15-.1h0Z"/>
          <path id="path256" class="cls-2" d="M62.1,117.89c0,.97-.95,1.7-2.24,1.7-.63,0-1.39-.22-1.39-.41s.07-.1.15-.1l.15.05c.29.14.6.22.92.22.68,0,1.22-.27,1.44-.71.05-.12.08-.24.1-.36v-.05c0-.54-.49-.92-1.14-.92l-.61.05h-.15c-.15,0-.27-.07-.27-.19.03-.18.08-.35.15-.51.13-.46.2-.93.22-1.41,0-.17.02-.19.29-.19h1.58c.22.04.44-.04.58-.22.04-.04.09-.07.15-.07.05,0,.1.02.1.07,0,.04-.02.09-.05.12l-.24.61c-.05.17-.07.19-.22.19h-1.29c-.49,0-.56.02-.63.12-.11.18-.17.39-.17.61,0,.15.05.22.15.22h.12l.54-.05c1.09-.02,1.78.46,1.78,1.24h0Z"/>
        </g>
        <g id="g1319">
          <path id="path1275" class="cls-2" d="M40.13,57.16c-3.58,0-6.72.8-9,2.17-2.58,1.53-4.14,3.75-4.14,6.3-.01.79.14,1.58.44,2.31.92,2.14,3.26,3.75,7.27,5.01l10.56,3.33c4.16,1.31,5.74,2.53,5.91,4.5v.66c-.22,2.92-4.28,5.28-8.91,5.28-5.64,0-12.65-4.23-14.09-8.56-.29-.73-.66-1-1.31-1-.55-.06-1.04.34-1.09.89,0,.06,0,.12,0,.18,0,.68.22,1.27,1.17,3.7.51,1.22.73,1.8.88,2.48l.44,1.7c3.63,1.36,8.59,2.26,12.87,2.26,1.48,0,2.97-.13,4.43-.39-1.56.37-3.06.99-4.43,1.82-1.48.9-2.58,2-2.58,2.48s.27.44.66.44c.29-.01.57-.13.78-.34,2.02-1.51,4.01-2.19,6.52-2.19,3.07,0,5.33,1.46,5.33,3.45,0,.88-.32,1.53-1.22,2.48s-1.48,1.39-5.43,3.65c-7.18,4.18-7.25,4.21-7.25,4.6s.27.46.71.46h1c1.15-.08,2.36-.12,3.63-.12,1.05,0,2.68.02,4.82.12,2.53.07,3.77.12,6.96.12,1,0,1.22-.05,1.36-.15s.61-.61,1.82-2.41l1.31-1.99.51-.83c1.53,1.63,4.01,2.63,7.01,2.63,2.36,0,4.11-.46,6.86-1.73.31-.17.65-.27,1-.29.2-.01.38.14.39.34,0,0,0,.02,0,.03,0,.8-1.09,2.72-2.31,4.04-2.58,2.8-6.3,4.53-11.53,5.35-.83.15-1.14.29-1.14.63s.39.56,1.05.56c3.11,0,8.27-1.31,11.85-3.04,5.6-2.7,9-7.1,9-11.68,0-2.6-1.11-5.08-3.04-6.81-.78-.7-1.65-1.27-2.6-1.7h1.73c5.06,0,9.05-.56,11.92-1.7,3.77-1.53,6.13-4.38,6.13-7.52s-1.97-5.04-5.91-6.13v-.02c-1.63-.54-2.92-.75-5.77-1.19,5.28-1.09,7.98-3.11,7.98-5.94s-2.65-5.06-7.06-6.23c-2.58-.66-6.13-1.02-10.41-1.02-1.36,0-2.51.05-3.5.1q-6.72.34-9.78.34c-1.73,0-3.07-.05-3.72-.1l-1.73-.17h-.1c-1.14,0-1.44.44-1.44.9s-.1.63,1.41.8c1.51.17,2.07.24,2.65.51l.75.51.51,12.21v8.61c0,2.46-.85,3.7-3.07,4.36s-2.07.66-2.07,1.05.44.61,1.14.61c.59,0,1.19-.05,1.78-.12,1.51-.12,3.65-.19,6.28-.22-1.21.43-2.32,1.08-3.28,1.92-1.7,1.53-2.7,3.58-2.7,5.69,0,1.21.34,2.39,1,3.41-.15.06-.28.16-.39.27-1.22,1.12-1.8,1.53-2.8,1.92-1,.39-3.5.75-5.65.75s-4.62-.34-4.62-.68.12-.22,2.14-1.31c8.18-4.45,9.27-5.26,9.27-7.3,0-2.7-3.45-4.77-7.96-4.77-.95,0-1.89.08-2.82.24,5.67-1.31,9.56-4.72,9.56-8.86s-3.26-6.93-10.19-8.98l-7.88-2.34c-3.97-1.17-5.91-2.6-5.91-4.33,0-2.48,3.53-4.55,7.74-4.55,5.72,0,11.85,3.38,13.36,7.4.36.85.73,1.17,1.36,1.17s.95-.32.95-.85c.01-.17-.01-.33-.07-.49-.73-3.53-.88-4.19-.88-5.45v-.46c.05-.33.07-.66.07-1,0-.36-.29-.63-.88-.63-.3.02-.6.09-.88.22q-1.09.46-1.65.46c-.56,0-.95-.05-3.04-.68-2.61-.77-5.31-1.17-8.03-1.17ZM73.39,59.69c6.93,0,12,3.07,12,7.2,0,2.68-2.55,4.31-6.72,4.31h-5.91c-3.13,0-4.7-.88-4.72-2.63v-6.28c0-1.7,1.78-2.6,5.35-2.6ZM72.56,72.95c6.11,0,10.39.75,12.92,2.29,2.53,1.53,2.7,3.65,2.75,4.21v.19c0,1.7-.83,3.07-1.8,4.11-.96.86-2.08,1.49-3.31,1.87-1.58.56-3.31.75-5.72.75v.02c-7.35,0-9.56-1.14-9.56-4.91v-6.57c0-1.58,1-1.97,4.72-1.97ZM68.87,87.75c4.16,0,7.79,3.53,7.79,7.57.02,2.9-2.34,4.79-5.96,4.79-4.06,0-7.25-3.04-7.25-7.01,0-3.16,2.19-5.35,5.43-5.35Z"/>
          <path id="path546" class="cls-3" d="M39.26,56.34c-3.58,0-6.69.8-9,2.17-2.58,1.53-4.14,3.75-4.14,6.3-.01.79.14,1.58.44,2.31.92,2.14,3.26,3.75,7.28,5.01l10.61,3.41c4.16,1.31,5.74,2.53,5.91,4.5v.66c-.27,2.8-4.33,5.16-8.95,5.16-5.64,0-12.65-4.23-14.09-8.56-.29-.73-.66-1-1.31-1-.55-.04-1.03.37-1.07.92,0,.05,0,.1,0,.15,0,.68.22,1.27,1.17,3.7.51,1.22.73,1.8.88,2.48l.44,1.7c3.63,1.36,8.59,2.26,12.87,2.26,1.48,0,2.97-.12,4.43-.39-1.56.37-3.06.98-4.43,1.82-1.48.9-2.58,2-2.58,2.48s.27.44.66.44c.29-.01.57-.14.78-.34,2.02-1.51,4.01-2.19,6.52-2.19,3.07,0,5.33,1.46,5.33,3.46,0,.88-.32,1.53-1.22,2.48s-1.48,1.39-5.43,3.65c-7.18,4.18-7.25,4.21-7.25,4.6s.27.46.71.46h1c1.14-.07,2.36-.12,3.63-.12s2.68.02,4.82.12c2.53.07,3.77.12,6.96.12,1,0,1.22-.05,1.36-.15s.61-.61,1.82-2.41l1.31-2,.51-.83c1.53,1.63,4.01,2.63,7.01,2.63,2.36,0,4.11-.46,6.86-1.73.31-.17.65-.27,1-.29.2-.01.38.14.39.34,0,0,0,.02,0,.03,0,.8-1.09,2.72-2.31,4.04-2.58,2.8-6.3,4.53-11.53,5.35-.83.15-1.14.29-1.14.63s.39.56,1.05.56c3.11,0,8.27-1.31,11.85-3.04,5.6-2.7,9-7.1,9-11.68,0-2.59-1.1-5.05-3.02-6.79-.78-.7-1.65-1.27-2.6-1.7h1.73c5.06,0,9.05-.56,11.92-1.7,3.77-1.53,6.13-4.38,6.13-7.52s-2.02-5.06-5.94-6.16h-.02c-1.63-.54-2.92-.75-5.77-1.19,5.28-1.09,7.98-3.11,7.98-5.94s-2.65-5.06-7.06-6.23c-2.58-.66-6.13-1-10.41-1-1.36,0-2.51.05-3.5.1q-6.72.34-9.78.34c-1.7,0-3.07-.05-3.72-.1l-1.73-.17h-.1c-1.14,0-1.44.44-1.44.9s-.1.63,1.41.8,2.07.24,2.65.51l.75.51.51,12.21v8.61c0,2.46-.85,3.7-3.07,4.36s-2.07.66-2.07,1.05.44.61,1.14.61c.59,0,1.19-.05,1.78-.12,1.51-.12,3.65-.19,6.28-.22-1.2.43-2.32,1.08-3.28,1.92-1.7,1.53-2.7,3.58-2.7,5.69,0,1.21.34,2.39,1,3.41-.15.06-.28.16-.39.27-1.22,1.12-1.8,1.53-2.8,1.92-1,.39-3.5.75-5.64.75s-4.62-.34-4.62-.68.12-.22,2.14-1.31c8.18-4.45,9.27-5.26,9.27-7.3,0-2.7-3.46-4.77-7.96-4.77-.95,0-1.89.08-2.82.24,5.67-1.31,9.56-4.72,9.56-8.86s-3.26-6.93-10.19-8.98l-7.88-2.34c-3.97-1.17-5.91-2.6-5.91-4.33,0-2.48,3.53-4.55,7.74-4.55,5.72,0,11.85,3.38,13.36,7.4.36.85.73,1.17,1.36,1.17s.95-.32.95-.85c.01-.17-.01-.33-.07-.49-.73-3.53-.88-4.19-.88-5.45v-.46c.05-.33.07-.66.07-1,0-.36-.29-.63-.88-.63-.3.02-.6.09-.88.22q-1.09.46-1.65.46c-.56,0-.95-.05-3.04-.68-2.61-.77-5.31-1.17-8.03-1.17ZM72.52,58.84c6.93,0,12,3.07,12,7.2,0,2.68-2.55,4.31-6.72,4.31h-5.91c-3.13,0-4.7-.88-4.72-2.63v-6.28c0-1.7,1.8-2.6,5.35-2.6ZM71.69,72.1c6.11,0,10.39.75,12.92,2.29s2.7,3.65,2.75,4.21v.19c0,1.7-.83,3.07-1.8,4.11-.96.86-2.08,1.49-3.31,1.87-1.58.54-3.28.75-5.72.75v-.02c-7.35,0-9.56-1.14-9.56-4.91v-6.52c0-1.58,1-1.97,4.72-1.97ZM67.99,86.85c4.16,0,7.79,3.53,7.79,7.57.02,2.94-2.34,4.82-5.96,4.82v-.02c-4.06,0-7.25-3.04-7.25-7.01,0-3.16,2.19-5.35,5.43-5.35Z"/>
        </g>
        <g id="g1313">
          <g id="g1289">
            <path id="path1273" class="cls-2" d="M64.9,28.79v-.05h-.02v-.15c.02-.12.05-.25.1-.36.97-3.02,4.84-.75,4.84-.75,1.14.66,2.33,1.23,3.55,1.7h-.1c-1.2.31-2.37.71-3.5,1.19,0,0-3.8,1.65-4.77-1.05-.08-.13-.12-.28-.12-.44v-.07l.02-.02Z"/>
            <path id="path1271" class="cls-2" d="M60.76,20.45c.55-1.07,1.03-2.17,1.41-3.31v-.07c.42,1.22.94,2.4,1.56,3.53,0,0,2.12,3.84-1.02,4.62l-.41.07h-.32c-.15,0-.29-.05-.41-.12-2.73-1.09-.8-4.7-.8-4.7v-.02Z"/>
            <path id="path1269" class="cls-2" d="M51.23,28.14h-.07c1.23-.36,2.42-.81,3.58-1.36,0,0,3.82-1.87,4.79,1.12.06.17.1.35.12.54v.12h.02v.1c0,.16-.06.31-.15.44-1.02,2.55-4.79.56-4.79.56-1.13-.57-2.3-1.07-3.5-1.48v-.02Z"/>
            <path id="path258" class="cls-2" d="M62.18,27.62v.1c.12,2.38,1.09,12.82,7.79,18.64-4.89-.32-7.35,6.3-7.96,8.18v.05l-.12.44c-1.31-7.03-4.84-8.78-6.79-9.22l-1.65-.07c7.35-5.21,8.54-15.5,8.71-17.66v-.83s0,.17.02.46v-.07Z"/>
          </g>
          <g id="g562">
            <path id="path544" class="cls-3" d="M64.02,27.94v-.05h-.02s.02-.1.02-.15c.02-.12.05-.25.1-.36,1-3.02,4.84-.75,4.84-.75,1.14.66,2.33,1.23,3.55,1.7h-.1c-1.2.31-2.37.71-3.5,1.19,0,0-3.8,1.65-4.77-1.05-.08-.13-.12-.28-.12-.44v-.1Z"/>
            <path id="path542" class="cls-3" d="M59.89,19.6c.56-1.08,1.03-2.2,1.41-3.36v-.07c.43,1.23.96,2.41,1.58,3.55,0,0,2.12,3.84-1.02,4.65l-.41.07h-.32c-.15,0-.29-.05-.41-.12-2.73-1.12-.83-4.72-.83-4.72h0Z"/>
            <path id="path540" class="cls-3" d="M50.35,27.26h-.07c1.23-.35,2.42-.81,3.58-1.36,0,0,3.82-1.85,4.79,1.12.06.17.1.35.12.54v.12h.02v.1c0,.16-.06.31-.15.44-1.02,2.6-4.77.61-4.77.61-1.13-.59-2.3-1.1-3.5-1.53l-.02-.02Z"/>
            <path id="path538" class="cls-3" d="M61.3,26.75v.12c.12,2.38,1.09,12.82,7.79,18.64-4.89-.32-7.35,6.3-7.96,8.18v.05l-.12.44c-1.31-7.03-4.84-8.78-6.79-9.22l-1.65-.07c7.35-5.21,8.54-15.5,8.71-17.66v-.85s0,.17.02.46v-.07Z"/>
          </g>
        </g>
      </g>
    </g>
  </g>
</svg>