<svg width="16" height="16" viewBox="0 0 16 16" fill="none" xmlns="http://www.w3.org/2000/svg">
<path d="M14.5 9C15.0523 9 15.5 8.55228 15.5 8C15.5 7.44772 15.0523 7 14.5 7V9ZM0.792893 7.29289C0.402369 7.68342 0.402369 8.31658 0.792893 8.70711L7.15685 15.0711C7.54738 15.4616 8.18054 15.4616 8.57107 15.0711C8.96159 14.6805 8.96159 14.0474 8.57107 13.6569L2.91421 8L8.57107 2.34315C8.96159 1.95262 8.96159 1.31946 8.57107 0.928932C8.18054 0.538408 7.54738 0.538408 7.15685 0.928932L0.792893 7.29289ZM14.5 7L1.5 7V9L14.5 9V7Z" fill="black"/>
</svg>
