<svg width="119" height="127" viewBox="0 0 119 127" fill="none" xmlns="http://www.w3.org/2000/svg">
<path d="M84.1999 107.224C75.3898 111.351 66.5544 111.278 57.7704 108.591C47.7227 105.515 38.4555 100.786 30.3422 93.9987C27.3718 91.5052 24.8462 88.6335 22.9058 85.2495C21.1688 82.2115 20.3651 79.2494 23.4284 76.519C24.5443 75.5306 24.4681 74.4173 23.9541 73.1466C23.1804 71.2476 22.6076 69.0333 23.8361 67.4025C26.044 64.4546 25.7047 61.7089 24.6457 58.4952C23.7848 55.8784 24.4947 53.3339 27.1326 51.7064C28.6124 50.7905 29.444 49.6701 28.7991 47.6893C27.4817 43.693 29.8986 41.3133 32.9296 39.5085C36.1485 37.5952 39.779 37.4603 43.4083 37.7164C50.6714 38.2382 57.4803 40.5859 64.2828 42.9719C65.2681 43.3202 66.4953 44.2575 67.3949 43.3666C68.2946 42.4758 67.369 41.2369 67.0175 40.2477C63.6 30.7033 62.8244 20.8783 64.0201 10.8859C64.4381 7.43193 65.4828 4.23955 69.6424 3.54654C73.418 2.92025 80.2996 6.95063 81.6324 10.5614C81.9282 11.3745 82.2613 12.2181 82.3481 13.0663C83.5903 25.7096 89.913 36.239 96.1595 46.8618C102.848 58.2554 105.993 70.5258 102.519 83.6517C99.7565 94.0787 94.6179 102.963 84.2196 107.215L84.1999 107.224ZM66.7883 87.0608C64.8376 85.9884 64.4578 84.6217 64.114 83.4398C60.9665 72.8153 60.8943 62.6612 68.7251 53.6868C71.5676 50.4408 70.9182 47.8469 66.8767 46.3097C62.2547 44.5611 57.4978 43.1691 52.8497 41.4677C47.9548 39.6647 42.9176 39.4876 37.8832 40.2084C30.9405 41.2102 29.0664 45.7113 33.2953 51.2576C38.1893 57.6751 44.6318 62.3058 51.8316 65.8614C53.7016 66.7809 55.7309 67.2143 57.071 64.9654C58.3285 62.8483 57.779 60.8955 56.0781 59.2491C55.2789 58.4738 54.3435 57.8427 53.5039 57.1092C50.9799 54.9231 48.4361 52.7459 45.9577 50.5036C45.2446 49.8669 44.2416 48.8759 44.9913 47.9936C45.9084 46.9055 46.7071 48.178 47.3882 48.77C50.305 51.2759 53.177 53.8138 56.0688 56.3429C57.6731 57.7489 59.8781 59.4637 59.6387 61.3463C58.9627 66.6676 58.5 72.3306 55.5101 76.8499C53.882 79.2997 49.8539 80.2055 51.2885 84.4093C51.3398 84.5754 51.1557 84.9543 50.9778 85.0582C46.8088 87.4354 45.6419 91.5111 44.6985 95.7936C44.5628 96.4109 43.7828 96.9638 43.1872 97.3744C41.1329 98.7742 41.963 99.9852 43.6197 100.563C49.1792 102.528 54.4207 105.807 60.3928 106.142C83.1345 107.432 96.7959 94.3611 97.5384 71.4286C97.9257 59.1979 92.3718 48.8778 86.3048 38.8366C81.7097 31.2193 78.0733 23.288 76.7772 14.4076C76.5077 12.5771 76.0006 10.7708 75.4586 8.99212C74.8328 6.89632 73.4532 5.54273 71.145 5.56635C68.8751 5.59633 67.395 6.87911 66.8604 9.02509C64.9692 16.61 65.4554 24.3768 66.6037 31.8805C67.4498 37.4026 70.1595 42.6758 72.3095 47.9411C73.3907 50.6005 73.0033 52.4435 71.1252 54.6275C65.4291 61.2784 62.6616 68.809 65.0385 77.6988C65.8031 80.5483 66.1239 83.5153 66.7687 87.0696L66.7883 87.0608ZM27.4435 60.4751C32.977 68.2843 40.4626 73.6276 49.3062 76.9978C51.7643 77.9359 54.2393 76.7605 55.0419 73.9494C55.8165 71.2338 54.9233 69.3059 51.9812 68.1602C44.3289 65.1755 38.1397 60.0046 32.367 54.3146C30.1286 52.1061 27.7662 52.6392 26.9112 55.6751C26.4548 57.3125 26.8368 58.8676 27.4435 60.4751ZM26.4039 72.9645C29.9593 79.2996 35.4371 82.9457 41.7068 85.6194C44.5639 86.8389 48.1313 85.9871 49.0922 83.6844C50.4162 80.508 47.6782 79.4477 45.7944 78.3925C40.2561 75.2943 35.0223 71.8221 30.262 67.6158C29.4598 66.9128 28.6071 65.783 27.3817 66.3712C26.0088 67.026 25.6904 68.471 25.8077 69.8852C25.8893 70.9842 26.2084 72.0589 26.394 72.9689L26.4039 72.9645ZM24.627 83.6095C27.6192 88.6961 31.4506 92.8363 36.5559 95.6565C39.1108 97.0715 41.4695 96.268 43.0126 93.892C44.7152 91.2665 43.2516 89.3593 40.9944 88.1058C36.1109 85.4103 31.2865 82.6881 27.261 78.6946C25.8263 77.2713 23.7693 78.3765 23.7962 80.4822C23.8064 81.5542 24.3434 82.6135 24.6216 83.6238L24.627 83.6095Z" fill="#1F1F26"/>
<path d="M66.7884 87.0608C66.1534 83.502 65.8229 80.5395 65.0582 77.69C62.6813 68.8002 65.4345 61.2641 71.1449 54.6186C73.0132 52.439 73.4104 50.5917 72.3292 47.9322C70.1846 42.6527 67.4695 37.3938 66.6234 31.8716C65.4751 24.368 64.989 16.6012 66.8801 9.01625C67.4148 6.87028 68.8948 5.5875 71.1647 5.55752C73.473 5.53389 74.8427 6.89192 75.4784 8.98329C76.0105 10.7664 76.5274 12.5682 76.797 14.3988C78.0974 23.289 81.724 31.2248 86.3245 38.8277C92.3915 48.869 97.9454 59.189 97.5581 71.4197C96.82 94.3621 83.164 107.419 60.4125 106.133C54.4404 105.798 49.1989 102.519 43.6395 100.554C41.9926 99.9719 41.1625 98.7609 43.2069 97.3655C43.8026 96.9549 44.5825 96.402 44.7182 95.7847C45.6562 91.5165 46.8285 87.4266 50.9975 85.0493C51.1754 84.9454 51.3595 84.5666 51.3082 84.4004C49.8736 80.1967 53.9018 79.2909 55.5298 76.841C58.5295 72.3173 58.9825 66.6588 59.6585 61.3375C59.8978 59.4548 57.7026 57.7356 56.0885 56.334C53.1968 53.805 50.3149 51.2715 47.408 48.7611C46.7269 48.1692 45.9228 46.911 45.011 47.9847C44.2515 48.8715 45.2644 49.8581 45.9775 50.4948C48.4559 52.737 50.9996 54.9143 53.5237 57.1004C54.3632 57.8339 55.2986 58.465 56.0979 59.2403C57.789 60.8911 58.3483 62.8394 57.0907 64.9565C55.7507 67.2055 53.7213 66.772 51.8514 65.8526C44.6515 62.297 38.2135 57.6761 33.315 51.2487C29.0817 45.6926 30.9602 41.2013 37.9029 40.1995C42.9329 39.4689 47.9745 39.6559 52.8695 41.4588C57.5077 43.1647 62.27 44.5424 66.8964 46.3009C70.9336 47.8282 71.5829 50.4221 68.7449 53.678C60.9141 62.6523 60.9818 72.7966 64.1337 83.431C64.4819 84.6227 64.8573 85.9796 66.8081 87.0519L66.7884 87.0608Z" fill="#BDFF00"/>
<path d="M27.4434 60.4749C26.8366 58.8674 26.4547 57.3123 26.9111 55.6749C27.7661 52.6391 30.1285 52.106 32.3669 54.3145C38.1342 60.0187 44.3288 65.1753 51.981 68.1601C54.9232 69.3058 55.8164 71.2337 55.0417 73.9493C54.2392 76.7603 51.7642 77.9358 49.3061 76.9977C40.4581 73.6176 32.9725 68.2743 27.4434 60.4749Z" fill="#BDFF00"/>
<path d="M26.4039 72.9643C26.2281 72.0498 25.909 70.9751 25.8176 69.8805C25.7101 68.4619 26.0231 67.0312 27.3916 66.3666C28.617 65.7784 29.4653 66.8984 30.2719 67.6112C35.0322 71.8175 40.266 75.2897 45.8043 78.3879C47.6881 79.443 50.4261 80.5034 49.1021 83.6797C48.1412 85.9825 44.5738 86.8343 41.7166 85.6147C35.4327 82.9357 29.9549 79.2896 26.4138 72.9599L26.4039 72.9643Z" fill="#BDFF00"/>
<path d="M24.627 83.6094C24.3487 82.5991 23.8118 81.5398 23.8015 80.4678C23.7791 78.372 25.8317 77.2569 27.2664 78.6802C31.2918 82.6737 36.1119 85.386 40.9997 88.0914C43.2525 89.3351 44.7206 91.2521 43.018 93.8776C41.4749 96.2536 39.1162 97.0571 36.5613 95.6421C31.4604 92.8317 27.6246 88.6817 24.6324 83.5951L24.627 83.6094Z" fill="#BDFF00"/>
</svg>
