<svg width="52" height="58" viewBox="0 0 52 58" fill="none" xmlns="http://www.w3.org/2000/svg">
<g clip-path="url(#clip0_313_420)">
<path d="M36.3327 21.1317C37.2073 18.4509 37.0271 15.0832 32.6844 13.6575C32.5664 13.6188 32.4533 13.5816 32.3386 13.5491C32.227 13.5074 32.1139 13.4702 31.9959 13.4315C27.6532 12.0058 25.512 14.6114 24.6276 17.289C23.7461 19.9572 23.3962 21.0398 24.0427 21.7424L17.9737 19.75C18.3591 19.5719 18.5361 19.1655 18.7497 18.5646C19.3351 16.9141 20.0564 15.2979 20.7209 13.6889C23.1636 8.32271 29.046 7.03306 33.9616 8.60553C38.8527 10.2525 42.8262 14.7778 41.613 20.5476C41.1944 22.2374 40.8174 23.9666 40.3107 25.643C40.1266 26.2535 40.0283 26.6858 40.2331 27.0576L34.1642 25.0652C35.0964 24.8809 35.4611 23.8031 36.3327 21.1317Z" fill="black" stroke="black" stroke-miterlimit="10"/>
<path d="M28.413 37.9702C27.1666 39.3934 25.1511 40.2388 24.728 42.4072C24.6194 42.9703 23.9441 43.8325 22.8715 43.3823C21.7408 43.1091 21.7079 42.0144 21.9542 41.4965C22.8986 39.4994 22.0518 37.2496 21.6161 35.7388C21.1805 34.228 22.4613 32.6664 24.1546 32.0558C25.0433 31.7385 25.6681 31.6442 26.6222 31.9574C27.5763 32.2707 28.0237 32.7169 28.5514 33.4992C29.5532 34.9946 29.6593 36.547 28.413 37.9702ZM44.4948 33.8247C45.1856 31.6875 44.5872 29.5606 42.8537 28.2689C42.5129 28.0125 42.124 27.7867 41.6887 27.6025C41.531 27.5353 17.5262 19.603 17.5262 19.603C16.8568 19.4349 16.1617 19.3615 15.7353 19.3661C13.5735 19.379 11.8309 20.7374 11.1205 22.8681C9.02174 29.1782 6.94108 35.4994 4.89639 41.8272C4.00526 44.5748 5.59739 47.4254 8.54367 48.4081C12.3525 49.6843 16.1735 50.9233 19.985 52.1746C23.7966 53.4259 27.6084 54.6928 31.4325 55.9224C34.388 56.8772 37.3599 55.5249 38.2707 52.7838C40.3744 46.4753 42.4452 40.1509 44.4948 33.8247Z" fill="black" stroke="black" stroke-miterlimit="10"/>
<path d="M36.0015 20.7133C36.8762 18.0325 36.696 14.6648 32.3533 13.2391C32.2353 13.2004 32.1221 13.1632 32.0075 13.1308C31.8959 13.089 31.7828 13.0518 31.6648 13.0131C27.3221 11.5874 25.1809 14.193 24.2964 16.8706C23.415 19.5388 23.0651 20.6214 23.7116 21.324L17.6426 19.3316C18.0279 19.1535 18.205 18.7471 18.4186 18.1462C19.004 16.4957 19.7253 14.8795 20.3897 13.2705C22.8324 7.90432 28.7516 6.50284 33.6305 8.18714C38.5093 9.87143 42.495 14.3594 41.2819 20.1292C40.8633 21.819 40.4863 23.5483 39.9796 25.2246C39.7955 25.8351 39.6971 26.2674 39.902 26.6392L33.833 24.6468C34.7652 24.4625 35.13 23.3847 36.0015 20.7133Z" fill="black" stroke="black" stroke-miterlimit="10"/>
<path d="M28.0818 37.5518C26.8355 38.975 24.8199 39.8204 24.3968 41.9888C24.2882 42.5519 23.6129 43.4141 22.5403 42.9639C21.4096 42.6908 21.3767 41.596 21.623 41.0781C22.5674 39.081 21.7206 36.8312 21.2849 35.3204C20.8493 33.8096 22.1301 32.248 23.8234 31.6374C24.7121 31.3201 25.3369 31.2258 26.291 31.5391C27.2451 31.8523 27.6925 32.2985 28.2202 33.0808C29.2221 34.5762 29.3281 36.1286 28.0818 37.5518ZM44.1637 33.4063C44.8544 31.2691 44.2544 29.1468 42.5226 27.8505C42.1818 27.5941 41.7928 27.3683 41.3575 27.1841C41.1998 27.1169 17.195 19.1846 17.195 19.1846C16.5256 19.0165 15.8305 18.9432 15.4041 18.9477C13.2408 18.9653 11.4998 20.319 10.7894 22.4497C8.69056 28.7598 6.60991 35.081 4.56521 41.4088C3.67408 44.1564 5.26621 47.007 8.21249 47.9897C12.0213 49.2659 15.8423 50.5049 19.6539 51.7562C23.4654 53.0075 27.2773 54.2744 31.1014 55.504C34.0568 56.4588 37.0287 55.1065 37.9395 52.3654C40.0432 46.0569 42.114 39.7325 44.1637 33.4063Z" fill="black" stroke="black" stroke-miterlimit="10"/>
<path d="M35.6689 20.2995C36.5435 17.6188 36.3633 14.251 32.0207 12.8254C31.9026 12.7866 31.7895 12.7495 31.6749 12.717C31.5633 12.6752 31.4502 12.6381 31.3321 12.5993C26.9894 11.1736 24.8483 13.7793 23.9638 16.4568C23.0824 19.125 22.7324 20.2076 23.3789 20.9102L17.31 18.9178C17.6953 18.7398 17.8723 18.3334 18.0859 17.7325C18.6714 16.082 19.3926 14.4658 20.0571 12.8567C22.4998 7.49056 28.4189 6.08909 33.2978 7.77338C38.1767 9.45767 42.1624 13.9457 40.9492 19.7155C40.5307 21.4053 40.1537 23.1345 39.6469 24.8108C39.4628 25.4214 39.3645 25.8536 39.5693 26.2254L33.5004 24.233C34.4326 24.0487 34.7973 22.971 35.6689 20.2995Z" fill="black" stroke="black" stroke-miterlimit="10"/>
<path d="M27.7491 37.138C26.5028 38.5612 24.4873 39.4067 24.0642 41.575C23.9556 42.1381 23.2803 43.0003 22.2077 42.5501C21.077 42.277 21.0441 41.1823 21.2904 40.6644C22.2348 38.6672 21.3879 36.4175 20.9523 34.9066C20.5167 33.3958 21.7975 31.8343 23.4908 31.2236C24.3795 30.9063 25.0043 30.8121 25.9584 31.1253C26.9125 31.4385 27.3598 31.8848 27.8876 32.6671C28.8894 34.1625 28.9954 35.7148 27.7491 37.138ZM43.831 32.9925C44.5217 30.8553 43.9218 28.7331 42.1899 27.4367C41.8491 27.1803 41.4601 26.9546 41.0248 26.7704C40.8671 26.7031 16.8624 18.7709 16.8624 18.7709C16.193 18.6027 15.4979 18.5294 15.0715 18.5339C12.9082 18.5515 11.1671 19.9052 10.4567 22.036C8.35792 28.346 6.27727 34.6672 4.23257 40.9951C3.34144 43.7427 4.93357 46.5932 7.87985 47.576C11.6887 48.8522 15.5097 50.0911 19.3212 51.3424C23.1328 52.5937 26.9446 53.8606 30.7687 55.0902C33.7242 56.045 36.6961 54.6928 37.6069 51.9516C39.7106 45.6432 41.7814 39.3188 43.831 32.9925Z" fill="black" stroke="black" stroke-miterlimit="10"/>
<path d="M35.3361 19.8858C36.2108 17.205 36.0306 13.8373 31.6879 12.4116C31.5699 12.3729 31.4567 12.3357 31.3421 12.3032C31.2305 12.2614 31.1174 12.2243 30.9994 12.1856C26.6567 10.7599 24.5155 13.3655 23.631 16.0431C22.7496 18.7113 22.3997 19.7939 23.0462 20.4965L16.9772 18.5041C17.3625 18.326 17.5396 17.9196 17.7532 17.3187C18.3386 15.6682 19.0599 14.052 19.7243 12.443C22.167 7.0768 28.0862 5.67533 32.9651 7.35962C37.8439 9.04391 41.8296 13.5319 40.6164 19.3017C40.1979 20.9915 39.8209 22.7207 39.3142 24.3971C39.1301 25.0076 39.0317 25.4399 39.2366 25.8117L33.1676 23.8193C34.0998 23.635 34.4645 22.5572 35.3361 19.8858Z" fill="black" stroke="black" stroke-miterlimit="10"/>
<path d="M27.4164 36.7242C26.1701 38.1474 24.1545 38.9929 23.7314 41.1613C23.6228 41.7243 22.9475 42.5866 21.8749 42.1364C20.7442 41.8632 20.7113 40.7685 20.9576 40.2506C21.902 38.2535 21.0552 36.0037 20.6195 34.4929C20.1839 32.9821 21.4647 31.4205 23.158 30.8099C24.0467 30.4926 24.6715 30.3983 25.6256 30.7115C26.5797 31.0248 27.0271 31.471 27.5548 32.2533C28.5567 33.7487 28.6627 35.301 27.4164 36.7242ZM43.4982 32.5788C44.189 30.4416 43.589 28.3193 41.8571 27.023C41.5164 26.7666 41.1274 26.5408 40.6921 26.3566C40.5344 26.2894 16.5296 18.3571 16.5296 18.3571C15.8602 18.189 15.1651 18.1156 14.7387 18.1202C12.5754 18.1378 10.8344 19.4914 10.124 21.6222C8.02515 27.9323 5.9445 34.2535 3.8998 40.5813C3.00868 43.3289 4.60081 46.1795 7.54708 47.1622C11.3559 48.4384 15.1769 49.6774 18.9885 50.9287C22.8 52.18 26.6119 53.4469 30.436 54.6765C33.3914 55.6312 36.3633 54.279 37.2741 51.5379C39.3778 45.2294 41.4486 38.905 43.4982 32.5788Z" fill="black" stroke="black" stroke-miterlimit="10"/>
<path d="M35.0084 19.4736C35.883 16.7928 35.7028 13.4251 31.3601 11.9994C31.2421 11.9607 31.129 11.9235 31.0143 11.8911C30.9028 11.8493 30.7896 11.8121 30.6716 11.7734C26.3289 10.3477 24.1877 12.9533 23.3033 15.6309C22.4219 18.2991 22.0719 19.3817 22.7184 20.0843L16.6494 18.0919C17.0348 17.9139 17.2118 17.5074 17.4254 16.9065C18.0108 15.2561 18.7321 13.6398 19.3966 12.0308C21.8393 6.66463 27.7584 5.26316 32.6373 6.94745C37.5162 8.63174 41.5019 13.1197 40.2887 18.8895C39.8701 20.5793 39.4931 22.3086 38.9864 23.9849C38.8023 24.5955 38.704 25.0277 38.9088 25.3995L32.8399 23.4071C33.7721 23.2228 34.1368 22.145 35.0084 19.4736Z" fill="black" stroke="black" stroke-miterlimit="10"/>
<path d="M27.0886 36.3121C25.8423 37.7353 23.8268 38.5808 23.4037 40.7491C23.2951 41.3122 22.6198 42.1744 21.5472 41.7242C20.4164 41.4511 20.3836 40.3563 20.6299 39.8385C21.5743 37.8413 20.7274 35.5915 20.2918 34.0807C19.8561 32.5699 21.137 31.0083 22.8302 30.3977C23.719 30.0804 24.3437 29.9861 25.2979 30.2994C26.252 30.6126 26.6993 31.0588 27.227 31.8411C28.2289 33.3366 28.3349 34.8889 27.0886 36.3121ZM43.1705 32.1666C43.8612 30.0294 43.2613 27.9072 41.5294 26.6108C41.1886 26.3544 40.7996 26.1286 40.3643 25.9444C40.2066 25.8772 16.2019 17.945 16.2019 17.945C15.5325 17.7768 14.8374 17.7035 14.4109 17.708C12.2477 17.7256 10.5066 19.0793 9.79619 21.21C7.6974 27.5201 5.61674 33.8413 3.57205 40.1691C2.68092 42.9167 4.27305 45.7673 7.21933 46.75C11.0281 48.0262 14.8492 49.2652 18.6607 50.5165C22.4722 51.7678 26.2841 53.0347 30.1082 54.2643C33.0637 55.2191 36.0355 53.8669 36.9463 51.1257C39.0501 44.8172 41.1209 38.4928 43.1705 32.1666Z" fill="black" stroke="black" stroke-miterlimit="10"/>
<path d="M34.6772 19.0552C35.5518 16.3744 35.3716 13.0067 31.029 11.581C30.9109 11.5423 30.7978 11.5051 30.6832 11.4727C30.5716 11.4309 30.4585 11.3937 30.3404 11.355C25.9977 9.92932 23.8566 12.5349 22.9721 15.2125C22.0907 17.8807 21.7407 18.9633 22.3872 19.6659L16.3183 17.6735C16.7036 17.4955 16.8806 17.089 17.0942 16.4882C17.6797 14.8377 18.4009 13.2215 19.0654 11.6124C21.5081 6.24624 27.4272 4.84476 32.3061 6.52905C37.185 8.21335 41.1707 12.7013 39.9575 18.4711C39.539 20.1609 39.162 21.8902 38.6552 23.5665C38.4711 24.1771 38.3728 24.6093 38.5776 24.9811L32.5087 22.9887C33.4409 22.8044 33.8056 21.7266 34.6772 19.0552Z" fill="black" stroke="black" stroke-miterlimit="10"/>
<path d="M26.7574 35.8937C25.5111 37.3169 23.4956 38.1624 23.0725 40.3307C22.9639 40.8938 22.2886 41.756 21.216 41.3058C20.0853 41.0327 20.0524 39.9379 20.2987 39.4201C21.2431 37.4229 20.3962 35.1732 19.9606 33.6623C19.525 32.1515 20.8058 30.5899 22.4991 29.9793C23.3878 29.662 24.0126 29.5677 24.9667 29.881C25.9208 30.1942 26.3682 30.6404 26.8959 31.4227C27.8977 32.9182 28.0037 34.4705 26.7574 35.8937ZM42.8393 31.7482C43.5301 29.611 42.9301 27.4888 41.1982 26.1924C40.8574 25.936 40.4685 25.7102 40.0331 25.526C39.8754 25.4588 15.8707 17.5266 15.8707 17.5266C15.2013 17.3584 14.5062 17.2851 14.0798 17.2896C11.9165 17.3072 10.1754 18.6609 9.46501 20.7917C7.36622 27.1017 5.28557 33.4229 3.24087 39.7507C2.34974 42.4983 3.94187 45.3489 6.88815 46.3316C10.697 47.6078 14.518 48.8468 18.3295 50.0981C22.1411 51.3494 25.9529 52.6163 29.777 53.8459C32.7325 54.8007 35.7044 53.4485 36.6152 50.7073C38.7189 44.3989 40.7897 38.0744 42.8393 31.7482Z" fill="black" stroke="black" stroke-miterlimit="10"/>
<path d="M34.3444 18.6414C35.2191 15.9607 35.0389 12.593 30.6962 11.1673C30.5782 11.1285 30.465 11.0914 30.3504 11.0589C30.2388 11.0171 30.1257 10.98 30.0077 10.9412C25.665 9.51556 23.5238 12.1212 22.6393 14.7987C21.7579 17.4669 21.408 18.5495 22.0545 19.2521L15.9855 17.2597C16.3708 17.0817 16.5479 16.6753 16.7615 16.0744C17.3469 14.4239 18.0682 12.8077 18.7326 11.1986C21.1753 5.83248 27.0945 4.43101 31.9734 6.1153C36.8522 7.79959 40.8379 12.2876 39.6248 18.0574C39.2062 19.7472 38.8292 21.4764 38.3225 23.1527C38.1384 23.7633 38.04 24.1956 38.2449 24.5673L32.1759 22.5749C33.1081 22.3906 33.4728 21.3129 34.3444 18.6414Z" fill="black" stroke="black" stroke-miterlimit="10"/>
<path d="M26.4247 35.4799C25.1784 36.9031 23.1628 37.7486 22.7397 39.9169C22.6311 40.48 21.9558 41.3422 20.8832 40.8921C19.7525 40.6189 19.7196 39.5242 19.9659 39.0063C20.9103 37.0091 20.0635 34.7594 19.6278 33.2486C19.1922 31.7377 20.473 30.1762 22.1663 29.5655C23.055 29.2482 23.6798 29.154 24.6339 29.4672C25.588 29.7804 26.0354 30.2267 26.5631 31.009C27.565 32.5044 27.671 34.0567 26.4247 35.4799ZM42.5065 31.3345C43.1973 29.1972 42.5973 27.075 40.8654 25.7787C40.5247 25.5223 40.1357 25.2965 39.7004 25.1123C39.5427 25.045 15.5379 17.1128 15.5379 17.1128C14.8685 16.9447 14.1734 16.8713 13.747 16.8758C11.5837 16.8934 9.84267 18.2471 9.13225 20.3779C7.03345 26.688 4.9528 33.0092 2.9081 39.337C2.01698 42.0846 3.60911 44.9351 6.55538 45.9179C10.3642 47.1941 14.1852 48.433 17.9968 49.6843C21.8083 50.9356 25.6202 52.2025 29.4443 53.4322C32.3997 54.3869 35.3716 53.0347 36.2824 50.2935C38.3861 43.9851 40.4569 37.6607 42.5065 31.3345Z" fill="black" stroke="black" stroke-miterlimit="10"/>
<path d="M34.0117 18.2277C34.8864 15.5469 34.7062 12.1792 30.3635 10.7535C30.2455 10.7148 30.1324 10.6776 30.0177 10.6452C29.9061 10.6034 29.793 10.5662 29.675 10.5275C25.3323 9.10179 23.1911 11.7074 22.3066 14.385C21.4252 17.0532 21.0753 18.1358 21.7218 18.8384L15.6528 16.846C16.0382 16.6679 16.2152 16.2615 16.4288 15.6606C17.0142 14.0101 17.7355 12.3939 18.3999 10.7849C20.8426 5.41872 26.7251 4.12907 31.6407 5.70153C36.5318 7.34855 40.5052 11.8738 39.2921 17.6436C38.8735 19.3334 38.4965 21.0627 37.9898 22.739C37.8057 23.3495 37.7073 23.7818 37.9122 24.1536L31.8432 22.1612C32.7754 21.9769 33.1402 20.8991 34.0117 18.2277Z" fill="#F41731" stroke="black" stroke-miterlimit="10"/>
<path d="M26.092 35.0662C24.8457 36.4894 22.8302 37.3349 22.4071 39.5032C22.2985 40.0663 21.6232 40.9285 20.5506 40.4783C19.4199 40.2052 19.387 39.1104 19.6333 38.5925C20.5777 36.5954 19.7308 34.3456 19.2952 32.8348C18.8596 31.324 20.1404 29.7624 21.8337 29.1518C22.7224 28.8345 23.3472 28.7402 24.3013 29.0535C25.2554 29.3667 25.7027 29.8129 26.2305 30.5952C27.2323 32.0906 27.3383 33.643 26.092 35.0662ZM42.1739 30.9207C42.8647 28.7835 42.2662 26.6566 40.5328 25.3649C40.192 25.1085 39.803 24.8827 39.3677 24.6985C39.21 24.6313 15.2053 16.699 15.2053 16.699C14.5359 16.5309 13.8408 16.4576 13.4143 16.4621C11.2526 16.475 9.51003 17.8334 8.79961 19.9641C6.70081 26.2742 4.62016 32.5954 2.57546 38.9232C1.68434 41.6708 3.27647 44.5214 6.22274 45.5041C10.0315 46.7803 13.8526 48.0193 17.6641 49.2706C21.4757 50.5219 25.2875 51.7888 29.1116 53.0184C32.0671 53.9732 35.039 52.6209 35.9498 49.8798C38.0535 43.5713 40.1243 37.2469 42.1739 30.9207Z" fill="#00CC99" stroke="black" stroke-miterlimit="10"/>
</g>
<defs>
<clipPath id="clip0_313_420">
<rect width="38.7968" height="48.2805" fill="white" transform="translate(15.0594) rotate(18.1747)"/>
</clipPath>
</defs>
</svg>
