<svg width="53" height="59" viewBox="0 0 53 59" fill="none" xmlns="http://www.w3.org/2000/svg">
<g clip-path="url(#clip0_304_733)">
<path d="M36.4837 21.7663C37.3583 19.0855 37.1781 15.7178 32.8354 14.2921C32.7174 14.2534 32.6043 14.2163 32.4896 14.1838C32.378 14.142 32.2649 14.1049 32.1469 14.0661C27.8042 12.6404 25.663 15.2461 24.7786 17.9236C23.8971 20.5918 23.5472 21.6744 24.1937 22.377L18.1247 20.3846C18.5101 20.2066 18.6871 19.8001 18.9007 19.1993C19.4861 17.5488 20.2074 15.9326 20.8719 14.3235C23.3146 8.95735 29.197 7.6677 34.1126 9.24017C39.0037 10.8872 42.9772 15.4125 41.764 21.1823C41.3454 22.8721 40.9684 24.6013 40.4617 26.2776C40.2776 26.8882 40.1793 27.3204 40.3841 27.6922L34.3152 25.6998C35.2474 25.5155 35.6121 24.4378 36.4837 21.7663Z" fill="black" stroke="black" stroke-miterlimit="10"/>
<path d="M28.564 38.6048C27.3176 40.028 25.3021 40.8735 24.879 43.0418C24.7704 43.6049 24.0951 44.4671 23.0225 44.0169C21.8918 43.7438 21.8589 42.6491 22.1052 42.1312C23.0496 40.134 22.2028 37.8843 21.7671 36.3734C21.3315 34.8626 22.6123 33.3011 24.3056 32.6904C25.1943 32.3731 25.8191 32.2789 26.7732 32.5921C27.7273 32.9053 28.1747 33.3516 28.7024 34.1339C29.7042 35.6293 29.8103 37.1816 28.564 38.6048ZM44.6458 34.4593C45.3366 32.3221 44.7382 30.1952 43.0047 28.9035C42.6639 28.6471 42.275 28.4214 41.8397 28.2372C41.682 28.1699 17.6772 20.2377 17.6772 20.2377C17.0078 20.0695 16.3127 19.9962 15.8863 20.0007C13.7245 20.0137 11.9819 21.372 11.2715 23.5028C9.17274 29.8128 7.09208 36.134 5.04739 42.4619C4.15626 45.2095 5.74839 48.06 8.69467 49.0428C12.5035 50.319 16.3245 51.5579 20.136 52.8092C23.9476 54.0605 27.7594 55.3274 31.5835 56.557C34.539 57.5118 37.5109 56.1596 38.4217 53.4184C40.5254 47.11 42.5962 40.7856 44.6458 34.4593Z" fill="black" stroke="black" stroke-miterlimit="10"/>
<path d="M36.1524 21.3479C37.027 18.6672 36.8469 15.2994 32.5042 13.8738C32.3861 13.835 32.273 13.7979 32.1584 13.7654C32.0468 13.7236 31.9337 13.6865 31.8156 13.6477C27.473 12.222 25.3318 14.8277 24.4473 17.5052C23.5659 20.1734 23.2159 21.256 23.8624 21.9586L17.7935 19.9662C18.1788 19.7882 18.3558 19.3818 18.5694 18.7809C19.1549 17.1304 19.8762 15.5142 20.5406 13.9051C22.9833 8.53896 28.9025 7.13749 33.7813 8.82178C38.6602 10.5061 42.6459 14.9941 41.4327 20.7639C41.0142 22.4537 40.6372 24.1829 40.1304 25.8592C39.9463 26.4698 39.848 26.902 40.0529 27.2738L33.9839 25.2814C34.9161 25.0971 35.2808 24.0194 36.1524 21.3479Z" fill="black" stroke="black" stroke-miterlimit="10"/>
<path d="M28.2327 38.1864C26.9863 39.6096 24.9708 40.4551 24.5477 42.6234C24.4391 43.1865 23.7638 44.0487 22.6912 43.5985C21.5605 43.3254 21.5276 42.2307 21.7739 41.7128C22.7183 39.7156 21.8715 37.4659 21.4358 35.955C21.0002 34.4442 22.281 32.8827 23.9743 32.272C24.863 31.9547 25.4878 31.8605 26.4419 32.1737C27.396 32.4869 27.8434 32.9332 28.3711 33.7155C29.3729 35.2109 29.479 36.7632 28.2327 38.1864ZM44.3145 34.0409C45.0053 31.9037 44.4053 29.7815 42.6734 28.4851C42.3326 28.2287 41.9437 28.003 41.5084 27.8188C41.3507 27.7515 17.3459 19.8193 17.3459 19.8193C16.6765 19.6511 15.9814 19.5778 15.555 19.5823C13.3917 19.5999 11.6507 20.9536 10.9402 23.0844C8.84144 29.3944 6.76079 35.7156 4.71609 42.0435C3.82496 44.7911 5.41709 47.6416 8.36337 48.6244C12.1722 49.9006 15.9932 51.1395 19.8047 52.3908C23.6163 53.6421 27.4282 54.909 31.2523 56.1386C34.2077 57.0934 37.1796 55.7412 38.0904 53C40.1941 46.6916 42.2649 40.3672 44.3145 34.0409Z" fill="black" stroke="black" stroke-miterlimit="10"/>
<path d="M35.8196 20.9342C36.6943 18.2534 36.5141 14.8857 32.1714 13.46C32.0534 13.4213 31.9403 13.3841 31.8256 13.3516C31.714 13.3098 31.6009 13.2727 31.4829 13.234C27.1402 11.8083 24.999 14.4139 24.1145 17.0915C23.2331 19.7597 22.8832 20.8423 23.5297 21.5449L17.4607 19.5525C17.8461 19.3744 18.0231 18.968 18.2367 18.3671C18.8221 16.7166 19.5434 15.1004 20.2078 13.4914C22.6505 8.12521 28.5697 6.72373 33.4486 8.40802C38.3275 10.0923 42.3131 14.5803 41.1 20.3501C40.6814 22.0399 40.3044 23.7691 39.7977 25.4455C39.6136 26.056 39.5153 26.4883 39.7201 26.8601L33.6511 24.8677C34.5834 24.6834 34.9481 23.6056 35.8196 20.9342Z" fill="black" stroke="black" stroke-miterlimit="10"/>
<path d="M27.8999 37.7726C26.6536 39.1958 24.638 40.0413 24.2149 42.2097C24.1064 42.7727 23.431 43.635 22.3584 43.1848C21.2277 42.9116 21.1948 41.8169 21.4411 41.299C22.3855 39.3018 21.5387 37.0521 21.1031 35.5413C20.6674 34.0305 21.9483 32.4689 23.6415 31.8583C24.5302 31.541 25.155 31.4467 26.1091 31.7599C27.0632 32.0732 27.5106 32.5194 28.0383 33.3017C29.0402 34.7971 29.1462 36.3494 27.8999 37.7726ZM43.9818 33.6272C44.6725 31.49 44.0726 29.3677 42.3407 28.0714C41.9999 27.815 41.6109 27.5892 41.1756 27.405C41.0179 27.3378 17.0131 19.4055 17.0131 19.4055C16.3437 19.2374 15.6487 19.164 15.2222 19.1686C13.059 19.1862 11.3179 20.5398 10.6075 22.6706C8.50868 28.9807 6.42802 35.3019 4.38332 41.6297C3.4922 44.3773 5.08433 47.2279 8.0306 48.2106C11.8394 49.4868 15.6604 50.7258 19.472 51.9771C23.2835 53.2284 27.0954 54.4953 30.9195 55.7249C33.8749 56.6796 36.8468 55.3274 37.7576 52.5863C39.8613 46.2778 41.9321 39.9534 43.9818 33.6272Z" fill="black" stroke="black" stroke-miterlimit="10"/>
<path d="M35.4869 20.5204C36.3615 17.8396 36.1813 14.4719 31.8386 13.0462C31.7206 13.0075 31.6075 12.9704 31.4929 12.9379C31.3813 12.8961 31.2681 12.859 31.1501 12.8202C26.8074 11.3945 24.6662 14.0002 23.7818 16.6777C22.9004 19.3459 22.5504 20.4285 23.1969 21.1311L17.128 19.1387C17.5133 18.9607 17.6903 18.5542 17.9039 17.9534C18.4893 16.3029 19.2106 14.6867 19.8751 13.0776C22.3178 7.71145 28.2369 6.30997 33.1158 7.99426C37.9947 9.67856 41.9804 14.1666 40.7672 19.9364C40.3487 21.6261 39.9717 23.3554 39.4649 25.0317C39.2808 25.6423 39.1825 26.0745 39.3873 26.4463L33.3184 24.4539C34.2506 24.2696 34.6153 23.1919 35.4869 20.5204Z" fill="black" stroke="black" stroke-miterlimit="10"/>
<path d="M27.5671 37.3589C26.3208 38.7821 24.3053 39.6276 23.8822 41.7959C23.7736 42.359 23.0983 43.2212 22.0257 42.771C20.895 42.4979 20.8621 41.4032 21.1084 40.8853C22.0528 38.8881 21.2059 36.6384 20.7703 35.1275C20.3347 33.6167 21.6155 32.0551 23.3088 31.4445C24.1975 31.1272 24.8223 31.033 25.7764 31.3462C26.7305 31.6594 27.1778 32.1056 27.7056 32.888C28.7074 34.3834 28.8134 35.9357 27.5671 37.3589ZM43.649 33.2134C44.3397 31.0762 43.7398 28.954 42.0079 27.6576C41.6671 27.4012 41.2781 27.1755 40.8428 26.9913C40.6851 26.924 16.6804 18.9918 16.6804 18.9918C16.011 18.8236 15.3159 18.7503 14.8894 18.7548C12.7262 18.7724 10.9851 20.1261 10.2747 22.2569C8.17591 28.5669 6.09526 34.8881 4.05056 41.2159C3.15943 43.9636 4.75156 46.8141 7.69784 47.7968C11.5066 49.0731 15.3277 50.312 19.1392 51.5633C22.9508 52.8146 26.7626 54.0815 30.5867 55.3111C33.5422 56.2659 36.5141 54.9137 37.4249 52.1725C39.5286 45.8641 41.5994 39.5396 43.649 33.2134Z" fill="black" stroke="black" stroke-miterlimit="10"/>
<path d="M35.1592 20.1082C36.0339 17.4275 35.8537 14.0598 31.511 12.6341C31.393 12.5953 31.2799 12.5582 31.1652 12.5257C31.0536 12.4839 30.9405 12.4468 30.8225 12.408C26.4798 10.9824 24.3386 13.588 23.4541 16.2655C22.5727 18.9337 22.2228 20.0163 22.8693 20.7189L16.8003 18.7265C17.1857 18.5485 17.3627 18.1421 17.5763 17.5412C18.1617 15.8907 18.883 14.2745 19.5474 12.6654C21.9901 7.29928 27.9093 5.8978 32.7882 7.58209C37.6671 9.26639 41.6527 13.7544 40.4396 19.5242C40.021 21.214 39.644 22.9432 39.1373 24.6195C38.9532 25.2301 38.8549 25.6624 39.0597 26.0341L32.9907 24.0417C33.923 23.8574 34.2877 22.7797 35.1592 20.1082Z" fill="black" stroke="black" stroke-miterlimit="10"/>
<path d="M27.2395 36.9467C25.9932 38.3699 23.9776 39.2154 23.5545 41.3837C23.446 41.9468 22.7706 42.809 21.698 42.3588C20.5673 42.0857 20.5344 40.991 20.7807 40.4731C21.7251 38.4759 20.8783 36.2262 20.4427 34.7154C20.007 33.2045 21.2879 31.643 22.9811 31.0323C23.8698 30.715 24.4946 30.6208 25.4487 30.934C26.4029 31.2472 26.8502 31.6935 27.3779 32.4758C28.3798 33.9712 28.4858 35.5235 27.2395 36.9467ZM43.3214 32.8013C44.0121 30.664 43.4122 28.5418 41.6803 27.2455C41.3395 26.9891 40.9505 26.7633 40.5152 26.5791C40.3575 26.5118 16.3527 18.5796 16.3527 18.5796C15.6833 18.4115 14.9883 18.3381 14.5618 18.3426C12.3986 18.3602 10.6575 19.7139 9.94707 21.8447C7.84827 28.1548 5.76762 34.4759 3.72292 40.8038C2.8318 43.5514 4.42393 46.4019 7.3702 47.3847C11.179 48.6609 15.0001 49.8998 18.8116 51.1511C22.6231 52.4024 26.435 53.6693 30.2591 54.8989C33.2145 55.8537 36.1864 54.5015 37.0972 51.7603C39.2009 45.4519 41.2718 39.1275 43.3214 32.8013Z" fill="black" stroke="black" stroke-miterlimit="10"/>
<path d="M34.8279 19.6898C35.7026 17.0091 35.5224 13.6414 31.1797 12.2157C31.0617 12.1769 30.9486 12.1398 30.8339 12.1073C30.7223 12.0655 30.6092 12.0284 30.4912 11.9896C26.1485 10.564 24.0073 13.1696 23.1228 15.8471C22.2414 18.5153 21.8915 19.5979 22.538 20.3005L16.469 18.3081C16.8544 18.1301 17.0314 17.7237 17.245 17.1228C17.8304 15.4723 18.5517 13.8561 19.2161 12.247C21.6588 6.88088 27.578 5.47941 32.4569 7.1637C37.3358 8.84799 41.3214 13.336 40.1083 19.1058C39.6897 20.7956 39.3127 22.5248 38.806 24.2011C38.6219 24.8117 38.5236 25.244 38.7284 25.6157L32.6594 23.6233C33.5917 23.439 33.9564 22.3613 34.8279 19.6898Z" fill="black" stroke="black" stroke-miterlimit="10"/>
<path d="M26.9082 36.5283C25.6619 37.9515 23.6463 38.797 23.2232 40.9653C23.1147 41.5284 22.4393 42.3906 21.3667 41.9405C20.236 41.6673 20.2031 40.5726 20.4494 40.0547C21.3938 38.0575 20.547 35.8078 20.1114 34.297C19.6757 32.7861 20.9566 31.2246 22.6498 30.6139C23.5385 30.2966 24.1633 30.2024 25.1174 30.5156C26.0716 30.8288 26.5189 31.2751 27.0466 32.0574C28.0485 33.5528 28.1545 35.1051 26.9082 36.5283ZM42.9901 32.3829C43.6808 30.2456 43.0809 28.1234 41.349 26.8271C41.0082 26.5707 40.6192 26.3449 40.1839 26.1607C40.0262 26.0934 16.0214 18.1612 16.0214 18.1612C15.352 17.9931 14.657 17.9197 14.2305 17.9242C12.0673 17.9418 10.3262 19.2955 9.61577 21.4263C7.51698 27.7364 5.43632 34.0575 3.39163 40.3854C2.5005 43.133 4.09263 45.9835 7.0389 46.9663C10.8477 48.2425 14.6688 49.4814 18.4803 50.7327C22.2918 51.984 26.1037 53.2509 29.9278 54.4806C32.8832 55.4353 35.8551 54.0831 36.7659 51.3419C38.8696 45.0335 40.9405 38.7091 42.9901 32.3829Z" fill="black" stroke="black" stroke-miterlimit="10"/>
<path d="M34.4954 19.2761C35.3701 16.5953 35.1899 13.2276 30.8472 11.8019C30.7292 11.7632 30.616 11.726 30.5014 11.6936C30.3898 11.6518 30.2767 11.6146 30.1587 11.5759C25.816 10.1502 23.6748 12.7558 22.7903 15.4334C21.9089 18.1016 21.559 19.1842 22.2055 19.8868L16.1365 17.8944C16.5218 17.7163 16.6989 17.3099 16.9125 16.709C17.4979 15.0586 18.2192 13.4423 18.8836 11.8333C21.3263 6.46712 27.2455 5.06565 32.1244 6.74994C37.0032 8.43423 40.9889 12.9222 39.7758 18.692C39.3572 20.3818 38.9802 22.1111 38.4735 23.7874C38.2894 24.3979 38.191 24.8302 38.3959 25.202L32.3269 23.2096C33.2591 23.0253 33.6239 21.9475 34.4954 19.2761Z" fill="black" stroke="black" stroke-miterlimit="10"/>
<path d="M26.5757 36.1146C25.3294 37.5378 23.3138 38.3832 22.8907 40.5516C22.7821 41.1147 22.1068 41.9769 21.0342 41.5267C19.9035 41.2536 19.8706 40.1588 20.1169 39.6409C21.0613 37.6438 20.2145 35.394 19.7788 33.8832C19.3432 32.3724 20.624 30.8108 22.3173 30.2002C23.206 29.8829 23.8308 29.7886 24.7849 30.1019C25.739 30.4151 26.1864 30.8613 26.7141 31.6436C27.716 33.139 27.822 34.6914 26.5757 36.1146ZM42.6575 31.9691C43.3483 29.8319 42.7483 27.7097 41.0165 26.4133C40.6757 26.1569 40.2867 25.9311 39.8514 25.7469C39.6937 25.6797 15.6889 17.7474 15.6889 17.7474C15.0195 17.5793 14.3244 17.506 13.898 17.5105C11.7347 17.5281 9.99367 18.8818 9.28325 21.0125C7.18446 27.3226 5.1038 33.6438 3.05911 39.9716C2.16798 42.7192 3.76011 45.5698 6.70638 46.5525C10.5152 47.8287 14.3362 49.0677 18.1478 50.319C21.9593 51.5703 25.7712 52.8372 29.5953 54.0668C32.5507 55.0216 35.5226 53.6693 36.4334 50.9282C38.5371 44.6197 40.6079 38.2953 42.6575 31.9691Z" fill="black" stroke="black" stroke-miterlimit="10"/>
<path d="M34.1626 18.8623C35.0372 16.1816 34.8571 12.8138 30.5144 11.3882C30.3964 11.3494 30.2832 11.3123 30.1686 11.2798C30.057 11.238 29.9439 11.2009 29.8258 11.1621C25.4832 9.73644 23.342 12.3421 22.4575 15.0196C21.5761 17.6878 21.2261 18.7704 21.8726 19.473L15.8037 17.4806C16.189 17.3026 16.366 16.8962 16.5797 16.2953C17.1651 14.6448 17.8864 13.0286 18.5508 11.4195C20.9935 6.05336 26.876 4.76371 31.7915 6.33618C36.6827 7.98319 40.6561 12.5085 39.4429 18.2783C39.0244 19.9681 38.6474 21.6973 38.1406 23.3736C37.9565 23.9842 37.8582 24.4164 38.0631 24.7882L31.9941 22.7958C32.9263 22.6115 33.291 21.5338 34.1626 18.8623Z" fill="#6666FF" stroke="black" stroke-miterlimit="10"/>
<path d="M26.2429 35.7008C24.9966 37.124 22.9811 37.9695 22.558 40.1378C22.4494 40.7009 21.774 41.5631 20.7015 41.1129C19.5707 40.8398 19.5379 39.7451 19.7842 39.2272C20.7286 37.23 19.8817 34.9803 19.4461 33.4694C19.0104 31.9586 20.2913 30.3971 21.9845 29.7864C22.8733 29.4691 23.498 29.3749 24.4522 29.6881C25.4063 30.0013 25.8536 30.4476 26.3813 31.2299C27.3832 32.7253 27.4892 34.2776 26.2429 35.7008ZM42.3248 31.5554C43.0155 29.4181 42.4171 27.2912 40.6837 25.9995C40.3429 25.7431 39.9539 25.5174 39.5186 25.3332C39.3609 25.2659 15.3562 17.3337 15.3562 17.3337C14.6867 17.1655 13.9917 17.0922 13.5652 17.0967C11.4035 17.1097 9.6609 18.468 8.95049 20.5988C6.85169 26.9089 4.77104 33.23 2.72634 39.5579C1.83521 42.3055 3.42735 45.156 6.37362 46.1388C10.1824 47.415 14.0035 48.6539 17.815 49.9052C21.6265 51.1565 25.4384 52.4234 29.2625 53.653C32.218 54.6078 35.1898 53.2556 36.1006 50.5144C38.2044 44.206 40.2752 37.8816 42.3248 31.5554Z" fill="#F7B009" stroke="black" stroke-miterlimit="10"/>
</g>
<defs>
<clipPath id="clip0_304_733">
<rect width="38.7968" height="48.2805" fill="white" transform="translate(15.2104 0.634644) rotate(18.1747)"/>
</clipPath>
</defs>
</svg>
