<svg width="68" height="30" viewBox="0 0 68 30" fill="none" xmlns="http://www.w3.org/2000/svg">
<path d="M5.3247 23.7456L4.34531 26.4572L6.97976 27.4677L8.12033 24.3084L8.91996 24.6154L7.42607 28.7403L0 25.8816L1.4753 21.8079L2.27493 22.1148L1.15296 25.2229L3.54567 26.1438L4.52507 23.4323L5.3247 23.7392V23.7456Z" fill="black"/>
<path d="M9.28571 17.4975C9.87459 17.8812 10.3209 18.2905 10.6308 18.719C10.9346 19.1475 11.1143 19.5887 11.1577 20.0364L12.6888 19.5887L12.8872 20.5416L11.0214 21.066C10.9408 21.2899 10.8416 21.4945 10.7238 21.6864C10.2837 22.4026 9.68863 22.8119 8.95098 22.9079C8.21333 23.0038 7.3889 22.7608 6.49629 22.1916L5.27514 21.3922C4.37012 20.8038 3.79364 20.1387 3.5395 19.4033C3.28535 18.6678 3.38453 17.9324 3.83084 17.1969C4.28334 16.4614 4.87842 16.0457 5.62227 15.9626C6.36611 15.8795 7.18435 16.1289 8.09556 16.7109L9.29191 17.4911L9.28571 17.4975ZM7.58726 17.5998C6.88061 17.1393 6.27933 16.9091 5.78343 16.9283C5.28754 16.9475 4.89082 17.1969 4.58708 17.6957C4.29574 18.169 4.25235 18.6422 4.45071 19.1219C4.64907 19.6015 5.08918 20.0556 5.77104 20.5032L6.96739 21.2835C7.65545 21.7311 8.25053 21.9486 8.76502 21.9422C9.27332 21.9294 9.67623 21.6864 9.97377 21.2003C10.2713 20.7207 10.3271 20.2538 10.1473 19.8062C9.96757 19.3585 9.53986 18.9044 8.8704 18.4504L7.58726 17.6126V17.5998Z" fill="black"/>
<path d="M10.5193 9.13879L14.5236 13.2318C15.0505 13.7818 15.3171 14.3701 15.3171 14.9905C15.3171 15.6108 15.0443 16.2056 14.5051 16.7683C13.9534 17.3439 13.3831 17.6317 12.7942 17.6317C12.2053 17.6317 11.635 17.3567 11.0834 16.8003L7.07898 12.7073L7.77944 11.9783L11.7528 16.0457C12.1309 16.4358 12.4967 16.6404 12.8438 16.666C13.1909 16.6916 13.5442 16.5189 13.8976 16.148C14.2571 15.7771 14.4183 15.4125 14.3935 15.0544C14.3687 14.6963 14.1641 14.3253 13.786 13.9352L9.81262 9.87425L10.5193 9.13879Z" fill="black"/>
<path d="M18.0383 13.5196L17.2387 14.1336L12.509 7.55926L13.3087 6.94531L18.0383 13.5196Z" fill="black"/>
<path d="M18.6396 9.28592L20.0963 12.119L19.2161 12.5987L15.4968 5.37202L17.7284 4.15053C18.3792 3.79239 18.9929 3.71565 19.5756 3.9139C20.1521 4.11216 20.617 4.54703 20.9579 5.21214C21.3174 5.90922 21.4104 6.54236 21.2492 7.11153C21.0881 7.68071 20.6852 8.14757 20.0529 8.51849L18.6396 9.29232V9.28592ZM18.2367 8.5057L19.588 7.76385C19.9785 7.55281 20.2141 7.26502 20.3008 6.90689C20.3876 6.54875 20.3132 6.14585 20.0777 5.69818C19.8545 5.2633 19.5694 4.97552 19.2161 4.82843C18.8689 4.68134 18.5032 4.71331 18.1313 4.91796L16.7738 5.65981L18.2367 8.49931V8.5057Z" fill="black"/>
<path d="M27.0265 5.1865L24.3362 6.01149L25.1359 8.79342L28.2662 7.82774L28.508 8.67191L24.4168 9.92539L22.1543 2.0848L26.1897 0.844116L26.4314 1.68829L23.3506 2.63479L24.0821 5.16092L26.7723 4.33593L27.0141 5.1801L27.0265 5.1865Z" fill="black"/>
<path d="M31.7747 8.21796L31.6445 0.0384222L33.5413 5.06743e-05C34.465 -0.0127398 35.1902 0.268652 35.7109 0.863411C36.2316 1.45177 36.5043 2.28955 36.5167 3.37035L36.5353 4.73894C36.5539 5.81974 36.306 6.66391 35.7977 7.25867C35.2894 7.85983 34.5393 8.1668 33.5537 8.17959L31.7809 8.21157L31.7747 8.21796ZM32.6611 0.895387L32.7603 7.31623L33.5599 7.30344C34.2604 7.29065 34.7687 7.07321 35.0848 6.65752C35.401 6.24182 35.5559 5.62148 35.5497 4.80929L35.5249 3.35756C35.5125 2.4942 35.339 1.86747 35.0104 1.46457C34.6819 1.06806 34.1922 0.876201 33.5413 0.882597L32.6487 0.895387H32.6611Z" fill="black"/>
<path d="M42.2443 5.39119L39.4921 4.82841L38.9466 7.6743L42.1513 8.32662L41.9839 9.18997L37.7998 8.33941L39.3433 0.313354L43.4778 1.15753L43.3105 2.02089L40.1553 1.37497L39.6594 3.95865L42.4117 4.52144L42.2443 5.3848V5.39119Z" fill="black"/>
<path d="M50.6994 10.4178C50.2654 11.1725 49.751 11.6521 49.1559 11.8568C48.5608 12.0614 47.9161 11.9783 47.2095 11.5946C46.5028 11.2108 46.0875 10.6353 45.9511 9.85505C45.8148 9.08123 45.9883 8.21787 46.4718 7.27137L47.1413 5.95395C47.6186 5.01384 48.2137 4.38071 48.9141 4.06095C49.6208 3.74119 50.3398 3.78595 51.0775 4.18246C51.7593 4.54699 52.1747 5.03942 52.3358 5.65976C52.497 6.2801 52.3916 6.98998 52.0259 7.78299L51.1333 7.30335C51.3936 6.6894 51.4866 6.20336 51.4122 5.84523C51.3378 5.4807 51.0899 5.19291 50.6808 4.96908C50.2035 4.70687 49.7324 4.70687 49.2798 4.94989C48.8273 5.19931 48.412 5.69814 48.0277 6.43999L47.352 7.7702C46.9801 8.50565 46.8128 9.13239 46.8561 9.65041C46.8995 10.1748 47.1475 10.5585 47.6062 10.8079C48.0649 11.0574 48.4554 11.1149 48.7778 10.9934C49.1001 10.8719 49.441 10.5138 49.8005 9.9254L50.6932 10.405L50.6994 10.4178Z" fill="black"/>
<path d="M55.8567 18.3608L52.9929 15.6428C52.5466 15.3295 52.2057 15.0545 51.9577 14.8179C51.5858 14.4661 51.3503 14.0504 51.2449 13.5708C51.1395 13.0847 51.1767 12.5795 51.3503 12.0551C51.5238 11.5307 51.8276 11.0255 52.2553 10.5458L53.3773 9.28596C53.7988 8.81271 54.2575 8.46097 54.741 8.23074C55.2307 8.0069 55.7142 7.92376 56.1915 7.98772C56.6688 8.05167 57.0965 8.26271 57.4622 8.60806C57.735 8.86387 58.0325 9.19642 58.3548 9.60572L61.1814 12.2853L60.605 12.9376L58.2371 10.6929L56.5076 12.6371L58.5718 14.594L57.9953 15.2463L55.9311 13.2894L54.0281 15.4254L56.4332 17.7085L55.8567 18.3608ZM52.5156 14.2039C52.7388 14.415 52.9805 14.6132 53.2471 14.7987L57.549 9.96385C57.363 9.72083 57.1523 9.47781 56.9105 9.25398C56.5386 8.90224 56.1047 8.78712 55.615 8.90863C55.1253 9.03014 54.6108 9.38828 54.0901 9.97664L52.9681 11.2365C52.4536 11.8121 52.1561 12.3621 52.0693 12.8865C51.9825 13.4109 52.1313 13.8522 52.5156 14.2103V14.2039Z" fill="black"/>
<path d="M65.7684 19.205L61.014 22.3387C60.3755 22.748 59.7619 22.8887 59.173 22.748C58.5841 22.6137 58.082 22.2108 57.6729 21.5457C57.2514 20.8614 57.1026 20.2283 57.2328 19.6335C57.3629 19.0451 57.7473 18.5271 58.3919 18.0986L63.1464 14.965L63.6794 15.8283L58.9622 18.9364C58.5097 19.2306 58.237 19.5504 58.1378 19.8957C58.0386 20.2411 58.1254 20.6312 58.3981 21.0724C58.6709 21.5137 58.9808 21.7631 59.3279 21.8143C59.6689 21.8655 60.0656 21.7439 60.5181 21.4434L65.2353 18.3353L65.7746 19.205H65.7684Z" fill="black"/>
<path d="M63.4253 25.8305L62.9294 24.4875L59.9293 25.6642L59.5759 24.6985L66.9896 21.7887L67.7768 23.9311C68.0558 24.6794 68.0744 25.3253 67.8388 25.8561C67.6033 26.3869 67.1198 26.8026 66.3883 27.084C65.9296 27.263 65.4895 27.3142 65.0742 27.2439C64.6589 27.1735 64.2932 26.9753 63.977 26.6619L61.3736 29.3799L61.3116 29.4055L60.9272 28.3694L63.4253 25.8305ZM63.7291 24.1741L64.1568 25.3381C64.3056 25.741 64.5473 26.016 64.8882 26.1567C65.2292 26.2974 65.6073 26.2846 66.0288 26.1183C66.9834 25.7474 67.2933 25.1142 66.9648 24.2253L66.5371 23.0677L63.7229 24.1741H63.7291Z" fill="black"/>
</svg>
