<?xml version="1.0" encoding="UTF-8"?>
<svg id="Calque_1" data-name="Calque 1" xmlns="http://www.w3.org/2000/svg" viewBox="0 0 340 125">
  <g>
    <path d="M60.29,113.47c2.09-1.23,4.46-3.41,5.97-6.25,2.24-4.21,1.37-7.88-1.79-9.63-2.92-1.62-5.5-.85-9.41,2.56-4.58,4.2-8.93,5.95-13.34,3.51-4.87-2.7-6.3-8.83-3-15.03,1.74-3.27,3.74-5.22,5.28-6.2l2.69,2.96c-1.11.73-3.17,2.35-4.71,5.23-2.31,4.35-.64,7.43,1.49,8.61,2.92,1.62,5.39.48,9.4-3,4.91-4.26,8.92-5.59,13.51-3.04,4.82,2.68,7.06,8.64,3.06,16.17-1.64,3.08-4.3,5.95-6.32,7.03l-2.83-2.92Z"/>
    <path d="M57.82,67.83l-6.92,8.46-2.97-2.61,16.84-20.6,2.97,2.61-6.95,8.5,24.05,21.13-2.97,3.63-24.05-21.13Z"/>
    <path d="M88.24,65.33l3.97,11.49-3.67,3.03-12.37-36.75,4.29-3.53,31.11,21.32-3.8,3.13-9.77-6.72-9.76,8.03ZM95.07,54.97l-8.95-6.15c-2.03-1.39-3.73-2.78-5.39-4.12l-.08.07c.88,2.06,1.75,4.2,2.54,6.4l3.59,10.62,8.29-6.82Z"/>
    <path d="M103.63,28.92l-9.52,4.96-1.68-3.66,23.16-12.08,1.68,3.66-9.56,4.99,13.62,29.65-4.08,2.13-13.61-29.65Z"/>
    <path d="M127.36,14.18l10.44,35.41-4.27,1.48-10.44-35.41,4.27-1.48Z"/>
    <path d="M142.58,41.75c2.16.96,5.21,1.54,8.26.99,4.52-.81,6.81-3.84,6.31-7.56-.47-3.44-2.57-5.08-7.45-6.17-5.88-1.14-9.76-3.64-10.47-8.83-.78-5.74,3.05-10.79,9.71-11.97,3.51-.62,6.17-.2,7.82.46l-.69,4.09c-1.21-.46-3.64-1.14-6.74-.59-4.67.83-6.04,4.15-5.7,6.67.47,3.44,2.79,4.76,7.78,5.89,6.12,1.37,9.48,3.85,10.22,9.26.78,5.68-2.46,11.3-10.54,12.73-3.3.59-7.05.19-9.06-.79l.57-4.19Z"/>
    <path d="M175.99,10.95l-10.49-.4.26-4.1,25.55.98-.26,4.1-10.55-.41-2.12,33.23-4.51-.17,2.12-33.23Z"/>
    <path d="M203.45,10.07l-7.73,36.69-4.36-.87,7.73-36.7,4.36.87Z"/>
    <path d="M226.11,63.45c-3.79-3.02-7.43-6.15-10.55-9.06-.56-.53-1.11-1.06-1.73-1.32-7.43-3.43-11.43-12.2-6.89-23.39,4.51-11.14,13.64-15.74,22.23-12.18,8.64,3.57,11.29,13.22,7.13,23.49-3.61,8.93-9.71,13.09-15.81,12.92l-.08.21c2.81,2.19,5.92,4.44,8.4,6.07l-2.71,3.28ZM231.88,39.39c2.82-6.97,2.42-15.5-4.33-18.3-6.94-2.87-13.18,2.74-16.18,10.29-3.03,7.36-2,15.56,4.42,18.21,6.56,2.71,12.87-2.26,16.09-10.21Z"/>
    <path d="M257.72,33.67l-13.13,17.78c-4.97,6.73-4.37,11.71-.74,14.57,4.03,3.18,8.79,2.27,13.69-4.37l13.13-17.78,3.55,2.8-12.93,17.51c-6.81,9.22-14,9.55-19.89,4.91-5.57-4.39-7.16-11.21-.29-20.52l13.06-17.69,3.55,2.8Z"/>
    <path d="M280.25,83.88l-8.48-10.6-10.03,8.8,9.45,11.81-3.01,2.64-12.27-15.33,27.83-24.41,11.78,14.73-3.01,2.64-8.97-11.21-8.8,7.71,8.48,10.6-2.97,2.61Z"/>
    <path d="M275,96.72c-.17,2.47.28,5.66,1.73,8.44,2.17,4.12,5.63,5.22,8.82,3.34,2.95-1.75,3.76-4.41,3.19-9.59-.85-6.17.17-10.9,4.62-13.53,4.92-2.91,10.69-1.05,13.88,5.02,1.68,3.19,2.15,5.95,2.08,7.81l-3.91.86c.03-1.35-.13-3.99-1.62-6.81-2.24-4.26-5.67-4.35-7.82-3.08-2.95,1.75-3.41,4.5-2.83,9.81.71,6.5-.45,10.7-5.09,13.45-4.87,2.88-10.96,1.81-14.83-5.55-1.58-3.01-2.42-6.82-2.17-9.15l3.96-1Z"/>
  </g>
  <text/>
</svg>