<?xml version="1.0" encoding="UTF-8"?>
<svg id="Calque_2" data-name="Calque 2" xmlns="http://www.w3.org/2000/svg" viewBox="0 0 126 126">
  <defs>
    <style>
      .cls-1, .cls-2, .cls-3, .cls-4, .cls-5, .cls-6, .cls-7, .cls-8, .cls-9 {
        stroke-width: 0px;
      }

      .cls-1, .cls-2, .cls-5, .cls-6 {
        fill-rule: evenodd;
      }

      .cls-1, .cls-3 {
        fill: #e60746;
      }

      .cls-10 {
        stroke-width: .79px;
      }

      .cls-10, .cls-2, .cls-4, .cls-6 {
        fill: #fff;
      }

      .cls-10, .cls-11, .cls-12, .cls-13 {
        stroke-linecap: round;
        stroke-linejoin: round;
      }

      .cls-10, .cls-11, .cls-13 {
        stroke: rgba(102, 102, 102, 0);
      }

      .cls-2 {
        isolation: isolate;
        opacity: .21;
      }

      .cls-11 {
        fill: #3e2c56;
        stroke-width: 1.28px;
      }

      .cls-5, .cls-8 {
        fill: #e1b57a;
      }

      .cls-12 {
        stroke: rgba(0, 255, 0, 0);
        stroke-width: .68px;
      }

      .cls-12, .cls-7 {
        fill: #745990;
      }

      .cls-13 {
        fill: #402c4f;
        stroke-width: .75px;
      }

      .cls-9 {
        fill: #3d2f46;
      }
    </style>
  </defs>
  <g id="Calque_1-2" data-name="Calque 1">
    <g>
      <circle class="cls-4" cx="63" cy="63" r="63"/>
      <g id="g10">
        <g id="g4602">
          <g id="g4591">
            <path id="circle3814" class="cls-11" d="M62.65,4.15c-32.58,0-59,26.42-59,59,0,32.58,26.42,59,59,59,32.58,0,59-26.42,59-59,0-32.58-26.42-59-59-59ZM62.65,6.02c31.55,0,57.13,25.58,57.13,57.13,0,31.55-25.58,57.13-57.13,57.13-31.55,0-57.13-25.58-57.13-57.13,0-31.55,25.58-57.13,57.13-57.13ZM62.65,7.66c-30.65,0-55.49,24.84-55.49,55.49,0,30.65,24.84,55.49,55.49,55.49,30.65,0,55.49-24.84,55.49-55.49h0c0-30.65-24.84-55.49-55.49-55.49h0Z"/>
            <g id="g4582">
              <path id="circle3789" class="cls-10" d="M98.94,63.15c0,20.05-16.25,36.3-36.3,36.3s-36.3-16.25-36.3-36.3c0-20.05,16.25-36.3,36.3-36.3s36.3,16.25,36.3,36.3Z"/>
              <g id="g4683">
                <path id="rect3835" class="cls-7" d="M48.9,31.92l10.71-2.26v67.3l-10.71-2.94V31.92Z"/>
                <path id="rect3837" class="cls-7" d="M32.41,47.73l5.35-7.23,5.35-4.97v54.88l-5.35-4.4-5.35-7.57v-30.71Z"/>
                <path id="path4665" class="cls-7" d="M76.39,31.92l-10.71-2.26v67.3l10.71-2.94V31.92Z"/>
                <path id="path4667" class="cls-7" d="M92.88,47.73l-5.35-7.23-5.35-4.97v54.88l5.35-4.4,5.35-7.57v-30.71Z"/>
              </g>
              <path id="circle3787" class="cls-13" d="M62.65,28.51c-19.13,0-34.64,15.51-34.64,34.64,0,19.13,15.51,34.64,34.64,34.64h0c19.13,0,34.64-15.51,34.64-34.64h0c0-19.13-15.51-34.64-34.64-34.64ZM62.65,30.17c18.22,0,32.99,14.77,32.99,32.99h0c0,18.22-14.77,32.99-32.99,32.99h0c-18.22,0-32.99-14.77-32.99-32.99h0c0-18.22,14.77-32.99,32.99-32.99Z"/>
            </g>
          </g>
          <g id="g12763">
            <g id="g12739">
              <g id="g12417">
                <path id="path16" class="cls-4" d="M33.76,33.88l-5.35-5.48-1.94,1.89-1.08-1.11,5.21-5.09,1.08,1.11-1.94,1.89,5.35,5.48-1.33,1.3h0Z"/>
                <path id="path18" class="cls-4" d="M35.51,26.83c-.59-.73-.98-1.43-1.16-2.1-.13-.5-.18-1-.13-1.52.05-.52.18-.98.4-1.39.29-.55.73-1.06,1.31-1.53,1.05-.85,2.16-1.21,3.32-1.07,1.16.14,2.22.79,3.16,1.96.94,1.15,1.36,2.31,1.26,3.47-.1,1.16-.67,2.17-1.72,3.02-1.06.86-2.17,1.22-3.32,1.09-1.15-.14-2.19-.78-3.12-1.92M36.95,25.58c.66.81,1.35,1.27,2.06,1.39.71.11,1.36-.06,1.94-.53.58-.47.88-1.06.91-1.78.03-.72-.29-1.49-.96-2.32-.67-.82-1.34-1.29-2.03-1.4-.69-.11-1.33.08-1.93.56-.6.48-.91,1.08-.94,1.78-.03.71.29,1.47.95,2.29h0Z"/>
                <path id="path20" class="cls-4" d="M43.59,16.13l1.76-.59,1.58,4.75c.25.75.43,1.23.55,1.44.19.33.47.56.82.69.35.12.78.1,1.27-.06.5-.17.84-.39,1.02-.68.18-.29.25-.59.2-.91-.05-.32-.19-.82-.42-1.51l-1.61-4.85,1.76-.59,1.53,4.6c.35,1.05.55,1.81.6,2.28.05.47,0,.89-.16,1.27-.16.38-.42.74-.79,1.05-.37.32-.9.59-1.59.82-.83.28-1.49.39-1.99.34-.49-.05-.92-.19-1.27-.41-.35-.23-.62-.49-.82-.81-.28-.46-.59-1.19-.91-2.16l-1.55-4.67h0Z"/>
                <path id="path22" class="cls-4" d="M55.58,22.16l-1.07-9.06,1.84-.22.89,7.51,4.59-.54.18,1.54-6.43.76Z"/>
                <path id="path24" class="cls-4" d="M63.28,17.03c.08-.94.28-1.71.61-2.32.25-.45.57-.85.96-1.19.39-.34.81-.59,1.25-.73.59-.2,1.26-.26,2.01-.2,1.35.11,2.4.62,3.14,1.53.74.91,1.05,2.11.93,3.6-.12,1.48-.62,2.61-1.49,3.38-.87.77-1.98,1.1-3.33.99-1.36-.11-2.41-.62-3.15-1.52-.74-.9-1.04-2.08-.92-3.54M65.19,17.12c-.09,1.04.09,1.85.53,2.43.44.58,1.03.9,1.77.96.74.06,1.37-.16,1.89-.65.52-.49.82-1.27.91-2.34.09-1.05-.08-1.86-.5-2.41-.42-.56-1.01-.87-1.78-.93-.77-.06-1.4.15-1.91.63-.51.49-.81,1.26-.9,2.32Z"/>
                <path id="path26" class="cls-4" d="M76.39,14.05l1.73.67-1.82,4.66c-.29.74-.45,1.23-.5,1.46-.06.38,0,.73.2,1.05.19.32.53.58,1.01.76.49.19.9.23,1.22.13.33-.1.57-.29.74-.57.16-.27.38-.75.65-1.43l1.86-4.76,1.73.68-1.76,4.52c-.4,1.03-.73,1.74-.99,2.13-.26.39-.57.68-.94.88-.37.2-.79.3-1.28.31-.49,0-1.07-.12-1.75-.38-.82-.32-1.4-.66-1.75-1.01-.35-.35-.58-.73-.71-1.13-.13-.4-.16-.78-.11-1.14.08-.54.31-1.29.68-2.25l1.79-4.59h0Z"/>
                <path id="path28" class="cls-4" d="M82.89,23.2l1.58.88c-.26.56-.33,1.05-.22,1.48.11.42.4.8.86,1.12.49.34.94.49,1.33.46.39-.04.69-.19.88-.47.12-.18.18-.37.16-.57-.02-.2-.12-.43-.32-.71-.14-.19-.47-.58-.99-1.17-.68-.77-1.08-1.41-1.2-1.94-.18-.74-.06-1.4.36-2,.27-.38.62-.67,1.07-.85.45-.18.94-.22,1.47-.11.53.11,1.09.36,1.67.77.95.66,1.51,1.36,1.7,2.11.19.75.05,1.48-.41,2.2l-1.57-1c.21-.44.26-.81.16-1.13-.1-.32-.36-.63-.79-.93-.44-.31-.85-.46-1.23-.45-.24,0-.43.11-.57.3-.12.18-.16.39-.09.62.08.3.43.79,1.05,1.48.62.69,1.05,1.25,1.27,1.69.23.43.33.88.3,1.35-.02.46-.2.94-.53,1.42-.3.43-.7.76-1.21.97-.5.21-1.04.26-1.61.14-.57-.12-1.18-.41-1.84-.86-.96-.66-1.54-1.39-1.74-2.19-.2-.8-.06-1.66.43-2.58h0Z"/>
                <path id="path30" class="cls-4" d="M88.65,30.87l6.3-6.72,4.96,4.65-1.06,1.13-3.61-3.38-1.39,1.48,3.36,3.15-1.06,1.13-3.36-3.15-1.72,1.84,3.74,3.5-1.06,1.13-5.09-4.77h0Z"/>
              </g>
              <g id="g12537">
                <path id="path32" class="cls-4" d="M19.55,88l6.57-4.31,2.95,4.5-1.11.73-2.09-3.18-1.57,1.03,1.8,2.75-1.11.73-1.8-2.75-2.79,1.83-.87-1.32h0Z"/>
                <path id="path34" class="cls-4" d="M26.5,91.78c.56-.57,1.12-.96,1.67-1.18.41-.16.83-.24,1.28-.25.44,0,.85.06,1.22.21.49.2.97.52,1.42.97.82.81,1.23,1.72,1.21,2.72-.01,1-.47,1.95-1.37,2.86-.89.9-1.84,1.36-2.83,1.39-.99.02-1.9-.37-2.72-1.18-.83-.82-1.24-1.73-1.22-2.72.01-.99.46-1.93,1.34-2.82M27.7,92.88c-.63.63-.96,1.26-.99,1.87-.03.62.18,1.15.63,1.59.45.45.98.65,1.59.61.61-.04,1.23-.38,1.88-1.03.63-.64.97-1.26,1-1.85.03-.59-.19-1.12-.65-1.58-.47-.46-1-.67-1.6-.64-.6.04-1.22.38-1.86,1.02h0Z"/>
                <path id="path36" class="cls-4" d="M33.66,98.36c.52-.61,1.05-1.04,1.58-1.3.4-.19.81-.3,1.25-.35.44-.04.85,0,1.23.12.51.16,1,.45,1.49.86.88.75,1.35,1.62,1.41,2.62.06,1-.32,1.98-1.15,2.95-.82.96-1.73,1.5-2.72,1.59-.99.1-1.92-.23-2.8-.97-.89-.76-1.36-1.63-1.42-2.62-.06-.99.31-1.96,1.13-2.91M34.93,99.37c-.58.68-.86,1.32-.84,1.94.01.62.26,1.13.74,1.54.48.41,1.02.57,1.63.49.6-.08,1.2-.47,1.8-1.17.58-.69.87-1.33.86-1.92-.01-.59-.27-1.1-.77-1.53-.5-.43-1.05-.6-1.64-.52-.6.08-1.19.47-1.77,1.15Z"/>
                <path id="path38" class="cls-4" d="M41.34,108.11l2.69-5.95-2.11-.95.55-1.21,5.66,2.56-.55,1.21-2.11-.95-2.69,5.95-1.44-.65h0Z"/>
                <path id="path40" class="cls-4" d="M48.83,102.74l3.04.77c.6.15,1.04.29,1.32.42.28.13.52.3.71.52.19.22.33.48.42.78.09.3.09.62,0,.95-.09.36-.27.66-.54.91-.27.25-.58.41-.95.47.43.25.72.57.89.96.16.39.19.8.08,1.24-.09.35-.25.66-.5.95-.24.29-.53.49-.86.62-.33.12-.7.16-1.12.1-.26-.04-.88-.18-1.86-.42l-2.58-.66,1.93-7.61M49.27,107.42l-.52,2.04,1.42.36c.55.14.91.21,1.06.22.24.02.45-.04.63-.16.18-.12.31-.32.38-.59.06-.23.05-.44-.02-.62-.07-.19-.2-.34-.39-.47-.19-.13-.64-.28-1.33-.45l-1.24-.31M50.04,104.39l-.45,1.75,1.01.26c.6.15.97.24,1.12.26.27.04.5,0,.69-.11.19-.11.31-.29.38-.54.06-.23.04-.44-.05-.62-.09-.18-.26-.32-.51-.41-.15-.06-.58-.18-1.3-.36,0,0-.88-.22-.88-.22Z"/>
                <path id="path42" class="cls-4" d="M62.35,113.3l-1.69-.22-.44-1.85-3.12-.4-.86,1.68-1.68-.22,3.99-7.4,1.69.22,2.12,8.19M59.87,109.85l-.71-3.04-1.42,2.76,2.13.27Z"/>
                <path id="path44" class="cls-4" d="M64.49,113.15l-.84-7.73,1.57-.17.7,6.41,3.92-.42.14,1.32s-5.49.6-5.49.6Z"/>
                <path id="path46" class="cls-4" d="M72.11,111.99l-1.94-7.53,1.53-.39,1.61,6.25,3.82-.98.33,1.28s-5.35,1.38-5.35,1.38Z"/>
                <path id="path50" class="cls-4" d="M90.72,104.46l-4.58-6.28,1.28-.93,3.8,5.21,3.18-2.32.78,1.07-4.46,3.26Z"/>
                <path id="path52" class="cls-4" d="M91.22,93.91l1.09-1.14,3.08,2.95c.49.47.82.76.99.87.28.17.58.24.89.19.32-.05.63-.23.93-.55.31-.32.48-.63.5-.92.02-.29-.05-.55-.21-.77-.16-.22-.47-.54-.92-.97l-3.15-3.01,1.09-1.14,2.99,2.86c.68.65,1.14,1.15,1.36,1.48.22.33.35.67.39,1.02.04.35-.02.72-.17,1.11-.15.39-.44.81-.87,1.25-.52.54-.97.89-1.36,1.05-.39.16-.77.22-1.12.19-.36-.03-.67-.12-.94-.28-.4-.24-.91-.66-1.55-1.27l-3.03-2.9Z"/>
                <path id="path54" class="cls-4" d="M96.44,88.53l1.72-2.62c.34-.52.62-.89.83-1.12.21-.23.45-.39.72-.51.27-.11.56-.16.88-.14.32.02.62.12.9.3.31.2.54.47.68.8.15.33.19.68.14,1.05.38-.32.78-.5,1.2-.52.42-.03.82.08,1.2.33.3.2.54.46.73.78.19.32.29.66.3,1.01.01.35-.08.71-.27,1.09-.12.24-.45.78-1,1.62l-1.46,2.23-6.56-4.31M98.4,87.93l1.51.99.57-.87c.34-.52.54-.84.61-.98.12-.24.16-.47.12-.69-.04-.21-.17-.39-.38-.53-.2-.13-.4-.18-.6-.16-.2.03-.39.14-.56.35-.1.12-.36.49-.76,1.12l-.5.76M101.01,89.64l1.76,1.15.8-1.22c.31-.48.5-.79.56-.93.09-.22.11-.44.05-.65-.06-.21-.2-.4-.44-.55-.2-.13-.4-.19-.6-.19-.2,0-.39.08-.57.22-.18.14-.47.51-.86,1.11l-.7,1.07h0Z"/>
                <path id="path12501" class="cls-4" d="M83.76,99.89c-2.25,0-4.07,1.82-4.07,4.07h0c0,2.25,1.82,4.07,4.07,4.07h0c2.25,0,4.07-1.82,4.07-4.07h0c0-.29-.03-.58-.1-.87l-1.65.45c.03.16.05.32.05.48,0,1.37-1.07,2.48-2.4,2.48-1.32,0-2.4-1.11-2.4-2.48h0c0-1.37,1.07-2.48,2.4-2.48h0c.7,0,1.36.32,1.81.86l1.24-1.15c-.77-.87-1.88-1.37-3.04-1.37h0Z"/>
              </g>
            </g>
            <g id="g12589">
              <g id="g12565">
                <path id="rect12551" class="cls-4" d="M11.25,56.36v1.47h1.26v6.48h1.56v-7.95h-2.82Z"/>
                <path id="path12556" class="cls-4" d="M18.66,56.36c-1.73,0-3.13,1.24-3.13,2.77h0c0,1.53,1.4,2.77,3.13,2.77.02,0,.04,0,.06,0l-1.77,2.43h1.86l2.39-3.58c.38-.47.59-1.03.59-1.61,0-1.53-1.4-2.77-3.13-2.77h0ZM18.64,57.8c.75,0,1.36.61,1.36,1.36h0c0,.75-.61,1.36-1.36,1.36-.75,0-1.36-.61-1.36-1.36,0-.75.61-1.36,1.36-1.36h0Z"/>
              </g>
              <g id="g12585">
                <path id="path12569" class="cls-6" d="M114.04,56.36h-5.99v1.32h3.83l-3.23,6.64h1.64l3.75-7.97Z"/>
                <path id="path12571" class="cls-6" d="M101.5,56.37v1.3h3.04l-2.02,2.4.32.29c.41-.13.84-.25,1.27-.26.95,0,1.57.64,1.57,1.45s-.64,1.37-1.59,1.37c-.94,0-1.68-.54-1.7-1.33l-1.4.72c.4,1.18,1.67,2,3.12,2,1.79,0,3.25-1.23,3.25-2.76,0-1.21-.93-2.28-2.29-2.63l2.09-2.57h-5.65Z"/>
              </g>
            </g>
          </g>
        </g>
        <g id="g12963">
          <g id="g12959">
            <path id="path12025" class="cls-1" d="M38.04,53.19v26.23c.07,5.81,3.19,8.31,10.58,9.85,12.42,2.58,12.91,5.21,14.03,6.36,1.12-1.16,1.61-3.79,14.03-6.36,7.4-1.53,10.51-4.04,10.58-9.85v-26.23h-49.22Z"/>
            <path id="rect12030" class="cls-12" d="M38.06,35.68c16.37-1.88,32.91-1.74,49.58,0v17.51h-49.58v-17.51Z"/>
          </g>
          <g id="g12713">
            <g id="g11944">
              <g id="g4065">
                <path id="path4067" class="cls-5" d="M43.36,37.95c-.97.87-1.66,1.79-1.66,3,0,1.34.96,2.55,1.19,3.89.04.21.07.59.05.84h.91c-.01-.25.02-.63.05-.84.23-1.34,1.28-2.5,1.19-3.89-.1-1.5-.71-2.03-1.73-3h0ZM39.53,41.7c-.25,0-.48.03-.7.1-.79.32-.87,1.53-.64,2.19.28.83,1.59,1.4,2.55,1.45-.19-.33-.65-1.28-.15-1.24.56.04.96.88,1.15,1.47h.93c0-.22-.01-.61-.06-.85-.11-.56-.47-1.78-1.09-2.33-.46-.41-1.26-.79-2-.8h0ZM47.25,41.7c-.74,0-1.53.39-2,.8-.62.55-.98,1.76-1.09,2.33-.04.23-.06.61-.08.85h.89c.19-.59.64-1.42,1.21-1.47.5-.04.04.91-.15,1.24.97-.06,2.27-.63,2.55-1.45.23-.66.15-1.87-.64-2.19-.22-.07-.46-.1-.7-.1h0Z"/>
                <path id="path4069" class="cls-5" d="M41.88,47.76c-.42.61-1.33,1.17-2.04,1.64.86.05,1.68-.23,2.43-.49.02.87.23,1.52,1.07,2.15.91-.61,1.19-1.62,1.16-2.15.75.26,1.57.54,2.43.49-.71-.47-1.62-1.03-2.04-1.64h-3.02Z"/>
                <path id="rect4071" class="cls-8" d="M41.66,46.02h3.46c.44,0,.79.29.79.66s-.35.66-.79.66h-3.46c-.44,0-.79-.29-.79-.66s.35-.66.79-.66Z"/>
              </g>
              <g id="g4073">
                <path id="path4077" class="cls-5" d="M51.79,34.79c-.42.61-1.33,1.17-2.04,1.64.86.05,1.68-.23,2.43-.49.02.87.23,1.52,1.07,2.15.91-.61,1.19-1.62,1.16-2.15.75.26,1.57.54,2.43.49-.71-.47-1.62-1.03-2.04-1.64h-3.02Z"/>
              </g>
              <path id="path4083" class="cls-5" d="M53.26,49.61c-.97.87-1.66,1.79-1.66,3,0,.16.01.25.04.4h3.35c.01-.13.01-.27,0-.4-.1-1.5-.71-2.03-1.73-3h0Z"/>
            </g>
            <g id="g4060">
              <path id="path5932" class="cls-5" d="M62.61,37.95c-.97.87-1.66,1.79-1.66,3,0,1.34.96,2.55,1.19,3.89.04.21.07.59.05.84h.91c-.01-.25.02-.63.05-.84.23-1.34,1.28-2.5,1.19-3.89-.1-1.5-.71-2.03-1.73-3h0ZM58.79,41.7c-.25,0-.48.03-.7.1-.79.32-.87,1.53-.64,2.19.28.83,1.59,1.4,2.55,1.45-.19-.33-.65-1.28-.15-1.24.56.04.96.88,1.15,1.47h.93c0-.22-.01-.61-.06-.85-.11-.56-.47-1.78-1.09-2.33-.46-.41-1.26-.79-2-.8h0ZM66.51,41.7c-.74,0-1.53.39-2,.8-.62.55-.98,1.76-1.09,2.33-.04.23-.06.61-.08.85h.89c.19-.59.64-1.42,1.21-1.47.5-.04.04.91-.15,1.24.97-.06,2.27-.63,2.55-1.45.23-.66.15-1.87-.64-2.19-.22-.07-.46-.1-.7-.1h0Z"/>
              <path id="path5926" class="cls-5" d="M61.14,47.76c-.42.61-1.33,1.17-2.04,1.64.86.05,1.68-.23,2.43-.49.02.87.23,1.52,1.07,2.15.91-.61,1.19-1.62,1.16-2.15.75.26,1.57.54,2.43.49-.71-.47-1.62-1.03-2.04-1.64h-3.02Z"/>
              <path id="rect4050" class="cls-8" d="M60.92,46.02h3.46c.44,0,.79.29.79.66s-.35.66-.79.66h-3.46c-.44,0-.79-.29-.79-.66s.35-.66.79-.66Z"/>
            </g>
            <g id="g11969">
              <g id="g11971">
                <path id="path11973" class="cls-5" d="M81.94,37.95c.97.87,1.66,1.79,1.66,3,0,1.34-.96,2.55-1.19,3.89-.04.21-.07.59-.05.84h-.91c.01-.25-.02-.63-.05-.84-.23-1.34-1.28-2.5-1.19-3.89.1-1.5.71-2.03,1.73-3h0ZM85.76,41.7c.25,0,.48.03.7.1.79.32.87,1.53.64,2.19-.28.83-1.59,1.4-2.55,1.45.19-.33.65-1.28.15-1.24-.56.04-.96.88-1.15,1.47h-.93c0-.22.01-.61.06-.85.11-.56.47-1.78,1.09-2.33.46-.41,1.26-.79,2-.8h0ZM78.04,41.7c.74,0,1.53.39,2,.8.62.55.98,1.76,1.09,2.33.04.23.06.61.08.85h-.89c-.19-.59-.64-1.42-1.21-1.47-.5-.04-.04.91.15,1.24-.97-.06-2.27-.63-2.55-1.45-.23-.66-.15-1.87.64-2.19.22-.07.46-.1.7-.1h0Z"/>
                <path id="path11975" class="cls-5" d="M83.41,47.76c.42.61,1.33,1.17,2.04,1.64-.86.05-1.68-.23-2.43-.49-.02.87-.23,1.52-1.07,2.15-.91-.61-1.19-1.62-1.16-2.15-.75.26-1.57.54-2.43.49.71-.47,1.62-1.03,2.04-1.64h3.02Z"/>
                <path id="path11977" class="cls-8" d="M83.63,46.02h-3.46c-.44,0-.79.29-.79.66s.35.66.79.66h3.46c.44,0,.79-.29.79-.66s-.35-.66-.79-.66Z"/>
              </g>
              <g id="g11979">
                <path id="path11981" class="cls-5" d="M73.51,34.79c.42.61,1.33,1.17,2.04,1.64-.86.05-1.68-.23-2.43-.49-.02.87-.23,1.52-1.07,2.15-.91-.61-1.19-1.62-1.16-2.15-.75.26-1.57.54-2.43.49.71-.47,1.62-1.03,2.04-1.64h3.02Z"/>
              </g>
              <path id="path11983" class="cls-5" d="M72.03,49.61c.97.87,1.66,1.79,1.66,3,0,.16-.01.25-.04.4h-3.35c-.01-.13-.01-.27,0-.4.1-1.5.71-2.03,1.73-3h0Z"/>
            </g>
          </g>
          <g id="g12955">
            <path id="path12306" class="cls-8" d="M63.19,53.3v41.9h-1.08v-41.9h1.08Z"/>
            <path id="rect12028" class="cls-8" d="M37.85,52.62h49.58v1.69h-49.58v-1.69Z"/>
          </g>
          <g id="g12806">
            <g id="g12224">
              <path id="path5009" class="cls-6" d="M44.78,57.43v13.04c-.13-.12-.3-.17-.48-.17-.18,0-.35.06-.48.17v-7.37h-.74v1.47h-.74v-1.47h-.74v1.47h-.74v-1.47h-.74v1.47h-.74v-1.47h-.74v17.65h6.65v-3.29c-.07-.94.15-1.79.57-2.4.31-.46.73-.78,1.22-.91-.09-.13-.13-.29-.14-.43h0v-.41h1.33v.41h0c0,.15-.05.31-.14.44.48.14.89.47,1.19.93.4.61.61,1.45.61,2.39v3.29h6.91v-17.65h-.74v1.47h-.74v-1.47h-.74v1.47h-.74v-1.47h-.74v1.47h-.74v-1.47h-.74v7.37c-.25-.27-.73-.23-.95,0v-13.04h-.72v2.07h-.65v-2.07h-.64v2.07h-.64v-2.07h-.65v2.07h-.64v-2.07h-.64v2.07h-.65v-2.07h-.64ZM47.06,73.45v.26c0,.14.06.29.15.4.12-.02.25-.03.38-.03h0s0,0,0,0c.12,0,.23.01.34.03,0,0,0,0,0,0,.09-.11.14-.26.14-.39v-.26h-1.03ZM47.6,74.22c-.67-.01-1.24.33-1.63.92s-.61,1.4-.55,2.32h0s0,3.29,0,3.29h.34v-3.16c0-1.21.5-2.96,1.82-2.99,1.23-.03,1.82,1.7,1.82,3v3.15h.35v-3.29c0-.92-.21-1.73-.59-2.31-.38-.58-.91-.93-1.56-.93h0Z"/>
              <g id="g12178">
                <g id="g12149">
                  <path id="path5017" class="cls-3" d="M38.94,72.32c.15,0,.27.12.27.28v.63h-.54v-.63c0-.15.12-.28.27-.28Z"/>
                  <g id="use2541">
                    <path id="path5017-2" data-name="path5017" class="cls-3" d="M39.61,72.32c.15,0,.27.12.27.28v.63h-.54v-.63c0-.15.12-.28.27-.28Z"/>
                  </g>
                  <g id="use2543">
                    <path id="path5017-3" data-name="path5017" class="cls-3" d="M40.29,72.32c.15,0,.27.12.27.28v.63h-.54v-.63c0-.15.12-.28.27-.28Z"/>
                  </g>
                  <g id="use2545">
                    <g id="use2541-2" data-name="use2541">
                      <path id="path5017-4" data-name="path5017" class="cls-3" d="M40.96,72.32c.15,0,.27.12.27.28v.63h-.54v-.63c0-.15.12-.28.27-.28Z"/>
                    </g>
                  </g>
                  <g id="use2547">
                    <path id="path5017-5" data-name="path5017" class="cls-3" d="M41.64,72.32c.15,0,.27.12.27.28v.63h-.54v-.63c0-.15.12-.28.27-.28Z"/>
                  </g>
                  <g id="use2549">
                    <g id="use2541-3" data-name="use2541">
                      <path id="path5017-6" data-name="path5017" class="cls-3" d="M42.31,72.32c.15,0,.27.12.27.28v.63h-.54v-.63c0-.15.12-.28.27-.28Z"/>
                    </g>
                  </g>
                  <g id="use2551">
                    <g id="use2543-2" data-name="use2543">
                      <path id="path5017-7" data-name="path5017" class="cls-3" d="M42.99,72.32c.15,0,.27.12.27.28v.63h-.54v-.63c0-.15.12-.28.27-.28Z"/>
                    </g>
                  </g>
                  <g id="use2553">
                    <g id="use2545-2" data-name="use2545">
                      <g id="use2541-4" data-name="use2541">
                        <path id="path5017-8" data-name="path5017" class="cls-3" d="M43.66,72.32c.15,0,.27.12.27.28v.63h-.54v-.63c0-.15.12-.28.27-.28Z"/>
                      </g>
                    </g>
                  </g>
                  <g id="use2555">
                    <path id="path5017-9" data-name="path5017" class="cls-3" d="M44.34,72.32c.15,0,.27.12.27.28v.63h-.54v-.63c0-.15.12-.28.27-.28Z"/>
                  </g>
                  <g id="use2557">
                    <g id="use2541-5" data-name="use2541">
                      <path id="path5017-10" data-name="path5017" class="cls-3" d="M45.01,72.32c.15,0,.27.12.27.28v.63h-.54v-.63c0-.15.12-.28.27-.28Z"/>
                    </g>
                  </g>
                  <g id="use2559">
                    <g id="use2543-3" data-name="use2543">
                      <path id="path5017-11" data-name="path5017" class="cls-3" d="M45.69,72.32c.15,0,.27.12.27.28v.63h-.54v-.63c0-.15.12-.28.27-.28Z"/>
                    </g>
                  </g>
                  <g id="use2561">
                    <g id="use2545-3" data-name="use2545">
                      <g id="use2541-6" data-name="use2541">
                        <path id="path5017-12" data-name="path5017" class="cls-3" d="M46.36,72.32c.15,0,.27.12.27.28v.63h-.54v-.63c0-.15.12-.28.27-.28Z"/>
                      </g>
                    </g>
                  </g>
                  <g id="use2563">
                    <g id="use2547-2" data-name="use2547">
                      <path id="path5017-13" data-name="path5017" class="cls-3" d="M47.03,72.32c.15,0,.27.12.27.28v.63h-.54v-.63c0-.15.12-.28.27-.28Z"/>
                    </g>
                  </g>
                  <g id="use2565">
                    <g id="use2549-2" data-name="use2549">
                      <g id="use2541-7" data-name="use2541">
                        <path id="path5017-14" data-name="path5017" class="cls-3" d="M47.71,72.32c.15,0,.27.12.27.28v.63h-.54v-.63c0-.15.12-.28.27-.28Z"/>
                      </g>
                    </g>
                  </g>
                  <g id="use2567">
                    <g id="use2551-2" data-name="use2551">
                      <g id="use2543-4" data-name="use2543">
                        <path id="path5017-15" data-name="path5017" class="cls-3" d="M48.38,72.32c.15,0,.27.12.27.28v.63h-.54v-.63c0-.15.12-.28.27-.28Z"/>
                      </g>
                    </g>
                  </g>
                  <g id="use2569">
                    <g id="use2553-2" data-name="use2553">
                      <g id="use2545-4" data-name="use2545">
                        <g id="use2541-8" data-name="use2541">
                          <path id="path5017-16" data-name="path5017" class="cls-3" d="M49.06,72.32c.15,0,.27.12.27.28v.63h-.54v-.63c0-.15.12-.28.27-.28Z"/>
                        </g>
                      </g>
                    </g>
                  </g>
                  <g id="use2571">
                    <g id="use2555-2" data-name="use2555">
                      <path id="path5017-17" data-name="path5017" class="cls-3" d="M49.73,72.32c.15,0,.27.12.27.28v.63h-.54v-.63c0-.15.12-.28.27-.28Z"/>
                    </g>
                  </g>
                  <g id="use2573">
                    <g id="use2557-2" data-name="use2557">
                      <g id="use2541-9" data-name="use2541">
                        <path id="path5017-18" data-name="path5017" class="cls-3" d="M50.41,72.32c.15,0,.27.12.27.28v.63h-.54v-.63c0-.15.12-.28.27-.28Z"/>
                      </g>
                    </g>
                  </g>
                  <g id="use2575">
                    <g id="use2559-2" data-name="use2559">
                      <g id="use2543-5" data-name="use2543">
                        <path id="path5017-19" data-name="path5017" class="cls-3" d="M51.08,72.32c.15,0,.27.12.27.28v.63h-.54v-.63c0-.15.12-.28.27-.28Z"/>
                      </g>
                    </g>
                  </g>
                  <g id="use2577">
                    <g id="use2561-2" data-name="use2561">
                      <g id="use2545-5" data-name="use2545">
                        <g id="use2541-10" data-name="use2541">
                          <path id="path5017-20" data-name="path5017" class="cls-3" d="M51.76,72.32c.15,0,.27.12.27.28v.63h-.54v-.63c0-.15.12-.28.27-.28Z"/>
                        </g>
                      </g>
                    </g>
                  </g>
                  <g id="use2579">
                    <g id="use2563-2" data-name="use2563">
                      <g id="use2547-3" data-name="use2547">
                        <path id="path5017-21" data-name="path5017" class="cls-3" d="M53.11,72.32c.15,0,.27.12.27.28v.63h-.54v-.63c0-.15.12-.28.27-.28Z"/>
                      </g>
                    </g>
                  </g>
                  <g id="use2581">
                    <g id="use2565-2" data-name="use2565">
                      <g id="use2549-3" data-name="use2549">
                        <g id="use2541-11" data-name="use2541">
                          <path id="path5017-22" data-name="path5017" class="cls-3" d="M54.46,72.32c.15,0,.27.12.27.28v.63h-.54v-.63c0-.15.12-.28.27-.28Z"/>
                        </g>
                      </g>
                    </g>
                  </g>
                  <g id="use2583">
                    <g id="use2567-2" data-name="use2567">
                      <g id="use2551-3" data-name="use2551">
                        <g id="use2543-6" data-name="use2543">
                          <path id="path5017-23" data-name="path5017" class="cls-3" d="M55.8,72.32c.15,0,.27.12.27.28v.63h-.54v-.63c0-.15.12-.28.27-.28Z"/>
                        </g>
                      </g>
                    </g>
                  </g>
                  <g id="use2585">
                    <g id="use2569-2" data-name="use2569">
                      <g id="use2553-3" data-name="use2553">
                        <g id="use2545-6" data-name="use2545">
                          <g id="use2541-12" data-name="use2541">
                            <path id="path5017-24" data-name="path5017" class="cls-3" d="M52.43,72.32c.15,0,.27.12.27.28v.63h-.54v-.63c0-.15.12-.28.27-.28Z"/>
                          </g>
                        </g>
                      </g>
                    </g>
                  </g>
                  <g id="use2587">
                    <path id="path5017-25" data-name="path5017" class="cls-3" d="M53.78,72.32c.15,0,.27.12.27.28v.63h-.54v-.63c0-.15.12-.28.27-.28Z"/>
                  </g>
                  <g id="use2589">
                    <g id="use2541-13" data-name="use2541">
                      <path id="path5017-26" data-name="path5017" class="cls-3" d="M55.13,72.32c.15,0,.27.12.27.28v.63h-.54v-.63c0-.15.12-.28.27-.28Z"/>
                    </g>
                  </g>
                  <g id="use2591">
                    <g id="use2543-7" data-name="use2543">
                      <path id="path5017-27" data-name="path5017" class="cls-3" d="M56.48,72.32c.15,0,.27.12.27.28v.63h-.54v-.63c0-.15.12-.28.27-.28Z"/>
                    </g>
                  </g>
                </g>
                <g id="g12044">
                  <g id="g12036">
                    <g id="use4935">
                      <path id="path5017-28" data-name="path5017" class="cls-3" d="M44.3,70.72c.24,0,.43.16.43.37v.83h-.86v-.83c0-.2.19-.37.43-.37Z"/>
                    </g>
                    <g id="use4987">
                      <path id="path5017-29" data-name="path5017" class="cls-3" d="M51.11,70.72c.24,0,.43.16.43.37v.83h-.86v-.83c0-.2.19-.37.43-.37Z"/>
                    </g>
                  </g>
                  <g id="g4995">
                    <g id="use4989">
                      <path id="path5017-30" data-name="path5017" class="cls-3" d="M39.91,66.61c.3,0,.55.24.55.55v1.23h-1.1v-1.23c0-.3.24-.55.55-.55Z"/>
                    </g>
                    <g id="use4993">
                      <path id="path5017-31" data-name="path5017" class="cls-3" d="M42.41,66.61c.3,0,.55.24.55.55v1.23h-1.1v-1.23c0-.3.24-.55.55-.55Z"/>
                    </g>
                  </g>
                  <g id="g4999">
                    <g id="use5001">
                      <path id="path5017-32" data-name="path5017" class="cls-3" d="M52.95,66.61c.3,0,.55.24.55.55v1.23h-1.1v-1.23c0-.3.24-.55.55-.55Z"/>
                    </g>
                    <g id="use5003">
                      <path id="path5017-33" data-name="path5017" class="cls-3" d="M55.45,66.61c.3,0,.55.24.55.55v1.23h-1.1v-1.23c0-.3.24-.55.55-.55Z"/>
                    </g>
                  </g>
                  <g id="g5008">
                    <g id="use5010">
                      <path id="path5017-34" data-name="path5017" class="cls-3" d="M46.46,62.1c.3,0,.55.24.55.55v1.23h-1.1v-1.23c0-.3.24-.55.55-.55Z"/>
                    </g>
                    <g id="use5012">
                      <path id="path5017-35" data-name="path5017" class="cls-3" d="M48.97,62.1c.3,0,.55.24.55.55v1.23h-1.1v-1.23c0-.3.24-.55.55-.55Z"/>
                    </g>
                  </g>
                  <g id="g12040">
                    <path id="rect10559" class="cls-3" d="M45.69,66.45h1.01v2.66h-1.01v-2.66Z"/>
                    <path id="rect10561" class="cls-3" d="M48.73,66.45h1.01v2.66h-1.01v-2.66Z"/>
                  </g>
                </g>
              </g>
            </g>
            <g id="g12735">
              <path id="circle10600" class="cls-8" d="M60.24,77.02c-2.1,0-3.8,1.8-3.8,4.01h0c0,2.21,1.7,4.01,3.8,4.01h0c2.1,0,3.8-1.8,3.8-4.01h0c0-2.21-1.7-4.01-3.8-4.01h0ZM60.4,77.89c1.87,0,3.39,1.52,3.39,3.39h0c0,1.87-1.52,3.39-3.39,3.39h0c-1.87,0-3.39-1.52-3.39-3.39h0c0-1.87,1.52-3.39,3.39-3.39h0Z"/>
              <path id="path2748" class="cls-6" d="M60.4,78.56s-.08,0-.12,0c-.38.08-1.12.24-1.19.51.33.02.99.77.35.39-.17-.23-1.21-.51-.56-.05.21.25,1.22.64.33.47-.4-.12-.81-.84-1.16-.67.13.62.81.98,1.47.93.06.35-.63.1-.7.48-.04.12,0,.51-.36.35-.16.2.55.41.02.42-.16.23.05.51-.35.44.23.38-.62-.05-.27.42.34.24-.5.78.04.67.27-.15.22-1.2.34-.51.29.31-.27.54,0,.87-.04.11-.07.16-.1.18.06,0,.04.02.09.04v.14s-.03.03-.02.06c0,.04.1.03.1.1,0,.04-.06.15-.06.17,0,.05.09.03.09.12,0,.03-.06.15-.06.17,0,.04.03.06.02.08v.08s-.01.01-.04.02c-.03,0-.05,0-.08-.02,0,.03,0,.05-.02.08.46.36-.13,1.02.12,1.53.2.4-.46.11-.07.53.36-.03.33-.45.29-.68.5.12.16,1.08.79.79.12.25-.3.64-.2.18-.19.13-.79-.34-.44.08.31.26.32.37-.1.43-.55.07-.71.36-1.19.56-.49.08-1.1.37-1.01.91,0,.66-.16,1.32-.35,1.96,0,.39.09.97.38.83.41.06.65-.85.39-1.22.02-.63.19-1.35.52-1.87.63-.44,1.54-.06,2.1-.55.35.04.85.29.91-.28.4.1-.09.61.49.67.57.3.85-.09.64-.57-.01-.47.41-.4.19.08-.21.37.54.89.41.65-.38-.36.22-.36.39-.4-.38-.36.02-.44.24-.15.19-.1.31-.23.43-.36,0,.01,0,.03,0,.04h.05c.07-.06.19-.13.25-.13.03,0,.05,0,.08,0-.06-.02-.17-.07-.2-.07,0,0-.03,0-.06.02.17-.17.36-.29.7-.21.36.17-.64.44.07.33.19-.18.37-1.16.39-.56.03-.05.12-.08.17-.14,0-.03,0-.06,0-.09,0-.03.05-.06.07-.06.04,0,.14.06.14.11,0,.08-.17.2-.17.21,0,.03.05.11.06.13,0,.03-.01.01-.01.03-.01.01-.01.01-.04.02-.04,0-.19-.04-.23-.12-.16.31.34.31.19.49.17-.18.24-.35.52-.23.49-.13.18-.71.55-1.04-.23-.03-.38-.61-.15-.6.12-.24.48.88.46.18.48-.18.05.65.53.6.06.02.1.05.13.09,0-.02.01-.04.01-.05,0-.03-.02-.02-.02-.04-.04-.03-.12-.04-.12-.1.03-.05.05-.06.09-.06.01,0,.02,0,.04,0,.18-.02.21.05.21.18,0,.13-.04.23-.09.36h-.05s0,0-.01-.01c0,.22-.04.44.32.37,0-.02.01-.04.02-.06-.07-.04-.15-.01-.16-.1,0-.06.09-.08.12-.09.06,0,.12.04.16.04.03,0,.1-.02.14-.04.02-.02.06-.04.07-.07,0-.01,0-.05.01-.08,0,0,.03-.03.05-.03.06,0,.13.06.13.1v.19s-.07.07-.09.07c-.03,0-.1-.02-.13-.01-.03,0-.02.03-.05.04.05.06.17.09.17.19,0,.03-.03.08-.03.11,0,.03.05.11.06.13,0,.03-.03.12-.04.18-.02.02-.05.03-.07.03-.05,0-.07-.08-.07-.1,0-.03.01-.04.01-.06-.04,0-.1.02-.13-.01,0,0-.02-.02-.03-.03-.03.05-.11.02-.2-.2-.58.3-.39-.56-.66-.72-.17-.16-.29-.42-.49-.07.08.18.3.78.28.2.63.06.03,1.12.84.96.16.36.69-.09.9.33.42-.2.41-.02.39.28.25-.78.22.44.36.67.11.61-.03,1.28-.17,1.88-.01.33-.84.79-.1.81.61.03.87-.56.85-1.03-.07-.77.2-1.54.49-2.27-.06-.54-.46-.98-.2-1.53,0-.59.49-1,.17-1.55.24-.73.14.27.43.43-.27.36-.3.8-.41,1.22-.19.34.17,1.04.04.31-.03-.32.25-.62.33-.95.27.32-.37,1.19.08,1.43.34-.2.06-.51.34-.85-.08-.49.32-1.03-.06-1.51.27-.5-.32-.84-.28-1.32-.19-.53-.83-.85-1.13-1.33-.55-.24-1.12-.47-1.75-.28-.55-.31-1.11.31-1.62.06-.55.02-.98.44-1.54.34-.6.36-1.29-.2-1.92-.1-.44.06-1.25.04-.94-.57-.4-.02-.33-.43-.82-.35-.39-.11-.23-.65,0-.17.4.05.78.05,1.19-.11.28.1,1.22.08.48-.08-.26-.38,1.02.39.58-.23-.48-.13-.16-.46.11-.07.05-.65-.67-1.26-1.05-1.6-.43-.24.52-.04.12-.48-.33-.45-.8-.74-1.4-.72h0ZM61,79.56s.03,0,.04,0c.03,0,.14.1.14.14,0,.05-.04.07-.06.07-.06,0-.09-.07-.11-.11-.04,0-.08,0-.12.01-.01-.01-.03-.02-.03-.05,0-.05.13-.08.13-.08h0ZM60.8,80.2s.11.05.16.07c.05.02.12.03.18.05.04.02.32.2.33.29,0,.05-.04.05-.05.06-.03,0-.1-.04-.14-.05-.07-.02-.15.02-.22-.02-.09-.04-.16-.15-.15-.23-.03-.02-.15-.08-.15-.11,0-.03.02-.05.05-.06h0ZM58.26,80.35c-.13.01-.25.23-.27.33,0,.04-.06.07-.1.09.02.02.06.04.09.04.03,0,.07-.02.1-.04.08-.07.17-.23.26-.25,0,0,.16-.03.16-.09,0-.03,0-.03-.01-.04-.07,0-.19-.04-.22-.04h0ZM59.81,81.04c.09,0,.1.13.11.15,0,.03-.02.08-.02.11,0,.03.02.05.02.07,0,.04-.04.05-.05.06-.08,0-.12-.14-.12-.15,0-.03.02-.08.02-.11,0-.04-.01-.07-.01-.1,0-.01.02-.03.05-.03h0ZM58.01,81.16s-.07.05-.08.06c-.02.03-.02.08-.03.11-.02.04-.06.1-.08.15.02.01.05.02.07.02.03,0,.04-.02.05-.02.06-.08.12-.18.19-.26-.03,0-.08-.06-.11-.05ZM58.62,81.78s.06.05.06.05c0,.04-.02.06-.02.08,0,.05.1.04.11.1,0,.03,0,.04-.02.05-.06.02-.17.06-.23.07-.06-.02-.03-.06-.04-.1-.02-.02-.04-.02-.06-.03-.03,0-.06-.08-.06-.08,0-.04,0-.11.08-.12.03,0,.07.05.09.04.03,0,.07-.06.09-.06ZM60.41,82.26s.1.15.1.15c0,.06-.01.14-.07.15-.03,0-.04,0-.05-.02,0-.03,0-.04,0-.06,0-.02-.03-.06-.05-.08,0,0,0,0,0-.04,0-.03.04-.09.07-.09h0ZM58.55,82.54s.02,0,.03,0c.05.02.03.07.04.11.05.05.16-.05.16.05,0,.09-.27.18-.27.18-.09,0-.14-.06-.14-.11,0-.05.09-.22.18-.23h0ZM60.65,82.7s.09.03.09.07c0,.05-.08.2-.12.2-.03,0-.04,0-.05-.03v-.16c0-.05.08-.07.08-.07h0ZM57.97,83.34s-.03.04-.04.13c-.31.12.18.39-.24.36.06.32.31.5-.2.43-.26.35.45-.13.21.28.28.32-.43,1.16.2.98.02.23-.25.7.27.5.14-.53-.67-.63-.18-1.16-.2-.17-.04-.51.08-.62-.02-.09-.03-.17-.03-.18-.02-.01-.05,0-.07-.02-.02-.01-.05-.06-.05-.08,0-.11.09-.22.14-.37,0-.01,0-.05,0-.08,0-.01.01-.02.02-.02-.06-.02-.1-.15-.12-.14h0ZM59.32,83.5s-.01.05-.02.09c-.14.06-.13.14-.24.15-.03,0-.04,0-.07,0-.06,0-.08.12-.18.13-.03,0-.07-.03-.1-.03-.03,0-.05.03-.08.03-.07,0-.13-.05-.14-.13,0-.11.06-.2.19-.21.06,0,.03.01.13.04.03,0,.06-.02.09-.02.03,0,.07.03.09.03.03,0,.08-.05.12-.05.03-.02.09-.03.12-.02h.08ZM69.37,83.98c.11-.01.13.13.13.18,0,.03-.07.18-.07.21,0,.03.03.07.04.1.03.04.1.07.13.1.07.06.07.08.07.15,0,.08-.04.1-.09.22-.04.04-.03.11-.07.16h-.04s-.05-.04-.05-.07v-.14c-.01-.11-.13-.24-.13-.27,0-.03.05-.05.07-.07-.01-.01-.03-.02-.03-.04,0-.2-.08-.17-.09-.31,0-.03.02-.22.12-.23h0ZM59.53,84.18s.03,0,.04,0c0,.01.01,0,.01.02,0,.05-.12.1-.13.11-.01,0-.03.04-.05.06-.06.02-.14.01-.2.05-.02,0-.05.04-.07.04-.03.02-.09.04-.12.04-.03,0-.1,0-.12,0-.07,0-.08.12-.18.13-.08,0-.14-.05-.14-.11,0-.08.13-.29.2-.3.09,0,.1.12.09.16.03,0,.06,0,.09,0,.03,0,.09-.11.18-.12.03,0,.1.03.14.02l.25-.11h0ZM59.59,84.86s.18.05.21.04c.03,0,.05-.02.09-.04.01.01.03.02.03.05,0,.06-.13.09-.14.09-.03,0-.07,0-.1,0-.03,0-.11.06-.14.06-.03,0-.11-.02-.11-.05,0-.06.11-.15.16-.15h0ZM59.04,85c.06,0,.05.11.11.11.03,0,.07-.04.09-.05.05,0,.11.02.11.07,0,.01-.02.09-.06.12-.03,0-.07,0-.09,0-.02.02-.05.03-.07.03-.08,0-.15-.07-.16-.14,0-.05,0-.14.08-.15h0ZM65.72,85.2s.02,0,.03.01c.05.03.09.11.13.15.01.01.03.05.03.07,0,.03-.02.06-.02.08,0,.03.03.09.03.12,0,.04-.05.16-.08.16-.08,0-.13-.13-.13-.15,0-.03.03-.19.03-.22,0-.08-.09-.06-.1-.17,0-.04.03-.05.05-.05.01,0,.02,0,.04,0ZM58.71,85.3s.05,0,.08.03c0,.04,0,.09.02.11.02.04.06.08.06.11,0,.05-.04.05-.06.06-.03,0-.03-.01-.06,0-.03,0-.09.07-.12.08-.08,0-.09-.11-.15-.15-.05-.02-.12-.03-.18-.06v-.04s.06-.03.09-.04c.07,0,.1.04.14.04.06,0,.03-.12.14-.13,0,0,.02,0,.02,0h0ZM58.95,85.71c.1,0,.07.11.16.1.03,0,.1-.06.13-.07.08,0,.13.15.14.2,0,.04-.03.1-.06.11-.06,0-.13-.05-.15-.09h-.03c-.09.11-.06.15-.15.16-.09,0-.13-.17-.13-.22,0-.03,0-.19.09-.2h0ZM63.5,85.75c.05,0,.07.08.07.09,0,.03-.03.02-.03.04,0,.03.04.05.04.07,0,.05-.02.1-.07.11-.08,0-.11-.08-.11-.13,0-.04,0-.18.09-.19ZM66.58,85.99s.06.02.08.03c.03.01.03.03.05.06.01,0,.02,0,.05,0,.01.01.02.02.02.05,0,.03,0,.06-.05.07-.05,0-.2-.11-.2-.17,0-.03.01-.01.01-.02.01-.01.01-.01.04-.02h0ZM63.16,86.26s.04,0,.04.03c0,.03-.04.11-.04.13,0,.03.09.18.09.21,0,.03-.02.08-.03.11-.02.03-.15.2-.18.21-.06,0-.08-.12-.08-.12,0-.04.07-.15.07-.17,0-.03-.03-.06-.03-.09,0-.05.03-.29.17-.31h0ZM64.79,86.38s.08.06.1.07c.01.01.05,0,.06,0,.01.01.03.02.03.05,0,.03-.1.12-.13.19-.01,0-.01.01-.04.02-.03,0-.06-.03-.06-.05,0-.06-.02-.15-.02-.18,0-.03.01-.1.06-.11h0ZM64.28,86.41c.06,0,.1.04.11.08,0,.06-.1.15-.13.15-.04,0-.07-.06-.07-.07,0-.02.03-.14.08-.16,0,0,0,0,.01,0ZM62.13,86.72s.07.02.07.05c0,.03-.02.08-.02.11,0,.03.09.12.09.14,0,.03-.01.07-.02.08-.02.03-.19.14-.21.15-.05,0-.05-.03-.05-.05,0-.03.05-.07.07-.11-.04,0-.08-.11-.08-.17,0-.06.02-.19.11-.2.02,0,.03,0,.05,0h0ZM63.6,86.73c.06,0,.07.09.07.11,0,.18-.15.1-.17.3-.01.01-.04.03-.06.03-.09,0-.1-.09-.11-.11,0-.03,0-.08.02-.1.04-.04.09-.07.12-.11.02-.03.05-.07.07-.1,0-.01.03-.01.05-.02h0ZM62.74,87.28c.09,0,.19.12.2.2,0,.08-.1.12-.11.13-.03,0-.07-.02-.09-.02-.03,0-.11.06-.14.06-.08,0-.06-.06-.06-.06,0-.06.02-.08.11-.14.05-.04,0-.09.03-.13.01-.03.04-.04.06-.04h0ZM62.43,87.31c.08,0,.12.06.12.11,0,.05,0,.07-.05.07-.03,0-.05-.02-.08-.02-.03,0-.2.12-.22.12-.06,0-.08-.02-.08-.06,0-.04.04-.21.12-.21.03,0,.08.02.1.01.03,0,.06-.03.09-.03h0ZM67.96,87.46s.09.07.13.1c0,0,.02.02.02.05,0,.03-.02.07-.05.07-.06,0-.18-.12-.18-.13,0-.04.06-.08.09-.09h0ZM67.7,87.68s.08,0,.1.03c.01.02.03.06.04.08,0,.03.05.03.08.07.01.01.03.05.03.07,0,.06-.09.1-.11.1-.03,0-.08,0-.09-.03-.05-.07-.14-.2-.14-.23,0-.03.02-.09.09-.1h0ZM61.93,87.71c.08,0,.19.15.19.2,0,.06-.03.12-.09.12-.12.01-.22-.11-.23-.21,0-.08.1-.11.12-.11h0ZM65.94,87.79c-.28.16-.83.36-.2.24-.03-.09.49-.24.2-.24ZM66.02,87.99c-.15.14.45.5-.14.37-.17.19.06.62-.06.94.06.77-.27,1.61-.94,2.14-.18.34.37-.22.19.19.49.23.75-.33.93-.6-.03-.8.48-1.51.95-2.16-.28-.15-.19-.65-.74-.47.28-.24.22-.32-.19-.4h0ZM62.78,88.26c-.06.08-.14.14-.25.11l-.04.02c.05.02.09.05.12.05.04,0,.2-.07.2-.16,0-.03-.01-.01-.03-.02ZM59.71,88.52s-.1,0-.16.02c-.26,0-.53.02-.79.02.16.31-.05.41-.02.5.12-.02.21,0,.27.04,0,0,0-.01,0-.02,0-.05.02-.1.07-.11.05,0,.09.09.09.11,0,.05-.03.13-.1.15,0,0,0,0,0-.01-.02.06-.11.13-.28.18.18.55.34,1.12.26,1.72.18.39-.74.93-.37,1.05.2-.42.07.38.55.13.52.04.18-.55.6-.66.09-.71-.25-1.44-.03-2.13.24-.32.4-1-.06-1.01ZM58.72,88.56s-.04,0-.06.01c.11.02.11-.01.06-.01ZM58.57,88.56s-.05,0-.08.01h-.02c.06.13.23-.02.09-.01Z"/>
            </g>
            <g id="g12341">
              <g id="g12302">
                <ellipse id="ellipse4040" class="cls-8" cx="62.65" cy="61.53" rx="8.11" ry="8.34"/>
                <ellipse id="path4038" class="cls-9" cx="62.65" cy="61.53" rx="7.84" ry="7.64"/>
              </g>
              <g id="g12331">
                <path id="path10697" class="cls-1" d="M62.65,56.66l-1.71,1.14.68,1.28.54,2.08-3.51-1.28-.18.96-.88.82.88.86.06.94,1.72-.86,1.98-.48-1.28,3.53.82.16.9.88.9-.88.82-.16-1.28-3.53,1.98.48,1.72.86.06-.94.88-.86-.88-.82-.18-.96-3.51,1.28.54-2.08.68-1.28-1.71-1.14Z"/>
                <g id="g10669">
                  <path id="path10635" class="cls-5" d="M62.13,56.33c-.01.48-.4.87-.89.87-.35.01-.54-.21-.76-.43-.42.15-.61.29-.28.62,0,0,0,0,0,0,.83.9,1.39,2.04,1.57,3.31-1.42-.2-2.68-.89-3.61-1.9-.12.19-.22.39-.31.59.25.21.4.45.43.78,0,.49-.39.88-.87.89-.03.35-.03.7,0,1.04.48.01.86.41.86.89.02.35-.2.53-.43.75.09.21.2.41.32.61.93-1,2.18-1.68,3.59-1.88-.21,1.41-.89,2.67-1.88,3.6.19.12.38.22.59.31.21-.25.44-.41.77-.43.48,0,.87.39.88.87.35.04.69.03,1.04,0,0,0,0,0,0,0,.01-.48.4-.87.88-.87.34-.01.53.21.74.43.21-.1.41-.21.61-.33-.98-.93-1.66-2.18-1.87-3.58,1.39.21,2.64.89,3.56,1.88.12-.2.23-.4.32-.61-.25-.21-.4-.43-.42-.76,0-.48.39-.88.86-.89.04-.35.03-.7,0-1.04-.48-.01-.86-.41-.86-.89-.01-.35.2-.54.42-.76-.16-.43-.29-.61-.63-.27-.88.82-2.01,1.39-3.26,1.57.2-1.42.88-2.68,1.87-3.62-.19-.12-.4-.23-.61-.33-.21.25-.43.41-.76.43-.48,0-.87-.39-.88-.87-.35-.04-.69-.03-1.04,0h0ZM62.64,56.84c.2.55.71.94,1.31.98-.69,1.03-1.1,2.27-1.13,3.6,1.32-.03,2.55-.45,3.57-1.14.04.61.43,1.12.97,1.32-.54.2-.93.71-.97,1.32-1.03-.69-2.25-1.11-3.57-1.14.03,1.33.45,2.56,1.13,3.6-.59.04-1.09.44-1.3.98-.2-.55-.72-.95-1.33-.98.69-1.03,1.1-2.27,1.13-3.6-1.32.03-2.54.45-3.57,1.14-.04-.6-.43-1.1-.97-1.3.55-.21.94-.72.97-1.34,1.03.69,2.25,1.11,3.57,1.14-.03-1.33-.45-2.56-1.13-3.6.6-.04,1.11-.43,1.31-.98h0Z"/>
                  <g id="g10637">
                    <path id="path10639" class="cls-5" d="M62.65,55.8c-.32,0-.59.27-.59.59s.26.59.59.59.59-.26.59-.59-.26-.59-.59-.59ZM59.77,56.58c-.29.15-.38.53-.21.81s.52.38.8.22.38-.53.21-.81c-.18-.3-.51-.37-.8-.22ZM64.72,56.79c-.18.27-.07.64.21.81.28.16.64.07.8-.22s.07-.65-.21-.81c-.3-.17-.62-.06-.8.22Z"/>
                    <path id="use10641" class="cls-5" d="M62.65,67.39c-.32,0-.59-.27-.59-.59s.26-.59.59-.59.59.26.59.59-.26.59-.59.59ZM59.77,66.61c-.29-.15-.38-.53-.21-.81s.52-.38.8-.22.38.53.21.81c-.18.3-.51.37-.8.22ZM64.72,66.39c-.18-.27-.07-.64.21-.81.28-.16.64-.07.8.22s.07.65-.21.81c-.3.17-.62.06-.8-.22Z"/>
                    <path id="use10643" class="cls-5" d="M68.4,61.59c0-.32-.27-.59-.59-.59s-.59.26-.59.59.26.59.59.59.59-.26.59-.59ZM67.62,58.72c-.15-.29-.53-.38-.81-.21-.28.16-.38.52-.22.8s.53.38.81.21c.3-.18.37-.51.22-.8ZM67.41,63.67c-.27-.18-.64-.07-.81.21-.16.28-.07.64.22.8s.65.07.81-.21c.17-.3.06-.62-.22-.8Z"/>
                    <path id="use10645" class="cls-5" d="M56.89,61.59c0,.32.27.59.59.59s.59-.26.59-.59-.26-.59-.59-.59-.59.26-.59.59ZM57.67,64.47c.15.29.53.38.81.21.28-.16.38-.52.22-.8-.16-.28-.53-.38-.81-.21-.3.18-.37.51-.22.8ZM57.89,59.52c.27.18.64.07.81-.21.16-.28.07-.64-.22-.8s-.65-.07-.81.21c-.17.3-.06.62.22.8Z"/>
                  </g>
                </g>
              </g>
            </g>
            <g id="g12600">
              <g id="g12282">
                <path id="path12272" class="cls-6" d="M68.35,71.33v3.87s0,5.92,0,5.92h5.28v-2.62s0,0,0,0c0-.42.21-.9.54-1.28.33-.38.79-.67,1.3-.67h0c.51,0,.97.29,1.29.68.32.39.52.87.52,1.28v2.6h.54v-2.62s0,0,0,0c0-.42.21-.9.54-1.28s.79-.67,1.3-.67.97.29,1.29.68c.32.39.52.87.52,1.28v2.6h5.27v-9.79h-3.58v3.87s-11.17,0-11.17,0v-3.87s-3.63,0-3.63,0ZM75.46,76.71c-.46,0-.88.26-1.19.62-.31.36-.5.81-.5,1.18h0s0,2.62,0,2.62h.31v-2.42c0-.73.61-1.64,1.36-1.64s1.36.92,1.36,1.65v2.41h.32v-2.6c0-.37-.18-.83-.49-1.19s-.72-.62-1.17-.62h0ZM79.65,76.71c-.46,0-.88.26-1.19.62-.31.36-.5.81-.5,1.18h0s0,2.62,0,2.62h.31v-2.42c0-.73.61-1.64,1.36-1.64s1.36.92,1.36,1.65v2.41h.32v-2.6c0-.37-.18-.83-.49-1.19s-.72-.62-1.17-.62h0Z"/>
                <g id="g12276">
                  <path id="rect4314" class="cls-6" d="M70.17,65.93l-1.81,4.65h3.63l-1.81-4.65Z"/>
                  <path id="rect11914" class="cls-4" d="M68.35,70.79h3.63v.35h-3.63v-.35Z"/>
                  <path id="path11917" class="cls-4" d="M83.15,70.79h3.63v.35h-3.63v-.35Z"/>
                  <path id="path12274" class="cls-6" d="M84.91,65.9l-1.77,4.68h3.58l-1.81-4.68Z"/>
                </g>
              </g>
              <path id="path3349" class="cls-6" d="M74.6,62.25l2.94-5.1,2.94,5.1h-5.87Z"/>
              <g id="g11514">
                <path id="path3353" class="cls-6" d="M77.43,56.42v1.03s.22,0,.22,0v-1.03h.45v-.26s-.45,0-.45,0v-.51s-.22,0-.22,0v.51h-.45v.26s.45,0,.45,0Z"/>
                <path id="path4686" class="cls-4" d="M77.83,57.35c0,.16-.13.29-.29.29-.16,0-.29-.13-.29-.29h0c0-.16.13-.29.29-.29s.29.13.29.29Z"/>
              </g>
              <path id="path3491" class="cls-1" d="M70.14,65.17l1.45,5.41h-.36l-1.09-5.41"/>
              <path id="path3943" class="cls-6" d="M69.74,65.31h.35v.69s.17,0,.17,0v-.69h.35v-.17s-.35,0-.35,0v-.35s-.18,0-.18,0v.35h-.35v.17"/>
              <path id="path3945" class="cls-4" d="M70.37,66.04c0,.11-.09.2-.2.2-.11,0-.2-.09-.2-.19,0,0,0,0,0,0,0-.11.09-.2.2-.19.11,0,.19.09.19.19Z"/>
              <g id="g6315">
                <path id="path6319" class="cls-1" d="M84.89,65.23l1.45,5.35h-.36l-1.09-5.35"/>
              </g>
              <path id="path6323" class="cls-6" d="M84.48,65.31h.35v.69s.17,0,.17,0v-.69h.35v-.17s-.35,0-.35,0v-.35s-.18,0-.18,0v.35h-.35v.17"/>
              <path id="path6325" class="cls-4" d="M85.12,66.04c0,.11-.09.2-.2.2-.11,0-.2-.09-.2-.19,0,0,0,0,0,0,0-.11.09-.2.2-.19.11,0,.19.09.19.19Z"/>
              <path id="rect11484" class="cls-4" d="M74.6,72.3h5.87v3.13h-5.87v-3.13Z"/>
              <path id="rect11486" class="cls-4" d="M74.6,69.12h5.87v3.08h-5.87v-3.08Z"/>
              <path id="rect11488" class="cls-4" d="M74.6,65.93h5.87v3.08h-5.87v-3.08Z"/>
              <path id="rect11490" class="cls-4" d="M74.6,62.75h5.87v3.08h-5.87v-3.08Z"/>
              <path id="rect11492" class="cls-4" d="M74.6,62.65h5.87v-.27h-5.87v.27Z"/>
              <g id="g11538">
                <path id="path6399" class="cls-6" d="M80.09,60.67l-.38.87v.72h.18v-.58h.41v.58h.17v-.72l-.38-.87ZM80.09,61.04l.21.46h-.41l.2-.46Z"/>
                <path id="path6405" class="cls-6" d="M80.07,60.46v.21s.05,0,.05,0v-.21h.1v-.05s-.09,0-.09,0v-.11s-.05,0-.05,0v.11h-.1v.05s.09,0,.09,0Z"/>
                <path id="path6407" class="cls-4" d="M80.16,60.68s-.03.06-.06.06c-.03,0-.06-.03-.06-.06h0s.03-.06.06-.06c.03,0,.06.03.06.06Z"/>
              </g>
              <g id="g11549">
                <g id="g11551">
                  <path id="path11553" class="cls-6" d="M74.99,60.67l-.38.87v.72h.18v-.58h.41v.58h.17v-.72l-.38-.87ZM74.99,61.04l.21.46h-.41l.2-.46Z"/>
                  <path id="path11555" class="cls-6" d="M74.97,60.46v.21s.05,0,.05,0v-.21h.1v-.05s-.09,0-.09,0v-.11s-.05,0-.05,0v.11h-.1v.05s.09,0,.09,0Z"/>
                  <path id="path11557" class="cls-4" d="M75.06,60.68s-.03.06-.06.06c-.03,0-.06-.03-.06-.06h0s.03-.06.06-.06c.03,0,.06.03.06.06Z"/>
                </g>
              </g>
              <g id="g11668">
                <g id="g11561">
                  <path id="path11563" class="cls-1" d="M78.82,60.67l-.38.87v.72h.18v-.58h.41v.58h.17v-.72l-.38-.87ZM78.82,61.04l.21.46h-.41l.2-.46Z"/>
                  <path id="path11565" class="cls-1" d="M78.8,60.46v.21s.05,0,.05,0v-.21h.1v-.05s-.09,0-.09,0v-.11s-.05,0-.05,0v.11h-.1v.05s.09,0,.09,0Z"/>
                  <path id="path11567" class="cls-3" d="M78.89,60.68s-.03.06-.06.06c-.03,0-.06-.03-.06-.06h0s.03-.06.06-.06c.03,0,.06.03.06.06Z"/>
                </g>
                <g id="g11569">
                  <g id="g11571">
                    <path id="path11573" class="cls-1" d="M77.54,60.67l-.38.87v.72h.18v-.58h.41v.58h.17v-.72l-.38-.87ZM77.54,61.04l.21.46h-.41l.2-.46Z"/>
                    <path id="path11575" class="cls-1" d="M77.52,60.46v.21s.05,0,.05,0v-.21h.1v-.05s-.09,0-.09,0v-.11s-.05,0-.05,0v.11h-.1v.05s.09,0,.09,0Z"/>
                    <path id="path11577" class="cls-3" d="M77.61,60.68s-.03.06-.06.06c-.03,0-.06-.03-.06-.06h0s.03-.06.06-.06c.03,0,.06.03.06.06Z"/>
                  </g>
                </g>
                <g id="g11603">
                  <path id="path11605" class="cls-1" d="M76.26,60.67l-.38.87v.72h.18v-.58h.41v.58h.17v-.72l-.38-.87ZM76.26,61.04l.21.46h-.41l.2-.46Z"/>
                  <path id="path11607" class="cls-1" d="M76.24,60.46v.21s.05,0,.05,0v-.21h.1v-.05s-.09,0-.09,0v-.11s-.05,0-.05,0v.11h-.1v.05s.09,0,.09,0Z"/>
                  <path id="path11609" class="cls-3" d="M76.33,60.68s-.03.06-.06.06c-.03,0-.06-.03-.06-.06h0s.03-.06.06-.06c.03,0,.06.03.06.06Z"/>
                </g>
              </g>
              <g id="g11722">
                <path id="path3313" class="cls-3" d="M69.2,75.62c.22,0,.39.33.39.47v.31h-.79v-.3c0-.13.18-.49.39-.49h0Z"/>
                <path id="path11685" class="cls-3" d="M70.38,75.62c.22,0,.39.33.39.47v.31h-.79v-.3c0-.13.18-.49.39-.49h0Z"/>
                <path id="path11687" class="cls-3" d="M71.57,75.62c.22,0,.39.33.39.47v.31h-.79v-.3c0-.13.18-.49.39-.49h0Z"/>
                <path id="path11689" class="cls-3" d="M72.76,75.62c.22,0,.39.33.39.47v.31h-.79v-.3c0-.13.18-.49.39-.49h0Z"/>
                <path id="path11691" class="cls-3" d="M73.95,75.62c.22,0,.39.33.39.47v.31h-.79v-.3c0-.13.18-.49.39-.49h0Z"/>
                <path id="path11693" class="cls-3" d="M75.14,75.62c.22,0,.39.33.39.47v.31h-.79v-.3c0-.13.18-.49.39-.49h0Z"/>
                <path id="path11695" class="cls-3" d="M76.33,75.62c.22,0,.39.33.39.47v.31h-.79v-.3c0-.13.18-.49.39-.49h0Z"/>
                <path id="path11697" class="cls-3" d="M77.51,75.62c.22,0,.39.33.39.47v.31h-.79v-.3c0-.13.18-.49.39-.49h0Z"/>
                <path id="path11699" class="cls-3" d="M78.7,75.62c.22,0,.39.33.39.47v.31h-.79v-.3c0-.13.18-.49.39-.49h0Z"/>
                <path id="path11701" class="cls-3" d="M79.89,75.62c.22,0,.39.33.39.47v.31h-.79v-.3c0-.13.18-.49.39-.49h0Z"/>
                <path id="path11703" class="cls-3" d="M81.08,75.62c.22,0,.39.33.39.47v.31h-.79v-.3c0-.13.18-.49.39-.49h0Z"/>
                <path id="path11705" class="cls-3" d="M84.64,75.62c.22,0,.39.33.39.47v.31h-.79v-.3c0-.13.18-.49.39-.49h0Z"/>
                <path id="path11707" class="cls-3" d="M85.83,75.62c.22,0,.39.33.39.47v.31h-.79v-.3c0-.13.18-.49.39-.49h0Z"/>
                <path id="path11709" class="cls-3" d="M83.46,75.62c.22,0,.39.33.39.47v.31h-.79v-.3c0-.13.18-.49.39-.49h0Z"/>
                <path id="path11711" class="cls-3" d="M82.27,75.62c.22,0,.39.33.39.47v.31h-.79v-.3c0-.13.18-.49.39-.49h0Z"/>
              </g>
              <g id="g11884">
                <g id="g11848">
                  <path id="path6279" class="cls-3" d="M77.22,67.42v1.25h-.93v-1.26l.46-.86.46.86Z"/>
                  <path id="path11755" class="cls-3" d="M75.73,67.42v1.25h-.75v-1.26l.37-.86.37.86Z"/>
                  <path id="path11766" class="cls-3" d="M77.86,67.42v1.25h.93v-1.26l-.46-.86-.46.86Z"/>
                  <path id="path11768" class="cls-3" d="M79.36,67.42v1.25h.75v-1.26l-.37-.86-.37.86Z"/>
                </g>
                <g id="g11822">
                  <path id="path6289" class="cls-3" d="M76.76,69.74c-.26,0-.47.3-.47.66v1.48h.93v-1.51c0-.36-.2-.63-.46-.63h0Z"/>
                  <path id="path11753" class="cls-3" d="M75.35,69.74c-.21,0-.38.3-.38.66v1.48h.75v-1.51c0-.36-.16-.63-.37-.63h0Z"/>
                  <path id="path11805" class="cls-3" d="M78.33,69.74c.26,0,.47.3.47.66v1.48h-.93v-1.51c0-.36.2-.63.46-.63h0Z"/>
                  <path id="path11807" class="cls-3" d="M79.73,69.74c.21,0,.38.3.38.66v1.48h-.75v-1.51c0-.36.16-.63.37-.63h0Z"/>
                </g>
                <g id="g11864">
                  <path id="path11866" class="cls-3" d="M76.76,72.76c-.26,0-.47.31-.47.68v1.54h.93v-1.56c0-.37-.2-.66-.46-.66h0Z"/>
                  <path id="path11868" class="cls-3" d="M75.35,72.76c-.21,0-.38.31-.38.68v1.54h.75v-1.56c0-.37-.16-.66-.37-.66h0Z"/>
                  <path id="path11870" class="cls-3" d="M78.33,72.76c.26,0,.47.31.47.68v1.54h-.93v-1.56c0-.37.2-.66.46-.66h0Z"/>
                  <path id="path11872" class="cls-3" d="M79.73,72.76c.21,0,.38.31.38.68v1.54h-.75v-1.56c0-.37.16-.66.37-.66h0Z"/>
                </g>
                <g id="g11874">
                  <path id="path11876" class="cls-3" d="M77.22,64.3v1.3h-.93v-1.3l.46-.89.46.89Z"/>
                  <path id="path11878" class="cls-3" d="M75.73,64.3v1.3h-.75v-1.3l.37-.89.37.89Z"/>
                  <path id="path11880" class="cls-3" d="M77.86,64.3v1.3h.93v-1.3l-.46-.89-.46.89Z"/>
                  <path id="path11882" class="cls-3" d="M79.36,64.3v1.3h.75v-1.3l-.37-.89-.37.89Z"/>
                </g>
              </g>
            </g>
          </g>
          <path id="path4689" class="cls-5" d="M62.65,33.17c-8.45.08-16.9.57-25.35,2.2l-.17,45.63c.07,5.6,4.09,7.52,11.49,9.06,12.42,2.58,12.91,6.22,14.03,7.38,1.12-1.16,1.61-4.8,14.03-7.38,7.4-1.53,11.42-3.46,11.49-9.06l-.17-45.63c-8.45-1.63-16.9-2.12-25.35-2.2ZM59.65,34.95c1,0,1.99,0,2.99.02,7.98-.17,15.95.6,23.93,1.75v42.69c-.07,5.81-2.51,7.41-9.91,8.95-12.42,2.58-12.91,5.21-14.03,6.36-1.12-1.16-1.61-3.79-14.03-6.36-7.4-1.53-9.84-3.14-9.9-8.95v-42.69c6.98-1,13.96-1.72,20.94-1.77Z"/>
          <path id="path12032" class="cls-2" d="M62.65,33.17c-8.45.08-16.9.57-25.35,2.2l-.12,33.28.14.74c.23-5.72,1.58-10.45,4.38-14.01,2.29-2.91,11.79-6.21,15.84-7.31,11.22-3.06,21.68-6.34,30.46-12.36v-.34c-8.45-1.63-16.9-2.12-25.35-2.2Z"/>
        </g>
      </g>
    </g>
  </g>
</svg>