<?xml version="1.0" encoding="UTF-8"?>
<svg id="Calque_2" data-name="Calque 2" xmlns="http://www.w3.org/2000/svg" xmlns:xlink="http://www.w3.org/1999/xlink" viewBox="0 0 126 126">
  <defs>
    <style>
      .cls-1 {
        clip-path: url(#clippath-11);
      }

      .cls-2 {
        clip-path: url(#clippath-2);
      }

      .cls-3 {
        fill: #c2a24e;
      }

      .cls-3, .cls-4, .cls-5, .cls-6, .cls-7 {
        stroke-width: 0px;
      }

      .cls-8 {
        clip-path: url(#clippath-6);
      }

      .cls-4 {
        fill: none;
      }

      .cls-9 {
        clip-path: url(#clippath-7);
      }

      .cls-10 {
        clip-path: url(#clippath-1);
      }

      .cls-11 {
        clip-path: url(#clippath-4);
      }

      .cls-12 {
        clip-path: url(#clippath-12);
      }

      .cls-5 {
        fill: #fff;
      }

      .cls-6 {
        fill: url(#Dégradé_sans_nom_2);
      }

      .cls-13 {
        clip-path: url(#clippath-9);
      }

      .cls-14 {
        clip-path: url(#clippath);
      }

      .cls-15 {
        clip-path: url(#clippath-3);
      }

      .cls-16 {
        clip-path: url(#clippath-8);
      }

      .cls-17 {
        clip-path: url(#clippath-5);
      }

      .cls-18 {
        clip-path: url(#clippath-10);
      }

      .cls-7 {
        fill: url(#Dégradé_sans_nom_6);
      }
    </style>
    <radialGradient id="Dégradé_sans_nom_6" data-name="Dégradé sans nom 6" cx="-308.19" cy="302.8" fx="-308.19" fy="302.8" r="57.03" gradientTransform="translate(79.66 692.25) rotate(44.78) scale(1.6 -1.44)" gradientUnits="userSpaceOnUse">
      <stop offset="0" stop-color="#2277b6"/>
      <stop offset=".1" stop-color="#4086c2"/>
      <stop offset=".22" stop-color="#1b73b3"/>
      <stop offset=".54" stop-color="#124783"/>
      <stop offset=".78" stop-color="#003e73"/>
      <stop offset="1" stop-color="#002448"/>
    </radialGradient>
    <linearGradient id="Dégradé_sans_nom_2" data-name="Dégradé sans nom 2" x1="-116.65" y1="-246.25" x2="-95.75" y2="-208.68" gradientTransform="translate(191.61 352.77) scale(1.25)" gradientUnits="userSpaceOnUse">
      <stop offset="0" stop-color="#dd4b44"/>
      <stop offset=".2" stop-color="#de5448"/>
      <stop offset=".35" stop-color="#db3d39"/>
      <stop offset=".49" stop-color="#cc2c2e"/>
      <stop offset=".75" stop-color="#ae2826"/>
      <stop offset="1" stop-color="#8a211b"/>
    </linearGradient>
    <clipPath id="clippath">
      <rect class="cls-4" x="4" y="4" width="118" height="118"/>
    </clipPath>
    <clipPath id="clippath-1">
      <rect class="cls-4" x="4" y="4" width="118" height="118"/>
    </clipPath>
    <clipPath id="clippath-2">
      <rect class="cls-4" x="4" y="4" width="118" height="118"/>
    </clipPath>
    <clipPath id="clippath-3">
      <rect class="cls-4" x="4" y="4" width="118" height="118"/>
    </clipPath>
    <clipPath id="clippath-4">
      <rect class="cls-4" x="4" y="4" width="118" height="118"/>
    </clipPath>
    <clipPath id="clippath-5">
      <rect class="cls-4" x="4" y="4" width="118" height="118"/>
    </clipPath>
    <clipPath id="clippath-6">
      <rect class="cls-4" x="4" y="4" width="118" height="118"/>
    </clipPath>
    <clipPath id="clippath-7">
      <rect class="cls-4" x="4" y="4" width="118" height="118"/>
    </clipPath>
    <clipPath id="clippath-8">
      <rect class="cls-4" x="4" y="4" width="118" height="118"/>
    </clipPath>
    <clipPath id="clippath-9">
      <rect class="cls-4" x="4" y="4" width="118" height="118"/>
    </clipPath>
    <clipPath id="clippath-10">
      <rect class="cls-4" x="4" y="4" width="118" height="118"/>
    </clipPath>
    <clipPath id="clippath-11">
      <rect class="cls-4" x="4" y="4" width="118" height="118"/>
    </clipPath>
    <clipPath id="clippath-12">
      <rect class="cls-4" x="4" y="4" width="118" height="118"/>
    </clipPath>
  </defs>
  <g id="Calque_1-2" data-name="Calque 1">
    <g>
      <circle class="cls-5" cx="63" cy="63" r="63"/>
      <g>
        <path id="path620" class="cls-7" d="M62.97,5.86C31.53,5.86,5.94,31.45,5.94,62.89s25.58,57.03,57.03,57.03,57.03-25.58,57.03-57.03S94.42,5.86,62.97,5.86"/>
        <path id="path2403" class="cls-5" d="M62.97,9.94c-29.24,0-52.95,23.71-52.95,52.95,0,0,0,0,0,0,0,29.24,23.71,52.95,52.95,52.95h0c29.24,0,52.95-23.71,52.95-52.95h0c0-29.24-23.71-52.95-52.95-52.95,0,0,0,0,0,0ZM62.97,12.03c28.09,0,50.85,22.77,50.85,50.85h0c0,28.09-22.77,50.85-50.85,50.85h0c-28.09,0-50.85-22.77-50.85-50.85,0,0,0,0,0,0,0-28.09,22.77-50.85,50.85-50.85,0,0,0,0,0,0Z"/>
        <path id="path624" class="cls-5" d="M82.25,19.63c-.83-.37-1.66-.71-2.51-1.04l-5.03,12.09c.85.32,1.69.67,2.51,1.05l5.03-12.1Z"/>
        <path id="path626" class="cls-5" d="M62.72,17.93h4.87c1.19,0,2.16.97,2.16,2.16s-.97,2.16-2.16,2.16h-4.87v-4.32ZM62.72,24.57h3.32l2.86,4.53c1.14.2,2.25.47,3.34.78l-3.43-5.47c1.97-.53,3.59-2.26,3.59-4.31,0-2.47-2.34-4.48-4.81-4.48h-7.52v13.03c.87-.07,1.75-.11,2.64-.11h0v-3.97Z"/>
        <path id="path628" class="cls-5" d="M31.16,30.76l3.57-3.92c.81-.88,2.18-.95,3.06-.14.88.8.95,2.17.14,3.05l-3.57,3.92-3.2-2.92ZM39.04,37.94l-2.97-2.7,3.68-4.05c1.67-1.82,1.67-4.76-.16-6.42-1.82-1.67-4.79-1.43-6.46.39l-5.45,6.01,9.51,8.66c.59-.66,1.22-1.28,1.86-1.89"/>
        <path id="path630" class="cls-5" d="M88.69,26.96c1.96-.46,5.56,3.12,6.26,5.54.57-.43,1.85-1.37,1.85-1.37-1.53-4.34-7.59-8.67-10.47-5.96-1.71,1.62-.74,4.1.75,5.67l1.45,1.53c1.48,1.55,2.77,3.1,1.58,4.08-1.26,1.05-4.8-1.58-6.93-6.07l-1.9,1.44c.45,1.18,1.48,2.9,2.86,4.35,1.56,1.64,3.26,2.72,4.79,3.01,1.2.24,2.39.05,3.18-.67,1.96-1.82,1.25-4.48-1.84-7.73l-1.28-1.34c-1.42-1.5-.84-2.35-.29-2.48"/>
        <path id="path632" class="cls-5" d="M47.87,20.67l3.68,4.23c-1.34.39-2.64.85-3.91,1.37M48.43,17.79c-.93.29-1.85.62-2.76.98l-.98,14.85c.88-.54,1.79-1.04,2.72-1.5l.14-3.46c1.79-.79,3.66-1.44,5.58-1.95l2.28,2.62c1-.22,2.02-.39,3.06-.52l-10.04-11.02Z"/>
        <path id="path2691" class="cls-5" d="M62.97,31.66c-17.25,0-31.23,13.98-31.23,31.23h0c0,17.25,13.98,31.23,31.23,31.23h0c17.25,0,31.23-13.98,31.23-31.23,0-17.25-13.98-31.23-31.23-31.23ZM58.84,34.05c-1.33,18.56-9.1,32.3-21.85,41.88-2.05-4.04-3.13-8.51-3.15-13.05,0-14.49,10.65-26.78,25-28.83ZM67.1,34.05c14.35,2.05,25,14.34,25,28.83-.02,4.54-1.1,9-3.15,13.05-12.75-9.58-20.52-23.32-21.85-41.88ZM62.97,72.17c6.8,0,12.32,5.3,12.32,11.83,0,1.83-.43,4.02-1.21,5.75-3.52,1.48-7.3,2.24-11.11,2.26-3.82-.02-7.6-.79-11.12-2.27-.77-1.74-1.21-3.92-1.21-5.75,0-6.53,5.52-11.83,12.32-11.83Z"/>
        <path id="path636" class="cls-6" d="M62.97,33.76c-.89.02-1.78.08-2.67.17-.22,10.97-2.91,20.45-7.45,28.4h20.24c-4.53-7.95-7.23-17.43-7.45-28.4-.89-.1-1.78-.16-2.68-.18ZM52.19,63.47c-3.53,5.85-8.23,11.01-13.54,15.34,2.32,3.55,5.38,6.55,8.98,8.79-.13-.75-.2-1.52-.2-2.31,0-8.03,6.96-14.53,15.54-14.53s15.54,6.5,15.54,14.53c0,.78-.07,1.55-.2,2.3,3.6-2.24,6.66-5.24,8.98-8.79-5.31-4.32-10.01-9.48-13.54-15.33h-21.57Z"/>
        <g id="g1655">
          <g class="cls-14">
            <path id="path468" class="cls-5" d="M32.37,94.32l.57.54,1.69-.82,1.7,1.48-.54,1.83.64.49,1.54-5.4-.61-.53-4.99,2.42ZM35.35,93.7l1.72-.84-.53,1.88-1.2-1.04Z"/>
          </g>
          <g class="cls-10">
            <path id="path490" class="cls-5" d="M37.97,98.97l.6.4,2.8-4.35-.6-.4-2.8,4.35Z"/>
          </g>
          <g class="cls-2">
            <path id="path512" class="cls-5" d="M40.59,100.67l.62.37,1.79-3.49h.01s.87,4.92.87,4.92l.63.29,2.32-4.54-.64-.34-1.77,3.45h-.01s-.87-4.87-.87-4.87l-.64-.34-2.33,4.56Z"/>
          </g>
          <g class="cls-15">
            <path id="path534" class="cls-5" d="M47.97,99.51l1.65.59-1.42,4.18.68.24,1.42-4.18,1.65.59.24-.7-3.99-1.42-.24.7Z"/>
          </g>
          <g class="cls-11">
            <path id="path556" class="cls-5" d="M60.51,104.24c-.03,1.74,1.35,2.7,2.68,2.72,1.25.02,2.25-.58,2.26-1.5l.02-1.36-2.29-.04v.74s1.56.03,1.56.03v.57c-.02.44-.64.84-1.51.82-1.27-.02-2.02-.93-2.01-1.94.02-1.07.8-1.95,2.12-1.92.91.02,1.28.49,1.53.74l.51-.52c-.29-.29-.9-.94-2.1-.96-.02,0-.04,0-.05,0-1.57,0-2.7,1.17-2.73,2.62"/>
          </g>
          <g class="cls-17">
            <path id="path578" class="cls-5" d="M66.92,101.56l.71,5.07,4.17-.61-.1-.73-3.46.51-.22-1.55,1.68-.25-.1-.73-1.68.25-.19-1.33,3.34-.49-.1-.73-4.05.59Z"/>
          </g>
          <g class="cls-8">
            <path id="path600" class="cls-5" d="M75.51,99.68l-2.82.87,1.44,4.9.69-.2-.6-2.06,1.78-.55,1.55,1.75.75-.28-1.56-1.72c.39-.16.99-.71.68-1.77-.22-.74-.75-1.03-1.32-1.03-.2,0-.4.03-.59.09M73.58,101.04l2.13-.66c.4-.12.85-.11,1.01.44.14.48-.07.84-.59,1l-2.13.66-.42-1.45Z"/>
          </g>
          <g class="cls-9">
            <path id="path622-9" class="cls-5" d="M85.67,94.36l1.05,5.51.64-.42-.35-1.85,1.82-1.33,1.55.97.63-.51-4.69-2.84-.65.47ZM86.5,94.88l1.65.99-1.28.93-.37-1.92Z"/>
          </g>
          <g class="cls-16">
            <path id="path644-5" class="cls-5" d="M88.92,91.84l3.4,3.75.54-.49-3.41-3.76-.53.5Z"/>
          </g>
          <g class="cls-13">
            <path id="path666-2" class="cls-5" d="M93.42,87.06l2.82,2.6h0s-4.81-.33-4.81-.33l-.48.55,3.73,3.44.51-.53-2.86-2.64h0s4.86.33,4.86.33l.43-.55-3.71-3.43-.48.55Z"/>
          </g>
          <g class="cls-18">
            <path id="path688" class="cls-5" d="M82.32,96.55l-.11,3.63-2.93-2.04-.64.34,2.19,4.61.65-.3-1.51-3.27h.01s2.9,2.01,2.9,2.01l.11-3.59h.01s1.7,3.18,1.7,3.18l.62-.36-2.37-4.53-.64.34Z"/>
          </g>
          <g class="cls-1">
            <path id="path710" class="cls-5" d="M30.73,86.75c-.24.18-.38.42-.42.71-.07.46.12,1.03.48,1.54l.53.73c.41.56.81,1.16.73,1.62-.03.19-.14.34-.31.45-.09.06-.2.09-.32.09-.72,0-1.95-1.32-2.55-3.21v-.03s-.54.51-.54.51h0s0,.02,0,.02c.12.47.43,1.24.96,1.96.56.76,1.19,1.29,1.78,1.48.19.06.38.1.56.1.26,0,.49-.07.67-.2.29-.22.46-.49.51-.82.09-.6-.22-1.4-.93-2.37l-.47-.64c-.38-.51-.36-.85-.28-1.04.07-.17.22-.28.39-.3.03,0,.05,0,.08,0,.86,0,2.07,1.46,2.39,2.59v.03s.03-.02.03-.02c.18-.1.39-.23.51-.3h.02s0-.03,0-.03c-.41-1.56-1.96-3.1-3.12-3.1-.26,0-.5.08-.7.23"/>
          </g>
          <g class="cls-12">
            <path id="path732" class="cls-5" d="M54.73,103.88l1.78.4.16-.73-1.78-.41-.16.74Z"/>
          </g>
        </g>
        <path id="path642" class="cls-3" d="M64.08,87.35l-1.04-1.2-1.04,1.2-.04.11c.2.41.56.92.98,1.26l.1.05.1-.05c.43-.34.78-.85.99-1.26l-.05-.11"/>
        <path id="path644" class="cls-3" d="M65.08,80.81c0-1.19-1.56-4.9-2.03-4.9l-.12.05c-.57.46-1.91,3.74-1.91,4.85,0,.89,1.79,3.23,1.79,4.5h0l.24.24.24-.24h0c0-1.28,1.79-3.61,1.79-4.5"/>
        <path id="path646" class="cls-3" d="M62.03,85.2c-.84-2.22-2.29-3.43-3.8-3.43-1.14,0-2.06.92-2.06,2.06s1.11,1.87,2.06,2.06c.31.06.66-.13.87-.36.17-.19.34-.52.21-.74-.05-.08-.18,0-.26-.05-.29-.15-.69-.37-.69-.69,0-.33.37-.67.69-.69,1.08-.05,1.87.65,2.52,2.04h0s0,.02,0,.02l.23.14.25-.26-.03-.1"/>
        <path id="path648" class="cls-3" d="M67.79,81.77c-1.51,0-2.96,1.21-3.8,3.43l-.02.1.25.26.23-.14h0s0-.01,0-.01c.64-1.39,1.44-2.1,2.52-2.05.32.02.69.36.69.69,0,.33-.4.54-.69.69-.08.04-.22-.03-.27.05-.14.22.04.55.21.74.21.23.56.42.87.36.95-.19,2.06-.92,2.06-2.06s-.92-2.06-2.06-2.06"/>
      </g>
    </g>
  </g>
</svg>