<?xml version="1.0" encoding="UTF-8"?>
<svg id="Calque_2" data-name="Calque 2" xmlns="http://www.w3.org/2000/svg" viewBox="0 0 125.87 125.87">
  <defs>
    <style>
      .cls-1 {
        fill: #0067a6;
      }

      .cls-1, .cls-2, .cls-3, .cls-4 {
        stroke-width: 0px;
      }

      .cls-2 {
        fill: #999b9e;
      }

      .cls-3 {
        fill: #fff;
      }

      .cls-4 {
        fill: #f79239;
      }
    </style>
  </defs>
  <g id="Calque_1-2" data-name="Calque 1">
    <g>
      <circle class="cls-3" cx="62.93" cy="62.93" r="62.93" transform="translate(-26.07 62.93) rotate(-45)"/>
      <g id="layer1">
        <g id="g3029">
          <path id="path1621" class="cls-3" d="M93.78,62.93c0,17.05-13.83,30.88-30.88,30.88s-30.88-13.83-30.88-30.88,13.83-30.88,30.88-30.88,30.88,13.83,30.88,30.88"/>
          <path id="path1623" class="cls-2" d="M31.31,62.93c0,17.41,14.17,31.58,31.59,31.58s31.57-14.17,31.57-31.58-14.16-31.58-31.57-31.58-31.59,14.17-31.59,31.58ZM32.72,62.93c0-16.64,13.54-30.18,30.18-30.18s30.18,13.54,30.18,30.18-13.54,30.18-30.18,30.18-30.18-13.54-30.18-30.18"/>
          <path id="path1625" class="cls-2" d="M3.93,62.93c0,32.53,26.46,59,59,59s59-26.47,59-59S95.46,3.93,62.93,3.93,3.93,30.4,3.93,62.93"/>
          <path id="path1627" class="cls-3" d="M5.8,62.93C5.8,31.43,31.43,5.8,62.93,5.8s57.13,25.63,57.13,57.13-25.63,57.13-57.13,57.13S5.8,94.44,5.8,62.93"/>
          <path id="path1629" class="cls-1" d="M49.34,93.75l13.62,2.67,31.34-25.08,1.27-14.59-46.24,37"/>
          <path id="path1631" class="cls-3" d="M95.17,56.23l-47.38,37.91,15.35,3.01,31.81-25.46,1.44-16.45-1.23.99h0ZM94.78,58.26c-.21,2.44-1.07,12.25-1.11,12.74-.44.35-30.4,24.32-30.88,24.71-.53-.1-9.67-1.89-11.9-2.33,2.1-1.68,41.62-33.3,43.88-35.11"/>
          <path id="path1633" class="cls-1" d="M93.79,45.03l-55.1,44.09-6.62-8.27,55.1-44.09,6.62,8.27"/>
          <path id="path1635" class="cls-3" d="M86.75,36.23l-55.62,44.51,7.46,9.32,56.15-44.93-7.46-9.32-.53.42h0ZM87.07,37.7c.68.86,5.09,6.37,5.78,7.23-1.02.81-53.02,42.43-54.05,43.25-.68-.86-5.09-6.37-5.78-7.23,1.02-.81,53.03-42.43,54.05-43.25"/>
          <path id="path1637" class="cls-1" d="M77.54,31.49c-4.6-1.79-9.02-3-12.27-3.75l-37.39,29.92.87.86v12.02l48.79-39.04"/>
          <path id="path1639" class="cls-3" d="M64.85,27.21l-37.98,30.39s.96.96,1.2,1.19v13.15l50.8-40.65-1.09-.42c-4.79-1.86-9.36-3.09-12.36-3.78l-.32-.08-.25.2h0ZM65.43,28.47c2.71.64,6.61,1.7,10.76,3.24-1.74,1.39-44.73,35.79-46.78,37.43v-10.9l-.53-.53c1.13-.9,36.05-28.84,36.55-29.24"/>
          <path id="path1641" class="cls-4" d="M24.14,62.93c0,21.39,17.4,38.79,38.79,38.79s38.78-17.4,38.78-38.79-17.4-38.79-38.78-38.79S24.14,41.54,24.14,62.93ZM32.56,62.93c0-16.75,13.62-30.38,30.38-30.38s30.38,13.62,30.38,30.38-13.63,30.38-30.38,30.38-30.38-13.62-30.38-30.38"/>
          <path id="path1643" class="cls-2" d="M31.35,62.93c0,17.41,14.17,31.58,31.58,31.58s31.58-14.17,31.58-31.58-14.17-31.58-31.58-31.58-31.58,14.17-31.58,31.58ZM32.75,62.93c0-16.64,13.54-30.18,30.18-30.18s30.18,13.54,30.18,30.18-13.54,30.18-30.18,30.18-30.18-13.54-30.18-30.18"/>
          <path id="path1645" class="cls-2" d="M22.9,62.93c0,22.07,17.96,40.02,40.03,40.02s40.02-17.96,40.02-40.02-17.96-40.02-40.02-40.02S22.9,40.86,22.9,62.93ZM24.31,62.93c0-21.3,17.32-38.63,38.63-38.63s38.62,17.33,38.62,38.63-17.32,38.63-38.62,38.63-38.63-17.33-38.63-38.63"/>
          <path id="path1647" class="cls-1" d="M15.35,89.76q-.41.07-.54-.13c-.03-.05-.14-.23-.21-.37-.3-.49-.48-.78-.74-1.2-.17-.25-.4-.6-.57-.83-.08-.14-.2-.29-.23-.34-.18-.28-.17-.48.04-.61.2-.13.41,0,.71.38.36.47.63.49,1.33,0l5.61-3.8c.98-.66,1.03-.8.62-1.63-.12-.25-.11-.44.07-.55.2-.12.43,0,.66.35.02.03.11.18.17.3.51.91.9,1.59,1.13,1.95.24.39.58.86.94,1.34.09.14.2.29.25.35.17.27.15.48-.02.6-.24.15-.37.08-.79-.44-.36-.45-.66-.47-1.24-.08l-5.48,3.61,6.86-1.19c.3-.06.6-.12.92-.18.81-.2.91-.19,1.12.14.12.2.11.36-.05.6l-4.79,6.87,4.05-2.36c.37-.21.83-.49,1.28-.77.79-.5.94-.89.6-1.49-.34-.56-.35-.73-.11-.89.19-.12.4-.03.58.25.03.05.11.21.18.35.14.28.32.6.51.9.22.35.44.66.67.94.12.15.24.32.28.39.15.24.14.42-.03.53-.21.13-.32.07-.73-.38-.37-.41-.6-.41-1.3,0l-5.87,3.3c-.15.08-.29.17-.48.28l-.24.15c-.39.25-.42.44-.12.96.27.47.28.67.06.81-.21.14-.41.03-.63-.31l-.89-1.49c-.19-.31-.59-.9-.74-1.11l-.09-.15c-.12-.19-.12-.25.03-.47l3.97-5.71-6.73,1.14"/>
          <path id="path1649" class="cls-1" d="M13.29,78.88c-.44-1.4.94-3.05,3.13-3.74,1.96-.62,3.59-.21,3.98,1.01.44,1.39-.97,3.07-3.15,3.76-1.95.61-3.58.19-3.96-1.03ZM12.82,78.94c.76,2.4,3.18,3.74,5.48,3.01,1.19-.38,2.2-1.33,2.58-2.45.33-.97.33-2.3,0-3.36-.77-2.43-3.17-3.79-5.45-3.06-2.3.72-3.42,3.26-2.6,5.87"/>
          <path id="path1651" class="cls-1" d="M12.21,65.18c-.96.09-1.03.17-1.09,1.2,0,.14-.09.23-.22.24-.19.02-.3-.12-.33-.41,0-.05-.02-.17-.02-.28-.02-.47-.03-.77-.07-1.03-.02-.19-.05-.44-.09-.64-.03-.15-.06-.3-.07-.37-.02-.24.07-.37.24-.39.21-.02.28.09.41.62.1.44.3.52,1.03.45l6.47-.64c.37-.03.45,0,.48.31.02.21-.05.36-.33.62l-6.03,5.85,4.45-.44c.86-.09,1.14-.17,1.33-.35.14-.16.14-.15.16-.88,0-.18.11-.33.26-.34.15-.02.27.12.29.35,0,.05,0,.16,0,.25,0,.33,0,.62.06,1.08.02.28.07.58.11.8.04.14.07.3.07.36.02.21-.06.35-.23.37-.19.02-.28-.11-.34-.52-.09-.54-.38-.62-1.82-.48l-3.42.34c-1.41.17-1.04.12-1.13.15-.58.08-.71.22-.71.63.02.41-.05.53-.25.55-.17.02-.27-.11-.3-.4l-.09-1.21-.12-1.12c-.03-.41-.03-.46.24-.72l4.37-4.28-3.32.33"/>
          <path id="path1653" class="cls-1" d="M17.33,58.16c.89.07.97.02,1.19-.86.03-.14.13-.22.25-.21.18,0,.26.13.24.34v.07c-.03.19-.02.08-.06.38v.11s-.01.1-.01.1l-.02.09v.11c-.06.35-.09.68-.13,1.13-.04.41-.04.68-.07,1.23v.09s-.01.11-.01.11v.12s0,.11,0,.11c0,.09,0,.18,0,.22,0,.21-.11.31-.29.3-.17-.02-.19-.04-.25-.56-.05-.53-.24-.67-1-.73l-5.79-.47c-.19-.02-.22.02-.25.35-.06.77.13,1.13.91,1.78.29.23.42.41.41.56,0,.13-.14.23-.28.22-.04,0-.1-.02-.16-.03l-1.76-.66c-.19-.07-.28-.18-.27-.33,0-.14.08-.21.22-.25.28-.07.31-.09.34-.39l.4-4.95c.04-.47-.02-.64-.28-.83-.18-.14-.24-.21-.23-.35.02-.17.14-.24.34-.21l1.96.37c.27.06.37.14.35.32,0,.15-.14.27-.42.35-1.09.34-1.22.5-1.3,1.54-.02.27,0,.33.19.34l5.8.47"/>
          <path id="path1655" class="cls-1" d="M13.75,51.06c-1.11-.28-1.32-.48-1.16-1.1.2-.83,1.14-1.29,2.11-1.04,1.09.27,1.63,1,1.41,1.88-.14.55-.35.77-.7.68l-1.66-.41h0ZM16.47,51.74c-.14-.04-.18-.09-.15-.21.03-.1.11-.27.21-.43.31-.5.48-.85.57-1.25.34-1.32-.5-2.69-1.85-3.03-1.43-.35-2.55.51-3,2.34-.08.3-.19.84-.27,1.33-.12.6-.21,1.09-.27,1.31-.07.27-.12.47-.26.95-.13.41-.15.48-.16.53-.03.08-.05.16-.07.21-.05.2,0,.33.18.37.12.03.22-.03.28-.17.37-.82.45-.86,1.31-.65l4.84,1.22c.74.19.9.35.87.89-.03.5-.02.54.15.59.18.04.29-.05.34-.24.01-.03.03-.12.04-.22l.03-.11.02-.12.03-.11.02-.09c.11-.54.16-.8.25-1.18.11-.42.19-.73.3-1.06l.02-.11.04-.09.02-.09.03-.11c.08-.29.05-.17.11-.36l.02-.07c.05-.2,0-.32-.18-.37-.12-.03-.22.03-.28.17-.37.82-.45.86-1.32.65l-1.89-.48"/>
          <path id="path1657" class="cls-1" d="M20.61,44.67c.88.39,1.35.22,1.7-.57.39-.89.3-1.73-.27-2.4-.25-.31-.31-.45-.23-.63.07-.14.2-.19.35-.12.11.05.33.18.54.34.21.16.48.33.91.56.17.08.19.15.13.28-.02.06-.12.24-.19.4-.22.46-.53,1.11-.9,1.96-.33.76-.78,1.79-.94,2.17-.24.54-.15.35-.53,1.32-.02.09-.06.17-.08.21-.08.19-.21.25-.37.18-.15-.07-.17-.11-.05-.61.12-.52,0-.71-.71-1.01l-4.57-2.01c-.81-.35-.9-.34-1.4.42-.08.12-.19.17-.3.12-.17-.07-.2-.21-.12-.4l.03-.07.04-.07.03-.06.04-.1.06-.11.05-.1.03-.09.06-.09.03-.09c.18-.35.32-.66.6-1.29.2-.46.44-1.02.58-1.38.94-2.37.66-1.65.9-2.3l.04-.09c.06-.15.14-.18.29-.11l.42.2.77.31c.34.14.38.22.3.42-.06.13-.16.18-.5.23-.82.12-1.21.4-1.52,1.1-.47,1.06-.47,1.18,0,1.38l1.78.78c.32.14.46.11.56-.12.55-1.27.55-1.48.04-1.94-.26-.22-.34-.38-.27-.53.06-.15.24-.2.41-.11l1.12.56.99.38c.21.09.28.23.22.39-.07.15-.2.21-.47.2-.7-.04-1.05.12-1.25.57l-.08.23c-.32.81-.32.78.05.95l1.7.74"/>
          <path id="path1659" class="cls-1" d="M19,37.25c-.74-.48-.84-.47-1.45.19-.1.11-.22.14-.32.07-.15-.1-.17-.24-.05-.41,0,0,.03-.05.09-.12l.04-.07.06-.09.07-.09.06-.09.05-.08.07-.07.06-.09c.19-.27.39-.56.61-.9.25-.39.38-.61.66-1.09l.05-.08.06-.09.05-.11.06-.09c.04-.09.09-.16.11-.19.11-.18.24-.22.4-.12.14.09.14.14-.05.61-.2.49-.1.7.54,1.12l4.1,2.64c.71.45,1.17.38,1.57-.23.5-.77.5-1.5.04-2.37-.16-.28-.18-.42-.09-.55.09-.13.21-.15.34-.07.17.11.44.32.68.57.21.19.38.35.55.47.21.17.22.23.09.44l-.08.12c-.24.34-.21.3-.62.87-.31.44-.63.91-1.12,1.67-.46.71-.83,1.3-1.23,1.98-.15.25-.19.34-.21.38-.04.08-.08.15-.11.19-.11.18-.24.22-.4.12-.14-.09-.14-.14.05-.61.2-.5.1-.7-.54-1.12l-4.2-2.71"/>
          <path id="path1661" class="cls-1" d="M23.45,30.85c-.66-.59-.76-.59-1.46-.03-.12.09-.24.1-.32.02-.14-.12-.13-.26,0-.41,0,0,.04-.05.11-.1l.05-.06.08-.08.09-.08.07-.08.07-.08.08-.06.07-.08c.22-.24.47-.5.74-.8.31-.34.47-.54.82-.98l.07-.07.07-.08.07-.1.07-.08c.06-.08.11-.15.14-.17.14-.16.28-.18.41-.06.12.12.12.16-.14.6-.28.45-.21.68.36,1.19l3.65,3.24c.63.55,1.1.55,1.59,0,.6-.68.73-1.4.4-2.34-.11-.3-.11-.44,0-.56.11-.12.22-.12.34-.02.14.13.38.39.59.67.18.22.32.41.47.55.18.19.19.27.03.45l-.1.11c-.28.3-.25.27-.74.77-.38.39-.76.81-1.36,1.48-.57.63-1.01,1.16-1.52,1.78-.18.22-.24.31-.27.34-.05.07-.1.14-.14.17-.14.15-.27.18-.41.06-.13-.11-.12-.15.14-.6.27-.45.21-.67-.37-1.18l-3.74-3.32"/>
          <path id="path1663" class="cls-1" d="M33.66,27.65c.58.67.67.68,1.45.22.13-.08.25-.07.33.02.12.14.09.27-.07.41l-.05.05c-.16.12-.07.04-.3.23l-.08.07-.08.07-.08.05-.08.07c-.25.2-.54.44-.81.68-.46.4-.48.41-1.28,1.18-.07.07-.13.12-.16.15-.15.14-.29.15-.41,0-.11-.13-.1-.17.21-.57.33-.42.3-.64-.21-1.22l-3.28-3.76c-.58-.67-.67-.68-1.45-.22-.13.08-.25.07-.32-.02-.12-.14-.09-.27.06-.41,0,0,.05-.04.12-.09l.05-.05.08-.07.1-.07.08-.07.08-.06.08-.05.08-.07c.24-.19.54-.44.78-.66q.48-.42,1.3-1.2c.07-.08.13-.13.16-.15.15-.14.3-.15.41,0,.11.13.1.17-.21.57-.33.41-.3.64.21,1.22l3.28,3.77"/>
          <path id="path1665" class="cls-1" d="M37.41,24.56c.53.8,1.01.92,1.73.45.81-.54,1.19-1.29,1.08-2.17-.04-.4,0-.54.15-.65.13-.09.27-.05.36.08.07.1.18.33.27.58.09.25.22.54.46.96.09.16.08.23-.05.31-.05.03-.23.14-.37.24-.44.26-1.04.64-1.82,1.15-.69.45-1.63,1.07-1.97,1.31-.49.32-.31.21-1.16.82-.07.07-.14.11-.18.13-.17.12-.31.11-.41-.05-.09-.14-.09-.18.28-.54.38-.37.38-.6-.04-1.24l-2.74-4.17c-.49-.74-.57-.77-1.41-.41-.13.06-.25.03-.32-.07-.1-.15-.05-.28.12-.4l.06-.04.07-.03.06-.04.09-.06.11-.06.09-.06.08-.05.1-.05.08-.05c.34-.19.62-.38,1.2-.76.42-.28.92-.62,1.23-.84,2.08-1.48,1.45-1.03,2.01-1.44l.08-.05c.14-.08.22-.07.31.07l.25.4.48.68c.2.31.19.39,0,.51-.12.08-.23.07-.54-.08-.76-.35-1.23-.32-1.87.09-.96.64-1.03.74-.75,1.16l1.07,1.62c.19.3.32.34.54.2,1.16-.76,1.27-.94,1.09-1.6-.1-.32-.08-.5.07-.59.14-.09.31-.04.4.13l.64,1.07.62.86c.13.19.11.35-.03.44-.14.09-.28.08-.51-.08-.57-.42-.94-.47-1.35-.2l-.2.14c-.71.51-.7.49-.47.82l1.02,1.55"/>
          <path id="path1667" class="cls-1" d="M41.87,16.24c-.21-.49-.12-.71.35-.92.73-.31,1.59.09,1.94.91.39.9,0,1.75-.96,2.17-.3.13-.37.1-.52-.25l-.82-1.91h0ZM39.42,15.98l-.11.03-.09.04-.1.04-.12.04-.09.04-.07.03c-.08.02-.14.05-.14.05-.19.08-.26.2-.19.37.05.11.16.16.31.12.87-.21.96-.17,1.31.65l1.97,4.59c.31.7.27.93-.17,1.23-.42.28-.44.32-.38.48.07.17.21.2.4.12.03,0,.11-.05.19-.09l.1-.05.11-.05.1-.05.09-.04c.48-.24.72-.35,1.04-.49.41-.18.68-.3,1.03-.42l.1-.04.09-.02.09-.04.1-.04c.28-.11.17-.06.35-.13l.06-.03c.19-.08.26-.2.19-.37-.05-.11-.16-.16-.31-.12-.87.21-.96.17-1.31-.65l-.82-1.91c-.09-.21-.08-.27.1-.35.37-.16.56-.08,1.27.51l2.29,1.95c.2.18.27.19.47.1.03,0,.09-.03.15-.08.12-.07.28-.15.48-.25.17-.08.28-.14.31-.14l1.11-.41c.17-.07.25-.22.19-.36-.06-.14-.16-.19-.37-.14-.43.09-.51.06-1.04-.38l-1.69-1.42c-.58-.49-.96-.58-1.59-.43,1.29-.78,1.7-1.64,1.26-2.66-.5-1.15-1.65-1.51-3-.93-.3.13-.74.34-1.2.57-.58.31-1.12.56-1.43.7-.39.17-.59.25-.96.38l-.09.04"/>
          <path id="path1669" class="cls-1" d="M59.46,12.69c.3-.03.34-.1.31-.43l-.22-2.11c-.12-1.15-.19-1.24-1.36-1.33-.19-.03-.32-.11-.34-.28-.02-.22.11-.35.38-.38,0,0,.08,0,.19,0l.24-.02h.14l.16-.02h.12s.13,0,.13,0h.13c.46-.03.87-.07,1.5-.13.5-.05.87-.11,1.56-.21h.12s.15-.03.15-.03l.15-.03h.14c.12-.04.24-.05.28-.06.27-.03.42.07.44.29.03.24-.02.27-.66.45-.68.19-.8.46-.7,1.48l.67,6.5c.12,1.15.19,1.24,1.39,1.33.19,0,.31.11.33.28.02.22-.11.35-.38.38h-.09c-.25.01-.28.02-1.03.06-.38.02-.9.06-1.28.1-.9.09-.89.09-2.35.31-.11.02-.22.03-.27.04-.27.03-.42-.07-.44-.29-.02-.24,0-.27.66-.47.67-.2.78-.45.68-1.46l-.28-2.71c-.07-.49-.08-.5-.35-.48l-3.38.35c-.44.05-.45.07-.41.47l.29,2.8c.12,1.16.19,1.23,1.36,1.33.19,0,.31.11.33.28.02.22-.11.35-.37.38h-.1c-.25.01-.27.01-1.01.06-.41.02-.89.06-1.36.11-.79.08-.85.09-2.27.3-.13.03-.24.04-.28.05-.27.03-.42-.07-.45-.29-.02-.24.02-.28.66-.47.67-.2.8-.45.7-1.46l-.67-6.5c-.12-1.15-.19-1.24-1.38-1.33-.21-.02-.31-.11-.34-.3-.02-.19.13-.33.38-.36,0,0,.08,0,.19,0h.09s.14-.02.14-.02h.16l.14-.02h.13s.12,0,.12,0h.15c.41-.04.9-.07,1.37-.12.79-.08.84-.08,2.25-.3.11-.02.22-.03.27-.04.27-.03.42.07.45.29.02.24,0,.27-.66.45-.67.2-.78.47-.68,1.48l.22,2.1c.03.31.12.38.45.35l3.38-.35"/>
          <path id="path1671" class="cls-1" d="M69.11,13.01c.53.06.84.45.77.99-.07.64-.41.74-1.96.57-.38-.04-.47-.11-.45-.3.08-.73.89-1.35,1.64-1.26ZM71.02,15.41c.44.05.62-.08.66-.42.13-1.19-1.06-2.28-2.71-2.46-1.98-.22-3.74,1.04-3.93,2.84-.21,1.84,1.2,3.51,3.16,3.73.95.11,1.89-.14,2.66-.66.26-.18.41-.35.42-.49,0-.11-.09-.22-.19-.22-.1,0-.18.03-.4.15-.54.32-.96.42-1.45.37-1.3-.15-2.19-1.42-2.02-2.91.03-.28.1-.34.34-.31l3.46.39h0ZM68.13,11.73c.05.07.06.08.09.08.03,0,.08,0,.24-.07l2.72-1.19c.16-.06.23-.11.24-.19,0-.03,0-.08-.04-.16l-.27-.45c-.07-.12-.07-.13-.14-.14-.05,0-.13.02-.25.11l-2.5,1.59c-.19.12-.19.11-.19.15t.05.13l.06.14"/>
          <path id="path1673" class="cls-1" d="M73.18,15.91c.18-.7.1-.9-.42-1.08-.23-.07-.31-.15-.27-.3q.04-.17.75-.2c.4,0,1.31-.28,1.85-.54.3-.15.4-.17.52-.14.11.03.14.11.1.26l-.22.86c-.03.15-.04.21,0,.22,0,0,.06,0,.09-.04.55-.43,1.39-.64,1.95-.5.63.16,1.03.73.89,1.28-.15.6-.75.94-1.36.78-.35-.09-.58-.29-.76-.68-.16-.3-.22-.4-.34-.42-.15-.03-.35.08-.49.28-.17.26-.25.48-.44,1.2l-.42,1.62c-.24.94-.24.96.47,1.31.2.09.27.21.23.36-.03.16-.19.21-.47.14-.03-.01-.14-.04-.22-.07-.6-.18-1.13-.33-1.42-.41-.26-.06-.83-.2-1.4-.32-.09,0-.19-.04-.24-.05-.27-.07-.38-.19-.34-.35.03-.14.16-.22.38-.2.78.05.8.02,1.04-.91l.54-2.1"/>
          <path id="path1675" class="cls-1" d="M81.38,20.04c-.18.43-.35.67-.54.78-.29.17-.73.19-1.04.06-.37-.15-.52-.6-.34-1.01.15-.37.44-.58.94-.69.48-.1,1.18-.17,1.29-.13.06.02.07.09.03.2l-.33.79h0ZM82.07,18.38q-.05.12-.57.15h-.36s-.38.03-.38.03h-.36c-.59.04-1.04.07-1.38.1-.77.09-1.28.42-1.53,1.03-.3.72.02,1.47.77,1.78.34.14.71.2,1.13.19.39-.02.48-.05,1.37-.32.04,0,.07,0,.09,0,.03,0,.06.05.06.12l.03.42c0,.07.02.15.03.21.09.28.3.5.63.64.45.19,1.01.18,1.62-.02.3-.1.47-.22.52-.34.05-.11,0-.22-.09-.26-.03-.02-.1-.03-.15,0-.5.08-.45.08-.57.02-.21-.1-.22-.3-.02-.76l1.28-3.07c.37-.89-.12-1.56-1.55-2.16-.86-.36-1.84-.45-2.61-.25-.55.15-1.15.54-1.27.83-.08.18.02.37.24.45.28.11.76.18,1.17.17.32-.02.47-.09.81-.43.44-.42.86-.57,1.22-.42.41.17.45.53.16,1.23l-.28.67"/>
          <path id="path1677" class="cls-1" d="M85.98,19.81c.51-.83.51-.85-.06-1.39-.17-.15-.19-.28-.12-.41.09-.14.25-.14.49,0,.02,0,.11.06.19.14l.26.16.11.09c.37.24.66.44.8.53l.4.25c.12.06.3.17.31.18.19.12.19.15,0,.46l-1.91,3.07c-.45.73-.41,1.29.12,1.62.29.18.76.24,1.13.15.23-.05.32-.13.52-.45l1.34-2.16c.51-.82.51-.85-.06-1.39-.17-.15-.21-.29-.12-.42.08-.14.25-.14.48,0,.02,0,.12.07.2.14l.13.08.12.09.13.08c.3.2.54.37.57.38.17.11.33.21.69.42l.29.18c.15.09.16.13.02.35l-2.12,3.41c-.4.65-.41.76.03,1.1.15.12.18.22.11.32-.08.14-.24.13-.7-.05-.4-.15-.89-.29-1.45-.42-.44-.09-.48-.11-.56-.15-.12-.07-.12-.14-.03-.28l.29-.46c.07-.12.08-.21,0-.24-.06-.04,0-.04-.52,0-.73.05-1.39-.09-1.9-.41-1.04-.65-1.23-1.72-.52-2.87l1.3-2.1"/>
          <path id="path1679" class="cls-1" d="M92.73,27.98c-.61.76-.61.77-.12,1.39.14.17.16.31.07.42-.11.12-.27.11-.48-.07-.03-.02-.12-.09-.18-.16-.47-.42-.89-.77-1.15-.99-.18-.15-.66-.53-1.11-.86-.08-.05-.17-.12-.19-.14-.21-.18-.27-.34-.16-.46.09-.12.24-.13.42-.03.69.37.72.36,1.33-.39l3.61-4.42c.45-.56.45-.67,0-1.22-.11-.12-.12-.23-.03-.34.11-.14.26-.1.73.17.61.36.93.5,1.89.78.09.02.14.05.18.08.11.09.08.24-.06.41l-4.74,5.81"/>
          <path id="path1681" class="cls-1" d="M96.41,26.78c.3-.31.33-.41.18-.55l-.3-.29c-.17-.16-.21-.3-.12-.38.09-.09.26-.06.55.05.81.34,1.63.41,2.32.21.37-.11.53-.11.64,0,.14.14.14.24-.04.42l-.73.75c-.22.22-.24.36-.07.53l.7.68c.2.19.2.25.02.43-.19.2-.29.21-.45.05l-.64-.63c-.2-.19-.29-.19-.5.02l-1.79,1.84c-.83.85-1.02,1.32-.68,1.65.1.09.3.18.5.22.33.06.36.07.41.12.06.07.06.19,0,.25-.11.11-.41.17-.78.14-.59-.05-1.2-.31-1.62-.72-.78-.76-.73-1.6.15-2.51l2.24-2.3"/>
          <path id="path1683" class="cls-1" d="M108.2,36.03c-.24.17-.42.15-.55-.05-.12-.18-.09-.36.14-.65.81-1.07.94-1.89.42-2.65-.6-.88-1.65-1.2-2.34-.73-.46.31-.62.78-.49,1.54.03.14.06.25.09.38l.12.44.14.42.11.42c.54,1.89.18,3.33-1.06,4.18-1.84,1.25-4.27.6-5.72-1.55-.67-.99-1.24-2.5-1.15-3.08.02-.14.08-.22.34-.42.11-.09.18-.14.52-.37.27-.2.42-.31.49-.35.62-.42.82-.46.99-.21.09.15.08.33-.06.54-.04.08.13-.15-.55.7-.69.86-.7,1.78,0,2.8.76,1.12,1.94,1.49,2.79.91.58-.39.77-.9.7-1.78-.03-.25-.09-.52-.3-1.57-.48-2.32-.27-3.45.81-4.18,1.55-1.06,3.94-.28,5.32,1.74.41.61.84,1.63.87,2.1,0,.22-.05.34-.31.51l-1.31.89"/>
          <path id="path1685" class="cls-1" d="M106.96,42.32c.31-.14.5-.18.66-.14.3.08.59.33.73.66.37.83-.34,1.95-1.58,2.5-1.37.61-2.6.4-3-.5-.28-.62-.02-1.09.84-1.46l2.35-1.05ZM102.86,44.15c.18-.08.26-.07.3.03.02.04.03.06.03.1.08.57.15.83.32,1.22.76,1.71,2.71,2.45,4.43,1.69,1.58-.7,2.3-2.42,1.65-3.89-.19-.41-.41-.69-.74-.9-.78-.5-.74-.47-.77-.53-.03-.08.02-.14.19-.22l.63-.28c.14-.07.19-.14.14-.25-.05-.11-.09-.12-.49-.27-.44-.15-1.03-.62-1.46-1.16-.5-.62-.48-.6-.65-.53-.12.05-.15.17-.1.3.24.75.2.82-.56,1.16l-4.87,2.17c-.73.32-.97.3-1.27-.17-.3-.43-.33-.46-.5-.38-.17.08-.21.22-.12.41,0,.03.05.12.1.2l.05.11.06.11.05.1.04.09c.26.52.37.73.53,1.09.15.32.27.64.4.96l.04.1.03.1.04.09.05.11.04.12.05.11.03.07c.02.08.05.14.05.14.09.19.22.27.39.19.12-.05.16-.17.12-.32-.22-.91-.18-1,.66-1.37l1.1-.5"/>
          <path id="path1687" class="cls-1" d="M111.71,50.63c.24.97-.85,2.02-2.54,2.44-1.53.38-2.68.07-2.9-.79-.24-.94.96-2.06,2.67-2.48,1.38-.34,2.56.02,2.77.83h0ZM112.22,50.73c-.53-2.13-2.35-3.4-4.22-2.93-1.75.44-2.74,2.34-2.24,4.35.53,2.13,2.38,3.41,4.24,2.95,1.72-.43,2.71-2.38,2.22-4.37"/>
          <path id="path1689" class="cls-1" d="M110.65,56.68c.72-.06.88-.21.87-.77,0-.24.05-.34.19-.36q.18,0,.44.64c.15.37.71,1.14,1.13,1.56.24.23.3.32.31.44,0,.11-.06.17-.21.18l-.88.08c-.15,0-.21.03-.21.08,0,0,.03.05.07.06.59.38,1.07,1.1,1.13,1.68.06.64-.34,1.21-.91,1.26-.61.06-1.14-.39-1.2-1.01-.03-.37.08-.64.38-.95.23-.25.3-.34.29-.45-.02-.15-.19-.3-.42-.37-.3-.08-.54-.08-1.29,0l-1.67.15c-.97.09-.98.1-1.07.89-.02.22-.11.32-.27.34-.16,0-.26-.12-.28-.4,0-.03-.02-.15,0-.24-.03-.61-.07-1.17-.1-1.47-.02-.27-.09-.86-.17-1.43-.02-.08-.03-.19-.03-.24-.02-.28.05-.42.21-.44.15,0,.26.08.32.29.22.75.25.76,1.22.67l2.16-.19"/>
          <path id="path1691" class="cls-1" d="M112.21,63.03c.43,0,.52-.03.53-.24v-.42c.01-.22.08-.35.21-.35.12,0,.22.15.32.44.31.83.81,1.47,1.43,1.84.34.2.44.31.43.48,0,.2-.08.27-.34.26l-1.04-.03c-.32,0-.44.07-.44.3l-.02.99c0,.28-.05.31-.3.31-.28,0-.35-.07-.34-.3l.02-.9c0-.28-.05-.34-.34-.35l-2.57-.07c-1.19-.03-1.66.15-1.67.61,0,.14.07.34.17.52.18.28.19.31.19.38,0,.09-.09.18-.18.18-.15,0-.4-.19-.63-.47-.37-.47-.59-1.1-.57-1.69.03-1.08.69-1.62,1.95-1.59l3.2.09"/>
          <path id="path1693" class="cls-1" d="M105.87,79.43c-.44-.14-.57-.27-.71-.67-.29-.91-.28-2.17.04-3.42.35-1.39,1-2.63,1.81-3.52,1.27-1.36,3.36-1.99,5.17-1.53,3.1.8,4.72,4.3,3.74,8.13-.2.78-.71,1.98-1.07,2.51-.16.22-.27.28-.5.27l-1.32-.12c-.13-.02-.21-.02-.25-.03-.17-.05-.28-.24-.24-.41.05-.18.23-.32.63-.48,1.32-.48,1.82-.96,2.09-2.02.54-2.12-1.02-4.15-3.76-4.85-2.73-.7-5.13.32-5.67,2.42-.31,1.2.08,2.15,1.39,3.34.23.21.3.34.25.51-.06.23-.26.31-.5.23l-1.09-.35"/>
          <path id="path1695" class="cls-1" d="M104.64,82.18c-.89-.39-.91-.38-1.36.26-.12.18-.25.24-.4.17-.15-.07-.17-.22-.07-.48.02-.03.07-.14.11-.22.27-.57.5-1.06.64-1.37.09-.21.32-.78.53-1.3.02-.08.07-.19.08-.22.11-.25.25-.35.4-.28.14.06.19.19.14.4-.17.77-.15.79.74,1.18l5.23,2.27c.66.29.77.25,1.17-.32.09-.14.19-.18.31-.12.17.07.17.22.03.74-.18.69-.22,1.03-.24,2.04,0,.08,0,.15-.03.19-.05.12-.2.15-.41.05l-6.89-3"/>
          <path id="path1697" class="cls-1" d="M106.4,85.31c.83.5.86.5,1.39-.08.14-.17.28-.2.41-.12.14.08.14.25,0,.49,0,.02-.07.11-.13.19l-.16.26-.08.11c-.24.38-.43.67-.51.81l-.24.4c-.06.13-.17.3-.18.32-.12.19-.14.19-.45,0l-3.1-1.85c-.74-.44-1.29-.4-1.62.15-.18.29-.24.76-.14,1.14.06.22.14.31.46.51l2.18,1.3c.83.5.86.5,1.39-.08.15-.18.28-.21.41-.14.14.09.15.25,0,.49,0,.02-.07.12-.14.2l-.08.13-.09.12-.08.13c-.2.31-.36.55-.38.57-.1.18-.2.34-.4.7l-.18.29c-.09.15-.12.17-.35.02l-3.44-2.06c-.66-.4-.76-.4-1.1.04-.12.15-.21.18-.32.12-.14-.08-.13-.24.04-.7.14-.41.27-.9.4-1.46.09-.43.1-.48.15-.55.07-.12.14-.13.28-.03l.47.28c.12.07.21.08.24,0,.04-.07.04,0,0-.52-.07-.73.07-1.39.38-1.91.63-1.05,1.7-1.26,2.86-.57l2.12,1.27"/>
          <path id="path1699" class="cls-1" d="M100.69,94.14c.27.23.29.25.3.37.02.22-.1.54-.31.78-.67.77-2.04.64-3.12-.3-1.09-.94-1.45-2.22-.81-2.96.21-.24.48-.37.79-.35.28,0,.45.11,1.09.67l2.06,1.78h0ZM103.97,96.97c.32.28.4.31.51.16.08-.09.09-.14.24-.53.3-.85.42-1.11.73-1.59.24-.37.28-.53.16-.63-.09-.08-.2-.08-.35.06-.5.44-.59.44-1.09,0l-5.02-4.33c-.25-.22-.45-.41-.54-.51-.07-.08-.12-.15-.17-.18-.11-.1-.27-.1-.35,0-.06.08-.06.18.02.37.19.48.24.65.17.73-.02.03-.07.06-.12.08-1.06.41-1.29.57-1.79,1.14-1.43,1.65-1.42,3.88,0,5.12,1.33,1.14,3.18,1.03,4.3-.27q.28-.32.5-1.07c.08-.27.15-.45.15-.5,0-.07.02-.13.06-.17q.05-.06.25.12l2.3,1.99"/>
          <path id="path1701" class="cls-1" d="M52.7,114.1c-.26,1.03-.18,1.23.63,1.42.5.13.67.28.6.49-.07.2-.25.26-.58.18-.05,0-.22-.07-.36-.12-.7-.25-1.41-.47-2.12-.65-.63-.17-1.19-.28-1.7-.37-.13-.02-.28-.04-.32-.05-.31-.08-.41-.2-.36-.39.06-.23.25-.28.61-.18,1,.27,1.27.17,1.45-.55l1.33-5.18c.16-.64.14-.72-.11-.8-.07-.02-.13-.03-.2-.02l-.94.04c-.21,0-.38,0-.51-.02-.17-.03-.27-.18-.23-.32.06-.23.28-.28,1.02-.28,1.51,0,2.36-.05,3.11-.23.1-.03.19-.03.25-.02.17.04.2.18.12.49l-1.69,6.58"/>
          <path id="path1703" class="cls-1" d="M57.5,110.01c-.15,1.52.55,3.02,1.48,3.11.11,0,.25,0,.38-.04.05,0,.11-.02.14-.02.08,0,.16.12.15.21-.03.35-.83.59-1.71.5-1.39-.14-2.47-1.52-2.32-2.99.18-1.75,1.82-3.05,3.62-2.87,2.02.2,3.41,2.04,3.19,4.21-.22,2.17-1.88,4.19-4.34,5.26-.59.26-1.3.46-2.31.69-.14.02-.25.04-.35.03-.16-.02-.27-.14-.25-.3.02-.15.11-.21.54-.31,2.4-.55,4.39-2.85,4.64-5.36.19-1.89-.52-3.61-1.52-3.71-.71-.07-1.25.57-1.35,1.6"/>
          <path id="path1705" class="cls-1" d="M68.06,111.5c.05-.12.19-.6.27-.89.06-.22.07-.28.06-.37,0-.11-.06-.15-.24-.14l-3.71.3c-.35.03-.6.07-.69.07-.17.03-.31.07-.37.07-.17,0-.25-.13-.27-.47,0-.02-.02-.28-.06-.63-.02-.12-.05-.44-.07-.6-.03-.5-.02-.53.21-.54.08,0,.24,0,.38,0,.63.05,1.13.05,1.77,0l4.46-.36c.32-.02.37-.02.38.1,0,.12.02.09-.24.76-.07.15-.09.22-.09.22l-.35.84-.34.84-.34.84c-.36.87-.89,2.29-1.54,4.15-.22.63-.4,1.13-.49,1.43-.18.57-.19.58-.38.6h-.16c-.06,0-.09,0-.09,0-.25.02-.27.02-.3-.08,0,0,0-.02,0-.07,0-.06,0-.15.03-.2l2.15-5.89"/>
          <path id="path1707" class="cls-1" d="M76.61,113.81c.17.68.26.72,1.1.63.16,0,.27.05.31.21.05.21-.1.35-.44.44l-2.11.42c-.08.02-.45.14-1,.32-.14.03-.33.09-.4.11-.3.08-.44.03-.48-.17-.06-.23.02-.29.59-.5.41-.14.53-.38.41-.86l-.25-1c-.09-.38-.11-.39-.48-.3l-2.76.68c-.51.13-.48.15-.62-.42-.03-.11,0-.24.09-.45l3.05-7.21c.14-.33.21-.38.73-.51.1-.02.2,0,.22.04.03.05-.05.21-.38.86-.55,1.11-1.01,2.1-1.39,2.99l-1.12,2.67c-.4.93-.32.74-.37.9-.05.14-.06.15-.05.19.02.07.09.07.3.02l2.06-.51c.39-.1.41-.13.32-.51l-.47-1.89c-.1-.42-.09-.45.08-.59.02-.02.05-.03.07-.04.77-.49.66-.44,1.17-.71.14-.06.22-.12.28-.15.03-.02.05-.02.08-.03.08-.02.11,0,.14.15l.69,2.79c.09.34.14.37.44.3l.83-.21q.25-.06.35.35c.08.31.06.38-.21.44l-.8.19c-.28.07-.31.12-.24.42l.24.96"/>
          <path id="path1709" class="cls-1" d="M42.14,107.11l-5.22-.05-2.59-4.54,5.22.04,2.59,4.54"/>
          <path id="path1711" class="cls-1" d="M83.24,107.11l5.23-.05,2.58-4.54-5.22.04-2.59,4.54"/>
        </g>
      </g>
    </g>
  </g>
</svg>