<?xml version="1.0" encoding="UTF-8"?>
<svg id="Calque_2" data-name="Calque 2" xmlns="http://www.w3.org/2000/svg" viewBox="0 0 117.33 134.35">
  <defs>
    <style>
      .cls-1 {
        fill: #002f67;
      }

      .cls-1, .cls-2, .cls-3 {
        stroke-width: 0px;
      }

      .cls-2 {
        fill: #c30140;
      }

      .cls-3 {
        fill: #fff;
      }
    </style>
  </defs>
  <g id="Calque_1-2" data-name="Calque 1">
    <g>
      <path class="cls-3" d="M58.63,134.35c-.69,0-1.38-.19-1.98-.58l-1.28-.82c-5.35-3.44-10.43-7.24-15.09-11.29-4.43-3.84-8.51-7.93-12.14-12.15-6.98-8.13-12.74-17.23-17.12-27.05-2.73-6.12-4.99-12.71-6.73-19.58-.81-3.21-1.5-6.4-2.05-9.5-.71-4.01-1.27-8.18-1.67-12.39-.02-.21-.02-.41,0-.62-.38-4.74-.57-9.68-.57-14.7v-1.01c0-1.04.44-2.03,1.21-2.72l.75-.68C11.88,12.31,23.89,6.05,37.67,2.64c4.87-1.2,12.47-2.64,20.97-2.64s16.14,1.44,21.01,2.64c13.78,3.41,25.8,9.67,35.71,18.63l.75.68c.77.7,1.21,1.68,1.21,2.72v1.01c0,5.83-.26,11.52-.76,16.93-.02.22-.06.44-.12.65-.37,3.45-.85,6.85-1.43,10.12-.78,4.38-1.79,8.76-2.99,13.02-1.58,5.59-3.53,11-5.79,16.07-4.38,9.82-10.14,18.92-17.12,27.05-1.87,2.18-3.88,4.34-5.96,6.42-.03.03-.07.07-.1.1-6.19,6.16-13.32,11.87-21.17,16.92l-1.27.82c-.6.39-1.29.58-1.99.58Z"/>
      <g>
        <g id="g7615">
          <g id="g4721">
            <path id="path4620" class="cls-2" d="M58.65,3.67c-8.14,0-15.42,1.38-20.09,2.53C25.36,9.46,13.88,15.44,4.42,23.99l-.75.68v1.01c0,5.17.2,10.15.6,14.97h-.04c.39,4.16.93,8.17,1.62,12.09h105.56c.6-3.4,1.09-6.89,1.46-10.47h.05c.5-5.32.74-10.84.74-16.59v-1.01l-.75-.68c-9.46-8.54-20.94-14.53-34.13-17.79-4.68-1.16-11.96-2.53-20.09-2.53h-.04Z"/>
            <path id="path4629" class="cls-1" d="M5.85,52.74c1.8,10.13,4.63,19.5,8.52,28.24,4.23,9.5,9.8,18.3,16.55,26.15,7.29,8.49,16.19,16.14,26.44,22.74l1.27.82,1.27-.82c10.25-6.6,19.14-14.25,26.44-22.74,6.75-7.86,12.32-16.66,16.55-26.15,3.9-8.75,6.73-18.1,8.53-28.24H5.85Z"/>
          </g>
          <g id="g4789">
            <path id="path4631" class="cls-2" d="M10.53,52.74c1.62,9.79,4.25,18.82,7.92,27.22,3.84,8.79,8.9,16.94,15.03,24.22,6.62,7.86,14.7,14.95,24.01,21.06l1.15.76,1.15-.76c9.31-6.11,17.38-13.2,24.01-21.06,6.13-7.28,11.18-15.42,15.03-24.22,3.68-8.41,6.31-17.41,7.93-27.22H10.53Z"/>
            <path id="path4633" class="cls-1" d="M58.65,8.36c-7.39,0-14,1.28-18.24,2.35-11.98,3.02-22.4,8.56-30.99,16.47l-.68.63v.93c0,4.79.18,9.4.55,13.86h-.04c.32,3.48.75,6.83,1.3,10.13h96.22c.46-2.8.84-5.7,1.14-8.63h.05c.45-4.93.68-10.04.68-15.36v-.93l-.68-.63c-8.59-7.91-19.02-13.45-30.99-16.47-4.25-1.07-10.86-2.35-18.24-2.35h-.04Z"/>
          </g>
        </g>
        <g id="g4532">
          <path id="path4534" class="cls-3" d="M20.46,36.17c-1.52,1.02-3.38.07-4.38-1.24-1.07-1.39-1.11-3.4.46-4.46.25-.18.52-.3.81-.42-.44-.65-.65-.97-1.09-1.62-.41.13-.8.3-1.15.55-2.49,1.73-2.85,5.18-.98,7.49,1.74,2.15,4.93,3.17,7.35,1.48.28-.2.52-.43.71-.71-.45-.67-.67-1-1.12-1.67-.18.23-.37.44-.6.6h0Z"/>
          <path id="path4536" class="cls-3" d="M23.88,33.87c-1.51-2.5-3.02-5-4.52-7.5-.84.51-1.26.77-2.08,1.3,1.95,3.01,3.9,6.02,5.85,9.02,1.46-.94,2.2-1.39,3.69-2.23-.39-.7-.58-1.05-.98-1.75-.79.44-1.18.67-1.96,1.14h0Z"/>
          <path id="path4538" class="cls-3" d="M28.62,31.26c-.43-.87-.65-1.3-1.08-2.17.71-.35,1.07-.53,1.79-.86-.34-.72-.51-1.08-.84-1.81-.74.34-1.11.52-1.84.89-.42-.84-.63-1.26-1.04-2.09.86-.43,1.29-.64,2.16-1.04-.33-.72-.5-1.09-.83-1.81-1.77.81-2.65,1.25-4.38,2.18,1.7,3.15,3.41,6.31,5.11,9.46,1.49-.81,2.25-1.19,3.78-1.89-.33-.73-.5-1.09-.84-1.81-.8.37-1.2.56-1.98.95Z"/>
          <path id="path4540" class="cls-3" d="M35.52,22.26c-.72-2.32-3.17-2.23-4.99-1.45-.9.36-1.35.54-2.24.94,1.43,3.28,2.86,6.57,4.3,9.85.76-.33,1.14-.49,1.91-.8-.74-1.84-1.11-2.77-1.84-4.61.01,0,.02,0,.03-.01,1.21,1.29,2.39,2.61,3.53,3.96.82-.3,1.23-.44,2.05-.71-1.09-1.37-2.21-2.7-3.37-4.01.84-.92.96-2.05.62-3.16ZM32.6,24.98c-.15.05-.22.08-.37.13-.43-1.07-.64-1.6-1.07-2.66.12-.05.18-.07.29-.12,1.08-.49,1.69-.03,1.96.69.31.83.15,1.58-.81,1.96Z"/>
          <path id="path4542" class="cls-3" d="M41.99,17.26c.16,2.13.34,4.26.54,6.39-.01,0-.02,0-.03,0-.84-1.97-1.71-3.94-2.61-5.89-1.22.31-1.82.48-3.03.84.7,3.53,1.44,7.05,2.22,10.57.84-.27,1.27-.39,2.12-.63-.6-2.52-1.18-5.03-1.75-7.55.01,0,.02,0,.03,0,.02.08.03.12.05.19.4.88.6,1.33.99,2.21.8,1.56,1.56,3.14,2.31,4.72.61-.16.92-.23,1.54-.37-.09-1.72-.15-3.44-.2-5.17-.08-1.07-.12-1.6-.19-2.67.01,0,.02,0,.03,0,.7,2.49,1.38,4.99,2.05,7.48.82-.16,1.24-.24,2.07-.37-.96-3.48-1.95-6.94-3-10.39-1.26.23-1.89.36-3.14.64Z"/>
          <path id="path4544" class="cls-3" d="M51.32,15.59c-2.99.29-3.75,3.52-3.36,6.01.36,2.26,1.74,5.3,4.44,5.03,2.71-.27,3.46-3.51,3.37-5.8-.1-2.52-1.47-5.54-4.46-5.24ZM52.22,24.67c-1.39.13-1.81-2.54-1.91-3.39-.11-.95-.32-3.58,1.21-3.73,1.54-.15,1.84,2.47,1.91,3.43.07.85.17,3.56-1.21,3.7h0Z"/>
          <path id="path4546" class="cls-3" d="M61.7,20.28c-.02.55,0,1.11.11,1.63-.01.01-.02.02-.03.03-.82-2.21-1.71-4.4-2.69-6.55-.91,0-1.37,0-2.28.02.1,3.58.19,7.17.28,10.75.82-.02,1.23-.03,2.04-.02,0-1.97.01-2.96.03-4.93,0-.18,0-.27-.02-.44-.04-.43-.06-.65-.1-1.08.01-.01.02-.02.03-.03.91,2.15,1.74,4.33,2.5,6.55.77.03,1.16.05,1.93.11.25-3.57.51-7.15.77-10.72-.95-.07-1.42-.09-2.37-.13-.08,1.93-.12,2.9-.2,4.83h0Z"/>
          <path id="path4548" class="cls-3" d="M65.17,17.66c.73.06,1.09.1,1.81.18-.32,2.9-.64,5.8-.96,8.7.81.09,1.22.14,2.03.26.41-2.89.82-5.78,1.23-8.67.73.1,1.09.16,1.82.28.14-.79.2-1.18.33-1.97-2.03-.31-4.05-.56-6.09-.77-.07.8-.11,1.19-.17,1.99Z"/>
          <path id="path4550" class="cls-3" d="M78.14,19.94c.92.25,1.38.38,2.29.66.23-.77.35-1.15.58-1.91-1.86-.56-2.79-.81-4.68-1.26-.82,3.49-1.64,6.98-2.47,10.47.8.19,1.2.29,2,.5.47-1.73.7-2.59,1.16-4.31.78.21,1.17.32,1.94.55.23-.77.34-1.14.57-1.91-.8-.24-1.2-.35-2-.57.24-.89.36-1.33.6-2.22Z"/>
          <path id="path4552" class="cls-3" d="M86.14,20.25c-2.82-1.08-4.97,1.43-5.74,3.86-.69,2.2-.79,5.52,1.78,6.5,2.56.98,4.72-1.54,5.68-3.65,1.06-2.33,1.11-5.64-1.72-6.72ZM85.65,26.02c-.33.79-1.45,3.26-2.77,2.75-1.32-.51-.51-3.09-.22-3.89.32-.9,1.31-3.35,2.77-2.79,1.46.56.57,3.04.21,3.93Z"/>
          <path id="path4554" class="cls-3" d="M94.79,24.2c-2.68-1.43-5.15.75-6.22,3.1-.97,2.12-1.43,5.39,1,6.69,2.44,1.3,4.91-.88,6.14-2.88,1.36-2.21,1.76-5.48-.92-6.91ZM93.61,29.87c-.42.74-1.84,3.05-3.11,2.38-1.27-.68-.14-3.14.24-3.9.43-.85,1.72-3.16,3.12-2.42,1.4.75.21,3.11-.26,3.94Z"/>
          <path id="path4556" class="cls-3" d="M99.09,26.87c-.42.68-.63,1.02-1.05,1.69.64.4.96.6,1.6,1.02-1.6,2.44-3.2,4.88-4.8,7.32.71.47,1.07.71,1.77,1.2,1.68-2.39,3.36-4.77,5.04-7.16.63.44.94.67,1.56,1.13.48-.64.72-.96,1.19-1.6-1.71-1.28-3.48-2.48-5.3-3.61h0Z"/>
        </g>
        <g id="g4729">
          <path id="path4566" class="cls-3" d="M82.76,82.21c-.6-.35-2.66-2.03-3.14-2.05-.14-.49-.04-.82-.28-1.19-.65-1.03-1.96-.79-2.89-.31-.21.11-2.16.76-2.41.21.34-.37.68-.74,1.01-1.11-.06-.69-.45-1.62-.76-2.44-.72-1.86-1.21-4.29-1.53-6.48.08-.04.16-.09.24-.14.37-.14.79.29,1.01.45.6.44,1.29.82,2.13,1.05.86.23,2.01-1.01,2.61-1.12-.02-.88-.59-1.65-.87-2.3-.54-1.23-1.01-2.46-1.47-3.7-.1-.27-.21-1.05-.38-1.29-.45-.61-1.03-2.07-1.08-2.65-.1-.01-.21-.02-.31-.04l-1.64.77c-.77-.98-.75-.79-1.36-1.85-.03-.02-.07-.05-.1-.07l-1.83.73.24.94c.14.56.53,1.07.14,1.07-1.26,0-2.52-.02-3.78-.02l-1.88.87,2.37,1.18c0,.37-3.52.07-3.23.28l-.82.65c-.74.58,1.46,2.31,1.09,2.66-.1-.04-1.27-2.92-1.29-3.52.5-.12.63-.42.91-.73,1.32-1.5-.82-3.25-1.47-4.15h-.14l-1.77.76c-.58.02-.19.71-.67.78.06-1.24.65-2.2.66-3.31h-.21c-.21.33-1.37.46-1.65.79l-1.07,3.49c-.73-.96-1.68-1.66-2.34-2.7-.13-.67-.8-1.01-.79-1.35,0-.24,1.03-.68.03-1.47-.26-.2-.68.09-1.08.21l-.44.14c-.16.05.59-1.82.61-4.22.01-1.56.39-3.3.32-3.29-.1.1-.18-.42-.53,1.16-.2.89-.26,2.21-.58,3.43-.32,1.24-.46,2.44-.45,3.15,0,.18-.69.39-.62.78.21,1.17,1.95,2.1,1.96,2.16.37,1.93,1.11,3.06,1.92,4.36.22.34.29.9.63,1.11v.11c-1.17-.12-2.05-.43-3.28-.42l-1.83.71c.13.06.61.75.61.75-.16.05-1.12,1.09-1.29,1.32-1.29,1.75-2.11,4.64-2.06,7.88h5.33c-.17.25-.36.65-.35.87-.7.43-1.8.16-2.58.45-.81.3-2.19.2-3.17.56-1.08.4-2.26.57-3.21.94-.37.12-.74.23-1.12.35-.99.61-2.07,1.12-2.79,1.99-.52.63-.74,1.42-1.22,2.13-.65.94-4.2,2.06-5.93,2.06l-1.88.72c1.48.77,6.27.19,7.98-.34.43-.13,2.33-1.03,2.47-.98.95-.87,2.18-1.58,3.1-2.37.75-.64,1.75-1.78,2.89-1.99-1.68,2.2-.85,5.9-3.66,7.15-.41.18-1.51.45-2.13.28-.31-.09-1.01-.19-1.29-.14l-1.91.74c.19.79,2.02,2,1.81,2.47-.7,1.55-1.37,3.09-3.1,3.83-.07-.01-.14-.02-.21-.04-.29,0-.61.12-.9-.04-.34-.18-.68-.35-1.01-.52h-.1l-1.8.77s.19,1.45.2,1.49c2.73.58,9.11-.64,10.42-1.95.8-.8.03-3.22,1.15-3.73.98-.45,2.23.23,3,.53.81.31,2.98.09,3.66-.14,1.73-.58,2.64-1.93,4.25-2.55,1.1-.08,2.21-.16,3.31-.24,1.3-.22,2.83-.65,4.12-.94.75-.4,1.68-.26,2.41-.59.7-.23,1.39-.46,2.09-.7.86-.46,2.43-.96,3.35-1.15,2.24-.47,4.36-1.63,6.87-.63-.19,1.25-.64,2.93-2.03,2.98l-2.54,3.24c.58-.01,2.95-1.3,3.32-1.59,1.14-.88,3.21-2.21,3.14-4.04.83.29,1.65.58,2.47.87l6.43,4.3c.76,0,1.26-.39,1.87-.64h.07v-.28c-2.76-1.7-5.16-3.58-7.95-5.19h0Z"/>
          <path id="path4558" class="cls-1" d="M51.69,56.6c-.06,0-.12.01-.18.03-.26.26-.19,2.11-.1,2.55.37,1.93,1.11,3.06,1.92,4.36.22.34.29.9.63,1.11v.11c-1.17-.12-2.05-.43-3.28-.42,0,.01-.11.63-.11.63-.23.27-.69.48-1.01.66.13.06-.1.18-.1.18-.16.05-1.12,1.09-1.29,1.32-1.29,1.75-2.11,4.64-2.06,7.88h5.33c-.17.25-.36.65-.35.87-.7.43-1.8.16-2.58.45-.81.3-2.19.2-3.17.56-1.08.4-2.26.57-3.21.94-.37.12-.74.23-1.12.35-.99.61-2.07,1.12-2.79,1.99-.52.63-.74,1.42-1.22,2.13-.65.94-4.2,2.06-5.93,2.06v.18c1.48.77,4.4.74,6.1.21.43-.13,2.33-1.03,2.47-.98.95-.87,2.18-1.58,3.1-2.37.75-.64,1.75-1.78,2.89-1.99-1.68,2.2-.85,5.9-3.66,7.15-.41.18-1.51.45-2.13.28-.31-.09-1.01-.19-1.29-.14h-.1c.11.36.23.72.35,1.08.19.79-.13,1.66-.35,2.13-.7,1.55-1.37,3.09-3.1,3.83-.07-.01-.14-.02-.21-.04-.29,0-.61.12-.9-.04-.34-.18-.68-.35-1.01-.52h-.1c-.54.71-1.09,1.42-1.64,2.13.01.05.03.09.04.14,2.73.58,9.11-.64,10.42-1.95.8-.8.03-3.22,1.15-3.73.98-.45,2.23.23,3,.53.81.31,2.98.09,3.66-.14,1.73-.58,2.64-1.93,4.25-2.55,1.1-.08,2.21-.16,3.31-.24,1.3-.22,2.83-.65,4.11-.94.36.02.72.05,1.08.07.36-.1.94-.48,1.33-.66.7-.23,1.39-.46,2.09-.7.86-.46,2.43-.96,3.35-1.15,2.24-.47,4.36-1.63,6.87-.63-.19,1.25-1.39,1.86-2.79,1.92v3.55c.58-.01,1.16-.55,1.53-.84,1.14-.88,3.21-2.21,3.14-4.04.83.29,1.65.58,2.47.87,1.75.8,4.07,2.34,5.02,3.94.76,0,2.67-.03,3.28-.28h.07v-.28c-2.76-1.7-5.16-3.58-7.95-5.19-.6-.35-2.66-2.03-3.14-2.05-.14-.49-.04-.82-.28-1.19-.65-1.03-1.96-.79-2.89-.31-.21.11-2.16.76-2.41.21.34-.37.68-.74,1.01-1.11-.06-.69-.45-1.62-.76-2.44-.72-1.86-1.21-4.29-1.53-6.48.08-.04.16-.09.24-.14.37-.14.79.29,1.01.45.6.44,1.29.82,2.13,1.05.86.23,2.01-1.01,2.61-1.12-.02-.88-.59-1.65-.87-2.3-.54-1.23-1.01-2.46-1.47-3.69-.1-.27-.21-1.05-.38-1.29-.45-.61-1.03-2.07-1.08-2.65-.1-.01-.21-.02-.31-.04,0,.53-.1,1.72-.56,2.02-.04.13-.03.1-.11.18-.77-.98-1.73-2.21-2.34-3.28-.03-.02-.07-.05-.1-.07-.17.19-.04,2.28.1,2.75-1.78-.01-3.56-.02-5.33-.03v.24c.53.52,1.07,1.04,1.6,1.57-.78.51-2.87.26-4.01.24,0,.37,1.04,2.06,1.33,2.27-.12.93-.88.83-1.39,1.32-.1-.04-1.27-2.92-1.29-3.52.5-.12.63-.42.91-.73,1.32-1.5-.82-3.25-1.47-4.15h-.14c-.25.76-.02,1.85-.18,2.47h-.03c-.31-.48-.68-.91-1.01-1.32-.58.02-.73.32-1.22.38.06-1.24.65-2.2.66-3.31h-.21c-.21.33-.59.54-.87.87-.86,1.01-1.36,2.83-1.05,4.77-.36-.39-.45-.89-.8-1.36-.73-.96-1.37-1.86-2.02-2.89-.37-.59-.72-1.72-1.6-1.67h0ZM59.85,72.23c.2,0,.6.14,1.12.39.39.19.83.37,1.18.47.34.1.83.29,1.28.51.4.19.82.37.92.4.1.03.2.08.21.11.01.03-.58,1.34-1.31,2.91-.74,1.57-1.36,2.87-1.38,2.9-.06.06-.2.02-.28-.08-.03-.04-.08-.18-.1-.32-.03-.14-.11-.38-.19-.52-.16-.31-.2-.67-.12-.98.03-.11.21-.42.39-.7.41-.6.51-.85.48-1.15-.03-.27-.11-.38-.37-.56-.63-.43-1.78-1.56-2.05-2.03-.26-.44-.26-.55-.01-.97.11-.2.22-.36.24-.36ZM60.23,82.89l.27.37c.15.2.49.61.76.92s.59.7.72.88c.25.36.25.41-.01.54-.29.15-.72.14-1.09-.04-.26-.12-.57-.48-.77-.89-.16-.32-.18-.41-.2-.73-.01-.35,0-.38.15-.71l.17-.34h0Z"/>
        </g>
        <g id="g7619">
          <path id="path4583" class="cls-3" d="M78.77,112.35l-20.1,16.13-20.1-16.13c0-11.1,9-20.1,20.1-20.1,11.1,0,20.1,9,20.1,20.1Z"/>
          <path id="path4753" class="cls-1" d="M5.85,52.74c1.8,10.13,4.63,19.5,8.52,28.24,4.23,9.5,9.8,18.3,16.55,26.15,7.29,8.49,16.19,16.14,26.44,22.74l1.27.82,1.27-.82c10.25-6.6,19.14-14.25,26.44-22.74,6.75-7.86,12.32-16.66,16.55-26.15,3.9-8.75,6.73-18.1,8.53-28.24h-4.67c-1.62,9.81-4.25,18.81-7.93,27.22-3.84,8.79-8.9,16.94-15.03,24.22-6.62,7.86-14.7,14.95-24.01,21.06l-1.15.76-1.15-.76c-9.31-6.11-17.38-13.2-24.01-21.06-6.13-7.28-11.18-15.42-15.03-24.22-3.67-8.4-6.3-17.43-7.92-27.22h-4.68Z"/>
        </g>
        <g id="g7607">
          <g id="g7586">
            <path id="path4581" class="cls-1" d="M51.84,100.61l4.22-7.31-.48-.84c-5.1.79-9.56,3.48-12.66,7.32l.48.83h8.44Z"/>
            <path id="path4585" class="cls-1" d="M43.6,115.11l1.18-2.05-4.23-7.31h-.96c-.53,1.37-.91,2.8-1.14,4.3l5.15,5.06Z"/>
            <path id="path4595" class="cls-1" d="M65.41,100.61l-4.22-7.31.48-.84c5.1.79,9.56,3.48,12.66,7.32l-.48.83h-8.44Z"/>
            <path id="path4597" class="cls-1" d="M73.64,115.11l-1.18-2.05,4.23-7.31h.96c.53,1.37.91,2.8,1.14,4.3l-5.15,5.06Z"/>
          </g>
          <g id="g2635">
            <path id="path190" class="cls-1" d="M54.46,107.5c-.13-.54-.4-.88-.67-1.08-.34-.2-.67-.2-1.01-.2-1.95,0-2.76,1.95-2.83,3.57h.07c.74-1.14,1.95-1.48,3.3-1.48,2.56,0,4.58,2.09,4.58,4.65,0,3.37-2.56,5.18-5.65,5.18-4.17,0-5.65-3.57-5.65-7.14,0-3.97,1.88-7.34,6.19-7.34,2.22,0,3.97.94,4.65,2.96.13.27-2.96.88-2.96.88h0ZM52.31,115.31c1.41,0,2.36-1.01,2.36-2.15,0-1.35-.88-2.36-2.42-2.36-1.28,0-2.22,1.08-2.22,2.36.07,1.21.94,2.15,2.29,2.15Z"/>
            <path id="path192" class="cls-1" d="M63.82,109.31c.34,0,.61.07.94,0,1.01,0,2.29-.27,2.29-1.48,0-.94-.94-1.41-2.02-1.41-1.41,0-2.22.74-2.15,2.02,0,0-3.1-1.01-3.03-1.41.61-2.22,2.63-3.37,5.18-3.37,2.42,0,5.25,1.01,5.25,3.9,0,1.21-.67,2.56-1.95,2.76v.07c1.62.4,2.42,1.55,2.42,3.23,0,3.16-2.89,4.51-5.72,4.51s-5.45-1.35-5.72-4.31c0-.34,3.16-.94,3.16-.94-.07,1.68.81,2.49,2.56,2.49,1.14,0,2.29-.54,2.29-1.75,0-1.55-1.14-1.95-2.49-1.95-.34,0-.61,0-.94.07v-2.42h-.07Z"/>
          </g>
        </g>
      </g>
    </g>
  </g>
</svg>