<svg width="14" height="14" viewBox="0 0 14 14" fill="none" xmlns="http://www.w3.org/2000/svg">
<path d="M0.873466 6.125L8.83116 6.14086L6.80912 4.11906C6.46729 3.77754 6.46701 3.22328 6.80885 2.88148C7.15069 2.53969 7.70474 2.53941 8.04657 2.88121L10.3095 5.14391C11.3348 6.16902 11.3348 7.83098 10.3095 8.85609L8.04657 11.1188C7.70474 11.4603 7.15069 11.4603 6.80885 11.1185C6.46701 10.7767 6.46729 10.2227 6.80912 9.88094L8.80025 7.89059L0.873466 7.87473C0.390246 7.87363 -0.000815392 7.48125 4.76837e-06 6.99809C0.000825882 6.51492 0.393528 6.12391 0.876748 6.12473H0.873193L0.873466 6.125Z" fill="black"/>
<path d="M9.3327 12.25H12.0111C12.1426 12.2497 12.2492 12.1431 12.2495 12.0113V1.98844C12.2492 1.85691 12.1426 1.75027 12.0111 1.75H9.3327C8.84947 1.75 8.45759 1.35816 8.45759 0.875C8.45759 0.391836 8.84947 0 9.3327 0H12.0111C13.109 0.00136719 13.9986 0.890859 14 1.98844V12.0113C13.9986 13.1091 13.109 13.9986 12.0111 14H9.3327C8.84947 14 8.45759 13.6082 8.45759 13.125C8.45759 12.6418 8.84947 12.25 9.3327 12.25Z" fill="black"/>
</svg>
