<svg width="20" height="21" viewBox="0 0 20 21" fill="none" xmlns="http://www.w3.org/2000/svg">
<path d="M9.95654 0C7.49922 0.00776157 5.13039 0.91276 3.29401 2.54424L2.1779 1.42813C1.85036 1.10059 1.32102 1.10214 0.99348 1.42813C0.836697 1.58491 0.748215 1.79758 0.748215 2.01956V5.85843C0.748215 6.32102 1.12232 6.69513 1.58491 6.69513H5.42378C5.88637 6.69513 6.26048 6.31947 6.26048 5.85843C6.26048 5.63645 6.172 5.42378 6.01521 5.267L5.0652 4.31698C8.22881 1.61441 12.9835 1.98851 15.6861 5.15213C16.9 6.57249 17.5427 8.39336 17.4884 10.2623C17.3688 14.421 13.9025 17.6964 9.74387 17.5768C6.09128 17.4728 3.03943 14.7609 2.50699 11.1456C2.42627 10.5185 1.89382 10.0481 1.26203 10.0435C0.574356 10.0357 0.00931388 10.5852 0 11.2744C0 11.3288 0.00155231 11.3831 0.00776157 11.4359C0.729587 16.543 5.19714 20.2779 10.3524 20.0807C15.5681 19.8292 19.7408 15.6566 19.9922 10.4409C20.2065 4.89134 15.8802 0.220428 10.3306 0.00776157C10.2065 0.00310463 10.0807 0 9.95654 0Z" fill="black"/>
<path d="M9.53744 5.85849C8.84355 5.85849 8.28162 6.42042 8.28162 7.11431V10.7079C8.28162 11.1519 8.45858 11.5772 8.77215 11.8908L10.2732 13.3919C10.7715 13.8731 11.5663 13.8591 12.0491 13.3608C12.5194 12.8749 12.5194 12.1034 12.0491 11.616L10.7933 10.3602V7.11275C10.7933 6.41887 10.2313 5.85693 9.53744 5.85693V5.85849Z" fill="black"/>
</svg>
