<svg width="20" height="20" viewBox="0 0 20 20" fill="none" xmlns="http://www.w3.org/2000/svg">
<path d="M17.0833 12.4987H10.4163C8.80758 12.4987 7.49962 13.8066 7.49962 15.4154C7.49962 17.0241 8.80758 18.3321 10.4163 18.3321H17.0833C18.692 18.3321 20 17.0241 20 15.4154C20 13.8066 18.692 12.4987 17.0833 12.4987ZM17.0833 16.6649H13.333V14.1658H17.0833C17.7725 14.1658 18.3328 14.7261 18.3328 15.4154C18.3328 16.1046 17.7725 16.6649 17.0833 16.6649ZM10.4163 7.49885H17.0833C18.692 7.49885 20 6.19089 20 4.58215C20 2.97342 18.692 1.66546 17.0833 1.66546H10.4163C8.80758 1.66546 7.49962 2.97342 7.49962 4.58215C7.49962 6.19089 8.80758 7.49885 10.4163 7.49885ZM15.8338 3.33263H17.0833C17.7725 3.33263 18.3328 3.89294 18.3328 4.58215C18.3328 5.27137 17.7725 5.83168 17.0833 5.83168H15.8338V3.33263ZM0.834361 2.49904C0.834361 1.12062 1.9567 0 3.33341 0C4.71011 0 5.83245 1.12234 5.83245 2.49904C5.83245 3.87575 4.71011 4.99809 3.33341 4.99809C1.9567 4.99809 0.834361 3.87575 0.834361 2.49904ZM6.61447 8.04025C6.71072 8.29634 6.67463 8.58165 6.51822 8.80681C6.36182 9.03196 6.10573 9.16603 5.83245 9.16603H0.834361C0.561082 9.16603 0.30499 9.03196 0.148585 8.80681C-0.00782003 8.58165 -0.0421948 8.29634 0.0523358 8.04025C0.547332 6.72026 1.8656 5.83339 3.33341 5.83339C4.80121 5.83339 6.11948 6.72026 6.61447 8.04025ZM3.33341 15.8313C1.95498 15.8313 0.834361 14.709 0.834361 13.3322C0.834361 11.9555 1.9567 10.8332 3.33341 10.8332C4.71011 10.8332 5.83245 11.9555 5.83245 13.3322C5.83245 14.709 4.71011 15.8313 3.33341 15.8313ZM6.61447 18.8717C6.71072 19.1278 6.67463 19.4131 6.51822 19.6383C6.36182 19.8634 6.10573 19.9975 5.83245 19.9975H0.834361C0.561082 19.9975 0.30499 19.8634 0.148585 19.6383C-0.00782003 19.4131 -0.0421948 19.1278 0.0523358 18.8717C0.547332 17.5517 1.8656 16.6649 3.33341 16.6649C4.80121 16.6649 6.11948 17.5517 6.61447 18.8717Z" fill="black"/>
</svg>
