<svg width="47" height="48" viewBox="0 0 47 48" fill="none" xmlns="http://www.w3.org/2000/svg">
<path d="M29.9379 8.12231C29.658 7.6274 29.38 7.39632 29.1225 7.31461C28.7709 7.20301 28.2448 7.30432 27.4185 7.88989C26.0883 8.83747 24.8917 9.88825 24.0122 11.2121C23.8559 11.4507 23.694 11.6765 23.5211 11.8528C23.3499 12.0272 23.1241 12.1988 22.8334 12.2479C22.5246 12.3 22.2445 12.1981 22.0073 12.0293C21.7797 11.8674 21.5631 11.6253 21.3461 11.3274C20.353 9.97694 19.2415 8.74544 17.8092 7.92179L17.8091 7.92177C16.8909 7.39372 16.2849 7.33426 15.8852 7.49842C15.4856 7.66257 15.0971 8.13051 14.8157 9.14833C14.3671 10.7914 14.5869 12.4735 14.837 14.2307L14.8375 14.2343C14.8783 14.5369 14.8938 14.8113 14.8599 15.0476C14.8249 15.2922 14.7301 15.539 14.5148 15.7202C14.3091 15.8934 14.062 15.9474 13.8512 15.964C13.6398 15.9806 13.401 15.9638 13.1586 15.9394L13.1564 15.9392C11.3333 15.7481 9.56097 15.6552 7.84192 16.0562L7.83878 16.0569C7.03125 16.2398 6.6543 16.535 6.499 16.8463C6.34055 17.164 6.33191 17.6582 6.6399 18.4269C7.32479 20.1253 8.69054 21.2524 10.1944 22.3971C10.4951 22.624 10.7451 22.8532 10.9183 23.0945C11.096 23.3423 11.2104 23.629 11.1848 23.9489C11.1596 24.2622 11.0062 24.526 10.8144 24.7449C10.6239 24.9622 10.3679 25.1671 10.0742 25.3685C8.75314 26.2836 7.60897 27.3893 6.86061 28.7974L6.8605 28.7976C6.39369 29.6749 6.35714 30.2106 6.50669 30.5574C6.65881 30.9101 7.08475 31.2596 8.03448 31.5534L8.03451 31.5534C9.62068 32.0442 11.2058 31.8632 12.9243 31.6415L12.9254 31.6413C13.2149 31.6046 13.502 31.5823 13.7629 31.6031C14.023 31.6238 14.304 31.6907 14.5398 31.8739C15.0434 32.2652 15.0708 32.9434 14.9396 33.6768C14.6324 35.4255 14.621 37.1804 15.271 38.8243C15.6131 39.6898 15.9221 40.0302 16.2086 40.1396C16.4884 40.2464 16.9357 40.2027 17.7604 39.7522L17.7617 39.7515C19.3056 38.9141 20.4668 37.6038 21.5324 36.1263L21.5334 36.125C21.6922 35.9063 21.8591 35.7028 22.0395 35.547C22.2206 35.3905 22.45 35.252 22.7304 35.2268C23.0201 35.2007 23.2795 35.3026 23.5007 35.4624C23.7145 35.617 23.9147 35.8404 24.1111 36.1098C25.2699 37.689 26.6232 39.049 28.3859 39.8613C28.9726 40.1259 29.3615 40.1285 29.6244 40.0154C29.8878 39.9022 30.1618 39.6138 30.3828 38.9819C30.989 37.2459 31.004 35.4242 30.6676 33.6513L29.9379 8.12231ZM29.9379 8.12231L30.2611 8.84839C30.5918 9.59122 30.6848 10.3882 30.6728 11.2463C30.6648 11.8104 30.6141 12.3633 30.5613 12.9384C30.5316 13.2624 30.5012 13.5934 30.4774 13.9374L30.4773 13.9402C30.457 14.2598 30.4542 14.562 30.4942 14.8266C30.5341 15.0906 30.6238 15.368 30.8314 15.5857C31.0482 15.813 31.332 15.9118 31.6299 15.9333C31.917 15.9539 32.2439 15.9057 32.6034 15.8155M29.9379 8.12231L32.6034 15.8155M32.6034 15.8155C34.1318 15.4333 35.7258 15.5328 37.3299 15.8467C38.2157 16.0238 38.7044 16.4117 38.9074 16.8463C39.1103 17.2807 39.0937 17.9029 38.6616 18.6924C37.8953 20.0774 36.6875 21.0679 35.4049 22.1197C35.2731 22.2279 35.1404 22.3367 35.0074 22.4466C34.5855 22.794 34.2101 23.2186 34.2425 23.7539C34.2739 24.2737 34.6805 24.6548 35.0807 24.9504C36.6878 26.1439 38.1273 27.3276 38.8705 29.1365C39.1191 29.7509 39.1173 30.1476 39.0018 30.4197C38.8861 30.692 38.603 30.9656 37.9983 31.2105C36.3538 31.8722 34.6605 31.7088 32.8197 31.5004L32.8181 31.5002C32.5164 31.467 32.2125 31.4418 31.9378 31.4569C31.666 31.4719 31.366 31.5284 31.1109 31.7062C30.5462 32.0997 30.5106 32.827 30.6675 33.651L32.6034 15.8155Z" fill="#F3F5B2" stroke="black"/>
</svg>
