<svg width="75" height="75" viewBox="0 0 75 75" fill="none" xmlns="http://www.w3.org/2000/svg">
<path d="M37.6903 62.9749C37.8526 57.6214 39.177 52.9025 41.7192 49.0175C44.2632 45.1298 48.0084 42.1053 52.9639 40.116L52.9639 40.116C55.3577 39.1554 57.9489 38.717 60.5614 38.4415C61.7625 38.3149 62.9754 38.222 64.178 38.13C64.2839 38.1219 64.3897 38.1138 64.4955 38.1057C65.8048 38.0052 67.1006 37.9021 68.372 37.7534C69.8644 37.5774 71.4107 37.6242 72.9149 37.6697C73.4089 37.6847 73.8984 37.6995 74.38 37.7062C74.3773 37.5614 74.375 37.4161 74.3733 37.2706C73.2288 37.2736 72.0804 37.2859 70.9296 37.2982C68.0934 37.3286 65.2428 37.3592 62.4009 37.2496L62.4006 37.2496C48.5533 36.7096 38.0676 26.2125 37.7003 12.5836C37.6551 10.9204 37.6551 9.25624 37.6589 7.59887C37.6592 7.44824 37.6596 7.29767 37.66 7.14716C37.6629 5.96219 37.6658 4.78104 37.6537 3.60185C37.3925 6.05508 37.3677 8.49604 37.3427 10.961C37.3388 11.3455 37.3349 11.7305 37.3301 12.1162L37.3301 12.1164C37.1567 25.6069 26.903 36.4138 13.4292 37.1992C11.14 37.336 8.81558 37.3228 6.51096 37.3097C5.10635 37.3017 3.70908 37.2938 2.3316 37.3199C2.00575 37.3288 1.67103 37.3879 1.3098 37.4691C1.1825 37.4977 1.04459 37.531 0.902066 37.5654C0.786042 37.5933 0.666962 37.6221 0.548061 37.6496C0.54609 37.6753 0.544128 37.7011 0.542163 37.727C1.39329 37.721 2.24734 37.7091 3.1028 37.6972C12.4789 37.5667 22.0239 37.4338 29.7303 44.9931L29.7303 44.9931C37.6026 52.7176 37.484 62.4158 37.3675 71.9352C37.3575 72.7542 37.3475 73.5718 37.3426 74.3868C37.3853 74.3834 37.4278 74.38 37.4702 74.3766L37.4705 74.3766C37.5372 74.3713 37.6035 74.366 37.6697 74.3607C37.6677 73.2904 37.6592 72.2165 37.6507 71.1407C37.6292 68.4237 37.6075 65.6937 37.6903 62.9749ZM37.6903 62.9749C37.6903 62.9748 37.6904 62.9748 37.6904 62.9748L38.1901 62.99L37.6903 62.9749Z" fill="#CCCCFF" stroke="black"/>
</svg>
