<?xml version="1.0" encoding="UTF-8"?>
<svg id="Calque_2" data-name="Calque 2" xmlns="http://www.w3.org/2000/svg" viewBox="0 0 126 126">
  <defs>
    <style>
      .cls-1, .cls-2, .cls-3, .cls-4, .cls-5 {
        stroke-width: 0px;
      }

      .cls-2 {
        fill: #dc2f34;
      }

      .cls-3 {
        fill: #004996;
      }

      .cls-4 {
        fill: #009fe3;
      }

      .cls-5 {
        fill: #fff;
      }
    </style>
  </defs>
  <g id="Calque_1-2" data-name="Calque 1">
    <g>
      <path class="cls-5" d="M63,126C28.26,126,0,97.74,0,63S28.26,0,63,0s63,28.26,63,63-28.26,63-63,63Z"/>
      <g id="g10">
        <g id="g6884">
          <g id="g6873">
            <path id="path6869" class="cls-1" d="M63,4C30.47,4,4,30.47,4,63s26.47,59,59,59,59-26.47,59-59S95.53,4,63,4"/>
            <path id="path6871" class="cls-5" d="M63,4.44C30.71,4.44,4.44,30.71,4.44,63s26.27,58.56,58.56,58.56,58.56-26.27,58.56-58.56S95.29,4.44,63,4.44"/>
            <circle id="path5895" class="cls-4" cx="63" cy="63" r="55.52"/>
          </g>
          <path id="rect6049" class="cls-2" d="M19.79,28.1c-6.11,7.58-10.12,16.62-11.63,26.23l74.82,60.53c9.07-3.51,17.06-9.33,23.17-16.9L19.79,28.1Z"/>
          <g id="g6017">
            <path id="path198" class="cls-5" d="M23.4,90.78l-.85-1.26,2.28-.61-1.43,1.87h0ZM26.04,87.48l-6.33,1.59.7,1.03,1.11-.3,1.22,1.8-.69.91.7,1.03,3.82-5.29-.53-.78Z"/>
            <path id="path200" class="cls-5" d="M28.94,91.38l-.78-.91-4.65,3.99,2.58,3.02.81-.7-1.81-2.11,3.84-3.29h0Z"/>
            <path id="path202" class="cls-5" d="M31.72,98.59c-.02-.37-.17-.71-.52-1.15l-.46-.58c-.16-.2-.24-.39-.25-.55-.01-.18.06-.32.18-.44.29-.31.75-.36,1.21.08.3.28.61.64.63,1.17l1.06-.03c-.04-.73-.34-1.3-.95-1.88-.96-.91-2.08-.9-2.83-.11-.36.38-.53.77-.51,1.18.02.38.18.75.52,1.18l.45.58c.2.24.25.36.26.53,0,.18-.07.35-.21.5-.34.36-.8.3-1.32-.19-.41-.38-.7-.84-.72-1.38l-1.1.03c.02.86.4,1.49,1.08,2.12.94.89,2.11,1.07,2.93.2.38-.4.57-.82.54-1.26"/>
            <path id="path204" class="cls-5" d="M34.63,102.16l-1.22-.91,1.96-1.32-.74,2.23ZM36.05,98.18l-5.45,3.57,1,.75.95-.65,1.75,1.3-.36,1.09,1,.75,1.88-6.25-.75-.56h0Z"/>
            <path id="path206" class="cls-5" d="M41.71,104.07c.45-1.22.03-2.23-.96-2.81-.61-.36-1.17-.42-1.74-.27-.84.22-1.19.81-1.78,1.82-.59,1.01-.93,1.61-.71,2.44.15.57.48,1.03,1.09,1.39.98.58,2.08.46,2.91-.54l-1.05-.61c-.36.37-.82.53-1.33.23-.28-.16-.45-.4-.5-.66-.06-.34.02-.64.61-1.65.59-1.01.81-1.23,1.13-1.34.25-.09.54-.05.82.11.51.3.59.78.45,1.27l1.05.62h0Z"/>
            <path id="path208" class="cls-5" d="M40.88,108.37l3.69,1.64.43-.98-2.6-1.15.6-1.36,2.21.98.43-.98-2.21-.98.59-1.31,2.59,1.15.43-.98-3.69-1.64-2.48,5.6h0Z"/>
            <path id="path210" class="cls-5" d="M34.46,23.3l.93-.64c.43-.3.9-.22,1.18.17.27.39.18.86-.25,1.16l-.93.64-.92-1.33h0ZM37.34,27.46l-1.39-2.01.71-.49,2.38,1.33,1.14-.79-2.63-1.4c.36-.51.49-1.25,0-1.96-.58-.84-1.68-1.12-2.7-.41l-1.97,1.37,3.49,5.04.98-.68h0Z"/>
            <path id="path212" class="cls-5" d="M42.4,21.96l-1.35.71-.35-2.33,1.7,1.63ZM41.39,24.84l-.18-1.13,1.93-1.01.83.79,1.1-.58-4.83-4.39-.83.44.87,6.46,1.1-.58Z"/>
            <path id="path214" class="cls-5" d="M45.73,22.04c.54.24,1.11.27,1.76.02,1.06-.41,1.66-1.33,1.41-2.61l-1.13.43c.06.51-.1.97-.65,1.18-.31.11-.6.1-.83-.03-.3-.16-.48-.41-.9-1.51-.42-1.09-.45-1.4-.34-1.73.09-.25.3-.45.6-.57.55-.21.98.02,1.26.44l1.14-.44c-.67-1.11-1.72-1.41-2.79-1.01-.66.25-1.06.65-1.3,1.19-.35.79-.12,1.44.3,2.53.42,1.09.67,1.73,1.46,2.09"/>
            <path id="path216" class="cls-5" d="M51.61,20.67l-1.67-5.89-1.15.33,1.67,5.89,1.15-.33h0Z"/>
            <path id="path218" class="cls-5" d="M54.02,20.08l-.67-3.7,3.06,3.27,1.05-.19-1.09-6.03-1.18.21.67,3.69-3.06-3.26-1.05.19,1.09,6.03,1.18-.21h0Z"/>
            <path id="path220" class="cls-5" d="M59.08,18.72c.44.39.97.6,1.66.56.65-.03,1.21-.23,1.69-.78.43-.49.54-1.01.49-1.9l-.05-.89-2.31.11.05,1.01,1.13-.06v.23c.03.32-.04.6-.22.83-.18.23-.46.37-.84.39-.33.02-.59-.09-.78-.28-.24-.25-.32-.54-.38-1.71-.06-1.17,0-1.46.21-1.73.17-.21.42-.35.75-.36.61-.03.98.26,1.15.84l1.2-.06c-.21-1.02-.98-1.91-2.4-1.84-.7.03-1.2.29-1.6.73-.58.64-.55,1.33-.5,2.5.06,1.17.1,1.86.74,2.44"/>
            <path id="path222" class="cls-5" d="M68.08,19.52c1.13.13,2.08-.42,2.45-1.67l-1.21-.14c-.18.48-.53.81-1.12.75-.33-.04-.58-.19-.73-.4-.19-.28-.24-.59-.11-1.75.13-1.16.24-1.45.49-1.69.2-.18.48-.27.8-.23.59.06.86.47.92.98l1.21.14c-.08-1.3-.88-2.05-2.01-2.18-.7-.08-1.24.09-1.7.46-.68.54-.76,1.22-.9,2.38-.13,1.16-.2,1.85.34,2.53.37.46.86.75,1.56.83"/>
            <path id="path224" class="cls-5" d="M75.28,19.76l-2.71-.62,1.14-4.93-1.16-.27-1.38,5.97,3.88.89.24-1.04Z"/>
            <path id="path226" class="cls-5" d="M77.56,21.71c1.19.42,2.41-.06,2.84-1.28l1.34-3.8-1.12-.4-1.32,3.76c-.24.66-.77.92-1.38.71-.61-.21-.86-.75-.63-1.41l1.33-3.76-1.13-.4-1.34,3.8c-.43,1.23.23,2.36,1.41,2.78"/>
            <path id="path228" class="cls-5" d="M84.1,21.67c.49.24.56.66.38,1.03s-.57.56-1.05.32l-1.11-.56.68-1.35,1.11.56ZM84.1,18.89l1.04.53c.45.23.58.61.39.99-.19.38-.57.5-1.03.28l-1.05-.53.64-1.26h0ZM83.05,24.02c.98.49,1.95.29,2.47-.74.37-.73.12-1.29-.14-1.61.34,0,.94-.18,1.24-.79.47-.94.15-1.85-.92-2.39l-2.2-1.1-2.75,5.47,2.29,1.15h0Z"/>
            <path id="path230" class="cls-5" d="M91.22,23.07l.74.54c.33.24.48.52.5.84.02.35-.19.67-.76,1.45-.57.78-.82,1.07-1.16,1.15-.31.08-.62.01-.95-.23l-.73-.54,2.37-3.21h0ZM91.06,28.13c.62-.2,1-.7,1.6-1.51.6-.82.97-1.33.98-1.98,0-.75-.29-1.32-.96-1.82l-1.78-1.31-3.63,4.93,1.78,1.31c.67.5,1.31.61,2.02.38"/>
            <path id="path232" class="cls-5" d="M94.57,32.53l.73-.78-2.07-1.94,1.02-1.09,1.76,1.66.73-.78-1.76-1.66.99-1.05,2.07,1.95.73-.78-2.94-2.76-4.2,4.46,2.94,2.76h0Z"/>
            <path id="path234" class="cls-5" d="M99.76,34.82c.16.27.19.4.18.56-.02.18-.12.34-.29.46-.39.3-.84.17-1.28-.39-.34-.44-.56-.94-.49-1.48l-1.09-.14c-.11.85.16,1.53.73,2.26.79,1.02,1.92,1.39,2.86.66.44-.34.69-.72.73-1.16.04-.37-.06-.73-.34-1.22l-.36-.65c-.13-.23-.18-.42-.16-.59.01-.18.11-.3.24-.4.33-.26.8-.24,1.19.27.25.32.5.73.44,1.25l1.06.14c.08-.73-.13-1.34-.65-2-.81-1.05-1.91-1.22-2.78-.55-.41.32-.64.68-.68,1.09-.04.38.06.78.33,1.25l.36.65h0Z"/>
            <path id="path236" class="cls-5" d="M100.09,39.64l.63,1.02,4.31-2.64.84,1.36.91-.56-2.3-3.75-.91.56.83,1.37-4.31,2.64h0Z"/>
            <path id="path238" class="cls-5" d="M107.02,41.7l.47,1.03c.22.48.06.93-.37,1.13-.43.2-.88.03-1.1-.45l-.47-1.03,1.47-.68ZM102.42,43.83l2.22-1.03.36.78-1.72,2.11.58,1.26,1.83-2.35c.44.45,1.15.7,1.93.34.93-.43,1.39-1.46.87-2.59l-1.01-2.18-5.56,2.57.5,1.09h0Z"/>
            <path id="path240" class="cls-5" d="M108.87,48.37l-1.9,1.39-.46-1.45,2.36.06h0ZM104.31,48.27l1.14.03.66,2.07-.92.68.38,1.19,5.15-4-.28-.89-6.52-.26.38,1.19h0Z"/>
            <path id="path242" class="cls-5" d="M109.85,51.69c-.51.1-.88.32-1.1.66-.21.32-.3.71-.27,1.26l.03.74c.01.31-.01.44-.1.58-.1.15-.26.24-.46.28-.48.09-.83-.23-.96-.93-.11-.55-.08-1.09.23-1.54l-.91-.61c-.49.71-.54,1.44-.37,2.35.25,1.27,1.09,2.1,2.26,1.88.54-.1.95-.33,1.18-.71.2-.31.28-.68.25-1.24l-.03-.74c-.01-.26.04-.45.12-.59.1-.15.24-.22.4-.25.41-.08.82.15.94.77.08.4.11.87-.18,1.31l.88.6c.4-.61.49-1.25.33-2.08-.25-1.3-1.16-1.95-2.23-1.74"/>
            <path id="path244" class="cls-5" d="M109.2,58.66l.09,1.25c.04.54-.28.82-.69.85-.41.03-.77-.2-.81-.74l-.09-1.24,1.5-.11ZM111.68,58.48l.08,1.17c.04.5-.23.81-.65.84-.42.03-.73-.23-.76-.74l-.09-1.17,1.41-.1h0ZM106.73,60.21c.08,1.09.75,1.83,1.9,1.74.81-.06,1.17-.56,1.31-.94.17.3.64.71,1.32.66,1.05-.08,1.66-.82,1.58-2.01l-.18-2.45-6.11.44.19,2.56h0Z"/>
            <path id="path246" class="cls-5" d="M111.5,66.22c-.27.21-.57.27-1.74.2s-1.45-.16-1.69-.4c-.19-.18-.31-.46-.29-.79.02-.33.17-.58.38-.75.27-.21.56-.26,1.73-.19,1.17.07,1.46.15,1.7.39.19.19.3.47.28.79-.02.33-.16.59-.37.75M109.95,63.09c-1.17-.07-1.86-.1-2.5.48-.44.39-.7.9-.74,1.6-.04.7.16,1.24.55,1.67.58.64,1.26.7,2.43.77,1.17.06,1.86.09,2.5-.49.44-.39.7-.89.74-1.59.04-.71-.16-1.24-.55-1.68-.58-.65-1.26-.7-2.43-.76"/>
            <path id="path248" class="cls-5" d="M106.1,70.6c-.22,1.24.45,2.37,1.73,2.59l3.97.7.21-1.17-3.93-.69c-.69-.12-1.04-.61-.93-1.25.11-.64.6-.97,1.29-.85l3.93.69.21-1.18-3.97-.7c-1.28-.23-2.29.61-2.51,1.85"/>
            <path id="path250" class="cls-5" d="M108.09,77.19l.33-1.08,1.55.48-.33,1.08c-.16.5-.58.73-1.03.59-.45-.14-.67-.56-.52-1.07M105.13,75.1l2.33.72-.25.82-2.69.42-.41,1.32,2.93-.53c.03.63.38,1.29,1.21,1.54.98.3,2.01-.15,2.38-1.34l.71-2.3-5.85-1.81-.35,1.14Z"/>
            <path id="path252" class="cls-5" d="M106.68,80.21c-1.07-.48-1.7-.76-2.51-.45-.55.21-.98.59-1.26,1.23-.27.6-.35,1.18-.08,1.86.24.6.65.94,1.46,1.3l.81.37.95-2.11-.92-.41-.46,1.03-.2-.09c-.29-.13-.51-.31-.63-.59-.12-.26-.11-.58.04-.92.14-.3.35-.48.61-.56.33-.1.63-.04,1.7.44,1.07.48,1.3.66,1.45.98.1.25.11.54-.02.83-.25.56-.68.75-1.27.64l-.49,1.1c1.01.28,2.15,0,2.74-1.3.29-.64.29-1.2.09-1.75-.31-.81-.93-1.1-2-1.58"/>
          </g>
          <g id="g6878">
            <path id="path256" class="cls-1" d="M19.94,28.47l23.4,20.53c0,.08.02.15.04.22.35,1.49,2.61,2.53,3.7,3.03.16.08.29.14.38.18,1.23.64,2.7,1.59,3.03,2.19.17.31.22.6.14.86-.09.29-.34.53-.72.71-.14.06-.28.09-.46.09-.7,0-2.05-.44-5.31-1.51-1.27-.41-2.83-.93-4.75-1.55-1.89-.61-3.65-.91-5.23-.91-4.48,0-6.12,2.42-6.28,2.67-1.66,2.07-2.58,7.62-1.28,14.43.06.33.13.65.2.98,1.84,8.38,6.48,15.94,13.08,21.28,6.53,5.29,14.76,8.21,23.15,8.21.39,0,.78-.01,1.18-.02,5.36-.17,10.67-1.52,15.44-3.92l2.21-1.11-2.4.63c-.87.23-4.03.98-8.18.98-4.81,0-11.83-1.04-17.91-5.96-6.66-5.39-8.87-12.72-9.59-16.61-1.01-5.46-.34-10.29.89-11.81,1.18-1.45,3.12-1.85,5.19-2.27,2.17-.44,4.41-.9,5.84-2.67h0c1.43-1.77,1.41-4.06,1.4-6.28-.02-2.1-.03-4.09,1.15-5.54,1.3-1.6,6.31-3.33,12.16-3.33,4.61,0,11.38,1.03,17.44,5.93,10.52,8.52,10.43,21.89,10.3,24.48l-.12,2.48.63-2.4c3.68-13.99-1.2-28.91-12.44-38.01-8.99-7.28-18.75-8.37-23.77-8.37-7.32,0-12.89,2.14-14.62,4.26-.29.28-3.75,3.89.68,11.61,1.01,1.76,1.83,3.18,2.5,4.33,2.21,3.8,2.74,4.71,2.59,5.34-.09.36-.33.97-1,.97-.13,0-.27-.03-.41-.07-.66-.2-1.9-1.44-2.77-2.51-.06-.08-.15-.19-.25-.34-.72-.97-2.23-2.99-3.77-2.99-.06,0-.13,0-.19.01l-24.95-18.62c-.05-.04-.3-.2-.36-.2-.08.1-.16.2-.24.29,0,.07.24.26.26.31"/>
            <g id="g6854">
              <path id="path254" class="cls-5" d="M43.85,47.53l.04-.05c.22-.27.46-.47.71-.61l-19.34-14.44,18.14,15.92c.08-.28.23-.55.45-.83"/>
              <path id="path258" class="cls-5" d="M45.41,47.2c-.41,0-.78.2-1.11.62l-.04.04c-.35.43-.46.83-.37,1.24.29,1.24,2.48,2.24,3.41,2.67.17.08.31.15.41.19.28.14,2.7,1.41,3.25,2.39.24.44.3.88.18,1.27-.14.43-.48.78-.99,1.02-.21.1-.43.14-.68.14-.79,0-2.06-.42-5.47-1.54-1.27-.41-2.83-.93-4.75-1.55-1.84-.59-3.54-.89-5.06-.89-4.33,0-5.82,2.41-5.84,2.44l-.02.03c-1.67,2.06-2.55,7.87-.99,14.98,1.81,8.27,6.39,15.72,12.9,20.99,6.44,5.22,14.54,8.09,22.82,8.09,4.9,0,9.81-1.01,14.31-2.92-1.51.26-3.61.51-6.05.51-4.9,0-12.04-1.05-18.24-6.08-5.03-4.08-8.5-10.08-9.77-16.92-1.08-5.81-.3-10.64.99-12.23,1.29-1.6,3.42-2.03,5.48-2.45,2.08-.43,4.24-.87,5.55-2.49,1.31-1.62,1.3-3.82,1.28-5.94-.01-2.1-.03-4.28,1.26-5.88,1.4-1.73,6.49-3.53,12.57-3.53,4.7,0,11.59,1.05,17.77,6.05,8.82,7.14,10.32,17.63,10.5,22.58,2.57-13.12-2.3-26.73-12.78-35.21-8.87-7.18-18.49-8.25-23.44-8.25-7.17,0-12.58,2.05-14.22,4.08l-.03.03s-3.54,3.48.76,10.99c1.01,1.76,1.83,3.18,2.5,4.33,2.41,4.14,2.84,4.89,2.64,5.73-.21.87-.76,1.36-1.51,1.36-.18,0-.37-.03-.56-.09-1.08-.33-2.82-2.44-3.02-2.68-.06-.08-.16-.2-.27-.35-.62-.83-2.07-2.78-3.35-2.78"/>
            </g>
          </g>
          <g id="g6862">
            <path id="path6047" class="cls-1" d="M96.22,72.32c0-12.18-9.91-22.09-22.09-22.09s-22.09,9.91-22.09,22.09,9.91,22.09,22.09,22.09,22.09-9.91,22.09-22.09"/>
            <path id="path260" class="cls-5" d="M74.13,50.85c-11.84,0-21.47,9.63-21.47,21.46s9.63,21.47,21.47,21.47,21.47-9.63,21.47-21.47-9.63-21.46-21.47-21.46h0Z"/>
            <g id="g6858">
              <path id="path262" class="cls-3" d="M86.81,82.64c1.67,0,3.26-.31,5.03-1.97,1.77-1.67,2.18-3.95,2.18-5.07s-.48-3.47-2.04-4.76-4.66-1.97-5.3-2.11c-.65-.14-1.84-.34-1.84-1.92s1.17-2.09,1.84-2.09,1.17.51,1.58.92c.41.41.2,1.89,1.99,1.89s1.79-2.09.41-4.08c-1.38-1.99-3.21-2.09-4.08-2.09s-5.25.51-5.25,5.46,5.1,5.35,6.58,5.76c1.48.41,2.75,1.58,2.75,3.31s-1.68,3.31-3.83,3.31-2.91-1.02-3.21-1.79c-.31-.76-.61-2.29-.87-3.21s-1.74-2.35-1.74-2.35c0,0-5.81-4.49-6.78-5.46.25,0,5.51-.36,5.51-5.56s-6.12-5.46-6.12-5.46h-9.49c-.82,0-1.34.76-1.34,1.53v16.07c0,1.02,1.06,1.68,1.83,1.68s1.65-.97,1.65-1.65v-14.28h8.47c.61,0,1.63.75,1.63,2.01s-1.19,2.08-1.9,2.08h-5.78c-.71,0-1.4.92-1.4,1.7s.71,1.39.71,1.39c0,0,6.6,5.07,7.99,6.05-.44.04-7.14,1.67-7.14,8.4s6.05,9.15,7.69,9.15h7.83s1.46-.3,1.46-1.66-1.46-1.63-1.46-1.63h-7.28c-.65,0-4.73-.54-4.73-5.51s5.17-5.41,5.48-5.41,1.16,0,1.94.24c1.02,6.87,5.37,7.11,7.04,7.11"/>
              <path id="path264" class="cls-3" d="M67.09,78.54h-6.17v-6.68l-.43-.43v-3.55l-.95-1.33-.66-6.84-.66,6.84-1.07,1.33v3.52l-.71.71v10s2.79,4.59,6.37,6.33h6.64l.97-.76s-3.32-1.23-3.32-9.13"/>
            </g>
          </g>
        </g>
      </g>
    </g>
  </g>
</svg>