<svg version="1.0" xmlns="http://www.w3.org/2000/svg"
 width="539.000000pt" height="533.000000pt" viewBox="0 0 539.000000 533.000000"
 preserveAspectRatio="xMidYMid meet">
    <g transform="translate(0.000000,533.000000) scale(0.100000,-0.100000)"
    fill="#000000" stroke="none">
        <path d="M2525 5170 c-180 -14 -427 -63 -583 -115 -604 -205 -1116 -649 -1405
        -1220 -175 -346 -277 -766 -277 -1141 0 -99 1 -106 25 -130 30 -30 58 -26 92
        12 22 24 23 34 23 164 0 217 44 492 110 680 133 384 317 686 576 944 186 187
        375 321 619 441 235 116 398 167 685 216 102 18 520 18 625 1 103 -17 222 -41
        260 -52 17 -5 55 -17 85 -26 255 -75 557 -234 770 -405 112 -91 312 -294 392
        -399 121 -160 272 -429 328 -585 98 -272 142 -470 156 -700 8 -132 18 -155 72
        -155 56 0 62 12 62 115 0 228 -76 576 -182 835 -299 728 -935 1278 -1688 1459
        -224 54 -525 78 -745 61z"/>
        <path d="M1750 4390 c-12 -8 -12 -16 4 -61 15 -42 18 -67 12 -138 -6 -82 -24
        -173 -38 -187 -4 -3 -46 -14 -95 -24 -291 -60 -546 -167 -743 -314 -71 -53
        -181 -172 -206 -222 -23 -47 -25 -59 -20 -147 13 -217 21 -257 54 -257 9 0 58
        20 107 44 171 82 314 122 414 113 294 -26 521 -215 552 -458 11 -91 5 -150
        -29 -259 -96 -315 -388 -650 -681 -782 -36 -16 -75 -34 -86 -39 -90 -40 -308
        -61 -418 -39 -85 16 -161 55 -227 117 -161 148 -150 318 35 511 162 172 355
        254 600 254 156 1 211 -18 293 -98 44 -45 62 -70 62 -88 0 -37 26 -33 50 7 55
        89 0 277 -115 393 -85 87 -143 107 -285 101 -180 -7 -332 -76 -487 -221 -159
        -149 -265 -307 -334 -496 -28 -78 -32 -220 -10 -315 48 -199 176 -382 318
        -454 88 -44 135 -55 243 -54 160 0 313 52 489 167 297 194 549 557 648 933 25
        99 28 123 28 278 -1 136 -4 182 -19 230 -61 199 -179 336 -359 417 -108 49
        -315 85 -419 74 -92 -11 -76 6 56 57 28 11 65 23 81 27 17 5 64 17 105 28 96
        26 259 59 331 67 55 7 56 6 82 -29 33 -42 108 -89 130 -80 9 3 35 -7 61 -25
        75 -52 138 -63 319 -55 l158 7 -10 -24 c-5 -13 -37 -82 -71 -154 -34 -71 -77
        -161 -95 -200 -18 -38 -53 -114 -79 -168 -25 -54 -46 -100 -46 -102 0 -1 -18
        -42 -40 -89 -90 -193 -160 -397 -160 -465 0 -59 22 -153 44 -185 40 -62 118
        -81 188 -47 56 27 180 148 281 276 44 55 82 101 86 103 3 1 4 -33 3 -75 -7
        -137 29 -232 106 -282 106 -70 242 -3 479 237 62 62 110 105 106 95 -3 -10 -9
        -22 -14 -28 -4 -5 -47 -91 -97 -190 -186 -372 -211 -468 -153 -588 25 -52 77
        -110 94 -104 5 1 16 25 23 52 25 99 120 315 246 562 294 575 586 960 692 912
        29 -14 42 -57 31 -111 -12 -64 -97 -265 -174 -413 l-78 -149 -77 -27 c-96 -34
        -153 -63 -189 -97 -68 -64 -72 -132 -12 -178 32 -24 41 -26 113 -23 63 3 90
        10 142 36 80 40 158 103 227 184 42 50 65 67 125 93 156 68 364 250 474 413
        31 46 60 83 66 83 15 0 6 -429 -9 -456 -9 -16 -25 -22 -65 -27 -60 -6 -150
        -43 -190 -80 -32 -28 -58 -84 -58 -124 1 -76 81 -168 173 -199 42 -14 58 -15
        103 -5 127 29 205 128 219 277 l7 73 57 6 c129 15 227 56 308 129 60 54 91
        110 73 132 -19 22 -28 18 -97 -46 -90 -84 -212 -140 -307 -140 -42 0 -42 -1
        -25 162 12 116 27 181 58 251 29 67 28 144 -4 210 -26 57 -127 184 -152 194
        -22 9 -39 -18 -65 -101 -27 -88 -60 -149 -156 -295 -91 -138 -165 -218 -268
        -292 -142 -101 -150 -103 -103 -16 76 141 105 381 60 500 -17 43 -70 95 -116
        113 -80 30 -160 3 -257 -85 l-55 -50 5 56 c12 146 -60 283 -149 283 -36 0 -45
        -15 -52 -85 -7 -81 -27 -140 -103 -296 -80 -164 -192 -316 -352 -477 -128
        -129 -213 -196 -297 -238 -47 -22 -60 -25 -81 -15 -33 15 -39 34 -28 89 8 43
        13 49 64 75 160 83 367 290 444 443 33 64 36 75 35 159 -1 91 -9 125 -43 182
        -55 90 -154 71 -302 -58 -88 -75 -182 -185 -246 -287 -29 -46 -74 -115 -99
        -155 -109 -172 -377 -477 -417 -477 -81 0 0 211 357 923 l216 432 35 3 c70 7
        213 -19 277 -50 63 -31 153 -114 153 -141 0 -8 6 -20 14 -26 12 -10 19 -8 35
        8 25 25 25 24 2 88 -60 163 -192 259 -364 264 -37 1 -70 5 -72 9 -2 4 10 42
        27 86 52 132 34 265 -48 347 -67 66 -124 65 -124 -2 0 -25 -19 -95 -40 -146
        -4 -11 -22 -56 -40 -100 -78 -195 -77 -193 -134 -204 -110 -22 -296 -32 -364
        -20 -101 17 -202 71 -202 108 0 18 46 141 81 218 120 264 102 433 -54 523 -54
        31 -126 40 -157 20z m1364 -1607 c15 -37 -41 -149 -131 -261 -65 -82 -185
        -190 -191 -173 -2 7 0 17 6 24 5 7 24 39 42 72 81 147 234 355 261 355 4 0 10
        -7 13 -17z m1511 -623 c11 -17 -51 -134 -89 -167 -86 -76 -189 -11 -125 78 24
        34 61 55 139 80 68 21 67 21 75 9z m-913 -37 c-27 -38 -102 -113 -112 -113
        -16 0 -20 18 -11 44 6 13 34 41 63 60 65 44 87 47 60 9z"/>
        <path d="M4863 1814 c-6 -3 -48 -78 -92 -167 -241 -490 -603 -853 -1083 -1086
        -109 -53 -311 -129 -408 -153 -209 -51 -351 -68 -574 -68 -284 0 -470 30 -724
        115 -351 118 -639 300 -914 578 -143 144 -149 148 -185 145 -46 -4 -69 -40
        -54 -81 14 -37 263 -284 373 -371 587 -462 1342 -631 2054 -460 349 83 661
        235 957 465 191 148 430 419 559 634 98 162 188 349 188 391 0 39 -58 73 -97
        58z"/>
        <path d="M1913 1275 c-29 -21 -32 -51 -4 -35 28 14 74 -4 67 -28 -3 -9 -10
        -44 -15 -76 -6 -33 -18 -67 -27 -77 -14 -16 -15 -23 -4 -49 7 -18 10 -44 5
        -66 -7 -40 2 -154 15 -174 6 -9 12 -9 29 0 21 11 22 15 15 101 l-7 90 39 -6
        c50 -8 100 17 132 65 28 42 26 93 -8 139 -26 37 -19 51 25 51 l33 0 -9 -37
        c-5 -21 -12 -101 -15 -178 -6 -116 -4 -147 9 -177 20 -47 43 -49 82 -8 28 29
        29 54 1 31 -12 -10 -17 -8 -25 8 -18 32 -13 48 17 53 15 3 34 8 43 12 12 5 41
        -14 98 -63 150 -129 212 -162 267 -141 42 16 82 58 95 99 7 20 23 51 37 68 13
        18 34 58 47 89 l23 56 7 -110 c8 -119 13 -136 39 -126 26 10 36 46 36 127 l0
        72 35 -65 c41 -77 94 -130 130 -130 13 0 39 13 57 29 29 26 33 35 36 98 4 69
        -15 199 -44 300 -14 48 -17 52 -35 42 -31 -16 -32 -31 -10 -121 26 -108 43
        -240 35 -272 -19 -77 -98 32 -178 247 -23 61 -34 106 -30 119 7 23 -6 19 -43
        -15 -19 -17 -23 -31 -23 -76 l-1 -56 -19 49 c-24 61 -54 93 -96 105 -76 21
        -162 -34 -203 -129 -32 -73 -47 -180 -35 -239 l10 -50 -65 56 c-36 31 -72 62
        -80 69 -12 11 -10 18 14 46 119 141 39 264 -170 262 -44 0 -97 -6 -119 -12
        -34 -10 -42 -8 -76 14 -49 33 -107 41 -137 19z m437 -94 c48 -24 73 -75 60
        -123 -6 -20 -19 -46 -28 -58 -17 -22 -19 -22 -50 -6 -17 9 -46 16 -64 16 l-34
        0 8 88 c5 48 11 93 14 101 5 16 41 9 94 -18z m327 -2 c8 -8 17 -8 32 1 45 23
        90 -18 111 -102 17 -65 -8 -149 -56 -191 -19 -17 -34 -39 -34 -49 0 -10 -11
        -24 -25 -30 -33 -15 -69 1 -95 44 -36 59 -22 226 26 307 20 34 25 36 41 20z
        m-595 -40 c34 -42 48 -110 28 -134 -14 -17 -50 -12 -89 12 -21 14 -23 19 -17
        66 15 111 27 120 78 56z m623 -378 c-3 -6 -18 -11 -33 -10 l-27 1 30 13 c32
        14 41 13 30 -4z"/>
        <path d="M3381 1253 c-40 -8 -105 -82 -124 -143 -25 -76 -33 -188 -17 -245 23
        -81 91 -116 159 -80 41 21 105 97 136 163 51 106 42 213 -24 276 -29 28 -81
        40 -130 29z m84 -76 c64 -64 68 -150 15 -262 -35 -73 -60 -98 -100 -98 -62 0
        -94 56 -94 168 1 122 46 250 74 205 7 -11 12 -11 32 3 32 22 36 21 73 -16z"/>
    </g>
</svg>
